%TF.GenerationSoftware,KiCad,Pcbnew,5.1.6-c6e7f7d~87~ubuntu18.04.1*%
%TF.CreationDate,2020-08-02T18:29:42+02:00*%
%TF.ProjectId,SKnob,534b6e6f-622e-46b6-9963-61645f706362,1.0*%
%TF.SameCoordinates,Original*%
%TF.FileFunction,Copper,L2,Inr*%
%TF.FilePolarity,Positive*%
%FSLAX46Y46*%
G04 Gerber Fmt 4.6, Leading zero omitted, Abs format (unit mm)*
G04 Created by KiCad (PCBNEW 5.1.6-c6e7f7d~87~ubuntu18.04.1) date 2020-08-02 18:29:42*
%MOMM*%
%LPD*%
G01*
G04 APERTURE LIST*
%TA.AperFunction,ViaPad*%
%ADD10O,1.350000X1.350000*%
%TD*%
%TA.AperFunction,ViaPad*%
%ADD11R,1.350000X1.350000*%
%TD*%
%TA.AperFunction,ViaPad*%
%ADD12O,1.100000X2.200000*%
%TD*%
%TA.AperFunction,ViaPad*%
%ADD13O,1.100000X1.800000*%
%TD*%
%TA.AperFunction,ViaPad*%
%ADD14C,0.600000*%
%TD*%
%TA.AperFunction,Conductor*%
%ADD15C,0.100000*%
%TD*%
G04 APERTURE END LIST*
D10*
%TO.N,GND*%
%TO.C,J3*%
X130500000Y-74500000D03*
D11*
%TO.N,+BATT*%
X130500000Y-76500000D03*
%TD*%
D10*
%TO.N,GND*%
%TO.C,J2*%
X125750000Y-75700000D03*
D11*
%TO.N,+BATT*%
X125750000Y-77700000D03*
%TD*%
D12*
%TO.N,Net-(C1-Pad1)*%
%TO.C,J1*%
X125875000Y-84500000D03*
D13*
X123725000Y-81700000D03*
X123725000Y-87300000D03*
%TD*%
D14*
%TO.N,GND*%
X107000000Y-78000000D03*
X108000000Y-78000000D03*
X104650000Y-79350000D03*
X104300000Y-78200000D03*
X105850000Y-78200000D03*
X106150000Y-80850000D03*
X106900000Y-81600000D03*
X105400000Y-80100000D03*
X109400000Y-75600000D03*
X112500000Y-83000000D03*
X114000000Y-83000000D03*
X117000000Y-83000000D03*
X117000000Y-81500000D03*
X112500000Y-81500000D03*
X112500000Y-80000000D03*
X114000000Y-80000000D03*
X115500000Y-80000000D03*
X117000000Y-80000000D03*
X117000000Y-78500000D03*
X115500000Y-78500000D03*
X114000000Y-78500000D03*
X112500000Y-78500000D03*
X108800000Y-87100000D03*
X112300000Y-88200000D03*
X121100000Y-79700000D03*
X120800000Y-76200000D03*
X119000000Y-75600000D03*
X121750000Y-76250000D03*
X113965000Y-81465000D03*
X115520189Y-81479811D03*
X115520189Y-82979811D03*
X108800000Y-78200000D03*
X122900000Y-82700000D03*
X112400000Y-86700000D03*
X132500000Y-74100000D03*
X133500000Y-74100000D03*
X130600000Y-87000000D03*
X132600000Y-87000000D03*
X123200000Y-77599998D03*
X121600000Y-87000000D03*
X119700000Y-87000000D03*
X117100000Y-88000000D03*
X118900000Y-87000000D03*
X120869478Y-78795509D03*
X112000000Y-75500000D03*
X108700000Y-79580000D03*
X108000000Y-80500000D03*
X107250000Y-79750000D03*
X106500000Y-79000000D03*
X107699998Y-82400000D03*
X103500000Y-72500000D03*
X105500000Y-72500000D03*
X107500000Y-72500000D03*
X103600000Y-78000000D03*
X103600000Y-80000000D03*
X103600000Y-82000000D03*
X103600000Y-84000000D03*
X103600000Y-86000000D03*
X103600000Y-88000000D03*
X104500000Y-88400000D03*
X106500000Y-88400000D03*
X108500000Y-88400000D03*
X126400000Y-88400000D03*
X125000000Y-88400000D03*
X126400000Y-87000000D03*
X126400000Y-82000000D03*
X126400000Y-80750000D03*
X115099981Y-74500007D03*
X152000000Y-72750000D03*
X150000000Y-72750000D03*
X147500000Y-72750000D03*
X145000000Y-72750000D03*
X142500000Y-72750000D03*
X140000000Y-72750000D03*
X137500000Y-72750000D03*
X135000000Y-72750000D03*
X132500000Y-72750000D03*
X130000000Y-72750000D03*
X150000000Y-88250000D03*
X152000000Y-88250000D03*
X147500000Y-88250000D03*
X145000000Y-88250000D03*
X142500000Y-88250000D03*
X140000000Y-88250000D03*
X137500000Y-88250000D03*
X135000000Y-88250000D03*
X132500000Y-88250000D03*
X130000000Y-88250000D03*
X126375000Y-73050000D03*
%TO.N,+BATT*%
X130500000Y-80000000D03*
X130500000Y-79000000D03*
X119800000Y-76200000D03*
X121750000Y-78950000D03*
X149000000Y-78000000D03*
X150000000Y-78000000D03*
X151000000Y-78000000D03*
X152000000Y-78000000D03*
X152000000Y-79000000D03*
X152000000Y-80000000D03*
X152000000Y-81000000D03*
X152000000Y-82000000D03*
X152000000Y-83000000D03*
X151000000Y-83000000D03*
X150000000Y-83000000D03*
X149000000Y-83000000D03*
X133900000Y-78000000D03*
X132900000Y-78000000D03*
X131900000Y-78000000D03*
X133500000Y-83000000D03*
X132500000Y-83000000D03*
X131500000Y-83000000D03*
X130500000Y-83000000D03*
X130500000Y-82000000D03*
X130500000Y-81000000D03*
X112700010Y-72999990D03*
X110991954Y-74491954D03*
X109400002Y-73999996D03*
X119000000Y-77300000D03*
X119539454Y-85029089D03*
X123699994Y-79700000D03*
X107780000Y-86700000D03*
X113899998Y-88400000D03*
X108815008Y-80585000D03*
X110465589Y-78015589D03*
X106200000Y-87200000D03*
%TO.N,+5V*%
X122600000Y-85800000D03*
X120100004Y-82199996D03*
%TO.N,/BOOT*%
X110200000Y-73000000D03*
X116300000Y-76500000D03*
%TO.N,/I2C1_SCL*%
X115520189Y-76520189D03*
X110300000Y-74000000D03*
%TO.N,/I2C1_SDA*%
X114700000Y-76500000D03*
X108500000Y-74000000D03*
%TO.N,/USART1_TX*%
X110400000Y-79600000D03*
%TO.N,/USART1_RX*%
X118100000Y-84800000D03*
%TO.N,/PB2*%
X110400000Y-80400000D03*
%TO.N,/PB0*%
X112800000Y-85200000D03*
%TO.N,/PB1*%
X113600000Y-85200000D03*
%TO.N,/PB5*%
X119200000Y-79100000D03*
%TO.N,/PB6*%
X120125504Y-79100000D03*
%TO.N,/PB7*%
X118989471Y-78057303D03*
%TO.N,/PB3_JTDO-SWO*%
X119008986Y-80050012D03*
%TO.N,/PB4_JTRST*%
X119699996Y-79700000D03*
%TO.N,/JTMS-SWDIO*%
X118972247Y-82526748D03*
%TO.N,/JTCK-SWCLK*%
X119000000Y-81300000D03*
%TO.N,/JTDI*%
X119344652Y-80664296D03*
%TO.N,/WKUP1*%
X113200000Y-76500000D03*
%TO.N,/LPUART1_TX*%
X112250000Y-76500000D03*
%TO.N,/LPUART1_RX*%
X111500000Y-76500000D03*
%TO.N,/BUZZER*%
X114400000Y-85000000D03*
X104800000Y-82000000D03*
%TD*%
D15*
%TO.N,GND*%
G36*
X152700001Y-88700000D02*
G01*
X129300000Y-88700000D01*
X129300000Y-78945830D01*
X129950000Y-78945830D01*
X129950000Y-79054170D01*
X129971136Y-79160429D01*
X130012597Y-79260523D01*
X130072787Y-79350604D01*
X130149396Y-79427213D01*
X130239477Y-79487403D01*
X130269888Y-79500000D01*
X130239477Y-79512597D01*
X130149396Y-79572787D01*
X130072787Y-79649396D01*
X130012597Y-79739477D01*
X129971136Y-79839571D01*
X129950000Y-79945830D01*
X129950000Y-80054170D01*
X129971136Y-80160429D01*
X130012597Y-80260523D01*
X130072787Y-80350604D01*
X130149396Y-80427213D01*
X130239477Y-80487403D01*
X130269888Y-80500000D01*
X130239477Y-80512597D01*
X130149396Y-80572787D01*
X130072787Y-80649396D01*
X130012597Y-80739477D01*
X129971136Y-80839571D01*
X129950000Y-80945830D01*
X129950000Y-81054170D01*
X129971136Y-81160429D01*
X130012597Y-81260523D01*
X130072787Y-81350604D01*
X130149396Y-81427213D01*
X130239477Y-81487403D01*
X130269888Y-81500000D01*
X130239477Y-81512597D01*
X130149396Y-81572787D01*
X130072787Y-81649396D01*
X130012597Y-81739477D01*
X129971136Y-81839571D01*
X129950000Y-81945830D01*
X129950000Y-82054170D01*
X129971136Y-82160429D01*
X130012597Y-82260523D01*
X130072787Y-82350604D01*
X130149396Y-82427213D01*
X130239477Y-82487403D01*
X130269888Y-82500000D01*
X130239477Y-82512597D01*
X130149396Y-82572787D01*
X130072787Y-82649396D01*
X130012597Y-82739477D01*
X129971136Y-82839571D01*
X129950000Y-82945830D01*
X129950000Y-83054170D01*
X129971136Y-83160429D01*
X130012597Y-83260523D01*
X130072787Y-83350604D01*
X130149396Y-83427213D01*
X130239477Y-83487403D01*
X130339571Y-83528864D01*
X130445830Y-83550000D01*
X130554170Y-83550000D01*
X130660429Y-83528864D01*
X130760523Y-83487403D01*
X130850604Y-83427213D01*
X130927213Y-83350604D01*
X130987403Y-83260523D01*
X131000000Y-83230112D01*
X131012597Y-83260523D01*
X131072787Y-83350604D01*
X131149396Y-83427213D01*
X131239477Y-83487403D01*
X131339571Y-83528864D01*
X131445830Y-83550000D01*
X131554170Y-83550000D01*
X131660429Y-83528864D01*
X131760523Y-83487403D01*
X131850604Y-83427213D01*
X131927213Y-83350604D01*
X131987403Y-83260523D01*
X132000000Y-83230112D01*
X132012597Y-83260523D01*
X132072787Y-83350604D01*
X132149396Y-83427213D01*
X132239477Y-83487403D01*
X132339571Y-83528864D01*
X132445830Y-83550000D01*
X132554170Y-83550000D01*
X132660429Y-83528864D01*
X132760523Y-83487403D01*
X132850604Y-83427213D01*
X132927213Y-83350604D01*
X132987403Y-83260523D01*
X133000000Y-83230112D01*
X133012597Y-83260523D01*
X133072787Y-83350604D01*
X133149396Y-83427213D01*
X133239477Y-83487403D01*
X133339571Y-83528864D01*
X133445830Y-83550000D01*
X133554170Y-83550000D01*
X133660429Y-83528864D01*
X133760523Y-83487403D01*
X133850604Y-83427213D01*
X133927213Y-83350604D01*
X133987403Y-83260523D01*
X134028864Y-83160429D01*
X134050000Y-83054170D01*
X134050000Y-82945830D01*
X134028864Y-82839571D01*
X133987403Y-82739477D01*
X133927213Y-82649396D01*
X133850604Y-82572787D01*
X133760523Y-82512597D01*
X133660429Y-82471136D01*
X133554170Y-82450000D01*
X133445830Y-82450000D01*
X133339571Y-82471136D01*
X133239477Y-82512597D01*
X133149396Y-82572787D01*
X133072787Y-82649396D01*
X133012597Y-82739477D01*
X133000000Y-82769888D01*
X132987403Y-82739477D01*
X132927213Y-82649396D01*
X132850604Y-82572787D01*
X132760523Y-82512597D01*
X132660429Y-82471136D01*
X132554170Y-82450000D01*
X132445830Y-82450000D01*
X132339571Y-82471136D01*
X132239477Y-82512597D01*
X132149396Y-82572787D01*
X132072787Y-82649396D01*
X132012597Y-82739477D01*
X132000000Y-82769888D01*
X131987403Y-82739477D01*
X131927213Y-82649396D01*
X131850604Y-82572787D01*
X131760523Y-82512597D01*
X131660429Y-82471136D01*
X131554170Y-82450000D01*
X131445830Y-82450000D01*
X131339571Y-82471136D01*
X131239477Y-82512597D01*
X131149396Y-82572787D01*
X131072787Y-82649396D01*
X131012597Y-82739477D01*
X131000000Y-82769888D01*
X130987403Y-82739477D01*
X130927213Y-82649396D01*
X130850604Y-82572787D01*
X130760523Y-82512597D01*
X130730112Y-82500000D01*
X130760523Y-82487403D01*
X130850604Y-82427213D01*
X130927213Y-82350604D01*
X130987403Y-82260523D01*
X131028864Y-82160429D01*
X131050000Y-82054170D01*
X131050000Y-81945830D01*
X131028864Y-81839571D01*
X130987403Y-81739477D01*
X130927213Y-81649396D01*
X130850604Y-81572787D01*
X130760523Y-81512597D01*
X130730112Y-81500000D01*
X130760523Y-81487403D01*
X130850604Y-81427213D01*
X130927213Y-81350604D01*
X130987403Y-81260523D01*
X131028864Y-81160429D01*
X131050000Y-81054170D01*
X131050000Y-80945830D01*
X131028864Y-80839571D01*
X130987403Y-80739477D01*
X130927213Y-80649396D01*
X130850604Y-80572787D01*
X130760523Y-80512597D01*
X130730112Y-80500000D01*
X130760523Y-80487403D01*
X130850604Y-80427213D01*
X130927213Y-80350604D01*
X130987403Y-80260523D01*
X131028864Y-80160429D01*
X131050000Y-80054170D01*
X131050000Y-79945830D01*
X131028864Y-79839571D01*
X130987403Y-79739477D01*
X130927213Y-79649396D01*
X130850604Y-79572787D01*
X130760523Y-79512597D01*
X130730112Y-79500000D01*
X130760523Y-79487403D01*
X130850604Y-79427213D01*
X130927213Y-79350604D01*
X130987403Y-79260523D01*
X131028864Y-79160429D01*
X131050000Y-79054170D01*
X131050000Y-78945830D01*
X131028864Y-78839571D01*
X130987403Y-78739477D01*
X130927213Y-78649396D01*
X130850604Y-78572787D01*
X130760523Y-78512597D01*
X130660429Y-78471136D01*
X130554170Y-78450000D01*
X130445830Y-78450000D01*
X130339571Y-78471136D01*
X130239477Y-78512597D01*
X130149396Y-78572787D01*
X130072787Y-78649396D01*
X130012597Y-78739477D01*
X129971136Y-78839571D01*
X129950000Y-78945830D01*
X129300000Y-78945830D01*
X129300000Y-77945830D01*
X131350000Y-77945830D01*
X131350000Y-78054170D01*
X131371136Y-78160429D01*
X131412597Y-78260523D01*
X131472787Y-78350604D01*
X131549396Y-78427213D01*
X131639477Y-78487403D01*
X131739571Y-78528864D01*
X131845830Y-78550000D01*
X131954170Y-78550000D01*
X132060429Y-78528864D01*
X132160523Y-78487403D01*
X132250604Y-78427213D01*
X132327213Y-78350604D01*
X132387403Y-78260523D01*
X132400000Y-78230112D01*
X132412597Y-78260523D01*
X132472787Y-78350604D01*
X132549396Y-78427213D01*
X132639477Y-78487403D01*
X132739571Y-78528864D01*
X132845830Y-78550000D01*
X132954170Y-78550000D01*
X133060429Y-78528864D01*
X133160523Y-78487403D01*
X133250604Y-78427213D01*
X133327213Y-78350604D01*
X133387403Y-78260523D01*
X133400000Y-78230112D01*
X133412597Y-78260523D01*
X133472787Y-78350604D01*
X133549396Y-78427213D01*
X133639477Y-78487403D01*
X133739571Y-78528864D01*
X133845830Y-78550000D01*
X133954170Y-78550000D01*
X134060429Y-78528864D01*
X134160523Y-78487403D01*
X134250604Y-78427213D01*
X134327213Y-78350604D01*
X134387403Y-78260523D01*
X134428864Y-78160429D01*
X134450000Y-78054170D01*
X134450000Y-77945830D01*
X148450000Y-77945830D01*
X148450000Y-78054170D01*
X148471136Y-78160429D01*
X148512597Y-78260523D01*
X148572787Y-78350604D01*
X148649396Y-78427213D01*
X148739477Y-78487403D01*
X148839571Y-78528864D01*
X148945830Y-78550000D01*
X149054170Y-78550000D01*
X149160429Y-78528864D01*
X149260523Y-78487403D01*
X149350604Y-78427213D01*
X149427213Y-78350604D01*
X149487403Y-78260523D01*
X149500000Y-78230112D01*
X149512597Y-78260523D01*
X149572787Y-78350604D01*
X149649396Y-78427213D01*
X149739477Y-78487403D01*
X149839571Y-78528864D01*
X149945830Y-78550000D01*
X150054170Y-78550000D01*
X150160429Y-78528864D01*
X150260523Y-78487403D01*
X150350604Y-78427213D01*
X150427213Y-78350604D01*
X150487403Y-78260523D01*
X150500000Y-78230112D01*
X150512597Y-78260523D01*
X150572787Y-78350604D01*
X150649396Y-78427213D01*
X150739477Y-78487403D01*
X150839571Y-78528864D01*
X150945830Y-78550000D01*
X151054170Y-78550000D01*
X151160429Y-78528864D01*
X151260523Y-78487403D01*
X151350604Y-78427213D01*
X151427213Y-78350604D01*
X151487403Y-78260523D01*
X151500000Y-78230112D01*
X151512597Y-78260523D01*
X151572787Y-78350604D01*
X151649396Y-78427213D01*
X151739477Y-78487403D01*
X151769888Y-78500000D01*
X151739477Y-78512597D01*
X151649396Y-78572787D01*
X151572787Y-78649396D01*
X151512597Y-78739477D01*
X151471136Y-78839571D01*
X151450000Y-78945830D01*
X151450000Y-79054170D01*
X151471136Y-79160429D01*
X151512597Y-79260523D01*
X151572787Y-79350604D01*
X151649396Y-79427213D01*
X151739477Y-79487403D01*
X151769888Y-79500000D01*
X151739477Y-79512597D01*
X151649396Y-79572787D01*
X151572787Y-79649396D01*
X151512597Y-79739477D01*
X151471136Y-79839571D01*
X151450000Y-79945830D01*
X151450000Y-80054170D01*
X151471136Y-80160429D01*
X151512597Y-80260523D01*
X151572787Y-80350604D01*
X151649396Y-80427213D01*
X151739477Y-80487403D01*
X151769888Y-80500000D01*
X151739477Y-80512597D01*
X151649396Y-80572787D01*
X151572787Y-80649396D01*
X151512597Y-80739477D01*
X151471136Y-80839571D01*
X151450000Y-80945830D01*
X151450000Y-81054170D01*
X151471136Y-81160429D01*
X151512597Y-81260523D01*
X151572787Y-81350604D01*
X151649396Y-81427213D01*
X151739477Y-81487403D01*
X151769888Y-81500000D01*
X151739477Y-81512597D01*
X151649396Y-81572787D01*
X151572787Y-81649396D01*
X151512597Y-81739477D01*
X151471136Y-81839571D01*
X151450000Y-81945830D01*
X151450000Y-82054170D01*
X151471136Y-82160429D01*
X151512597Y-82260523D01*
X151572787Y-82350604D01*
X151649396Y-82427213D01*
X151739477Y-82487403D01*
X151769888Y-82500000D01*
X151739477Y-82512597D01*
X151649396Y-82572787D01*
X151572787Y-82649396D01*
X151512597Y-82739477D01*
X151500000Y-82769888D01*
X151487403Y-82739477D01*
X151427213Y-82649396D01*
X151350604Y-82572787D01*
X151260523Y-82512597D01*
X151160429Y-82471136D01*
X151054170Y-82450000D01*
X150945830Y-82450000D01*
X150839571Y-82471136D01*
X150739477Y-82512597D01*
X150649396Y-82572787D01*
X150572787Y-82649396D01*
X150512597Y-82739477D01*
X150500000Y-82769888D01*
X150487403Y-82739477D01*
X150427213Y-82649396D01*
X150350604Y-82572787D01*
X150260523Y-82512597D01*
X150160429Y-82471136D01*
X150054170Y-82450000D01*
X149945830Y-82450000D01*
X149839571Y-82471136D01*
X149739477Y-82512597D01*
X149649396Y-82572787D01*
X149572787Y-82649396D01*
X149512597Y-82739477D01*
X149500000Y-82769888D01*
X149487403Y-82739477D01*
X149427213Y-82649396D01*
X149350604Y-82572787D01*
X149260523Y-82512597D01*
X149160429Y-82471136D01*
X149054170Y-82450000D01*
X148945830Y-82450000D01*
X148839571Y-82471136D01*
X148739477Y-82512597D01*
X148649396Y-82572787D01*
X148572787Y-82649396D01*
X148512597Y-82739477D01*
X148471136Y-82839571D01*
X148450000Y-82945830D01*
X148450000Y-83054170D01*
X148471136Y-83160429D01*
X148512597Y-83260523D01*
X148572787Y-83350604D01*
X148649396Y-83427213D01*
X148739477Y-83487403D01*
X148839571Y-83528864D01*
X148945830Y-83550000D01*
X149054170Y-83550000D01*
X149160429Y-83528864D01*
X149260523Y-83487403D01*
X149350604Y-83427213D01*
X149427213Y-83350604D01*
X149487403Y-83260523D01*
X149500000Y-83230112D01*
X149512597Y-83260523D01*
X149572787Y-83350604D01*
X149649396Y-83427213D01*
X149739477Y-83487403D01*
X149839571Y-83528864D01*
X149945830Y-83550000D01*
X150054170Y-83550000D01*
X150160429Y-83528864D01*
X150260523Y-83487403D01*
X150350604Y-83427213D01*
X150427213Y-83350604D01*
X150487403Y-83260523D01*
X150500000Y-83230112D01*
X150512597Y-83260523D01*
X150572787Y-83350604D01*
X150649396Y-83427213D01*
X150739477Y-83487403D01*
X150839571Y-83528864D01*
X150945830Y-83550000D01*
X151054170Y-83550000D01*
X151160429Y-83528864D01*
X151260523Y-83487403D01*
X151350604Y-83427213D01*
X151427213Y-83350604D01*
X151487403Y-83260523D01*
X151500000Y-83230112D01*
X151512597Y-83260523D01*
X151572787Y-83350604D01*
X151649396Y-83427213D01*
X151739477Y-83487403D01*
X151839571Y-83528864D01*
X151945830Y-83550000D01*
X152054170Y-83550000D01*
X152160429Y-83528864D01*
X152260523Y-83487403D01*
X152350604Y-83427213D01*
X152427213Y-83350604D01*
X152487403Y-83260523D01*
X152528864Y-83160429D01*
X152550000Y-83054170D01*
X152550000Y-82945830D01*
X152528864Y-82839571D01*
X152487403Y-82739477D01*
X152427213Y-82649396D01*
X152350604Y-82572787D01*
X152260523Y-82512597D01*
X152230112Y-82500000D01*
X152260523Y-82487403D01*
X152350604Y-82427213D01*
X152427213Y-82350604D01*
X152487403Y-82260523D01*
X152528864Y-82160429D01*
X152550000Y-82054170D01*
X152550000Y-81945830D01*
X152528864Y-81839571D01*
X152487403Y-81739477D01*
X152427213Y-81649396D01*
X152350604Y-81572787D01*
X152260523Y-81512597D01*
X152230112Y-81500000D01*
X152260523Y-81487403D01*
X152350604Y-81427213D01*
X152427213Y-81350604D01*
X152487403Y-81260523D01*
X152528864Y-81160429D01*
X152550000Y-81054170D01*
X152550000Y-80945830D01*
X152528864Y-80839571D01*
X152487403Y-80739477D01*
X152427213Y-80649396D01*
X152350604Y-80572787D01*
X152260523Y-80512597D01*
X152230112Y-80500000D01*
X152260523Y-80487403D01*
X152350604Y-80427213D01*
X152427213Y-80350604D01*
X152487403Y-80260523D01*
X152528864Y-80160429D01*
X152550000Y-80054170D01*
X152550000Y-79945830D01*
X152528864Y-79839571D01*
X152487403Y-79739477D01*
X152427213Y-79649396D01*
X152350604Y-79572787D01*
X152260523Y-79512597D01*
X152230112Y-79500000D01*
X152260523Y-79487403D01*
X152350604Y-79427213D01*
X152427213Y-79350604D01*
X152487403Y-79260523D01*
X152528864Y-79160429D01*
X152550000Y-79054170D01*
X152550000Y-78945830D01*
X152528864Y-78839571D01*
X152487403Y-78739477D01*
X152427213Y-78649396D01*
X152350604Y-78572787D01*
X152260523Y-78512597D01*
X152230112Y-78500000D01*
X152260523Y-78487403D01*
X152350604Y-78427213D01*
X152427213Y-78350604D01*
X152487403Y-78260523D01*
X152528864Y-78160429D01*
X152550000Y-78054170D01*
X152550000Y-77945830D01*
X152528864Y-77839571D01*
X152487403Y-77739477D01*
X152427213Y-77649396D01*
X152350604Y-77572787D01*
X152260523Y-77512597D01*
X152160429Y-77471136D01*
X152054170Y-77450000D01*
X151945830Y-77450000D01*
X151839571Y-77471136D01*
X151739477Y-77512597D01*
X151649396Y-77572787D01*
X151572787Y-77649396D01*
X151512597Y-77739477D01*
X151500000Y-77769888D01*
X151487403Y-77739477D01*
X151427213Y-77649396D01*
X151350604Y-77572787D01*
X151260523Y-77512597D01*
X151160429Y-77471136D01*
X151054170Y-77450000D01*
X150945830Y-77450000D01*
X150839571Y-77471136D01*
X150739477Y-77512597D01*
X150649396Y-77572787D01*
X150572787Y-77649396D01*
X150512597Y-77739477D01*
X150500000Y-77769888D01*
X150487403Y-77739477D01*
X150427213Y-77649396D01*
X150350604Y-77572787D01*
X150260523Y-77512597D01*
X150160429Y-77471136D01*
X150054170Y-77450000D01*
X149945830Y-77450000D01*
X149839571Y-77471136D01*
X149739477Y-77512597D01*
X149649396Y-77572787D01*
X149572787Y-77649396D01*
X149512597Y-77739477D01*
X149500000Y-77769888D01*
X149487403Y-77739477D01*
X149427213Y-77649396D01*
X149350604Y-77572787D01*
X149260523Y-77512597D01*
X149160429Y-77471136D01*
X149054170Y-77450000D01*
X148945830Y-77450000D01*
X148839571Y-77471136D01*
X148739477Y-77512597D01*
X148649396Y-77572787D01*
X148572787Y-77649396D01*
X148512597Y-77739477D01*
X148471136Y-77839571D01*
X148450000Y-77945830D01*
X134450000Y-77945830D01*
X134428864Y-77839571D01*
X134387403Y-77739477D01*
X134327213Y-77649396D01*
X134250604Y-77572787D01*
X134160523Y-77512597D01*
X134060429Y-77471136D01*
X133954170Y-77450000D01*
X133845830Y-77450000D01*
X133739571Y-77471136D01*
X133639477Y-77512597D01*
X133549396Y-77572787D01*
X133472787Y-77649396D01*
X133412597Y-77739477D01*
X133400000Y-77769888D01*
X133387403Y-77739477D01*
X133327213Y-77649396D01*
X133250604Y-77572787D01*
X133160523Y-77512597D01*
X133060429Y-77471136D01*
X132954170Y-77450000D01*
X132845830Y-77450000D01*
X132739571Y-77471136D01*
X132639477Y-77512597D01*
X132549396Y-77572787D01*
X132472787Y-77649396D01*
X132412597Y-77739477D01*
X132400000Y-77769888D01*
X132387403Y-77739477D01*
X132327213Y-77649396D01*
X132250604Y-77572787D01*
X132160523Y-77512597D01*
X132060429Y-77471136D01*
X131954170Y-77450000D01*
X131845830Y-77450000D01*
X131739571Y-77471136D01*
X131639477Y-77512597D01*
X131549396Y-77572787D01*
X131472787Y-77649396D01*
X131412597Y-77739477D01*
X131371136Y-77839571D01*
X131350000Y-77945830D01*
X129300000Y-77945830D01*
X129300000Y-75825000D01*
X129573791Y-75825000D01*
X129573791Y-77175000D01*
X129578618Y-77224008D01*
X129592913Y-77271134D01*
X129616127Y-77314564D01*
X129647368Y-77352632D01*
X129685436Y-77383873D01*
X129728866Y-77407087D01*
X129775992Y-77421382D01*
X129825000Y-77426209D01*
X131175000Y-77426209D01*
X131224008Y-77421382D01*
X131271134Y-77407087D01*
X131314564Y-77383873D01*
X131352632Y-77352632D01*
X131383873Y-77314564D01*
X131407087Y-77271134D01*
X131421382Y-77224008D01*
X131426209Y-77175000D01*
X131426209Y-75825000D01*
X131421382Y-75775992D01*
X131407087Y-75728866D01*
X131383873Y-75685436D01*
X131352632Y-75647368D01*
X131314564Y-75616127D01*
X131271134Y-75592913D01*
X131224008Y-75578618D01*
X131175000Y-75573791D01*
X129825000Y-75573791D01*
X129775992Y-75578618D01*
X129728866Y-75592913D01*
X129685436Y-75616127D01*
X129647368Y-75647368D01*
X129616127Y-75685436D01*
X129592913Y-75728866D01*
X129578618Y-75775992D01*
X129573791Y-75825000D01*
X129300000Y-75825000D01*
X129300000Y-74742623D01*
X129607386Y-74742623D01*
X129623019Y-74794178D01*
X129697261Y-74959616D01*
X129802352Y-75107391D01*
X129934253Y-75231825D01*
X130087896Y-75328135D01*
X130257376Y-75392620D01*
X130400000Y-75357085D01*
X130400000Y-74600000D01*
X130600000Y-74600000D01*
X130600000Y-75357085D01*
X130742624Y-75392620D01*
X130912104Y-75328135D01*
X131065747Y-75231825D01*
X131197648Y-75107391D01*
X131302739Y-74959616D01*
X131376981Y-74794178D01*
X131392614Y-74742623D01*
X131356683Y-74600000D01*
X130600000Y-74600000D01*
X130400000Y-74600000D01*
X129643317Y-74600000D01*
X129607386Y-74742623D01*
X129300000Y-74742623D01*
X129300000Y-74257377D01*
X129607386Y-74257377D01*
X129643317Y-74400000D01*
X130400000Y-74400000D01*
X130400000Y-73642915D01*
X130600000Y-73642915D01*
X130600000Y-74400000D01*
X131356683Y-74400000D01*
X131392614Y-74257377D01*
X131376981Y-74205822D01*
X131302739Y-74040384D01*
X131197648Y-73892609D01*
X131065747Y-73768175D01*
X130912104Y-73671865D01*
X130742624Y-73607380D01*
X130600000Y-73642915D01*
X130400000Y-73642915D01*
X130257376Y-73607380D01*
X130087896Y-73671865D01*
X129934253Y-73768175D01*
X129802352Y-73892609D01*
X129697261Y-74040384D01*
X129623019Y-74205822D01*
X129607386Y-74257377D01*
X129300000Y-74257377D01*
X129300000Y-72300000D01*
X152700000Y-72300000D01*
X152700001Y-88700000D01*
G37*
X152700001Y-88700000D02*
X129300000Y-88700000D01*
X129300000Y-78945830D01*
X129950000Y-78945830D01*
X129950000Y-79054170D01*
X129971136Y-79160429D01*
X130012597Y-79260523D01*
X130072787Y-79350604D01*
X130149396Y-79427213D01*
X130239477Y-79487403D01*
X130269888Y-79500000D01*
X130239477Y-79512597D01*
X130149396Y-79572787D01*
X130072787Y-79649396D01*
X130012597Y-79739477D01*
X129971136Y-79839571D01*
X129950000Y-79945830D01*
X129950000Y-80054170D01*
X129971136Y-80160429D01*
X130012597Y-80260523D01*
X130072787Y-80350604D01*
X130149396Y-80427213D01*
X130239477Y-80487403D01*
X130269888Y-80500000D01*
X130239477Y-80512597D01*
X130149396Y-80572787D01*
X130072787Y-80649396D01*
X130012597Y-80739477D01*
X129971136Y-80839571D01*
X129950000Y-80945830D01*
X129950000Y-81054170D01*
X129971136Y-81160429D01*
X130012597Y-81260523D01*
X130072787Y-81350604D01*
X130149396Y-81427213D01*
X130239477Y-81487403D01*
X130269888Y-81500000D01*
X130239477Y-81512597D01*
X130149396Y-81572787D01*
X130072787Y-81649396D01*
X130012597Y-81739477D01*
X129971136Y-81839571D01*
X129950000Y-81945830D01*
X129950000Y-82054170D01*
X129971136Y-82160429D01*
X130012597Y-82260523D01*
X130072787Y-82350604D01*
X130149396Y-82427213D01*
X130239477Y-82487403D01*
X130269888Y-82500000D01*
X130239477Y-82512597D01*
X130149396Y-82572787D01*
X130072787Y-82649396D01*
X130012597Y-82739477D01*
X129971136Y-82839571D01*
X129950000Y-82945830D01*
X129950000Y-83054170D01*
X129971136Y-83160429D01*
X130012597Y-83260523D01*
X130072787Y-83350604D01*
X130149396Y-83427213D01*
X130239477Y-83487403D01*
X130339571Y-83528864D01*
X130445830Y-83550000D01*
X130554170Y-83550000D01*
X130660429Y-83528864D01*
X130760523Y-83487403D01*
X130850604Y-83427213D01*
X130927213Y-83350604D01*
X130987403Y-83260523D01*
X131000000Y-83230112D01*
X131012597Y-83260523D01*
X131072787Y-83350604D01*
X131149396Y-83427213D01*
X131239477Y-83487403D01*
X131339571Y-83528864D01*
X131445830Y-83550000D01*
X131554170Y-83550000D01*
X131660429Y-83528864D01*
X131760523Y-83487403D01*
X131850604Y-83427213D01*
X131927213Y-83350604D01*
X131987403Y-83260523D01*
X132000000Y-83230112D01*
X132012597Y-83260523D01*
X132072787Y-83350604D01*
X132149396Y-83427213D01*
X132239477Y-83487403D01*
X132339571Y-83528864D01*
X132445830Y-83550000D01*
X132554170Y-83550000D01*
X132660429Y-83528864D01*
X132760523Y-83487403D01*
X132850604Y-83427213D01*
X132927213Y-83350604D01*
X132987403Y-83260523D01*
X133000000Y-83230112D01*
X133012597Y-83260523D01*
X133072787Y-83350604D01*
X133149396Y-83427213D01*
X133239477Y-83487403D01*
X133339571Y-83528864D01*
X133445830Y-83550000D01*
X133554170Y-83550000D01*
X133660429Y-83528864D01*
X133760523Y-83487403D01*
X133850604Y-83427213D01*
X133927213Y-83350604D01*
X133987403Y-83260523D01*
X134028864Y-83160429D01*
X134050000Y-83054170D01*
X134050000Y-82945830D01*
X134028864Y-82839571D01*
X133987403Y-82739477D01*
X133927213Y-82649396D01*
X133850604Y-82572787D01*
X133760523Y-82512597D01*
X133660429Y-82471136D01*
X133554170Y-82450000D01*
X133445830Y-82450000D01*
X133339571Y-82471136D01*
X133239477Y-82512597D01*
X133149396Y-82572787D01*
X133072787Y-82649396D01*
X133012597Y-82739477D01*
X133000000Y-82769888D01*
X132987403Y-82739477D01*
X132927213Y-82649396D01*
X132850604Y-82572787D01*
X132760523Y-82512597D01*
X132660429Y-82471136D01*
X132554170Y-82450000D01*
X132445830Y-82450000D01*
X132339571Y-82471136D01*
X132239477Y-82512597D01*
X132149396Y-82572787D01*
X132072787Y-82649396D01*
X132012597Y-82739477D01*
X132000000Y-82769888D01*
X131987403Y-82739477D01*
X131927213Y-82649396D01*
X131850604Y-82572787D01*
X131760523Y-82512597D01*
X131660429Y-82471136D01*
X131554170Y-82450000D01*
X131445830Y-82450000D01*
X131339571Y-82471136D01*
X131239477Y-82512597D01*
X131149396Y-82572787D01*
X131072787Y-82649396D01*
X131012597Y-82739477D01*
X131000000Y-82769888D01*
X130987403Y-82739477D01*
X130927213Y-82649396D01*
X130850604Y-82572787D01*
X130760523Y-82512597D01*
X130730112Y-82500000D01*
X130760523Y-82487403D01*
X130850604Y-82427213D01*
X130927213Y-82350604D01*
X130987403Y-82260523D01*
X131028864Y-82160429D01*
X131050000Y-82054170D01*
X131050000Y-81945830D01*
X131028864Y-81839571D01*
X130987403Y-81739477D01*
X130927213Y-81649396D01*
X130850604Y-81572787D01*
X130760523Y-81512597D01*
X130730112Y-81500000D01*
X130760523Y-81487403D01*
X130850604Y-81427213D01*
X130927213Y-81350604D01*
X130987403Y-81260523D01*
X131028864Y-81160429D01*
X131050000Y-81054170D01*
X131050000Y-80945830D01*
X131028864Y-80839571D01*
X130987403Y-80739477D01*
X130927213Y-80649396D01*
X130850604Y-80572787D01*
X130760523Y-80512597D01*
X130730112Y-80500000D01*
X130760523Y-80487403D01*
X130850604Y-80427213D01*
X130927213Y-80350604D01*
X130987403Y-80260523D01*
X131028864Y-80160429D01*
X131050000Y-80054170D01*
X131050000Y-79945830D01*
X131028864Y-79839571D01*
X130987403Y-79739477D01*
X130927213Y-79649396D01*
X130850604Y-79572787D01*
X130760523Y-79512597D01*
X130730112Y-79500000D01*
X130760523Y-79487403D01*
X130850604Y-79427213D01*
X130927213Y-79350604D01*
X130987403Y-79260523D01*
X131028864Y-79160429D01*
X131050000Y-79054170D01*
X131050000Y-78945830D01*
X131028864Y-78839571D01*
X130987403Y-78739477D01*
X130927213Y-78649396D01*
X130850604Y-78572787D01*
X130760523Y-78512597D01*
X130660429Y-78471136D01*
X130554170Y-78450000D01*
X130445830Y-78450000D01*
X130339571Y-78471136D01*
X130239477Y-78512597D01*
X130149396Y-78572787D01*
X130072787Y-78649396D01*
X130012597Y-78739477D01*
X129971136Y-78839571D01*
X129950000Y-78945830D01*
X129300000Y-78945830D01*
X129300000Y-77945830D01*
X131350000Y-77945830D01*
X131350000Y-78054170D01*
X131371136Y-78160429D01*
X131412597Y-78260523D01*
X131472787Y-78350604D01*
X131549396Y-78427213D01*
X131639477Y-78487403D01*
X131739571Y-78528864D01*
X131845830Y-78550000D01*
X131954170Y-78550000D01*
X132060429Y-78528864D01*
X132160523Y-78487403D01*
X132250604Y-78427213D01*
X132327213Y-78350604D01*
X132387403Y-78260523D01*
X132400000Y-78230112D01*
X132412597Y-78260523D01*
X132472787Y-78350604D01*
X132549396Y-78427213D01*
X132639477Y-78487403D01*
X132739571Y-78528864D01*
X132845830Y-78550000D01*
X132954170Y-78550000D01*
X133060429Y-78528864D01*
X133160523Y-78487403D01*
X133250604Y-78427213D01*
X133327213Y-78350604D01*
X133387403Y-78260523D01*
X133400000Y-78230112D01*
X133412597Y-78260523D01*
X133472787Y-78350604D01*
X133549396Y-78427213D01*
X133639477Y-78487403D01*
X133739571Y-78528864D01*
X133845830Y-78550000D01*
X133954170Y-78550000D01*
X134060429Y-78528864D01*
X134160523Y-78487403D01*
X134250604Y-78427213D01*
X134327213Y-78350604D01*
X134387403Y-78260523D01*
X134428864Y-78160429D01*
X134450000Y-78054170D01*
X134450000Y-77945830D01*
X148450000Y-77945830D01*
X148450000Y-78054170D01*
X148471136Y-78160429D01*
X148512597Y-78260523D01*
X148572787Y-78350604D01*
X148649396Y-78427213D01*
X148739477Y-78487403D01*
X148839571Y-78528864D01*
X148945830Y-78550000D01*
X149054170Y-78550000D01*
X149160429Y-78528864D01*
X149260523Y-78487403D01*
X149350604Y-78427213D01*
X149427213Y-78350604D01*
X149487403Y-78260523D01*
X149500000Y-78230112D01*
X149512597Y-78260523D01*
X149572787Y-78350604D01*
X149649396Y-78427213D01*
X149739477Y-78487403D01*
X149839571Y-78528864D01*
X149945830Y-78550000D01*
X150054170Y-78550000D01*
X150160429Y-78528864D01*
X150260523Y-78487403D01*
X150350604Y-78427213D01*
X150427213Y-78350604D01*
X150487403Y-78260523D01*
X150500000Y-78230112D01*
X150512597Y-78260523D01*
X150572787Y-78350604D01*
X150649396Y-78427213D01*
X150739477Y-78487403D01*
X150839571Y-78528864D01*
X150945830Y-78550000D01*
X151054170Y-78550000D01*
X151160429Y-78528864D01*
X151260523Y-78487403D01*
X151350604Y-78427213D01*
X151427213Y-78350604D01*
X151487403Y-78260523D01*
X151500000Y-78230112D01*
X151512597Y-78260523D01*
X151572787Y-78350604D01*
X151649396Y-78427213D01*
X151739477Y-78487403D01*
X151769888Y-78500000D01*
X151739477Y-78512597D01*
X151649396Y-78572787D01*
X151572787Y-78649396D01*
X151512597Y-78739477D01*
X151471136Y-78839571D01*
X151450000Y-78945830D01*
X151450000Y-79054170D01*
X151471136Y-79160429D01*
X151512597Y-79260523D01*
X151572787Y-79350604D01*
X151649396Y-79427213D01*
X151739477Y-79487403D01*
X151769888Y-79500000D01*
X151739477Y-79512597D01*
X151649396Y-79572787D01*
X151572787Y-79649396D01*
X151512597Y-79739477D01*
X151471136Y-79839571D01*
X151450000Y-79945830D01*
X151450000Y-80054170D01*
X151471136Y-80160429D01*
X151512597Y-80260523D01*
X151572787Y-80350604D01*
X151649396Y-80427213D01*
X151739477Y-80487403D01*
X151769888Y-80500000D01*
X151739477Y-80512597D01*
X151649396Y-80572787D01*
X151572787Y-80649396D01*
X151512597Y-80739477D01*
X151471136Y-80839571D01*
X151450000Y-80945830D01*
X151450000Y-81054170D01*
X151471136Y-81160429D01*
X151512597Y-81260523D01*
X151572787Y-81350604D01*
X151649396Y-81427213D01*
X151739477Y-81487403D01*
X151769888Y-81500000D01*
X151739477Y-81512597D01*
X151649396Y-81572787D01*
X151572787Y-81649396D01*
X151512597Y-81739477D01*
X151471136Y-81839571D01*
X151450000Y-81945830D01*
X151450000Y-82054170D01*
X151471136Y-82160429D01*
X151512597Y-82260523D01*
X151572787Y-82350604D01*
X151649396Y-82427213D01*
X151739477Y-82487403D01*
X151769888Y-82500000D01*
X151739477Y-82512597D01*
X151649396Y-82572787D01*
X151572787Y-82649396D01*
X151512597Y-82739477D01*
X151500000Y-82769888D01*
X151487403Y-82739477D01*
X151427213Y-82649396D01*
X151350604Y-82572787D01*
X151260523Y-82512597D01*
X151160429Y-82471136D01*
X151054170Y-82450000D01*
X150945830Y-82450000D01*
X150839571Y-82471136D01*
X150739477Y-82512597D01*
X150649396Y-82572787D01*
X150572787Y-82649396D01*
X150512597Y-82739477D01*
X150500000Y-82769888D01*
X150487403Y-82739477D01*
X150427213Y-82649396D01*
X150350604Y-82572787D01*
X150260523Y-82512597D01*
X150160429Y-82471136D01*
X150054170Y-82450000D01*
X149945830Y-82450000D01*
X149839571Y-82471136D01*
X149739477Y-82512597D01*
X149649396Y-82572787D01*
X149572787Y-82649396D01*
X149512597Y-82739477D01*
X149500000Y-82769888D01*
X149487403Y-82739477D01*
X149427213Y-82649396D01*
X149350604Y-82572787D01*
X149260523Y-82512597D01*
X149160429Y-82471136D01*
X149054170Y-82450000D01*
X148945830Y-82450000D01*
X148839571Y-82471136D01*
X148739477Y-82512597D01*
X148649396Y-82572787D01*
X148572787Y-82649396D01*
X148512597Y-82739477D01*
X148471136Y-82839571D01*
X148450000Y-82945830D01*
X148450000Y-83054170D01*
X148471136Y-83160429D01*
X148512597Y-83260523D01*
X148572787Y-83350604D01*
X148649396Y-83427213D01*
X148739477Y-83487403D01*
X148839571Y-83528864D01*
X148945830Y-83550000D01*
X149054170Y-83550000D01*
X149160429Y-83528864D01*
X149260523Y-83487403D01*
X149350604Y-83427213D01*
X149427213Y-83350604D01*
X149487403Y-83260523D01*
X149500000Y-83230112D01*
X149512597Y-83260523D01*
X149572787Y-83350604D01*
X149649396Y-83427213D01*
X149739477Y-83487403D01*
X149839571Y-83528864D01*
X149945830Y-83550000D01*
X150054170Y-83550000D01*
X150160429Y-83528864D01*
X150260523Y-83487403D01*
X150350604Y-83427213D01*
X150427213Y-83350604D01*
X150487403Y-83260523D01*
X150500000Y-83230112D01*
X150512597Y-83260523D01*
X150572787Y-83350604D01*
X150649396Y-83427213D01*
X150739477Y-83487403D01*
X150839571Y-83528864D01*
X150945830Y-83550000D01*
X151054170Y-83550000D01*
X151160429Y-83528864D01*
X151260523Y-83487403D01*
X151350604Y-83427213D01*
X151427213Y-83350604D01*
X151487403Y-83260523D01*
X151500000Y-83230112D01*
X151512597Y-83260523D01*
X151572787Y-83350604D01*
X151649396Y-83427213D01*
X151739477Y-83487403D01*
X151839571Y-83528864D01*
X151945830Y-83550000D01*
X152054170Y-83550000D01*
X152160429Y-83528864D01*
X152260523Y-83487403D01*
X152350604Y-83427213D01*
X152427213Y-83350604D01*
X152487403Y-83260523D01*
X152528864Y-83160429D01*
X152550000Y-83054170D01*
X152550000Y-82945830D01*
X152528864Y-82839571D01*
X152487403Y-82739477D01*
X152427213Y-82649396D01*
X152350604Y-82572787D01*
X152260523Y-82512597D01*
X152230112Y-82500000D01*
X152260523Y-82487403D01*
X152350604Y-82427213D01*
X152427213Y-82350604D01*
X152487403Y-82260523D01*
X152528864Y-82160429D01*
X152550000Y-82054170D01*
X152550000Y-81945830D01*
X152528864Y-81839571D01*
X152487403Y-81739477D01*
X152427213Y-81649396D01*
X152350604Y-81572787D01*
X152260523Y-81512597D01*
X152230112Y-81500000D01*
X152260523Y-81487403D01*
X152350604Y-81427213D01*
X152427213Y-81350604D01*
X152487403Y-81260523D01*
X152528864Y-81160429D01*
X152550000Y-81054170D01*
X152550000Y-80945830D01*
X152528864Y-80839571D01*
X152487403Y-80739477D01*
X152427213Y-80649396D01*
X152350604Y-80572787D01*
X152260523Y-80512597D01*
X152230112Y-80500000D01*
X152260523Y-80487403D01*
X152350604Y-80427213D01*
X152427213Y-80350604D01*
X152487403Y-80260523D01*
X152528864Y-80160429D01*
X152550000Y-80054170D01*
X152550000Y-79945830D01*
X152528864Y-79839571D01*
X152487403Y-79739477D01*
X152427213Y-79649396D01*
X152350604Y-79572787D01*
X152260523Y-79512597D01*
X152230112Y-79500000D01*
X152260523Y-79487403D01*
X152350604Y-79427213D01*
X152427213Y-79350604D01*
X152487403Y-79260523D01*
X152528864Y-79160429D01*
X152550000Y-79054170D01*
X152550000Y-78945830D01*
X152528864Y-78839571D01*
X152487403Y-78739477D01*
X152427213Y-78649396D01*
X152350604Y-78572787D01*
X152260523Y-78512597D01*
X152230112Y-78500000D01*
X152260523Y-78487403D01*
X152350604Y-78427213D01*
X152427213Y-78350604D01*
X152487403Y-78260523D01*
X152528864Y-78160429D01*
X152550000Y-78054170D01*
X152550000Y-77945830D01*
X152528864Y-77839571D01*
X152487403Y-77739477D01*
X152427213Y-77649396D01*
X152350604Y-77572787D01*
X152260523Y-77512597D01*
X152160429Y-77471136D01*
X152054170Y-77450000D01*
X151945830Y-77450000D01*
X151839571Y-77471136D01*
X151739477Y-77512597D01*
X151649396Y-77572787D01*
X151572787Y-77649396D01*
X151512597Y-77739477D01*
X151500000Y-77769888D01*
X151487403Y-77739477D01*
X151427213Y-77649396D01*
X151350604Y-77572787D01*
X151260523Y-77512597D01*
X151160429Y-77471136D01*
X151054170Y-77450000D01*
X150945830Y-77450000D01*
X150839571Y-77471136D01*
X150739477Y-77512597D01*
X150649396Y-77572787D01*
X150572787Y-77649396D01*
X150512597Y-77739477D01*
X150500000Y-77769888D01*
X150487403Y-77739477D01*
X150427213Y-77649396D01*
X150350604Y-77572787D01*
X150260523Y-77512597D01*
X150160429Y-77471136D01*
X150054170Y-77450000D01*
X149945830Y-77450000D01*
X149839571Y-77471136D01*
X149739477Y-77512597D01*
X149649396Y-77572787D01*
X149572787Y-77649396D01*
X149512597Y-77739477D01*
X149500000Y-77769888D01*
X149487403Y-77739477D01*
X149427213Y-77649396D01*
X149350604Y-77572787D01*
X149260523Y-77512597D01*
X149160429Y-77471136D01*
X149054170Y-77450000D01*
X148945830Y-77450000D01*
X148839571Y-77471136D01*
X148739477Y-77512597D01*
X148649396Y-77572787D01*
X148572787Y-77649396D01*
X148512597Y-77739477D01*
X148471136Y-77839571D01*
X148450000Y-77945830D01*
X134450000Y-77945830D01*
X134428864Y-77839571D01*
X134387403Y-77739477D01*
X134327213Y-77649396D01*
X134250604Y-77572787D01*
X134160523Y-77512597D01*
X134060429Y-77471136D01*
X133954170Y-77450000D01*
X133845830Y-77450000D01*
X133739571Y-77471136D01*
X133639477Y-77512597D01*
X133549396Y-77572787D01*
X133472787Y-77649396D01*
X133412597Y-77739477D01*
X133400000Y-77769888D01*
X133387403Y-77739477D01*
X133327213Y-77649396D01*
X133250604Y-77572787D01*
X133160523Y-77512597D01*
X133060429Y-77471136D01*
X132954170Y-77450000D01*
X132845830Y-77450000D01*
X132739571Y-77471136D01*
X132639477Y-77512597D01*
X132549396Y-77572787D01*
X132472787Y-77649396D01*
X132412597Y-77739477D01*
X132400000Y-77769888D01*
X132387403Y-77739477D01*
X132327213Y-77649396D01*
X132250604Y-77572787D01*
X132160523Y-77512597D01*
X132060429Y-77471136D01*
X131954170Y-77450000D01*
X131845830Y-77450000D01*
X131739571Y-77471136D01*
X131639477Y-77512597D01*
X131549396Y-77572787D01*
X131472787Y-77649396D01*
X131412597Y-77739477D01*
X131371136Y-77839571D01*
X131350000Y-77945830D01*
X129300000Y-77945830D01*
X129300000Y-75825000D01*
X129573791Y-75825000D01*
X129573791Y-77175000D01*
X129578618Y-77224008D01*
X129592913Y-77271134D01*
X129616127Y-77314564D01*
X129647368Y-77352632D01*
X129685436Y-77383873D01*
X129728866Y-77407087D01*
X129775992Y-77421382D01*
X129825000Y-77426209D01*
X131175000Y-77426209D01*
X131224008Y-77421382D01*
X131271134Y-77407087D01*
X131314564Y-77383873D01*
X131352632Y-77352632D01*
X131383873Y-77314564D01*
X131407087Y-77271134D01*
X131421382Y-77224008D01*
X131426209Y-77175000D01*
X131426209Y-75825000D01*
X131421382Y-75775992D01*
X131407087Y-75728866D01*
X131383873Y-75685436D01*
X131352632Y-75647368D01*
X131314564Y-75616127D01*
X131271134Y-75592913D01*
X131224008Y-75578618D01*
X131175000Y-75573791D01*
X129825000Y-75573791D01*
X129775992Y-75578618D01*
X129728866Y-75592913D01*
X129685436Y-75616127D01*
X129647368Y-75647368D01*
X129616127Y-75685436D01*
X129592913Y-75728866D01*
X129578618Y-75775992D01*
X129573791Y-75825000D01*
X129300000Y-75825000D01*
X129300000Y-74742623D01*
X129607386Y-74742623D01*
X129623019Y-74794178D01*
X129697261Y-74959616D01*
X129802352Y-75107391D01*
X129934253Y-75231825D01*
X130087896Y-75328135D01*
X130257376Y-75392620D01*
X130400000Y-75357085D01*
X130400000Y-74600000D01*
X130600000Y-74600000D01*
X130600000Y-75357085D01*
X130742624Y-75392620D01*
X130912104Y-75328135D01*
X131065747Y-75231825D01*
X131197648Y-75107391D01*
X131302739Y-74959616D01*
X131376981Y-74794178D01*
X131392614Y-74742623D01*
X131356683Y-74600000D01*
X130600000Y-74600000D01*
X130400000Y-74600000D01*
X129643317Y-74600000D01*
X129607386Y-74742623D01*
X129300000Y-74742623D01*
X129300000Y-74257377D01*
X129607386Y-74257377D01*
X129643317Y-74400000D01*
X130400000Y-74400000D01*
X130400000Y-73642915D01*
X130600000Y-73642915D01*
X130600000Y-74400000D01*
X131356683Y-74400000D01*
X131392614Y-74257377D01*
X131376981Y-74205822D01*
X131302739Y-74040384D01*
X131197648Y-73892609D01*
X131065747Y-73768175D01*
X130912104Y-73671865D01*
X130742624Y-73607380D01*
X130600000Y-73642915D01*
X130400000Y-73642915D01*
X130257376Y-73607380D01*
X130087896Y-73671865D01*
X129934253Y-73768175D01*
X129802352Y-73892609D01*
X129697261Y-74040384D01*
X129623019Y-74205822D01*
X129607386Y-74257377D01*
X129300000Y-74257377D01*
X129300000Y-72300000D01*
X152700000Y-72300000D01*
X152700001Y-88700000D01*
G36*
X126700000Y-88700000D02*
G01*
X114361023Y-88700000D01*
X114387401Y-88660523D01*
X114428862Y-88560429D01*
X114449998Y-88454170D01*
X114449998Y-88345830D01*
X114428862Y-88239571D01*
X114387401Y-88139477D01*
X114327211Y-88049396D01*
X114250602Y-87972787D01*
X114160521Y-87912597D01*
X114060427Y-87871136D01*
X113954168Y-87850000D01*
X113845828Y-87850000D01*
X113739569Y-87871136D01*
X113639475Y-87912597D01*
X113549394Y-87972787D01*
X113472785Y-88049396D01*
X113412595Y-88139477D01*
X113371134Y-88239571D01*
X113349998Y-88345830D01*
X113349998Y-88454170D01*
X113371134Y-88560429D01*
X113412595Y-88660523D01*
X113438973Y-88700000D01*
X103300000Y-88700000D01*
X103300000Y-87145830D01*
X105650000Y-87145830D01*
X105650000Y-87254170D01*
X105671136Y-87360429D01*
X105712597Y-87460523D01*
X105772787Y-87550604D01*
X105849396Y-87627213D01*
X105939477Y-87687403D01*
X106039571Y-87728864D01*
X106145830Y-87750000D01*
X106254170Y-87750000D01*
X106360429Y-87728864D01*
X106460523Y-87687403D01*
X106550604Y-87627213D01*
X106627213Y-87550604D01*
X106687403Y-87460523D01*
X106728864Y-87360429D01*
X106750000Y-87254170D01*
X106750000Y-87145830D01*
X106728864Y-87039571D01*
X106687403Y-86939477D01*
X106627213Y-86849396D01*
X106550604Y-86772787D01*
X106460523Y-86712597D01*
X106360429Y-86671136D01*
X106254170Y-86650000D01*
X106145830Y-86650000D01*
X106039571Y-86671136D01*
X105939477Y-86712597D01*
X105849396Y-86772787D01*
X105772787Y-86849396D01*
X105712597Y-86939477D01*
X105671136Y-87039571D01*
X105650000Y-87145830D01*
X103300000Y-87145830D01*
X103300000Y-86645830D01*
X107230000Y-86645830D01*
X107230000Y-86754170D01*
X107251136Y-86860429D01*
X107292597Y-86960523D01*
X107352787Y-87050604D01*
X107429396Y-87127213D01*
X107519477Y-87187403D01*
X107619571Y-87228864D01*
X107725830Y-87250000D01*
X107834170Y-87250000D01*
X107940429Y-87228864D01*
X108040523Y-87187403D01*
X108130604Y-87127213D01*
X108207213Y-87050604D01*
X108267403Y-86960523D01*
X108288037Y-86910708D01*
X122925000Y-86910708D01*
X122925000Y-87689293D01*
X122936576Y-87806827D01*
X122982322Y-87957628D01*
X123056608Y-88096606D01*
X123156579Y-88218422D01*
X123278395Y-88318393D01*
X123417373Y-88392679D01*
X123568174Y-88438424D01*
X123725000Y-88453870D01*
X123881827Y-88438424D01*
X124032628Y-88392679D01*
X124171606Y-88318393D01*
X124293422Y-88218422D01*
X124393393Y-88096606D01*
X124467679Y-87957628D01*
X124513424Y-87806827D01*
X124525000Y-87689293D01*
X124525000Y-86910707D01*
X124513424Y-86793173D01*
X124467679Y-86642372D01*
X124393393Y-86503394D01*
X124293422Y-86381578D01*
X124171605Y-86281607D01*
X124032627Y-86207321D01*
X123881826Y-86161576D01*
X123725000Y-86146130D01*
X123568173Y-86161576D01*
X123417372Y-86207321D01*
X123278394Y-86281607D01*
X123156578Y-86381578D01*
X123056607Y-86503395D01*
X122982321Y-86642373D01*
X122936576Y-86793174D01*
X122925000Y-86910708D01*
X108288037Y-86910708D01*
X108308864Y-86860429D01*
X108330000Y-86754170D01*
X108330000Y-86645830D01*
X108308864Y-86539571D01*
X108267403Y-86439477D01*
X108207213Y-86349396D01*
X108130604Y-86272787D01*
X108040523Y-86212597D01*
X107940429Y-86171136D01*
X107834170Y-86150000D01*
X107725830Y-86150000D01*
X107619571Y-86171136D01*
X107519477Y-86212597D01*
X107429396Y-86272787D01*
X107352787Y-86349396D01*
X107292597Y-86439477D01*
X107251136Y-86539571D01*
X107230000Y-86645830D01*
X103300000Y-86645830D01*
X103300000Y-85145830D01*
X112250000Y-85145830D01*
X112250000Y-85254170D01*
X112271136Y-85360429D01*
X112312597Y-85460523D01*
X112372787Y-85550604D01*
X112449396Y-85627213D01*
X112539477Y-85687403D01*
X112639571Y-85728864D01*
X112745830Y-85750000D01*
X112854170Y-85750000D01*
X112960429Y-85728864D01*
X113060523Y-85687403D01*
X113150604Y-85627213D01*
X113200000Y-85577817D01*
X113249396Y-85627213D01*
X113339477Y-85687403D01*
X113439571Y-85728864D01*
X113545830Y-85750000D01*
X113654170Y-85750000D01*
X113675134Y-85745830D01*
X122050000Y-85745830D01*
X122050000Y-85854170D01*
X122071136Y-85960429D01*
X122112597Y-86060523D01*
X122172787Y-86150604D01*
X122249396Y-86227213D01*
X122339477Y-86287403D01*
X122439571Y-86328864D01*
X122545830Y-86350000D01*
X122654170Y-86350000D01*
X122760429Y-86328864D01*
X122860523Y-86287403D01*
X122950604Y-86227213D01*
X123027213Y-86150604D01*
X123087403Y-86060523D01*
X123128864Y-85960429D01*
X123150000Y-85854170D01*
X123150000Y-85745830D01*
X123128864Y-85639571D01*
X123087403Y-85539477D01*
X123027213Y-85449396D01*
X122950604Y-85372787D01*
X122860523Y-85312597D01*
X122760429Y-85271136D01*
X122654170Y-85250000D01*
X122545830Y-85250000D01*
X122439571Y-85271136D01*
X122339477Y-85312597D01*
X122249396Y-85372787D01*
X122172787Y-85449396D01*
X122112597Y-85539477D01*
X122071136Y-85639571D01*
X122050000Y-85745830D01*
X113675134Y-85745830D01*
X113760429Y-85728864D01*
X113860523Y-85687403D01*
X113950604Y-85627213D01*
X114027213Y-85550604D01*
X114087403Y-85460523D01*
X114089971Y-85454324D01*
X114139477Y-85487403D01*
X114239571Y-85528864D01*
X114345830Y-85550000D01*
X114454170Y-85550000D01*
X114560429Y-85528864D01*
X114660523Y-85487403D01*
X114750604Y-85427213D01*
X114827213Y-85350604D01*
X114887403Y-85260523D01*
X114928864Y-85160429D01*
X114950000Y-85054170D01*
X114950000Y-84945830D01*
X114928864Y-84839571D01*
X114890035Y-84745830D01*
X117550000Y-84745830D01*
X117550000Y-84854170D01*
X117571136Y-84960429D01*
X117612597Y-85060523D01*
X117672787Y-85150604D01*
X117749396Y-85227213D01*
X117839477Y-85287403D01*
X117939571Y-85328864D01*
X118045830Y-85350000D01*
X118154170Y-85350000D01*
X118260429Y-85328864D01*
X118360523Y-85287403D01*
X118450604Y-85227213D01*
X118527213Y-85150604D01*
X118587403Y-85060523D01*
X118622861Y-84974919D01*
X118989454Y-84974919D01*
X118989454Y-85083259D01*
X119010590Y-85189518D01*
X119052051Y-85289612D01*
X119112241Y-85379693D01*
X119188850Y-85456302D01*
X119278931Y-85516492D01*
X119379025Y-85557953D01*
X119485284Y-85579089D01*
X119593624Y-85579089D01*
X119699883Y-85557953D01*
X119799977Y-85516492D01*
X119890058Y-85456302D01*
X119966667Y-85379693D01*
X120026857Y-85289612D01*
X120068318Y-85189518D01*
X120089454Y-85083259D01*
X120089454Y-84974919D01*
X120068318Y-84868660D01*
X120026857Y-84768566D01*
X119966667Y-84678485D01*
X119890058Y-84601876D01*
X119799977Y-84541686D01*
X119699883Y-84500225D01*
X119593624Y-84479089D01*
X119485284Y-84479089D01*
X119379025Y-84500225D01*
X119278931Y-84541686D01*
X119188850Y-84601876D01*
X119112241Y-84678485D01*
X119052051Y-84768566D01*
X119010590Y-84868660D01*
X118989454Y-84974919D01*
X118622861Y-84974919D01*
X118628864Y-84960429D01*
X118650000Y-84854170D01*
X118650000Y-84745830D01*
X118628864Y-84639571D01*
X118587403Y-84539477D01*
X118527213Y-84449396D01*
X118450604Y-84372787D01*
X118360523Y-84312597D01*
X118260429Y-84271136D01*
X118154170Y-84250000D01*
X118045830Y-84250000D01*
X117939571Y-84271136D01*
X117839477Y-84312597D01*
X117749396Y-84372787D01*
X117672787Y-84449396D01*
X117612597Y-84539477D01*
X117571136Y-84639571D01*
X117550000Y-84745830D01*
X114890035Y-84745830D01*
X114887403Y-84739477D01*
X114827213Y-84649396D01*
X114750604Y-84572787D01*
X114660523Y-84512597D01*
X114560429Y-84471136D01*
X114454170Y-84450000D01*
X114345830Y-84450000D01*
X114239571Y-84471136D01*
X114139477Y-84512597D01*
X114049396Y-84572787D01*
X113972787Y-84649396D01*
X113912597Y-84739477D01*
X113910029Y-84745676D01*
X113860523Y-84712597D01*
X113760429Y-84671136D01*
X113654170Y-84650000D01*
X113545830Y-84650000D01*
X113439571Y-84671136D01*
X113339477Y-84712597D01*
X113249396Y-84772787D01*
X113200000Y-84822183D01*
X113150604Y-84772787D01*
X113060523Y-84712597D01*
X112960429Y-84671136D01*
X112854170Y-84650000D01*
X112745830Y-84650000D01*
X112639571Y-84671136D01*
X112539477Y-84712597D01*
X112449396Y-84772787D01*
X112372787Y-84849396D01*
X112312597Y-84939477D01*
X112271136Y-85039571D01*
X112250000Y-85145830D01*
X103300000Y-85145830D01*
X103300000Y-83910708D01*
X125075000Y-83910708D01*
X125075001Y-85089293D01*
X125086577Y-85206827D01*
X125132322Y-85357628D01*
X125206608Y-85496606D01*
X125306579Y-85618422D01*
X125428395Y-85718393D01*
X125567373Y-85792679D01*
X125718174Y-85838424D01*
X125875000Y-85853870D01*
X126031827Y-85838424D01*
X126182628Y-85792679D01*
X126321606Y-85718393D01*
X126443422Y-85618422D01*
X126543393Y-85496606D01*
X126617679Y-85357628D01*
X126663424Y-85206827D01*
X126675000Y-85089293D01*
X126675000Y-83910707D01*
X126663424Y-83793173D01*
X126617679Y-83642372D01*
X126543393Y-83503394D01*
X126443422Y-83381578D01*
X126321605Y-83281607D01*
X126182627Y-83207321D01*
X126031826Y-83161576D01*
X125875000Y-83146130D01*
X125718173Y-83161576D01*
X125567372Y-83207321D01*
X125428394Y-83281607D01*
X125306578Y-83381578D01*
X125206607Y-83503395D01*
X125132321Y-83642373D01*
X125086576Y-83793174D01*
X125075000Y-83910708D01*
X103300000Y-83910708D01*
X103300000Y-81945830D01*
X104250000Y-81945830D01*
X104250000Y-82054170D01*
X104271136Y-82160429D01*
X104312597Y-82260523D01*
X104372787Y-82350604D01*
X104449396Y-82427213D01*
X104539477Y-82487403D01*
X104639571Y-82528864D01*
X104745830Y-82550000D01*
X104854170Y-82550000D01*
X104960429Y-82528864D01*
X105060523Y-82487403D01*
X105082710Y-82472578D01*
X118422247Y-82472578D01*
X118422247Y-82580918D01*
X118443383Y-82687177D01*
X118484844Y-82787271D01*
X118545034Y-82877352D01*
X118621643Y-82953961D01*
X118711724Y-83014151D01*
X118811818Y-83055612D01*
X118918077Y-83076748D01*
X119026417Y-83076748D01*
X119132676Y-83055612D01*
X119232770Y-83014151D01*
X119322851Y-82953961D01*
X119399460Y-82877352D01*
X119459650Y-82787271D01*
X119501111Y-82687177D01*
X119522247Y-82580918D01*
X119522247Y-82472578D01*
X119501111Y-82366319D01*
X119459650Y-82266225D01*
X119399460Y-82176144D01*
X119369142Y-82145826D01*
X119550004Y-82145826D01*
X119550004Y-82254166D01*
X119571140Y-82360425D01*
X119612601Y-82460519D01*
X119672791Y-82550600D01*
X119749400Y-82627209D01*
X119839481Y-82687399D01*
X119939575Y-82728860D01*
X120045834Y-82749996D01*
X120154174Y-82749996D01*
X120260433Y-82728860D01*
X120360527Y-82687399D01*
X120450608Y-82627209D01*
X120527217Y-82550600D01*
X120587407Y-82460519D01*
X120628868Y-82360425D01*
X120650004Y-82254166D01*
X120650004Y-82145826D01*
X120628868Y-82039567D01*
X120587407Y-81939473D01*
X120527217Y-81849392D01*
X120450608Y-81772783D01*
X120360527Y-81712593D01*
X120260433Y-81671132D01*
X120154174Y-81649996D01*
X120045834Y-81649996D01*
X119939575Y-81671132D01*
X119839481Y-81712593D01*
X119749400Y-81772783D01*
X119672791Y-81849392D01*
X119612601Y-81939473D01*
X119571140Y-82039567D01*
X119550004Y-82145826D01*
X119369142Y-82145826D01*
X119322851Y-82099535D01*
X119232770Y-82039345D01*
X119132676Y-81997884D01*
X119026417Y-81976748D01*
X118918077Y-81976748D01*
X118811818Y-81997884D01*
X118711724Y-82039345D01*
X118621643Y-82099535D01*
X118545034Y-82176144D01*
X118484844Y-82266225D01*
X118443383Y-82366319D01*
X118422247Y-82472578D01*
X105082710Y-82472578D01*
X105150604Y-82427213D01*
X105227213Y-82350604D01*
X105287403Y-82260523D01*
X105328864Y-82160429D01*
X105350000Y-82054170D01*
X105350000Y-81945830D01*
X105328864Y-81839571D01*
X105287403Y-81739477D01*
X105227213Y-81649396D01*
X105150604Y-81572787D01*
X105060523Y-81512597D01*
X104960429Y-81471136D01*
X104854170Y-81450000D01*
X104745830Y-81450000D01*
X104639571Y-81471136D01*
X104539477Y-81512597D01*
X104449396Y-81572787D01*
X104372787Y-81649396D01*
X104312597Y-81739477D01*
X104271136Y-81839571D01*
X104250000Y-81945830D01*
X103300000Y-81945830D01*
X103300000Y-80530830D01*
X108265008Y-80530830D01*
X108265008Y-80639170D01*
X108286144Y-80745429D01*
X108327605Y-80845523D01*
X108387795Y-80935604D01*
X108464404Y-81012213D01*
X108554485Y-81072403D01*
X108654579Y-81113864D01*
X108760838Y-81135000D01*
X108869178Y-81135000D01*
X108975437Y-81113864D01*
X109075531Y-81072403D01*
X109165612Y-81012213D01*
X109242221Y-80935604D01*
X109302411Y-80845523D01*
X109343872Y-80745429D01*
X109365008Y-80639170D01*
X109365008Y-80530830D01*
X109343872Y-80424571D01*
X109302411Y-80324477D01*
X109242221Y-80234396D01*
X109165612Y-80157787D01*
X109075531Y-80097597D01*
X108975437Y-80056136D01*
X108869178Y-80035000D01*
X108760838Y-80035000D01*
X108654579Y-80056136D01*
X108554485Y-80097597D01*
X108464404Y-80157787D01*
X108387795Y-80234396D01*
X108327605Y-80324477D01*
X108286144Y-80424571D01*
X108265008Y-80530830D01*
X103300000Y-80530830D01*
X103300000Y-79545830D01*
X109850000Y-79545830D01*
X109850000Y-79654170D01*
X109871136Y-79760429D01*
X109912597Y-79860523D01*
X109972787Y-79950604D01*
X110022183Y-80000000D01*
X109972787Y-80049396D01*
X109912597Y-80139477D01*
X109871136Y-80239571D01*
X109850000Y-80345830D01*
X109850000Y-80454170D01*
X109871136Y-80560429D01*
X109912597Y-80660523D01*
X109972787Y-80750604D01*
X110049396Y-80827213D01*
X110139477Y-80887403D01*
X110239571Y-80928864D01*
X110345830Y-80950000D01*
X110454170Y-80950000D01*
X110560429Y-80928864D01*
X110660523Y-80887403D01*
X110750604Y-80827213D01*
X110827213Y-80750604D01*
X110887403Y-80660523D01*
X110928864Y-80560429D01*
X110950000Y-80454170D01*
X110950000Y-80345830D01*
X110928864Y-80239571D01*
X110887403Y-80139477D01*
X110827213Y-80049396D01*
X110777817Y-80000000D01*
X110827213Y-79950604D01*
X110887403Y-79860523D01*
X110928864Y-79760429D01*
X110950000Y-79654170D01*
X110950000Y-79545830D01*
X110928864Y-79439571D01*
X110887403Y-79339477D01*
X110827213Y-79249396D01*
X110750604Y-79172787D01*
X110660523Y-79112597D01*
X110560429Y-79071136D01*
X110454170Y-79050000D01*
X110345830Y-79050000D01*
X110239571Y-79071136D01*
X110139477Y-79112597D01*
X110049396Y-79172787D01*
X109972787Y-79249396D01*
X109912597Y-79339477D01*
X109871136Y-79439571D01*
X109850000Y-79545830D01*
X103300000Y-79545830D01*
X103300000Y-77961419D01*
X109915589Y-77961419D01*
X109915589Y-78069759D01*
X109936725Y-78176018D01*
X109978186Y-78276112D01*
X110038376Y-78366193D01*
X110114985Y-78442802D01*
X110205066Y-78502992D01*
X110305160Y-78544453D01*
X110411419Y-78565589D01*
X110519759Y-78565589D01*
X110626018Y-78544453D01*
X110726112Y-78502992D01*
X110816193Y-78442802D01*
X110892802Y-78366193D01*
X110952992Y-78276112D01*
X110994453Y-78176018D01*
X111015589Y-78069759D01*
X111015589Y-78003133D01*
X118439471Y-78003133D01*
X118439471Y-78111473D01*
X118460607Y-78217732D01*
X118502068Y-78317826D01*
X118562258Y-78407907D01*
X118638867Y-78484516D01*
X118728948Y-78544706D01*
X118829042Y-78586167D01*
X118935301Y-78607303D01*
X118952258Y-78607303D01*
X118939477Y-78612597D01*
X118849396Y-78672787D01*
X118772787Y-78749396D01*
X118712597Y-78839477D01*
X118671136Y-78939571D01*
X118650000Y-79045830D01*
X118650000Y-79154170D01*
X118671136Y-79260429D01*
X118712597Y-79360523D01*
X118772787Y-79450604D01*
X118844862Y-79522679D01*
X118748463Y-79562609D01*
X118658382Y-79622799D01*
X118581773Y-79699408D01*
X118521583Y-79789489D01*
X118480122Y-79889583D01*
X118458986Y-79995842D01*
X118458986Y-80104182D01*
X118480122Y-80210441D01*
X118521583Y-80310535D01*
X118581773Y-80400616D01*
X118658382Y-80477225D01*
X118748463Y-80537415D01*
X118804498Y-80560626D01*
X118794652Y-80610126D01*
X118794652Y-80718466D01*
X118807750Y-80784317D01*
X118739477Y-80812597D01*
X118649396Y-80872787D01*
X118572787Y-80949396D01*
X118512597Y-81039477D01*
X118471136Y-81139571D01*
X118450000Y-81245830D01*
X118450000Y-81354170D01*
X118471136Y-81460429D01*
X118512597Y-81560523D01*
X118572787Y-81650604D01*
X118649396Y-81727213D01*
X118739477Y-81787403D01*
X118839571Y-81828864D01*
X118945830Y-81850000D01*
X119054170Y-81850000D01*
X119160429Y-81828864D01*
X119260523Y-81787403D01*
X119350604Y-81727213D01*
X119427213Y-81650604D01*
X119487403Y-81560523D01*
X119528864Y-81460429D01*
X119550000Y-81354170D01*
X119550000Y-81310708D01*
X122925000Y-81310708D01*
X122925000Y-82089293D01*
X122936576Y-82206827D01*
X122982322Y-82357628D01*
X123056608Y-82496606D01*
X123156579Y-82618422D01*
X123278395Y-82718393D01*
X123417373Y-82792679D01*
X123568174Y-82838424D01*
X123725000Y-82853870D01*
X123881827Y-82838424D01*
X124032628Y-82792679D01*
X124171606Y-82718393D01*
X124293422Y-82618422D01*
X124393393Y-82496606D01*
X124467679Y-82357628D01*
X124513424Y-82206827D01*
X124525000Y-82089293D01*
X124525000Y-81310707D01*
X124513424Y-81193173D01*
X124467679Y-81042372D01*
X124393393Y-80903394D01*
X124293422Y-80781578D01*
X124171605Y-80681607D01*
X124032627Y-80607321D01*
X123881826Y-80561576D01*
X123725000Y-80546130D01*
X123568173Y-80561576D01*
X123417372Y-80607321D01*
X123278394Y-80681607D01*
X123156578Y-80781578D01*
X123056607Y-80903395D01*
X122982321Y-81042373D01*
X122936576Y-81193174D01*
X122925000Y-81310708D01*
X119550000Y-81310708D01*
X119550000Y-81245830D01*
X119536902Y-81179979D01*
X119605175Y-81151699D01*
X119695256Y-81091509D01*
X119771865Y-81014900D01*
X119832055Y-80924819D01*
X119873516Y-80824725D01*
X119894652Y-80718466D01*
X119894652Y-80610126D01*
X119873516Y-80503867D01*
X119832055Y-80403773D01*
X119771865Y-80313692D01*
X119708173Y-80250000D01*
X119754166Y-80250000D01*
X119860425Y-80228864D01*
X119960519Y-80187403D01*
X120050600Y-80127213D01*
X120127209Y-80050604D01*
X120187399Y-79960523D01*
X120228860Y-79860429D01*
X120249996Y-79754170D01*
X120249996Y-79645830D01*
X123149994Y-79645830D01*
X123149994Y-79754170D01*
X123171130Y-79860429D01*
X123212591Y-79960523D01*
X123272781Y-80050604D01*
X123349390Y-80127213D01*
X123439471Y-80187403D01*
X123539565Y-80228864D01*
X123645824Y-80250000D01*
X123754164Y-80250000D01*
X123860423Y-80228864D01*
X123960517Y-80187403D01*
X124050598Y-80127213D01*
X124127207Y-80050604D01*
X124187397Y-79960523D01*
X124228858Y-79860429D01*
X124249994Y-79754170D01*
X124249994Y-79645830D01*
X124228858Y-79539571D01*
X124187397Y-79439477D01*
X124127207Y-79349396D01*
X124050598Y-79272787D01*
X123960517Y-79212597D01*
X123860423Y-79171136D01*
X123754164Y-79150000D01*
X123645824Y-79150000D01*
X123539565Y-79171136D01*
X123439471Y-79212597D01*
X123349390Y-79272787D01*
X123272781Y-79349396D01*
X123212591Y-79439477D01*
X123171130Y-79539571D01*
X123149994Y-79645830D01*
X120249996Y-79645830D01*
X120248117Y-79636386D01*
X120285933Y-79628864D01*
X120386027Y-79587403D01*
X120476108Y-79527213D01*
X120552717Y-79450604D01*
X120612907Y-79360523D01*
X120654368Y-79260429D01*
X120675504Y-79154170D01*
X120675504Y-79045830D01*
X120654368Y-78939571D01*
X120636250Y-78895830D01*
X121200000Y-78895830D01*
X121200000Y-79004170D01*
X121221136Y-79110429D01*
X121262597Y-79210523D01*
X121322787Y-79300604D01*
X121399396Y-79377213D01*
X121489477Y-79437403D01*
X121589571Y-79478864D01*
X121695830Y-79500000D01*
X121804170Y-79500000D01*
X121910429Y-79478864D01*
X122010523Y-79437403D01*
X122100604Y-79377213D01*
X122177213Y-79300604D01*
X122237403Y-79210523D01*
X122278864Y-79110429D01*
X122300000Y-79004170D01*
X122300000Y-78895830D01*
X122278864Y-78789571D01*
X122237403Y-78689477D01*
X122177213Y-78599396D01*
X122100604Y-78522787D01*
X122010523Y-78462597D01*
X121910429Y-78421136D01*
X121804170Y-78400000D01*
X121695830Y-78400000D01*
X121589571Y-78421136D01*
X121489477Y-78462597D01*
X121399396Y-78522787D01*
X121322787Y-78599396D01*
X121262597Y-78689477D01*
X121221136Y-78789571D01*
X121200000Y-78895830D01*
X120636250Y-78895830D01*
X120612907Y-78839477D01*
X120552717Y-78749396D01*
X120476108Y-78672787D01*
X120386027Y-78612597D01*
X120285933Y-78571136D01*
X120179674Y-78550000D01*
X120071334Y-78550000D01*
X119965075Y-78571136D01*
X119864981Y-78612597D01*
X119774900Y-78672787D01*
X119698291Y-78749396D01*
X119662752Y-78802584D01*
X119627213Y-78749396D01*
X119550604Y-78672787D01*
X119460523Y-78612597D01*
X119360429Y-78571136D01*
X119254170Y-78550000D01*
X119237213Y-78550000D01*
X119249994Y-78544706D01*
X119340075Y-78484516D01*
X119416684Y-78407907D01*
X119476874Y-78317826D01*
X119518335Y-78217732D01*
X119539471Y-78111473D01*
X119539471Y-78003133D01*
X119518335Y-77896874D01*
X119476874Y-77796780D01*
X119416684Y-77706699D01*
X119393901Y-77683916D01*
X119427213Y-77650604D01*
X119487403Y-77560523D01*
X119528864Y-77460429D01*
X119550000Y-77354170D01*
X119550000Y-77245830D01*
X119528864Y-77139571D01*
X119487403Y-77039477D01*
X119477730Y-77025000D01*
X124823791Y-77025000D01*
X124823791Y-78375000D01*
X124828618Y-78424008D01*
X124842913Y-78471134D01*
X124866127Y-78514564D01*
X124897368Y-78552632D01*
X124935436Y-78583873D01*
X124978866Y-78607087D01*
X125025992Y-78621382D01*
X125075000Y-78626209D01*
X126425000Y-78626209D01*
X126474008Y-78621382D01*
X126521134Y-78607087D01*
X126564564Y-78583873D01*
X126602632Y-78552632D01*
X126633873Y-78514564D01*
X126657087Y-78471134D01*
X126671382Y-78424008D01*
X126676209Y-78375000D01*
X126676209Y-77025000D01*
X126671382Y-76975992D01*
X126657087Y-76928866D01*
X126633873Y-76885436D01*
X126602632Y-76847368D01*
X126564564Y-76816127D01*
X126521134Y-76792913D01*
X126474008Y-76778618D01*
X126425000Y-76773791D01*
X125075000Y-76773791D01*
X125025992Y-76778618D01*
X124978866Y-76792913D01*
X124935436Y-76816127D01*
X124897368Y-76847368D01*
X124866127Y-76885436D01*
X124842913Y-76928866D01*
X124828618Y-76975992D01*
X124823791Y-77025000D01*
X119477730Y-77025000D01*
X119427213Y-76949396D01*
X119350604Y-76872787D01*
X119260523Y-76812597D01*
X119160429Y-76771136D01*
X119054170Y-76750000D01*
X118945830Y-76750000D01*
X118839571Y-76771136D01*
X118739477Y-76812597D01*
X118649396Y-76872787D01*
X118572787Y-76949396D01*
X118512597Y-77039477D01*
X118471136Y-77139571D01*
X118450000Y-77245830D01*
X118450000Y-77354170D01*
X118471136Y-77460429D01*
X118512597Y-77560523D01*
X118572787Y-77650604D01*
X118595570Y-77673387D01*
X118562258Y-77706699D01*
X118502068Y-77796780D01*
X118460607Y-77896874D01*
X118439471Y-78003133D01*
X111015589Y-78003133D01*
X111015589Y-77961419D01*
X110994453Y-77855160D01*
X110952992Y-77755066D01*
X110892802Y-77664985D01*
X110816193Y-77588376D01*
X110726112Y-77528186D01*
X110626018Y-77486725D01*
X110519759Y-77465589D01*
X110411419Y-77465589D01*
X110305160Y-77486725D01*
X110205066Y-77528186D01*
X110114985Y-77588376D01*
X110038376Y-77664985D01*
X109978186Y-77755066D01*
X109936725Y-77855160D01*
X109915589Y-77961419D01*
X103300000Y-77961419D01*
X103300000Y-77650000D01*
X108000000Y-77650000D01*
X108009755Y-77649039D01*
X108019134Y-77646194D01*
X108027779Y-77641573D01*
X108035355Y-77635355D01*
X108041573Y-77627779D01*
X108046194Y-77619134D01*
X108049039Y-77609755D01*
X108050000Y-77600000D01*
X108050000Y-76445830D01*
X110950000Y-76445830D01*
X110950000Y-76554170D01*
X110971136Y-76660429D01*
X111012597Y-76760523D01*
X111072787Y-76850604D01*
X111149396Y-76927213D01*
X111239477Y-76987403D01*
X111339571Y-77028864D01*
X111445830Y-77050000D01*
X111554170Y-77050000D01*
X111660429Y-77028864D01*
X111760523Y-76987403D01*
X111850604Y-76927213D01*
X111875000Y-76902817D01*
X111899396Y-76927213D01*
X111989477Y-76987403D01*
X112089571Y-77028864D01*
X112195830Y-77050000D01*
X112304170Y-77050000D01*
X112410429Y-77028864D01*
X112510523Y-76987403D01*
X112600604Y-76927213D01*
X112677213Y-76850604D01*
X112725000Y-76779085D01*
X112772787Y-76850604D01*
X112849396Y-76927213D01*
X112939477Y-76987403D01*
X113039571Y-77028864D01*
X113145830Y-77050000D01*
X113254170Y-77050000D01*
X113360429Y-77028864D01*
X113460523Y-76987403D01*
X113550604Y-76927213D01*
X113627213Y-76850604D01*
X113687403Y-76760523D01*
X113728864Y-76660429D01*
X113750000Y-76554170D01*
X113750000Y-76445830D01*
X114150000Y-76445830D01*
X114150000Y-76554170D01*
X114171136Y-76660429D01*
X114212597Y-76760523D01*
X114272787Y-76850604D01*
X114349396Y-76927213D01*
X114439477Y-76987403D01*
X114539571Y-77028864D01*
X114645830Y-77050000D01*
X114754170Y-77050000D01*
X114860429Y-77028864D01*
X114960523Y-76987403D01*
X115050604Y-76927213D01*
X115100000Y-76877817D01*
X115169585Y-76947402D01*
X115259666Y-77007592D01*
X115359760Y-77049053D01*
X115466019Y-77070189D01*
X115574359Y-77070189D01*
X115680618Y-77049053D01*
X115780712Y-77007592D01*
X115870793Y-76947402D01*
X115920189Y-76898006D01*
X115949396Y-76927213D01*
X116039477Y-76987403D01*
X116139571Y-77028864D01*
X116245830Y-77050000D01*
X116354170Y-77050000D01*
X116460429Y-77028864D01*
X116560523Y-76987403D01*
X116650604Y-76927213D01*
X116727213Y-76850604D01*
X116787403Y-76760523D01*
X116828864Y-76660429D01*
X116850000Y-76554170D01*
X116850000Y-76445830D01*
X116828864Y-76339571D01*
X116787403Y-76239477D01*
X116727213Y-76149396D01*
X116723647Y-76145830D01*
X119250000Y-76145830D01*
X119250000Y-76254170D01*
X119271136Y-76360429D01*
X119312597Y-76460523D01*
X119372787Y-76550604D01*
X119449396Y-76627213D01*
X119539477Y-76687403D01*
X119639571Y-76728864D01*
X119745830Y-76750000D01*
X119854170Y-76750000D01*
X119960429Y-76728864D01*
X120060523Y-76687403D01*
X120150604Y-76627213D01*
X120227213Y-76550604D01*
X120287403Y-76460523D01*
X120328864Y-76360429D01*
X120350000Y-76254170D01*
X120350000Y-76145830D01*
X120328864Y-76039571D01*
X120288707Y-75942623D01*
X124857386Y-75942623D01*
X124873019Y-75994178D01*
X124947261Y-76159616D01*
X125052352Y-76307391D01*
X125184253Y-76431825D01*
X125337896Y-76528135D01*
X125507376Y-76592620D01*
X125650000Y-76557085D01*
X125650000Y-75800000D01*
X125850000Y-75800000D01*
X125850000Y-76557085D01*
X125992624Y-76592620D01*
X126162104Y-76528135D01*
X126315747Y-76431825D01*
X126447648Y-76307391D01*
X126552739Y-76159616D01*
X126626981Y-75994178D01*
X126642614Y-75942623D01*
X126606683Y-75800000D01*
X125850000Y-75800000D01*
X125650000Y-75800000D01*
X124893317Y-75800000D01*
X124857386Y-75942623D01*
X120288707Y-75942623D01*
X120287403Y-75939477D01*
X120227213Y-75849396D01*
X120150604Y-75772787D01*
X120060523Y-75712597D01*
X119960429Y-75671136D01*
X119854170Y-75650000D01*
X119745830Y-75650000D01*
X119639571Y-75671136D01*
X119539477Y-75712597D01*
X119449396Y-75772787D01*
X119372787Y-75849396D01*
X119312597Y-75939477D01*
X119271136Y-76039571D01*
X119250000Y-76145830D01*
X116723647Y-76145830D01*
X116650604Y-76072787D01*
X116560523Y-76012597D01*
X116460429Y-75971136D01*
X116354170Y-75950000D01*
X116245830Y-75950000D01*
X116139571Y-75971136D01*
X116039477Y-76012597D01*
X115949396Y-76072787D01*
X115900000Y-76122183D01*
X115870793Y-76092976D01*
X115780712Y-76032786D01*
X115680618Y-75991325D01*
X115574359Y-75970189D01*
X115466019Y-75970189D01*
X115359760Y-75991325D01*
X115259666Y-76032786D01*
X115169585Y-76092976D01*
X115120189Y-76142372D01*
X115050604Y-76072787D01*
X114960523Y-76012597D01*
X114860429Y-75971136D01*
X114754170Y-75950000D01*
X114645830Y-75950000D01*
X114539571Y-75971136D01*
X114439477Y-76012597D01*
X114349396Y-76072787D01*
X114272787Y-76149396D01*
X114212597Y-76239477D01*
X114171136Y-76339571D01*
X114150000Y-76445830D01*
X113750000Y-76445830D01*
X113728864Y-76339571D01*
X113687403Y-76239477D01*
X113627213Y-76149396D01*
X113550604Y-76072787D01*
X113460523Y-76012597D01*
X113360429Y-75971136D01*
X113254170Y-75950000D01*
X113145830Y-75950000D01*
X113039571Y-75971136D01*
X112939477Y-76012597D01*
X112849396Y-76072787D01*
X112772787Y-76149396D01*
X112725000Y-76220915D01*
X112677213Y-76149396D01*
X112600604Y-76072787D01*
X112510523Y-76012597D01*
X112410429Y-75971136D01*
X112304170Y-75950000D01*
X112195830Y-75950000D01*
X112089571Y-75971136D01*
X111989477Y-76012597D01*
X111899396Y-76072787D01*
X111875000Y-76097183D01*
X111850604Y-76072787D01*
X111760523Y-76012597D01*
X111660429Y-75971136D01*
X111554170Y-75950000D01*
X111445830Y-75950000D01*
X111339571Y-75971136D01*
X111239477Y-76012597D01*
X111149396Y-76072787D01*
X111072787Y-76149396D01*
X111012597Y-76239477D01*
X110971136Y-76339571D01*
X110950000Y-76445830D01*
X108050000Y-76445830D01*
X108050000Y-75457377D01*
X124857386Y-75457377D01*
X124893317Y-75600000D01*
X125650000Y-75600000D01*
X125650000Y-74842915D01*
X125850000Y-74842915D01*
X125850000Y-75600000D01*
X126606683Y-75600000D01*
X126642614Y-75457377D01*
X126626981Y-75405822D01*
X126552739Y-75240384D01*
X126447648Y-75092609D01*
X126315747Y-74968175D01*
X126162104Y-74871865D01*
X125992624Y-74807380D01*
X125850000Y-74842915D01*
X125650000Y-74842915D01*
X125507376Y-74807380D01*
X125337896Y-74871865D01*
X125184253Y-74968175D01*
X125052352Y-75092609D01*
X124947261Y-75240384D01*
X124873019Y-75405822D01*
X124857386Y-75457377D01*
X108050000Y-75457377D01*
X108050000Y-74316501D01*
X108072787Y-74350604D01*
X108149396Y-74427213D01*
X108239477Y-74487403D01*
X108339571Y-74528864D01*
X108445830Y-74550000D01*
X108554170Y-74550000D01*
X108660429Y-74528864D01*
X108760523Y-74487403D01*
X108850604Y-74427213D01*
X108927213Y-74350604D01*
X108950002Y-74316497D01*
X108972789Y-74350600D01*
X109049398Y-74427209D01*
X109139479Y-74487399D01*
X109239573Y-74528860D01*
X109345832Y-74549996D01*
X109454172Y-74549996D01*
X109560431Y-74528860D01*
X109660525Y-74487399D01*
X109750606Y-74427209D01*
X109827215Y-74350600D01*
X109850000Y-74316500D01*
X109872787Y-74350604D01*
X109949396Y-74427213D01*
X110039477Y-74487403D01*
X110139571Y-74528864D01*
X110245830Y-74550000D01*
X110354170Y-74550000D01*
X110441954Y-74532539D01*
X110441954Y-74546124D01*
X110463090Y-74652383D01*
X110504551Y-74752477D01*
X110564741Y-74842558D01*
X110641350Y-74919167D01*
X110731431Y-74979357D01*
X110831525Y-75020818D01*
X110937784Y-75041954D01*
X111046124Y-75041954D01*
X111152383Y-75020818D01*
X111252477Y-74979357D01*
X111342558Y-74919167D01*
X111419167Y-74842558D01*
X111479357Y-74752477D01*
X111520818Y-74652383D01*
X111541954Y-74546124D01*
X111541954Y-74437784D01*
X111520818Y-74331525D01*
X111479357Y-74231431D01*
X111419167Y-74141350D01*
X111342558Y-74064741D01*
X111252477Y-74004551D01*
X111152383Y-73963090D01*
X111046124Y-73941954D01*
X110937784Y-73941954D01*
X110850000Y-73959415D01*
X110850000Y-73945830D01*
X110828864Y-73839571D01*
X110787403Y-73739477D01*
X110727213Y-73649396D01*
X110650604Y-73572787D01*
X110560523Y-73512597D01*
X110475516Y-73477385D01*
X110550604Y-73427213D01*
X110627213Y-73350604D01*
X110687403Y-73260523D01*
X110728864Y-73160429D01*
X110750000Y-73054170D01*
X110750000Y-72945830D01*
X110749999Y-72945820D01*
X112150010Y-72945820D01*
X112150010Y-73054160D01*
X112171146Y-73160419D01*
X112212607Y-73260513D01*
X112272797Y-73350594D01*
X112349406Y-73427203D01*
X112439487Y-73487393D01*
X112539581Y-73528854D01*
X112645840Y-73549990D01*
X112754180Y-73549990D01*
X112860439Y-73528854D01*
X112960533Y-73487393D01*
X113050614Y-73427203D01*
X113127223Y-73350594D01*
X113187413Y-73260513D01*
X113228874Y-73160419D01*
X113250010Y-73054160D01*
X113250010Y-72945820D01*
X113228874Y-72839561D01*
X113187413Y-72739467D01*
X113127223Y-72649386D01*
X113050614Y-72572777D01*
X112960533Y-72512587D01*
X112860439Y-72471126D01*
X112754180Y-72449990D01*
X112645840Y-72449990D01*
X112539581Y-72471126D01*
X112439487Y-72512587D01*
X112349406Y-72572777D01*
X112272797Y-72649386D01*
X112212607Y-72739467D01*
X112171146Y-72839561D01*
X112150010Y-72945820D01*
X110749999Y-72945820D01*
X110728864Y-72839571D01*
X110687403Y-72739477D01*
X110627213Y-72649396D01*
X110550604Y-72572787D01*
X110460523Y-72512597D01*
X110360429Y-72471136D01*
X110254170Y-72450000D01*
X110145830Y-72450000D01*
X110039571Y-72471136D01*
X109939477Y-72512597D01*
X109849396Y-72572787D01*
X109772787Y-72649396D01*
X109712597Y-72739477D01*
X109671136Y-72839571D01*
X109650000Y-72945830D01*
X109650000Y-73054170D01*
X109671136Y-73160429D01*
X109712597Y-73260523D01*
X109772787Y-73350604D01*
X109849396Y-73427213D01*
X109939477Y-73487403D01*
X110024484Y-73522615D01*
X109949396Y-73572787D01*
X109872787Y-73649396D01*
X109850002Y-73683496D01*
X109827215Y-73649392D01*
X109750606Y-73572783D01*
X109660525Y-73512593D01*
X109560431Y-73471132D01*
X109454172Y-73449996D01*
X109345832Y-73449996D01*
X109239573Y-73471132D01*
X109139479Y-73512593D01*
X109049398Y-73572783D01*
X108972789Y-73649392D01*
X108950000Y-73683499D01*
X108927213Y-73649396D01*
X108850604Y-73572787D01*
X108760523Y-73512597D01*
X108660429Y-73471136D01*
X108554170Y-73450000D01*
X108445830Y-73450000D01*
X108339571Y-73471136D01*
X108239477Y-73512597D01*
X108149396Y-73572787D01*
X108072787Y-73649396D01*
X108050000Y-73683499D01*
X108050000Y-72800000D01*
X108049039Y-72790245D01*
X108046194Y-72780866D01*
X108041573Y-72772221D01*
X108035355Y-72764645D01*
X108027779Y-72758427D01*
X108019134Y-72753806D01*
X108009755Y-72750961D01*
X108000000Y-72750000D01*
X103300000Y-72750000D01*
X103300000Y-72300000D01*
X126700001Y-72300000D01*
X126700000Y-88700000D01*
G37*
X126700000Y-88700000D02*
X114361023Y-88700000D01*
X114387401Y-88660523D01*
X114428862Y-88560429D01*
X114449998Y-88454170D01*
X114449998Y-88345830D01*
X114428862Y-88239571D01*
X114387401Y-88139477D01*
X114327211Y-88049396D01*
X114250602Y-87972787D01*
X114160521Y-87912597D01*
X114060427Y-87871136D01*
X113954168Y-87850000D01*
X113845828Y-87850000D01*
X113739569Y-87871136D01*
X113639475Y-87912597D01*
X113549394Y-87972787D01*
X113472785Y-88049396D01*
X113412595Y-88139477D01*
X113371134Y-88239571D01*
X113349998Y-88345830D01*
X113349998Y-88454170D01*
X113371134Y-88560429D01*
X113412595Y-88660523D01*
X113438973Y-88700000D01*
X103300000Y-88700000D01*
X103300000Y-87145830D01*
X105650000Y-87145830D01*
X105650000Y-87254170D01*
X105671136Y-87360429D01*
X105712597Y-87460523D01*
X105772787Y-87550604D01*
X105849396Y-87627213D01*
X105939477Y-87687403D01*
X106039571Y-87728864D01*
X106145830Y-87750000D01*
X106254170Y-87750000D01*
X106360429Y-87728864D01*
X106460523Y-87687403D01*
X106550604Y-87627213D01*
X106627213Y-87550604D01*
X106687403Y-87460523D01*
X106728864Y-87360429D01*
X106750000Y-87254170D01*
X106750000Y-87145830D01*
X106728864Y-87039571D01*
X106687403Y-86939477D01*
X106627213Y-86849396D01*
X106550604Y-86772787D01*
X106460523Y-86712597D01*
X106360429Y-86671136D01*
X106254170Y-86650000D01*
X106145830Y-86650000D01*
X106039571Y-86671136D01*
X105939477Y-86712597D01*
X105849396Y-86772787D01*
X105772787Y-86849396D01*
X105712597Y-86939477D01*
X105671136Y-87039571D01*
X105650000Y-87145830D01*
X103300000Y-87145830D01*
X103300000Y-86645830D01*
X107230000Y-86645830D01*
X107230000Y-86754170D01*
X107251136Y-86860429D01*
X107292597Y-86960523D01*
X107352787Y-87050604D01*
X107429396Y-87127213D01*
X107519477Y-87187403D01*
X107619571Y-87228864D01*
X107725830Y-87250000D01*
X107834170Y-87250000D01*
X107940429Y-87228864D01*
X108040523Y-87187403D01*
X108130604Y-87127213D01*
X108207213Y-87050604D01*
X108267403Y-86960523D01*
X108288037Y-86910708D01*
X122925000Y-86910708D01*
X122925000Y-87689293D01*
X122936576Y-87806827D01*
X122982322Y-87957628D01*
X123056608Y-88096606D01*
X123156579Y-88218422D01*
X123278395Y-88318393D01*
X123417373Y-88392679D01*
X123568174Y-88438424D01*
X123725000Y-88453870D01*
X123881827Y-88438424D01*
X124032628Y-88392679D01*
X124171606Y-88318393D01*
X124293422Y-88218422D01*
X124393393Y-88096606D01*
X124467679Y-87957628D01*
X124513424Y-87806827D01*
X124525000Y-87689293D01*
X124525000Y-86910707D01*
X124513424Y-86793173D01*
X124467679Y-86642372D01*
X124393393Y-86503394D01*
X124293422Y-86381578D01*
X124171605Y-86281607D01*
X124032627Y-86207321D01*
X123881826Y-86161576D01*
X123725000Y-86146130D01*
X123568173Y-86161576D01*
X123417372Y-86207321D01*
X123278394Y-86281607D01*
X123156578Y-86381578D01*
X123056607Y-86503395D01*
X122982321Y-86642373D01*
X122936576Y-86793174D01*
X122925000Y-86910708D01*
X108288037Y-86910708D01*
X108308864Y-86860429D01*
X108330000Y-86754170D01*
X108330000Y-86645830D01*
X108308864Y-86539571D01*
X108267403Y-86439477D01*
X108207213Y-86349396D01*
X108130604Y-86272787D01*
X108040523Y-86212597D01*
X107940429Y-86171136D01*
X107834170Y-86150000D01*
X107725830Y-86150000D01*
X107619571Y-86171136D01*
X107519477Y-86212597D01*
X107429396Y-86272787D01*
X107352787Y-86349396D01*
X107292597Y-86439477D01*
X107251136Y-86539571D01*
X107230000Y-86645830D01*
X103300000Y-86645830D01*
X103300000Y-85145830D01*
X112250000Y-85145830D01*
X112250000Y-85254170D01*
X112271136Y-85360429D01*
X112312597Y-85460523D01*
X112372787Y-85550604D01*
X112449396Y-85627213D01*
X112539477Y-85687403D01*
X112639571Y-85728864D01*
X112745830Y-85750000D01*
X112854170Y-85750000D01*
X112960429Y-85728864D01*
X113060523Y-85687403D01*
X113150604Y-85627213D01*
X113200000Y-85577817D01*
X113249396Y-85627213D01*
X113339477Y-85687403D01*
X113439571Y-85728864D01*
X113545830Y-85750000D01*
X113654170Y-85750000D01*
X113675134Y-85745830D01*
X122050000Y-85745830D01*
X122050000Y-85854170D01*
X122071136Y-85960429D01*
X122112597Y-86060523D01*
X122172787Y-86150604D01*
X122249396Y-86227213D01*
X122339477Y-86287403D01*
X122439571Y-86328864D01*
X122545830Y-86350000D01*
X122654170Y-86350000D01*
X122760429Y-86328864D01*
X122860523Y-86287403D01*
X122950604Y-86227213D01*
X123027213Y-86150604D01*
X123087403Y-86060523D01*
X123128864Y-85960429D01*
X123150000Y-85854170D01*
X123150000Y-85745830D01*
X123128864Y-85639571D01*
X123087403Y-85539477D01*
X123027213Y-85449396D01*
X122950604Y-85372787D01*
X122860523Y-85312597D01*
X122760429Y-85271136D01*
X122654170Y-85250000D01*
X122545830Y-85250000D01*
X122439571Y-85271136D01*
X122339477Y-85312597D01*
X122249396Y-85372787D01*
X122172787Y-85449396D01*
X122112597Y-85539477D01*
X122071136Y-85639571D01*
X122050000Y-85745830D01*
X113675134Y-85745830D01*
X113760429Y-85728864D01*
X113860523Y-85687403D01*
X113950604Y-85627213D01*
X114027213Y-85550604D01*
X114087403Y-85460523D01*
X114089971Y-85454324D01*
X114139477Y-85487403D01*
X114239571Y-85528864D01*
X114345830Y-85550000D01*
X114454170Y-85550000D01*
X114560429Y-85528864D01*
X114660523Y-85487403D01*
X114750604Y-85427213D01*
X114827213Y-85350604D01*
X114887403Y-85260523D01*
X114928864Y-85160429D01*
X114950000Y-85054170D01*
X114950000Y-84945830D01*
X114928864Y-84839571D01*
X114890035Y-84745830D01*
X117550000Y-84745830D01*
X117550000Y-84854170D01*
X117571136Y-84960429D01*
X117612597Y-85060523D01*
X117672787Y-85150604D01*
X117749396Y-85227213D01*
X117839477Y-85287403D01*
X117939571Y-85328864D01*
X118045830Y-85350000D01*
X118154170Y-85350000D01*
X118260429Y-85328864D01*
X118360523Y-85287403D01*
X118450604Y-85227213D01*
X118527213Y-85150604D01*
X118587403Y-85060523D01*
X118622861Y-84974919D01*
X118989454Y-84974919D01*
X118989454Y-85083259D01*
X119010590Y-85189518D01*
X119052051Y-85289612D01*
X119112241Y-85379693D01*
X119188850Y-85456302D01*
X119278931Y-85516492D01*
X119379025Y-85557953D01*
X119485284Y-85579089D01*
X119593624Y-85579089D01*
X119699883Y-85557953D01*
X119799977Y-85516492D01*
X119890058Y-85456302D01*
X119966667Y-85379693D01*
X120026857Y-85289612D01*
X120068318Y-85189518D01*
X120089454Y-85083259D01*
X120089454Y-84974919D01*
X120068318Y-84868660D01*
X120026857Y-84768566D01*
X119966667Y-84678485D01*
X119890058Y-84601876D01*
X119799977Y-84541686D01*
X119699883Y-84500225D01*
X119593624Y-84479089D01*
X119485284Y-84479089D01*
X119379025Y-84500225D01*
X119278931Y-84541686D01*
X119188850Y-84601876D01*
X119112241Y-84678485D01*
X119052051Y-84768566D01*
X119010590Y-84868660D01*
X118989454Y-84974919D01*
X118622861Y-84974919D01*
X118628864Y-84960429D01*
X118650000Y-84854170D01*
X118650000Y-84745830D01*
X118628864Y-84639571D01*
X118587403Y-84539477D01*
X118527213Y-84449396D01*
X118450604Y-84372787D01*
X118360523Y-84312597D01*
X118260429Y-84271136D01*
X118154170Y-84250000D01*
X118045830Y-84250000D01*
X117939571Y-84271136D01*
X117839477Y-84312597D01*
X117749396Y-84372787D01*
X117672787Y-84449396D01*
X117612597Y-84539477D01*
X117571136Y-84639571D01*
X117550000Y-84745830D01*
X114890035Y-84745830D01*
X114887403Y-84739477D01*
X114827213Y-84649396D01*
X114750604Y-84572787D01*
X114660523Y-84512597D01*
X114560429Y-84471136D01*
X114454170Y-84450000D01*
X114345830Y-84450000D01*
X114239571Y-84471136D01*
X114139477Y-84512597D01*
X114049396Y-84572787D01*
X113972787Y-84649396D01*
X113912597Y-84739477D01*
X113910029Y-84745676D01*
X113860523Y-84712597D01*
X113760429Y-84671136D01*
X113654170Y-84650000D01*
X113545830Y-84650000D01*
X113439571Y-84671136D01*
X113339477Y-84712597D01*
X113249396Y-84772787D01*
X113200000Y-84822183D01*
X113150604Y-84772787D01*
X113060523Y-84712597D01*
X112960429Y-84671136D01*
X112854170Y-84650000D01*
X112745830Y-84650000D01*
X112639571Y-84671136D01*
X112539477Y-84712597D01*
X112449396Y-84772787D01*
X112372787Y-84849396D01*
X112312597Y-84939477D01*
X112271136Y-85039571D01*
X112250000Y-85145830D01*
X103300000Y-85145830D01*
X103300000Y-83910708D01*
X125075000Y-83910708D01*
X125075001Y-85089293D01*
X125086577Y-85206827D01*
X125132322Y-85357628D01*
X125206608Y-85496606D01*
X125306579Y-85618422D01*
X125428395Y-85718393D01*
X125567373Y-85792679D01*
X125718174Y-85838424D01*
X125875000Y-85853870D01*
X126031827Y-85838424D01*
X126182628Y-85792679D01*
X126321606Y-85718393D01*
X126443422Y-85618422D01*
X126543393Y-85496606D01*
X126617679Y-85357628D01*
X126663424Y-85206827D01*
X126675000Y-85089293D01*
X126675000Y-83910707D01*
X126663424Y-83793173D01*
X126617679Y-83642372D01*
X126543393Y-83503394D01*
X126443422Y-83381578D01*
X126321605Y-83281607D01*
X126182627Y-83207321D01*
X126031826Y-83161576D01*
X125875000Y-83146130D01*
X125718173Y-83161576D01*
X125567372Y-83207321D01*
X125428394Y-83281607D01*
X125306578Y-83381578D01*
X125206607Y-83503395D01*
X125132321Y-83642373D01*
X125086576Y-83793174D01*
X125075000Y-83910708D01*
X103300000Y-83910708D01*
X103300000Y-81945830D01*
X104250000Y-81945830D01*
X104250000Y-82054170D01*
X104271136Y-82160429D01*
X104312597Y-82260523D01*
X104372787Y-82350604D01*
X104449396Y-82427213D01*
X104539477Y-82487403D01*
X104639571Y-82528864D01*
X104745830Y-82550000D01*
X104854170Y-82550000D01*
X104960429Y-82528864D01*
X105060523Y-82487403D01*
X105082710Y-82472578D01*
X118422247Y-82472578D01*
X118422247Y-82580918D01*
X118443383Y-82687177D01*
X118484844Y-82787271D01*
X118545034Y-82877352D01*
X118621643Y-82953961D01*
X118711724Y-83014151D01*
X118811818Y-83055612D01*
X118918077Y-83076748D01*
X119026417Y-83076748D01*
X119132676Y-83055612D01*
X119232770Y-83014151D01*
X119322851Y-82953961D01*
X119399460Y-82877352D01*
X119459650Y-82787271D01*
X119501111Y-82687177D01*
X119522247Y-82580918D01*
X119522247Y-82472578D01*
X119501111Y-82366319D01*
X119459650Y-82266225D01*
X119399460Y-82176144D01*
X119369142Y-82145826D01*
X119550004Y-82145826D01*
X119550004Y-82254166D01*
X119571140Y-82360425D01*
X119612601Y-82460519D01*
X119672791Y-82550600D01*
X119749400Y-82627209D01*
X119839481Y-82687399D01*
X119939575Y-82728860D01*
X120045834Y-82749996D01*
X120154174Y-82749996D01*
X120260433Y-82728860D01*
X120360527Y-82687399D01*
X120450608Y-82627209D01*
X120527217Y-82550600D01*
X120587407Y-82460519D01*
X120628868Y-82360425D01*
X120650004Y-82254166D01*
X120650004Y-82145826D01*
X120628868Y-82039567D01*
X120587407Y-81939473D01*
X120527217Y-81849392D01*
X120450608Y-81772783D01*
X120360527Y-81712593D01*
X120260433Y-81671132D01*
X120154174Y-81649996D01*
X120045834Y-81649996D01*
X119939575Y-81671132D01*
X119839481Y-81712593D01*
X119749400Y-81772783D01*
X119672791Y-81849392D01*
X119612601Y-81939473D01*
X119571140Y-82039567D01*
X119550004Y-82145826D01*
X119369142Y-82145826D01*
X119322851Y-82099535D01*
X119232770Y-82039345D01*
X119132676Y-81997884D01*
X119026417Y-81976748D01*
X118918077Y-81976748D01*
X118811818Y-81997884D01*
X118711724Y-82039345D01*
X118621643Y-82099535D01*
X118545034Y-82176144D01*
X118484844Y-82266225D01*
X118443383Y-82366319D01*
X118422247Y-82472578D01*
X105082710Y-82472578D01*
X105150604Y-82427213D01*
X105227213Y-82350604D01*
X105287403Y-82260523D01*
X105328864Y-82160429D01*
X105350000Y-82054170D01*
X105350000Y-81945830D01*
X105328864Y-81839571D01*
X105287403Y-81739477D01*
X105227213Y-81649396D01*
X105150604Y-81572787D01*
X105060523Y-81512597D01*
X104960429Y-81471136D01*
X104854170Y-81450000D01*
X104745830Y-81450000D01*
X104639571Y-81471136D01*
X104539477Y-81512597D01*
X104449396Y-81572787D01*
X104372787Y-81649396D01*
X104312597Y-81739477D01*
X104271136Y-81839571D01*
X104250000Y-81945830D01*
X103300000Y-81945830D01*
X103300000Y-80530830D01*
X108265008Y-80530830D01*
X108265008Y-80639170D01*
X108286144Y-80745429D01*
X108327605Y-80845523D01*
X108387795Y-80935604D01*
X108464404Y-81012213D01*
X108554485Y-81072403D01*
X108654579Y-81113864D01*
X108760838Y-81135000D01*
X108869178Y-81135000D01*
X108975437Y-81113864D01*
X109075531Y-81072403D01*
X109165612Y-81012213D01*
X109242221Y-80935604D01*
X109302411Y-80845523D01*
X109343872Y-80745429D01*
X109365008Y-80639170D01*
X109365008Y-80530830D01*
X109343872Y-80424571D01*
X109302411Y-80324477D01*
X109242221Y-80234396D01*
X109165612Y-80157787D01*
X109075531Y-80097597D01*
X108975437Y-80056136D01*
X108869178Y-80035000D01*
X108760838Y-80035000D01*
X108654579Y-80056136D01*
X108554485Y-80097597D01*
X108464404Y-80157787D01*
X108387795Y-80234396D01*
X108327605Y-80324477D01*
X108286144Y-80424571D01*
X108265008Y-80530830D01*
X103300000Y-80530830D01*
X103300000Y-79545830D01*
X109850000Y-79545830D01*
X109850000Y-79654170D01*
X109871136Y-79760429D01*
X109912597Y-79860523D01*
X109972787Y-79950604D01*
X110022183Y-80000000D01*
X109972787Y-80049396D01*
X109912597Y-80139477D01*
X109871136Y-80239571D01*
X109850000Y-80345830D01*
X109850000Y-80454170D01*
X109871136Y-80560429D01*
X109912597Y-80660523D01*
X109972787Y-80750604D01*
X110049396Y-80827213D01*
X110139477Y-80887403D01*
X110239571Y-80928864D01*
X110345830Y-80950000D01*
X110454170Y-80950000D01*
X110560429Y-80928864D01*
X110660523Y-80887403D01*
X110750604Y-80827213D01*
X110827213Y-80750604D01*
X110887403Y-80660523D01*
X110928864Y-80560429D01*
X110950000Y-80454170D01*
X110950000Y-80345830D01*
X110928864Y-80239571D01*
X110887403Y-80139477D01*
X110827213Y-80049396D01*
X110777817Y-80000000D01*
X110827213Y-79950604D01*
X110887403Y-79860523D01*
X110928864Y-79760429D01*
X110950000Y-79654170D01*
X110950000Y-79545830D01*
X110928864Y-79439571D01*
X110887403Y-79339477D01*
X110827213Y-79249396D01*
X110750604Y-79172787D01*
X110660523Y-79112597D01*
X110560429Y-79071136D01*
X110454170Y-79050000D01*
X110345830Y-79050000D01*
X110239571Y-79071136D01*
X110139477Y-79112597D01*
X110049396Y-79172787D01*
X109972787Y-79249396D01*
X109912597Y-79339477D01*
X109871136Y-79439571D01*
X109850000Y-79545830D01*
X103300000Y-79545830D01*
X103300000Y-77961419D01*
X109915589Y-77961419D01*
X109915589Y-78069759D01*
X109936725Y-78176018D01*
X109978186Y-78276112D01*
X110038376Y-78366193D01*
X110114985Y-78442802D01*
X110205066Y-78502992D01*
X110305160Y-78544453D01*
X110411419Y-78565589D01*
X110519759Y-78565589D01*
X110626018Y-78544453D01*
X110726112Y-78502992D01*
X110816193Y-78442802D01*
X110892802Y-78366193D01*
X110952992Y-78276112D01*
X110994453Y-78176018D01*
X111015589Y-78069759D01*
X111015589Y-78003133D01*
X118439471Y-78003133D01*
X118439471Y-78111473D01*
X118460607Y-78217732D01*
X118502068Y-78317826D01*
X118562258Y-78407907D01*
X118638867Y-78484516D01*
X118728948Y-78544706D01*
X118829042Y-78586167D01*
X118935301Y-78607303D01*
X118952258Y-78607303D01*
X118939477Y-78612597D01*
X118849396Y-78672787D01*
X118772787Y-78749396D01*
X118712597Y-78839477D01*
X118671136Y-78939571D01*
X118650000Y-79045830D01*
X118650000Y-79154170D01*
X118671136Y-79260429D01*
X118712597Y-79360523D01*
X118772787Y-79450604D01*
X118844862Y-79522679D01*
X118748463Y-79562609D01*
X118658382Y-79622799D01*
X118581773Y-79699408D01*
X118521583Y-79789489D01*
X118480122Y-79889583D01*
X118458986Y-79995842D01*
X118458986Y-80104182D01*
X118480122Y-80210441D01*
X118521583Y-80310535D01*
X118581773Y-80400616D01*
X118658382Y-80477225D01*
X118748463Y-80537415D01*
X118804498Y-80560626D01*
X118794652Y-80610126D01*
X118794652Y-80718466D01*
X118807750Y-80784317D01*
X118739477Y-80812597D01*
X118649396Y-80872787D01*
X118572787Y-80949396D01*
X118512597Y-81039477D01*
X118471136Y-81139571D01*
X118450000Y-81245830D01*
X118450000Y-81354170D01*
X118471136Y-81460429D01*
X118512597Y-81560523D01*
X118572787Y-81650604D01*
X118649396Y-81727213D01*
X118739477Y-81787403D01*
X118839571Y-81828864D01*
X118945830Y-81850000D01*
X119054170Y-81850000D01*
X119160429Y-81828864D01*
X119260523Y-81787403D01*
X119350604Y-81727213D01*
X119427213Y-81650604D01*
X119487403Y-81560523D01*
X119528864Y-81460429D01*
X119550000Y-81354170D01*
X119550000Y-81310708D01*
X122925000Y-81310708D01*
X122925000Y-82089293D01*
X122936576Y-82206827D01*
X122982322Y-82357628D01*
X123056608Y-82496606D01*
X123156579Y-82618422D01*
X123278395Y-82718393D01*
X123417373Y-82792679D01*
X123568174Y-82838424D01*
X123725000Y-82853870D01*
X123881827Y-82838424D01*
X124032628Y-82792679D01*
X124171606Y-82718393D01*
X124293422Y-82618422D01*
X124393393Y-82496606D01*
X124467679Y-82357628D01*
X124513424Y-82206827D01*
X124525000Y-82089293D01*
X124525000Y-81310707D01*
X124513424Y-81193173D01*
X124467679Y-81042372D01*
X124393393Y-80903394D01*
X124293422Y-80781578D01*
X124171605Y-80681607D01*
X124032627Y-80607321D01*
X123881826Y-80561576D01*
X123725000Y-80546130D01*
X123568173Y-80561576D01*
X123417372Y-80607321D01*
X123278394Y-80681607D01*
X123156578Y-80781578D01*
X123056607Y-80903395D01*
X122982321Y-81042373D01*
X122936576Y-81193174D01*
X122925000Y-81310708D01*
X119550000Y-81310708D01*
X119550000Y-81245830D01*
X119536902Y-81179979D01*
X119605175Y-81151699D01*
X119695256Y-81091509D01*
X119771865Y-81014900D01*
X119832055Y-80924819D01*
X119873516Y-80824725D01*
X119894652Y-80718466D01*
X119894652Y-80610126D01*
X119873516Y-80503867D01*
X119832055Y-80403773D01*
X119771865Y-80313692D01*
X119708173Y-80250000D01*
X119754166Y-80250000D01*
X119860425Y-80228864D01*
X119960519Y-80187403D01*
X120050600Y-80127213D01*
X120127209Y-80050604D01*
X120187399Y-79960523D01*
X120228860Y-79860429D01*
X120249996Y-79754170D01*
X120249996Y-79645830D01*
X123149994Y-79645830D01*
X123149994Y-79754170D01*
X123171130Y-79860429D01*
X123212591Y-79960523D01*
X123272781Y-80050604D01*
X123349390Y-80127213D01*
X123439471Y-80187403D01*
X123539565Y-80228864D01*
X123645824Y-80250000D01*
X123754164Y-80250000D01*
X123860423Y-80228864D01*
X123960517Y-80187403D01*
X124050598Y-80127213D01*
X124127207Y-80050604D01*
X124187397Y-79960523D01*
X124228858Y-79860429D01*
X124249994Y-79754170D01*
X124249994Y-79645830D01*
X124228858Y-79539571D01*
X124187397Y-79439477D01*
X124127207Y-79349396D01*
X124050598Y-79272787D01*
X123960517Y-79212597D01*
X123860423Y-79171136D01*
X123754164Y-79150000D01*
X123645824Y-79150000D01*
X123539565Y-79171136D01*
X123439471Y-79212597D01*
X123349390Y-79272787D01*
X123272781Y-79349396D01*
X123212591Y-79439477D01*
X123171130Y-79539571D01*
X123149994Y-79645830D01*
X120249996Y-79645830D01*
X120248117Y-79636386D01*
X120285933Y-79628864D01*
X120386027Y-79587403D01*
X120476108Y-79527213D01*
X120552717Y-79450604D01*
X120612907Y-79360523D01*
X120654368Y-79260429D01*
X120675504Y-79154170D01*
X120675504Y-79045830D01*
X120654368Y-78939571D01*
X120636250Y-78895830D01*
X121200000Y-78895830D01*
X121200000Y-79004170D01*
X121221136Y-79110429D01*
X121262597Y-79210523D01*
X121322787Y-79300604D01*
X121399396Y-79377213D01*
X121489477Y-79437403D01*
X121589571Y-79478864D01*
X121695830Y-79500000D01*
X121804170Y-79500000D01*
X121910429Y-79478864D01*
X122010523Y-79437403D01*
X122100604Y-79377213D01*
X122177213Y-79300604D01*
X122237403Y-79210523D01*
X122278864Y-79110429D01*
X122300000Y-79004170D01*
X122300000Y-78895830D01*
X122278864Y-78789571D01*
X122237403Y-78689477D01*
X122177213Y-78599396D01*
X122100604Y-78522787D01*
X122010523Y-78462597D01*
X121910429Y-78421136D01*
X121804170Y-78400000D01*
X121695830Y-78400000D01*
X121589571Y-78421136D01*
X121489477Y-78462597D01*
X121399396Y-78522787D01*
X121322787Y-78599396D01*
X121262597Y-78689477D01*
X121221136Y-78789571D01*
X121200000Y-78895830D01*
X120636250Y-78895830D01*
X120612907Y-78839477D01*
X120552717Y-78749396D01*
X120476108Y-78672787D01*
X120386027Y-78612597D01*
X120285933Y-78571136D01*
X120179674Y-78550000D01*
X120071334Y-78550000D01*
X119965075Y-78571136D01*
X119864981Y-78612597D01*
X119774900Y-78672787D01*
X119698291Y-78749396D01*
X119662752Y-78802584D01*
X119627213Y-78749396D01*
X119550604Y-78672787D01*
X119460523Y-78612597D01*
X119360429Y-78571136D01*
X119254170Y-78550000D01*
X119237213Y-78550000D01*
X119249994Y-78544706D01*
X119340075Y-78484516D01*
X119416684Y-78407907D01*
X119476874Y-78317826D01*
X119518335Y-78217732D01*
X119539471Y-78111473D01*
X119539471Y-78003133D01*
X119518335Y-77896874D01*
X119476874Y-77796780D01*
X119416684Y-77706699D01*
X119393901Y-77683916D01*
X119427213Y-77650604D01*
X119487403Y-77560523D01*
X119528864Y-77460429D01*
X119550000Y-77354170D01*
X119550000Y-77245830D01*
X119528864Y-77139571D01*
X119487403Y-77039477D01*
X119477730Y-77025000D01*
X124823791Y-77025000D01*
X124823791Y-78375000D01*
X124828618Y-78424008D01*
X124842913Y-78471134D01*
X124866127Y-78514564D01*
X124897368Y-78552632D01*
X124935436Y-78583873D01*
X124978866Y-78607087D01*
X125025992Y-78621382D01*
X125075000Y-78626209D01*
X126425000Y-78626209D01*
X126474008Y-78621382D01*
X126521134Y-78607087D01*
X126564564Y-78583873D01*
X126602632Y-78552632D01*
X126633873Y-78514564D01*
X126657087Y-78471134D01*
X126671382Y-78424008D01*
X126676209Y-78375000D01*
X126676209Y-77025000D01*
X126671382Y-76975992D01*
X126657087Y-76928866D01*
X126633873Y-76885436D01*
X126602632Y-76847368D01*
X126564564Y-76816127D01*
X126521134Y-76792913D01*
X126474008Y-76778618D01*
X126425000Y-76773791D01*
X125075000Y-76773791D01*
X125025992Y-76778618D01*
X124978866Y-76792913D01*
X124935436Y-76816127D01*
X124897368Y-76847368D01*
X124866127Y-76885436D01*
X124842913Y-76928866D01*
X124828618Y-76975992D01*
X124823791Y-77025000D01*
X119477730Y-77025000D01*
X119427213Y-76949396D01*
X119350604Y-76872787D01*
X119260523Y-76812597D01*
X119160429Y-76771136D01*
X119054170Y-76750000D01*
X118945830Y-76750000D01*
X118839571Y-76771136D01*
X118739477Y-76812597D01*
X118649396Y-76872787D01*
X118572787Y-76949396D01*
X118512597Y-77039477D01*
X118471136Y-77139571D01*
X118450000Y-77245830D01*
X118450000Y-77354170D01*
X118471136Y-77460429D01*
X118512597Y-77560523D01*
X118572787Y-77650604D01*
X118595570Y-77673387D01*
X118562258Y-77706699D01*
X118502068Y-77796780D01*
X118460607Y-77896874D01*
X118439471Y-78003133D01*
X111015589Y-78003133D01*
X111015589Y-77961419D01*
X110994453Y-77855160D01*
X110952992Y-77755066D01*
X110892802Y-77664985D01*
X110816193Y-77588376D01*
X110726112Y-77528186D01*
X110626018Y-77486725D01*
X110519759Y-77465589D01*
X110411419Y-77465589D01*
X110305160Y-77486725D01*
X110205066Y-77528186D01*
X110114985Y-77588376D01*
X110038376Y-77664985D01*
X109978186Y-77755066D01*
X109936725Y-77855160D01*
X109915589Y-77961419D01*
X103300000Y-77961419D01*
X103300000Y-77650000D01*
X108000000Y-77650000D01*
X108009755Y-77649039D01*
X108019134Y-77646194D01*
X108027779Y-77641573D01*
X108035355Y-77635355D01*
X108041573Y-77627779D01*
X108046194Y-77619134D01*
X108049039Y-77609755D01*
X108050000Y-77600000D01*
X108050000Y-76445830D01*
X110950000Y-76445830D01*
X110950000Y-76554170D01*
X110971136Y-76660429D01*
X111012597Y-76760523D01*
X111072787Y-76850604D01*
X111149396Y-76927213D01*
X111239477Y-76987403D01*
X111339571Y-77028864D01*
X111445830Y-77050000D01*
X111554170Y-77050000D01*
X111660429Y-77028864D01*
X111760523Y-76987403D01*
X111850604Y-76927213D01*
X111875000Y-76902817D01*
X111899396Y-76927213D01*
X111989477Y-76987403D01*
X112089571Y-77028864D01*
X112195830Y-77050000D01*
X112304170Y-77050000D01*
X112410429Y-77028864D01*
X112510523Y-76987403D01*
X112600604Y-76927213D01*
X112677213Y-76850604D01*
X112725000Y-76779085D01*
X112772787Y-76850604D01*
X112849396Y-76927213D01*
X112939477Y-76987403D01*
X113039571Y-77028864D01*
X113145830Y-77050000D01*
X113254170Y-77050000D01*
X113360429Y-77028864D01*
X113460523Y-76987403D01*
X113550604Y-76927213D01*
X113627213Y-76850604D01*
X113687403Y-76760523D01*
X113728864Y-76660429D01*
X113750000Y-76554170D01*
X113750000Y-76445830D01*
X114150000Y-76445830D01*
X114150000Y-76554170D01*
X114171136Y-76660429D01*
X114212597Y-76760523D01*
X114272787Y-76850604D01*
X114349396Y-76927213D01*
X114439477Y-76987403D01*
X114539571Y-77028864D01*
X114645830Y-77050000D01*
X114754170Y-77050000D01*
X114860429Y-77028864D01*
X114960523Y-76987403D01*
X115050604Y-76927213D01*
X115100000Y-76877817D01*
X115169585Y-76947402D01*
X115259666Y-77007592D01*
X115359760Y-77049053D01*
X115466019Y-77070189D01*
X115574359Y-77070189D01*
X115680618Y-77049053D01*
X115780712Y-77007592D01*
X115870793Y-76947402D01*
X115920189Y-76898006D01*
X115949396Y-76927213D01*
X116039477Y-76987403D01*
X116139571Y-77028864D01*
X116245830Y-77050000D01*
X116354170Y-77050000D01*
X116460429Y-77028864D01*
X116560523Y-76987403D01*
X116650604Y-76927213D01*
X116727213Y-76850604D01*
X116787403Y-76760523D01*
X116828864Y-76660429D01*
X116850000Y-76554170D01*
X116850000Y-76445830D01*
X116828864Y-76339571D01*
X116787403Y-76239477D01*
X116727213Y-76149396D01*
X116723647Y-76145830D01*
X119250000Y-76145830D01*
X119250000Y-76254170D01*
X119271136Y-76360429D01*
X119312597Y-76460523D01*
X119372787Y-76550604D01*
X119449396Y-76627213D01*
X119539477Y-76687403D01*
X119639571Y-76728864D01*
X119745830Y-76750000D01*
X119854170Y-76750000D01*
X119960429Y-76728864D01*
X120060523Y-76687403D01*
X120150604Y-76627213D01*
X120227213Y-76550604D01*
X120287403Y-76460523D01*
X120328864Y-76360429D01*
X120350000Y-76254170D01*
X120350000Y-76145830D01*
X120328864Y-76039571D01*
X120288707Y-75942623D01*
X124857386Y-75942623D01*
X124873019Y-75994178D01*
X124947261Y-76159616D01*
X125052352Y-76307391D01*
X125184253Y-76431825D01*
X125337896Y-76528135D01*
X125507376Y-76592620D01*
X125650000Y-76557085D01*
X125650000Y-75800000D01*
X125850000Y-75800000D01*
X125850000Y-76557085D01*
X125992624Y-76592620D01*
X126162104Y-76528135D01*
X126315747Y-76431825D01*
X126447648Y-76307391D01*
X126552739Y-76159616D01*
X126626981Y-75994178D01*
X126642614Y-75942623D01*
X126606683Y-75800000D01*
X125850000Y-75800000D01*
X125650000Y-75800000D01*
X124893317Y-75800000D01*
X124857386Y-75942623D01*
X120288707Y-75942623D01*
X120287403Y-75939477D01*
X120227213Y-75849396D01*
X120150604Y-75772787D01*
X120060523Y-75712597D01*
X119960429Y-75671136D01*
X119854170Y-75650000D01*
X119745830Y-75650000D01*
X119639571Y-75671136D01*
X119539477Y-75712597D01*
X119449396Y-75772787D01*
X119372787Y-75849396D01*
X119312597Y-75939477D01*
X119271136Y-76039571D01*
X119250000Y-76145830D01*
X116723647Y-76145830D01*
X116650604Y-76072787D01*
X116560523Y-76012597D01*
X116460429Y-75971136D01*
X116354170Y-75950000D01*
X116245830Y-75950000D01*
X116139571Y-75971136D01*
X116039477Y-76012597D01*
X115949396Y-76072787D01*
X115900000Y-76122183D01*
X115870793Y-76092976D01*
X115780712Y-76032786D01*
X115680618Y-75991325D01*
X115574359Y-75970189D01*
X115466019Y-75970189D01*
X115359760Y-75991325D01*
X115259666Y-76032786D01*
X115169585Y-76092976D01*
X115120189Y-76142372D01*
X115050604Y-76072787D01*
X114960523Y-76012597D01*
X114860429Y-75971136D01*
X114754170Y-75950000D01*
X114645830Y-75950000D01*
X114539571Y-75971136D01*
X114439477Y-76012597D01*
X114349396Y-76072787D01*
X114272787Y-76149396D01*
X114212597Y-76239477D01*
X114171136Y-76339571D01*
X114150000Y-76445830D01*
X113750000Y-76445830D01*
X113728864Y-76339571D01*
X113687403Y-76239477D01*
X113627213Y-76149396D01*
X113550604Y-76072787D01*
X113460523Y-76012597D01*
X113360429Y-75971136D01*
X113254170Y-75950000D01*
X113145830Y-75950000D01*
X113039571Y-75971136D01*
X112939477Y-76012597D01*
X112849396Y-76072787D01*
X112772787Y-76149396D01*
X112725000Y-76220915D01*
X112677213Y-76149396D01*
X112600604Y-76072787D01*
X112510523Y-76012597D01*
X112410429Y-75971136D01*
X112304170Y-75950000D01*
X112195830Y-75950000D01*
X112089571Y-75971136D01*
X111989477Y-76012597D01*
X111899396Y-76072787D01*
X111875000Y-76097183D01*
X111850604Y-76072787D01*
X111760523Y-76012597D01*
X111660429Y-75971136D01*
X111554170Y-75950000D01*
X111445830Y-75950000D01*
X111339571Y-75971136D01*
X111239477Y-76012597D01*
X111149396Y-76072787D01*
X111072787Y-76149396D01*
X111012597Y-76239477D01*
X110971136Y-76339571D01*
X110950000Y-76445830D01*
X108050000Y-76445830D01*
X108050000Y-75457377D01*
X124857386Y-75457377D01*
X124893317Y-75600000D01*
X125650000Y-75600000D01*
X125650000Y-74842915D01*
X125850000Y-74842915D01*
X125850000Y-75600000D01*
X126606683Y-75600000D01*
X126642614Y-75457377D01*
X126626981Y-75405822D01*
X126552739Y-75240384D01*
X126447648Y-75092609D01*
X126315747Y-74968175D01*
X126162104Y-74871865D01*
X125992624Y-74807380D01*
X125850000Y-74842915D01*
X125650000Y-74842915D01*
X125507376Y-74807380D01*
X125337896Y-74871865D01*
X125184253Y-74968175D01*
X125052352Y-75092609D01*
X124947261Y-75240384D01*
X124873019Y-75405822D01*
X124857386Y-75457377D01*
X108050000Y-75457377D01*
X108050000Y-74316501D01*
X108072787Y-74350604D01*
X108149396Y-74427213D01*
X108239477Y-74487403D01*
X108339571Y-74528864D01*
X108445830Y-74550000D01*
X108554170Y-74550000D01*
X108660429Y-74528864D01*
X108760523Y-74487403D01*
X108850604Y-74427213D01*
X108927213Y-74350604D01*
X108950002Y-74316497D01*
X108972789Y-74350600D01*
X109049398Y-74427209D01*
X109139479Y-74487399D01*
X109239573Y-74528860D01*
X109345832Y-74549996D01*
X109454172Y-74549996D01*
X109560431Y-74528860D01*
X109660525Y-74487399D01*
X109750606Y-74427209D01*
X109827215Y-74350600D01*
X109850000Y-74316500D01*
X109872787Y-74350604D01*
X109949396Y-74427213D01*
X110039477Y-74487403D01*
X110139571Y-74528864D01*
X110245830Y-74550000D01*
X110354170Y-74550000D01*
X110441954Y-74532539D01*
X110441954Y-74546124D01*
X110463090Y-74652383D01*
X110504551Y-74752477D01*
X110564741Y-74842558D01*
X110641350Y-74919167D01*
X110731431Y-74979357D01*
X110831525Y-75020818D01*
X110937784Y-75041954D01*
X111046124Y-75041954D01*
X111152383Y-75020818D01*
X111252477Y-74979357D01*
X111342558Y-74919167D01*
X111419167Y-74842558D01*
X111479357Y-74752477D01*
X111520818Y-74652383D01*
X111541954Y-74546124D01*
X111541954Y-74437784D01*
X111520818Y-74331525D01*
X111479357Y-74231431D01*
X111419167Y-74141350D01*
X111342558Y-74064741D01*
X111252477Y-74004551D01*
X111152383Y-73963090D01*
X111046124Y-73941954D01*
X110937784Y-73941954D01*
X110850000Y-73959415D01*
X110850000Y-73945830D01*
X110828864Y-73839571D01*
X110787403Y-73739477D01*
X110727213Y-73649396D01*
X110650604Y-73572787D01*
X110560523Y-73512597D01*
X110475516Y-73477385D01*
X110550604Y-73427213D01*
X110627213Y-73350604D01*
X110687403Y-73260523D01*
X110728864Y-73160429D01*
X110750000Y-73054170D01*
X110750000Y-72945830D01*
X110749999Y-72945820D01*
X112150010Y-72945820D01*
X112150010Y-73054160D01*
X112171146Y-73160419D01*
X112212607Y-73260513D01*
X112272797Y-73350594D01*
X112349406Y-73427203D01*
X112439487Y-73487393D01*
X112539581Y-73528854D01*
X112645840Y-73549990D01*
X112754180Y-73549990D01*
X112860439Y-73528854D01*
X112960533Y-73487393D01*
X113050614Y-73427203D01*
X113127223Y-73350594D01*
X113187413Y-73260513D01*
X113228874Y-73160419D01*
X113250010Y-73054160D01*
X113250010Y-72945820D01*
X113228874Y-72839561D01*
X113187413Y-72739467D01*
X113127223Y-72649386D01*
X113050614Y-72572777D01*
X112960533Y-72512587D01*
X112860439Y-72471126D01*
X112754180Y-72449990D01*
X112645840Y-72449990D01*
X112539581Y-72471126D01*
X112439487Y-72512587D01*
X112349406Y-72572777D01*
X112272797Y-72649386D01*
X112212607Y-72739467D01*
X112171146Y-72839561D01*
X112150010Y-72945820D01*
X110749999Y-72945820D01*
X110728864Y-72839571D01*
X110687403Y-72739477D01*
X110627213Y-72649396D01*
X110550604Y-72572787D01*
X110460523Y-72512597D01*
X110360429Y-72471136D01*
X110254170Y-72450000D01*
X110145830Y-72450000D01*
X110039571Y-72471136D01*
X109939477Y-72512597D01*
X109849396Y-72572787D01*
X109772787Y-72649396D01*
X109712597Y-72739477D01*
X109671136Y-72839571D01*
X109650000Y-72945830D01*
X109650000Y-73054170D01*
X109671136Y-73160429D01*
X109712597Y-73260523D01*
X109772787Y-73350604D01*
X109849396Y-73427213D01*
X109939477Y-73487403D01*
X110024484Y-73522615D01*
X109949396Y-73572787D01*
X109872787Y-73649396D01*
X109850002Y-73683496D01*
X109827215Y-73649392D01*
X109750606Y-73572783D01*
X109660525Y-73512593D01*
X109560431Y-73471132D01*
X109454172Y-73449996D01*
X109345832Y-73449996D01*
X109239573Y-73471132D01*
X109139479Y-73512593D01*
X109049398Y-73572783D01*
X108972789Y-73649392D01*
X108950000Y-73683499D01*
X108927213Y-73649396D01*
X108850604Y-73572787D01*
X108760523Y-73512597D01*
X108660429Y-73471136D01*
X108554170Y-73450000D01*
X108445830Y-73450000D01*
X108339571Y-73471136D01*
X108239477Y-73512597D01*
X108149396Y-73572787D01*
X108072787Y-73649396D01*
X108050000Y-73683499D01*
X108050000Y-72800000D01*
X108049039Y-72790245D01*
X108046194Y-72780866D01*
X108041573Y-72772221D01*
X108035355Y-72764645D01*
X108027779Y-72758427D01*
X108019134Y-72753806D01*
X108009755Y-72750961D01*
X108000000Y-72750000D01*
X103300000Y-72750000D01*
X103300000Y-72300000D01*
X126700001Y-72300000D01*
X126700000Y-88700000D01*
%TD*%
M02*
