%TF.GenerationSoftware,KiCad,Pcbnew,5.1.6-c6e7f7d~87~ubuntu18.04.1*%
%TF.CreationDate,2020-08-02T18:29:06+02:00*%
%TF.ProjectId,SKnob,534b6e6f-622e-46b6-9963-61645f706362,1.0*%
%TF.SameCoordinates,Original*%
%TF.FileFunction,Plated,1,4,PTH,Mixed*%
%TF.FilePolarity,Positive*%
%FSLAX46Y46*%
G04 Gerber Fmt 4.6, Leading zero omitted, Abs format (unit mm)*
G04 Created by KiCad (PCBNEW 5.1.6-c6e7f7d~87~ubuntu18.04.1) date 2020-08-02 18:29:06*
%MOMM*%
%LPD*%
G01*
G04 APERTURE LIST*
%TA.AperFunction,ViaDrill*%
%ADD10C,0.300000*%
%TD*%
G04 aperture for slot hole*
%TA.AperFunction,ComponentDrill*%
%ADD11C,0.500000*%
%TD*%
%TA.AperFunction,ComponentDrill*%
%ADD12C,0.800000*%
%TD*%
G04 APERTURE END LIST*
D10*
X103500000Y-72500000D03*
X103600000Y-78000000D03*
X103600000Y-80000000D03*
X103600000Y-82000000D03*
X103600000Y-84000000D03*
X103600000Y-86000000D03*
X103600000Y-88000000D03*
X104300000Y-78200000D03*
X104500000Y-88400000D03*
X104650000Y-79350000D03*
X104800000Y-82000000D03*
X105400000Y-80100000D03*
X105500000Y-72500000D03*
X105850000Y-78200000D03*
X106150000Y-80850000D03*
X106200000Y-87200000D03*
X106500000Y-79000000D03*
X106500000Y-88400000D03*
X106900000Y-81600000D03*
X107000000Y-78000000D03*
X107250000Y-79750000D03*
X107500000Y-72500000D03*
X107699998Y-82400000D03*
X107780000Y-86700000D03*
X108000000Y-78000000D03*
X108000000Y-80500000D03*
X108500000Y-74000000D03*
X108500000Y-88400000D03*
X108700000Y-79580000D03*
X108800000Y-78200000D03*
X108800000Y-87100000D03*
X108815008Y-80585000D03*
X109400000Y-75600000D03*
X109400002Y-73999996D03*
X110200000Y-73000000D03*
X110300000Y-74000000D03*
X110400000Y-79600000D03*
X110400000Y-80400000D03*
X110465589Y-78015589D03*
X110991954Y-74491954D03*
X111500000Y-76500000D03*
X112000000Y-75500000D03*
X112250000Y-76500000D03*
X112300000Y-88200000D03*
X112400000Y-86700000D03*
X112500000Y-78500000D03*
X112500000Y-80000000D03*
X112500000Y-81500000D03*
X112500000Y-83000000D03*
X112700010Y-72999990D03*
X112800000Y-85200000D03*
X113200000Y-76500000D03*
X113600000Y-85200000D03*
X113899998Y-88400000D03*
X113965000Y-81465000D03*
X114000000Y-78500000D03*
X114000000Y-80000000D03*
X114000000Y-83000000D03*
X114400000Y-85000000D03*
X114700000Y-76500000D03*
X115099981Y-74500007D03*
X115500000Y-78500000D03*
X115500000Y-80000000D03*
X115520189Y-76520189D03*
X115520189Y-81479811D03*
X115520189Y-82979811D03*
X116300000Y-76500000D03*
X117000000Y-78500000D03*
X117000000Y-80000000D03*
X117000000Y-81500000D03*
X117000000Y-83000000D03*
X117100000Y-88000000D03*
X118100000Y-84800000D03*
X118900000Y-87000000D03*
X118972247Y-82526748D03*
X118989471Y-78057303D03*
X119000000Y-75600000D03*
X119000000Y-77300000D03*
X119000000Y-81300000D03*
X119008986Y-80050012D03*
X119200000Y-79100000D03*
X119344652Y-80664296D03*
X119539454Y-85029089D03*
X119699996Y-79700000D03*
X119700000Y-87000000D03*
X119800000Y-76200000D03*
X120100004Y-82199996D03*
X120125504Y-79100000D03*
X120800000Y-76200000D03*
X120869478Y-78795509D03*
X121100000Y-79700000D03*
X121600000Y-87000000D03*
X121750000Y-76250000D03*
X121750000Y-78950000D03*
X122600000Y-85800000D03*
X122900000Y-82700000D03*
X123200000Y-77599998D03*
X123699994Y-79700000D03*
X125000000Y-88400000D03*
X126375000Y-73050000D03*
X126400000Y-80750000D03*
X126400000Y-82000000D03*
X126400000Y-87000000D03*
X126400000Y-88400000D03*
X130000000Y-72750000D03*
X130000000Y-88250000D03*
X130500000Y-79000000D03*
X130500000Y-80000000D03*
X130500000Y-81000000D03*
X130500000Y-82000000D03*
X130500000Y-83000000D03*
X130600000Y-87000000D03*
X131500000Y-83000000D03*
X131900000Y-78000000D03*
X132500000Y-72750000D03*
X132500000Y-74100000D03*
X132500000Y-83000000D03*
X132500000Y-88250000D03*
X132600000Y-87000000D03*
X132900000Y-78000000D03*
X133500000Y-74100000D03*
X133500000Y-83000000D03*
X133900000Y-78000000D03*
X135000000Y-72750000D03*
X135000000Y-88250000D03*
X137500000Y-72750000D03*
X137500000Y-88250000D03*
X140000000Y-72750000D03*
X140000000Y-88250000D03*
X142500000Y-72750000D03*
X142500000Y-88250000D03*
X145000000Y-72750000D03*
X145000000Y-88250000D03*
X147500000Y-72750000D03*
X147500000Y-88250000D03*
X149000000Y-78000000D03*
X149000000Y-83000000D03*
X150000000Y-72750000D03*
X150000000Y-78000000D03*
X150000000Y-83000000D03*
X150000000Y-88250000D03*
X151000000Y-78000000D03*
X151000000Y-83000000D03*
X152000000Y-72750000D03*
X152000000Y-78000000D03*
X152000000Y-79000000D03*
X152000000Y-80000000D03*
X152000000Y-81000000D03*
X152000000Y-82000000D03*
X152000000Y-83000000D03*
X152000000Y-88250000D03*
D11*
%TO.C,J1*%
X123725000Y-81350000D02*
X123725000Y-82050000D01*
X123725000Y-86950000D02*
X123725000Y-87650000D01*
X125875000Y-83950000D02*
X125875000Y-85050000D01*
D12*
%TO.C,J2*%
X125750000Y-75700000D03*
X125750000Y-77700000D03*
%TO.C,J3*%
X130500000Y-74500000D03*
X130500000Y-76500000D03*
M02*
