%TF.GenerationSoftware,KiCad,Pcbnew,5.1.6-c6e7f7d~87~ubuntu18.04.1*%
%TF.CreationDate,2020-08-02T18:45:10+02:00*%
%TF.ProjectId,SKnob,534b6e6f-622e-46b6-9963-61645f706362,1.0*%
%TF.SameCoordinates,Original*%
%TF.FileFunction,OtherDrawing,Comment*%
%FSLAX46Y46*%
G04 Gerber Fmt 4.6, Leading zero omitted, Abs format (unit mm)*
G04 Created by KiCad (PCBNEW 5.1.6-c6e7f7d~87~ubuntu18.04.1) date 2020-08-02 18:45:10*
%MOMM*%
%LPD*%
G01*
G04 APERTURE LIST*
%ADD10C,0.150000*%
%ADD11C,0.127000*%
G04 APERTURE END LIST*
D10*
X124333333Y-66247619D02*
X124380952Y-66200000D01*
X124476190Y-66152380D01*
X124714285Y-66152380D01*
X124809523Y-66200000D01*
X124857142Y-66247619D01*
X124904761Y-66342857D01*
X124904761Y-66438095D01*
X124857142Y-66580952D01*
X124285714Y-67152380D01*
X124904761Y-67152380D01*
X125333333Y-67057142D02*
X125380952Y-67104761D01*
X125333333Y-67152380D01*
X125285714Y-67104761D01*
X125333333Y-67057142D01*
X125333333Y-67152380D01*
X126000000Y-66152380D02*
X126095238Y-66152380D01*
X126190476Y-66200000D01*
X126238095Y-66247619D01*
X126285714Y-66342857D01*
X126333333Y-66533333D01*
X126333333Y-66771428D01*
X126285714Y-66961904D01*
X126238095Y-67057142D01*
X126190476Y-67104761D01*
X126095238Y-67152380D01*
X126000000Y-67152380D01*
X125904761Y-67104761D01*
X125857142Y-67057142D01*
X125809523Y-66961904D01*
X125761904Y-66771428D01*
X125761904Y-66533333D01*
X125809523Y-66342857D01*
X125857142Y-66247619D01*
X125904761Y-66200000D01*
X126000000Y-66152380D01*
X126952380Y-66152380D02*
X127047619Y-66152380D01*
X127142857Y-66200000D01*
X127190476Y-66247619D01*
X127238095Y-66342857D01*
X127285714Y-66533333D01*
X127285714Y-66771428D01*
X127238095Y-66961904D01*
X127190476Y-67057142D01*
X127142857Y-67104761D01*
X127047619Y-67152380D01*
X126952380Y-67152380D01*
X126857142Y-67104761D01*
X126809523Y-67057142D01*
X126761904Y-66961904D01*
X126714285Y-66771428D01*
X126714285Y-66533333D01*
X126761904Y-66342857D01*
X126809523Y-66247619D01*
X126857142Y-66200000D01*
X126952380Y-66152380D01*
X127904761Y-66152380D02*
X128000000Y-66152380D01*
X128095238Y-66200000D01*
X128142857Y-66247619D01*
X128190476Y-66342857D01*
X128238095Y-66533333D01*
X128238095Y-66771428D01*
X128190476Y-66961904D01*
X128142857Y-67057142D01*
X128095238Y-67104761D01*
X128000000Y-67152380D01*
X127904761Y-67152380D01*
X127809523Y-67104761D01*
X127761904Y-67057142D01*
X127714285Y-66961904D01*
X127666666Y-66771428D01*
X127666666Y-66533333D01*
X127714285Y-66342857D01*
X127761904Y-66247619D01*
X127809523Y-66200000D01*
X127904761Y-66152380D01*
X129428571Y-67152380D02*
X129428571Y-66485714D01*
X129428571Y-66580952D02*
X129476190Y-66533333D01*
X129571428Y-66485714D01*
X129714285Y-66485714D01*
X129809523Y-66533333D01*
X129857142Y-66628571D01*
X129857142Y-67152380D01*
X129857142Y-66628571D02*
X129904761Y-66533333D01*
X130000000Y-66485714D01*
X130142857Y-66485714D01*
X130238095Y-66533333D01*
X130285714Y-66628571D01*
X130285714Y-67152380D01*
X130761904Y-67152380D02*
X130761904Y-66485714D01*
X130761904Y-66580952D02*
X130809523Y-66533333D01*
X130904761Y-66485714D01*
X131047619Y-66485714D01*
X131142857Y-66533333D01*
X131190476Y-66628571D01*
X131190476Y-67152380D01*
X131190476Y-66628571D02*
X131238095Y-66533333D01*
X131333333Y-66485714D01*
X131476190Y-66485714D01*
X131571428Y-66533333D01*
X131619047Y-66628571D01*
X131619047Y-67152380D01*
X127000000Y-68000000D02*
X129000000Y-68000000D01*
X127000000Y-72500000D02*
X127000000Y-67413579D01*
X129000000Y-72500000D02*
X129000000Y-67413579D01*
X129000000Y-68000000D02*
X127873496Y-68586421D01*
X129000000Y-68000000D02*
X127873496Y-67413579D01*
X127000000Y-68000000D02*
X128126504Y-68586421D01*
X127000000Y-68000000D02*
X128126504Y-67413579D01*
X153000000Y-72000000D02*
X129000000Y-72000000D01*
X153000000Y-89000000D02*
X153000000Y-72000000D01*
X129000000Y-89000000D02*
X153000000Y-89000000D01*
X129000000Y-72000000D02*
X129000000Y-89000000D01*
X127000000Y-72000000D02*
X103000000Y-72000000D01*
X127000000Y-89000000D02*
X127000000Y-72000000D01*
X103000000Y-89000000D02*
X127000000Y-89000000D01*
X103000000Y-72000000D02*
X103000000Y-89000000D01*
X99247620Y-76928571D02*
X99247620Y-76357142D01*
X99247620Y-76642857D02*
X100247620Y-76642857D01*
X100104762Y-76547619D01*
X100009524Y-76452380D01*
X99961905Y-76357142D01*
X100247620Y-77261904D02*
X100247620Y-77928571D01*
X99247620Y-77500000D01*
X99342858Y-78309523D02*
X99295239Y-78357142D01*
X99247620Y-78309523D01*
X99295239Y-78261904D01*
X99342858Y-78309523D01*
X99247620Y-78309523D01*
X100247620Y-78976190D02*
X100247620Y-79071428D01*
X100200001Y-79166666D01*
X100152381Y-79214285D01*
X100057143Y-79261904D01*
X99866667Y-79309523D01*
X99628572Y-79309523D01*
X99438096Y-79261904D01*
X99342858Y-79214285D01*
X99295239Y-79166666D01*
X99247620Y-79071428D01*
X99247620Y-78976190D01*
X99295239Y-78880952D01*
X99342858Y-78833333D01*
X99438096Y-78785714D01*
X99628572Y-78738095D01*
X99866667Y-78738095D01*
X100057143Y-78785714D01*
X100152381Y-78833333D01*
X100200001Y-78880952D01*
X100247620Y-78976190D01*
X100247620Y-79928571D02*
X100247620Y-80023809D01*
X100200001Y-80119047D01*
X100152381Y-80166666D01*
X100057143Y-80214285D01*
X99866667Y-80261904D01*
X99628572Y-80261904D01*
X99438096Y-80214285D01*
X99342858Y-80166666D01*
X99295239Y-80119047D01*
X99247620Y-80023809D01*
X99247620Y-79928571D01*
X99295239Y-79833333D01*
X99342858Y-79785714D01*
X99438096Y-79738095D01*
X99628572Y-79690476D01*
X99866667Y-79690476D01*
X100057143Y-79738095D01*
X100152381Y-79785714D01*
X100200001Y-79833333D01*
X100247620Y-79928571D01*
X100247620Y-80880952D02*
X100247620Y-80976190D01*
X100200001Y-81071428D01*
X100152381Y-81119047D01*
X100057143Y-81166666D01*
X99866667Y-81214285D01*
X99628572Y-81214285D01*
X99438096Y-81166666D01*
X99342858Y-81119047D01*
X99295239Y-81071428D01*
X99247620Y-80976190D01*
X99247620Y-80880952D01*
X99295239Y-80785714D01*
X99342858Y-80738095D01*
X99438096Y-80690476D01*
X99628572Y-80642857D01*
X99866667Y-80642857D01*
X100057143Y-80690476D01*
X100152381Y-80738095D01*
X100200001Y-80785714D01*
X100247620Y-80880952D01*
X99247620Y-82404761D02*
X99914286Y-82404761D01*
X99819048Y-82404761D02*
X99866667Y-82452380D01*
X99914286Y-82547619D01*
X99914286Y-82690476D01*
X99866667Y-82785714D01*
X99771429Y-82833333D01*
X99247620Y-82833333D01*
X99771429Y-82833333D02*
X99866667Y-82880952D01*
X99914286Y-82976190D01*
X99914286Y-83119047D01*
X99866667Y-83214285D01*
X99771429Y-83261904D01*
X99247620Y-83261904D01*
X99247620Y-83738095D02*
X99914286Y-83738095D01*
X99819048Y-83738095D02*
X99866667Y-83785714D01*
X99914286Y-83880952D01*
X99914286Y-84023809D01*
X99866667Y-84119047D01*
X99771429Y-84166666D01*
X99247620Y-84166666D01*
X99771429Y-84166666D02*
X99866667Y-84214285D01*
X99914286Y-84309523D01*
X99914286Y-84452380D01*
X99866667Y-84547619D01*
X99771429Y-84595238D01*
X99247620Y-84595238D01*
X101000001Y-72000000D02*
X101000001Y-89000000D01*
X103000000Y-72000000D02*
X100413580Y-72000000D01*
X103000000Y-89000000D02*
X100413580Y-89000000D01*
X101000001Y-89000000D02*
X100413580Y-87873496D01*
X101000001Y-89000000D02*
X101586422Y-87873496D01*
X101000001Y-72000000D02*
X100413580Y-73126504D01*
X101000001Y-72000000D02*
X101586422Y-73126504D01*
X99247620Y-76928571D02*
X99247620Y-76357142D01*
X99247620Y-76642857D02*
X100247620Y-76642857D01*
X100104762Y-76547619D01*
X100009524Y-76452380D01*
X99961905Y-76357142D01*
X100247620Y-77261904D02*
X100247620Y-77928571D01*
X99247620Y-77500000D01*
X99342858Y-78309523D02*
X99295239Y-78357142D01*
X99247620Y-78309523D01*
X99295239Y-78261904D01*
X99342858Y-78309523D01*
X99247620Y-78309523D01*
X100247620Y-78976190D02*
X100247620Y-79071428D01*
X100200001Y-79166666D01*
X100152381Y-79214285D01*
X100057143Y-79261904D01*
X99866667Y-79309523D01*
X99628572Y-79309523D01*
X99438096Y-79261904D01*
X99342858Y-79214285D01*
X99295239Y-79166666D01*
X99247620Y-79071428D01*
X99247620Y-78976190D01*
X99295239Y-78880952D01*
X99342858Y-78833333D01*
X99438096Y-78785714D01*
X99628572Y-78738095D01*
X99866667Y-78738095D01*
X100057143Y-78785714D01*
X100152381Y-78833333D01*
X100200001Y-78880952D01*
X100247620Y-78976190D01*
X100247620Y-79928571D02*
X100247620Y-80023809D01*
X100200001Y-80119047D01*
X100152381Y-80166666D01*
X100057143Y-80214285D01*
X99866667Y-80261904D01*
X99628572Y-80261904D01*
X99438096Y-80214285D01*
X99342858Y-80166666D01*
X99295239Y-80119047D01*
X99247620Y-80023809D01*
X99247620Y-79928571D01*
X99295239Y-79833333D01*
X99342858Y-79785714D01*
X99438096Y-79738095D01*
X99628572Y-79690476D01*
X99866667Y-79690476D01*
X100057143Y-79738095D01*
X100152381Y-79785714D01*
X100200001Y-79833333D01*
X100247620Y-79928571D01*
X100247620Y-80880952D02*
X100247620Y-80976190D01*
X100200001Y-81071428D01*
X100152381Y-81119047D01*
X100057143Y-81166666D01*
X99866667Y-81214285D01*
X99628572Y-81214285D01*
X99438096Y-81166666D01*
X99342858Y-81119047D01*
X99295239Y-81071428D01*
X99247620Y-80976190D01*
X99247620Y-80880952D01*
X99295239Y-80785714D01*
X99342858Y-80738095D01*
X99438096Y-80690476D01*
X99628572Y-80642857D01*
X99866667Y-80642857D01*
X100057143Y-80690476D01*
X100152381Y-80738095D01*
X100200001Y-80785714D01*
X100247620Y-80880952D01*
X99247620Y-82404761D02*
X99914286Y-82404761D01*
X99819048Y-82404761D02*
X99866667Y-82452380D01*
X99914286Y-82547619D01*
X99914286Y-82690476D01*
X99866667Y-82785714D01*
X99771429Y-82833333D01*
X99247620Y-82833333D01*
X99771429Y-82833333D02*
X99866667Y-82880952D01*
X99914286Y-82976190D01*
X99914286Y-83119047D01*
X99866667Y-83214285D01*
X99771429Y-83261904D01*
X99247620Y-83261904D01*
X99247620Y-83738095D02*
X99914286Y-83738095D01*
X99819048Y-83738095D02*
X99866667Y-83785714D01*
X99914286Y-83880952D01*
X99914286Y-84023809D01*
X99866667Y-84119047D01*
X99771429Y-84166666D01*
X99247620Y-84166666D01*
X99771429Y-84166666D02*
X99866667Y-84214285D01*
X99914286Y-84309523D01*
X99914286Y-84452380D01*
X99866667Y-84547619D01*
X99771429Y-84595238D01*
X99247620Y-84595238D01*
X101000001Y-72000000D02*
X101000001Y-89000000D01*
X103000000Y-72000000D02*
X100413580Y-72000000D01*
X103000000Y-89000000D02*
X100413580Y-89000000D01*
X101000001Y-89000000D02*
X100413580Y-87873496D01*
X101000001Y-89000000D02*
X101586422Y-87873496D01*
X101000001Y-72000000D02*
X100413580Y-73126504D01*
X101000001Y-72000000D02*
X101586422Y-73126504D01*
X110857142Y-68247620D02*
X110904761Y-68200001D01*
X111000000Y-68152381D01*
X111238095Y-68152381D01*
X111333333Y-68200001D01*
X111380952Y-68247620D01*
X111428571Y-68342858D01*
X111428571Y-68438096D01*
X111380952Y-68580953D01*
X110809523Y-69152381D01*
X111428571Y-69152381D01*
X112285714Y-68485715D02*
X112285714Y-69152381D01*
X112047619Y-68104762D02*
X111809523Y-68819048D01*
X112428571Y-68819048D01*
X112809523Y-69057143D02*
X112857142Y-69104762D01*
X112809523Y-69152381D01*
X112761904Y-69104762D01*
X112809523Y-69057143D01*
X112809523Y-69152381D01*
X113476190Y-68152381D02*
X113571428Y-68152381D01*
X113666666Y-68200001D01*
X113714285Y-68247620D01*
X113761904Y-68342858D01*
X113809523Y-68533334D01*
X113809523Y-68771429D01*
X113761904Y-68961905D01*
X113714285Y-69057143D01*
X113666666Y-69104762D01*
X113571428Y-69152381D01*
X113476190Y-69152381D01*
X113380952Y-69104762D01*
X113333333Y-69057143D01*
X113285714Y-68961905D01*
X113238095Y-68771429D01*
X113238095Y-68533334D01*
X113285714Y-68342858D01*
X113333333Y-68247620D01*
X113380952Y-68200001D01*
X113476190Y-68152381D01*
X114428571Y-68152381D02*
X114523809Y-68152381D01*
X114619047Y-68200001D01*
X114666666Y-68247620D01*
X114714285Y-68342858D01*
X114761904Y-68533334D01*
X114761904Y-68771429D01*
X114714285Y-68961905D01*
X114666666Y-69057143D01*
X114619047Y-69104762D01*
X114523809Y-69152381D01*
X114428571Y-69152381D01*
X114333333Y-69104762D01*
X114285714Y-69057143D01*
X114238095Y-68961905D01*
X114190476Y-68771429D01*
X114190476Y-68533334D01*
X114238095Y-68342858D01*
X114285714Y-68247620D01*
X114333333Y-68200001D01*
X114428571Y-68152381D01*
X115380952Y-68152381D02*
X115476190Y-68152381D01*
X115571428Y-68200001D01*
X115619047Y-68247620D01*
X115666666Y-68342858D01*
X115714285Y-68533334D01*
X115714285Y-68771429D01*
X115666666Y-68961905D01*
X115619047Y-69057143D01*
X115571428Y-69104762D01*
X115476190Y-69152381D01*
X115380952Y-69152381D01*
X115285714Y-69104762D01*
X115238095Y-69057143D01*
X115190476Y-68961905D01*
X115142857Y-68771429D01*
X115142857Y-68533334D01*
X115190476Y-68342858D01*
X115238095Y-68247620D01*
X115285714Y-68200001D01*
X115380952Y-68152381D01*
X116904761Y-69152381D02*
X116904761Y-68485715D01*
X116904761Y-68580953D02*
X116952380Y-68533334D01*
X117047619Y-68485715D01*
X117190476Y-68485715D01*
X117285714Y-68533334D01*
X117333333Y-68628572D01*
X117333333Y-69152381D01*
X117333333Y-68628572D02*
X117380952Y-68533334D01*
X117476190Y-68485715D01*
X117619047Y-68485715D01*
X117714285Y-68533334D01*
X117761904Y-68628572D01*
X117761904Y-69152381D01*
X118238095Y-69152381D02*
X118238095Y-68485715D01*
X118238095Y-68580953D02*
X118285714Y-68533334D01*
X118380952Y-68485715D01*
X118523809Y-68485715D01*
X118619047Y-68533334D01*
X118666666Y-68628572D01*
X118666666Y-69152381D01*
X118666666Y-68628572D02*
X118714285Y-68533334D01*
X118809523Y-68485715D01*
X118952380Y-68485715D01*
X119047619Y-68533334D01*
X119095238Y-68628572D01*
X119095238Y-69152381D01*
X127000000Y-70000001D02*
X103000000Y-70000001D01*
X127000000Y-72000000D02*
X127000000Y-69413580D01*
X103000000Y-72000000D02*
X103000000Y-69413580D01*
X103000000Y-70000001D02*
X104126504Y-69413580D01*
X103000000Y-70000001D02*
X104126504Y-70586422D01*
X127000000Y-70000001D02*
X125873496Y-69413580D01*
X127000000Y-70000001D02*
X125873496Y-70586422D01*
X136857142Y-68247620D02*
X136904761Y-68200001D01*
X137000000Y-68152381D01*
X137238095Y-68152381D01*
X137333333Y-68200001D01*
X137380952Y-68247620D01*
X137428571Y-68342858D01*
X137428571Y-68438096D01*
X137380952Y-68580953D01*
X136809523Y-69152381D01*
X137428571Y-69152381D01*
X138285714Y-68485715D02*
X138285714Y-69152381D01*
X138047619Y-68104762D02*
X137809523Y-68819048D01*
X138428571Y-68819048D01*
X138809523Y-69057143D02*
X138857142Y-69104762D01*
X138809523Y-69152381D01*
X138761904Y-69104762D01*
X138809523Y-69057143D01*
X138809523Y-69152381D01*
X139476190Y-68152381D02*
X139571428Y-68152381D01*
X139666666Y-68200001D01*
X139714285Y-68247620D01*
X139761904Y-68342858D01*
X139809523Y-68533334D01*
X139809523Y-68771429D01*
X139761904Y-68961905D01*
X139714285Y-69057143D01*
X139666666Y-69104762D01*
X139571428Y-69152381D01*
X139476190Y-69152381D01*
X139380952Y-69104762D01*
X139333333Y-69057143D01*
X139285714Y-68961905D01*
X139238095Y-68771429D01*
X139238095Y-68533334D01*
X139285714Y-68342858D01*
X139333333Y-68247620D01*
X139380952Y-68200001D01*
X139476190Y-68152381D01*
X140428571Y-68152381D02*
X140523809Y-68152381D01*
X140619047Y-68200001D01*
X140666666Y-68247620D01*
X140714285Y-68342858D01*
X140761904Y-68533334D01*
X140761904Y-68771429D01*
X140714285Y-68961905D01*
X140666666Y-69057143D01*
X140619047Y-69104762D01*
X140523809Y-69152381D01*
X140428571Y-69152381D01*
X140333333Y-69104762D01*
X140285714Y-69057143D01*
X140238095Y-68961905D01*
X140190476Y-68771429D01*
X140190476Y-68533334D01*
X140238095Y-68342858D01*
X140285714Y-68247620D01*
X140333333Y-68200001D01*
X140428571Y-68152381D01*
X141380952Y-68152381D02*
X141476190Y-68152381D01*
X141571428Y-68200001D01*
X141619047Y-68247620D01*
X141666666Y-68342858D01*
X141714285Y-68533334D01*
X141714285Y-68771429D01*
X141666666Y-68961905D01*
X141619047Y-69057143D01*
X141571428Y-69104762D01*
X141476190Y-69152381D01*
X141380952Y-69152381D01*
X141285714Y-69104762D01*
X141238095Y-69057143D01*
X141190476Y-68961905D01*
X141142857Y-68771429D01*
X141142857Y-68533334D01*
X141190476Y-68342858D01*
X141238095Y-68247620D01*
X141285714Y-68200001D01*
X141380952Y-68152381D01*
X142904761Y-69152381D02*
X142904761Y-68485715D01*
X142904761Y-68580953D02*
X142952380Y-68533334D01*
X143047619Y-68485715D01*
X143190476Y-68485715D01*
X143285714Y-68533334D01*
X143333333Y-68628572D01*
X143333333Y-69152381D01*
X143333333Y-68628572D02*
X143380952Y-68533334D01*
X143476190Y-68485715D01*
X143619047Y-68485715D01*
X143714285Y-68533334D01*
X143761904Y-68628572D01*
X143761904Y-69152381D01*
X144238095Y-69152381D02*
X144238095Y-68485715D01*
X144238095Y-68580953D02*
X144285714Y-68533334D01*
X144380952Y-68485715D01*
X144523809Y-68485715D01*
X144619047Y-68533334D01*
X144666666Y-68628572D01*
X144666666Y-69152381D01*
X144666666Y-68628572D02*
X144714285Y-68533334D01*
X144809523Y-68485715D01*
X144952380Y-68485715D01*
X145047619Y-68533334D01*
X145095238Y-68628572D01*
X145095238Y-69152381D01*
X153000000Y-70000001D02*
X129000000Y-70000001D01*
X153000000Y-72000000D02*
X153000000Y-69413580D01*
X129000000Y-72000000D02*
X129000000Y-69413580D01*
X129000000Y-70000001D02*
X130126504Y-69413580D01*
X129000000Y-70000001D02*
X130126504Y-70586422D01*
X153000000Y-70000001D02*
X151873496Y-69413580D01*
X153000000Y-70000001D02*
X151873496Y-70586422D01*
X156752380Y-84071428D02*
X156752380Y-84642857D01*
X156752380Y-84357142D02*
X155752380Y-84357142D01*
X155895238Y-84452380D01*
X155990476Y-84547619D01*
X156038095Y-84642857D01*
X155752380Y-83738095D02*
X155752380Y-83071428D01*
X156752380Y-83500000D01*
X156657142Y-82690476D02*
X156704761Y-82642857D01*
X156752380Y-82690476D01*
X156704761Y-82738095D01*
X156657142Y-82690476D01*
X156752380Y-82690476D01*
X155752380Y-82023809D02*
X155752380Y-81928571D01*
X155800000Y-81833333D01*
X155847619Y-81785714D01*
X155942857Y-81738095D01*
X156133333Y-81690476D01*
X156371428Y-81690476D01*
X156561904Y-81738095D01*
X156657142Y-81785714D01*
X156704761Y-81833333D01*
X156752380Y-81928571D01*
X156752380Y-82023809D01*
X156704761Y-82119047D01*
X156657142Y-82166666D01*
X156561904Y-82214285D01*
X156371428Y-82261904D01*
X156133333Y-82261904D01*
X155942857Y-82214285D01*
X155847619Y-82166666D01*
X155800000Y-82119047D01*
X155752380Y-82023809D01*
X155752380Y-81071428D02*
X155752380Y-80976190D01*
X155800000Y-80880952D01*
X155847619Y-80833333D01*
X155942857Y-80785714D01*
X156133333Y-80738095D01*
X156371428Y-80738095D01*
X156561904Y-80785714D01*
X156657142Y-80833333D01*
X156704761Y-80880952D01*
X156752380Y-80976190D01*
X156752380Y-81071428D01*
X156704761Y-81166666D01*
X156657142Y-81214285D01*
X156561904Y-81261904D01*
X156371428Y-81309523D01*
X156133333Y-81309523D01*
X155942857Y-81261904D01*
X155847619Y-81214285D01*
X155800000Y-81166666D01*
X155752380Y-81071428D01*
X155752380Y-80119047D02*
X155752380Y-80023809D01*
X155800000Y-79928571D01*
X155847619Y-79880952D01*
X155942857Y-79833333D01*
X156133333Y-79785714D01*
X156371428Y-79785714D01*
X156561904Y-79833333D01*
X156657142Y-79880952D01*
X156704761Y-79928571D01*
X156752380Y-80023809D01*
X156752380Y-80119047D01*
X156704761Y-80214285D01*
X156657142Y-80261904D01*
X156561904Y-80309523D01*
X156371428Y-80357142D01*
X156133333Y-80357142D01*
X155942857Y-80309523D01*
X155847619Y-80261904D01*
X155800000Y-80214285D01*
X155752380Y-80119047D01*
X156752380Y-78595238D02*
X156085714Y-78595238D01*
X156180952Y-78595238D02*
X156133333Y-78547619D01*
X156085714Y-78452380D01*
X156085714Y-78309523D01*
X156133333Y-78214285D01*
X156228571Y-78166666D01*
X156752380Y-78166666D01*
X156228571Y-78166666D02*
X156133333Y-78119047D01*
X156085714Y-78023809D01*
X156085714Y-77880952D01*
X156133333Y-77785714D01*
X156228571Y-77738095D01*
X156752380Y-77738095D01*
X156752380Y-77261904D02*
X156085714Y-77261904D01*
X156180952Y-77261904D02*
X156133333Y-77214285D01*
X156085714Y-77119047D01*
X156085714Y-76976190D01*
X156133333Y-76880952D01*
X156228571Y-76833333D01*
X156752380Y-76833333D01*
X156228571Y-76833333D02*
X156133333Y-76785714D01*
X156085714Y-76690476D01*
X156085714Y-76547619D01*
X156133333Y-76452380D01*
X156228571Y-76404761D01*
X156752380Y-76404761D01*
X155000000Y-89000000D02*
X155000000Y-72000000D01*
X153000000Y-89000000D02*
X155586421Y-89000000D01*
X153000000Y-72000000D02*
X155586421Y-72000000D01*
X155000000Y-72000000D02*
X155586421Y-73126504D01*
X155000000Y-72000000D02*
X154413579Y-73126504D01*
X155000000Y-89000000D02*
X155586421Y-87873496D01*
X155000000Y-89000000D02*
X154413579Y-87873496D01*
%TO.C,BT1*%
X147250000Y-80500000D02*
G75*
G03*
X147250000Y-80500000I-6250000J0D01*
G01*
%TO.C,U1*%
X119270000Y-85160000D02*
X119270000Y-76160000D01*
X119270000Y-76160000D02*
X110270000Y-76160000D01*
X110270000Y-76160000D02*
X110270000Y-85160000D01*
X110270000Y-85160000D02*
X119270000Y-85160000D01*
D11*
%TO.C,ANT1*%
G36*
X103400000Y-73200000D02*
G01*
X103675000Y-73200000D01*
X103675000Y-74100000D01*
X105475000Y-74100000D01*
X105475000Y-73200000D01*
X107650000Y-73200000D01*
X107650000Y-77200000D01*
X105575000Y-77200000D01*
X105575000Y-76300000D01*
X103675000Y-76300000D01*
X103675000Y-77200000D01*
X103400000Y-77200000D01*
X103400000Y-73200000D01*
G37*
X103400000Y-73200000D02*
X103675000Y-73200000D01*
X103675000Y-74100000D01*
X105475000Y-74100000D01*
X105475000Y-73200000D01*
X107650000Y-73200000D01*
X107650000Y-77200000D01*
X105575000Y-77200000D01*
X105575000Y-76300000D01*
X103675000Y-76300000D01*
X103675000Y-77200000D01*
X103400000Y-77200000D01*
X103400000Y-73200000D01*
%TD*%
M02*
