%FSLAX45Y45*%
G04 Gerber Fmt 4.5, Leading zero omitted, Abs format (unit mm)*
G04 Created by KiCad (PCBNEW 5.1.6-c6e7f7d~87~ubuntu18.04.1) date 2020-08-02 20:23:56*
%MOMM*%
%LPD*%
G01*
G04 APERTURE LIST*
%TA.AperFunction,Profile*%
%ADD10C,0.100000*%
%TD*%
%ADD11C,0.200000*%
%ADD12C,0.300000*%
G04 APERTURE END LIST*
D10*
X12900000Y-7850000D02*
X12900000Y-7200000D01*
X12700000Y-7850000D02*
X12700000Y-7200000D01*
X12700000Y-8250000D02*
G75*
G02*
X12900000Y-8250000I100000J0D01*
G01*
X12900000Y-7850000D02*
G75*
G02*
X12700000Y-7850000I-100000J0D01*
G01*
X10300000Y-8900000D02*
X10300000Y-7200000D01*
X12700000Y-8900000D02*
X10300000Y-8900000D01*
X12700000Y-8900000D02*
X12700000Y-8250000D01*
X12900000Y-8900000D02*
X12900000Y-8250000D01*
X12900000Y-7200000D02*
X15300000Y-7200000D01*
X15300000Y-7200000D02*
X15300000Y-8900000D01*
X15300000Y-8900000D02*
X12900000Y-8900000D01*
X10300000Y-7200000D02*
X12700000Y-7200000D01*
D11*
X10335000Y-7235000D02*
X10365000Y-7265000D01*
X10365000Y-7235000D02*
X10335000Y-7265000D01*
X10345000Y-7785000D02*
X10375000Y-7815000D01*
X10375000Y-7785000D02*
X10345000Y-7815000D01*
X10345000Y-7985000D02*
X10375000Y-8015000D01*
X10375000Y-7985000D02*
X10345000Y-8015000D01*
X10345000Y-8185000D02*
X10375000Y-8215000D01*
X10375000Y-8185000D02*
X10345000Y-8215000D01*
X10345000Y-8385000D02*
X10375000Y-8415000D01*
X10375000Y-8385000D02*
X10345000Y-8415000D01*
X10345000Y-8585000D02*
X10375000Y-8615000D01*
X10375000Y-8585000D02*
X10345000Y-8615000D01*
X10345000Y-8785000D02*
X10375000Y-8815000D01*
X10375000Y-8785000D02*
X10345000Y-8815000D01*
X10415000Y-7805000D02*
X10445000Y-7835000D01*
X10445000Y-7805000D02*
X10415000Y-7835000D01*
X10435000Y-8825000D02*
X10465000Y-8855000D01*
X10465000Y-8825000D02*
X10435000Y-8855000D01*
X10450000Y-7920000D02*
X10480000Y-7950000D01*
X10480000Y-7920000D02*
X10450000Y-7950000D01*
X10465000Y-8185000D02*
X10495000Y-8215000D01*
X10495000Y-8185000D02*
X10465000Y-8215000D01*
X10525000Y-7995000D02*
X10555000Y-8025000D01*
X10555000Y-7995000D02*
X10525000Y-8025000D01*
X10535000Y-7235000D02*
X10565000Y-7265000D01*
X10565000Y-7235000D02*
X10535000Y-7265000D01*
X10570000Y-7805000D02*
X10600000Y-7835000D01*
X10600000Y-7805000D02*
X10570000Y-7835000D01*
X10600000Y-8070000D02*
X10630000Y-8100000D01*
X10630000Y-8070000D02*
X10600000Y-8100000D01*
X10605000Y-8705000D02*
X10635000Y-8735000D01*
X10635000Y-8705000D02*
X10605000Y-8735000D01*
X10635000Y-7885000D02*
X10665000Y-7915000D01*
X10665000Y-7885000D02*
X10635000Y-7915000D01*
X10635000Y-8825000D02*
X10665000Y-8855000D01*
X10665000Y-8825000D02*
X10635000Y-8855000D01*
X10675000Y-8145000D02*
X10705000Y-8175000D01*
X10705000Y-8145000D02*
X10675000Y-8175000D01*
X10685000Y-7785000D02*
X10715000Y-7815000D01*
X10715000Y-7785000D02*
X10685000Y-7815000D01*
X10710000Y-7960000D02*
X10740000Y-7990000D01*
X10740000Y-7960000D02*
X10710000Y-7990000D01*
X10735000Y-7235000D02*
X10765000Y-7265000D01*
X10765000Y-7235000D02*
X10735000Y-7265000D01*
X10755000Y-8225000D02*
X10785000Y-8255000D01*
X10785000Y-8225000D02*
X10755000Y-8255000D01*
X10763000Y-8655000D02*
X10793000Y-8685000D01*
X10793000Y-8655000D02*
X10763000Y-8685000D01*
X10785000Y-7785000D02*
X10815000Y-7815000D01*
X10815000Y-7785000D02*
X10785000Y-7815000D01*
X10785000Y-8035000D02*
X10815000Y-8065000D01*
X10815000Y-8035000D02*
X10785000Y-8065000D01*
X10835000Y-7385000D02*
X10865000Y-7415000D01*
X10865000Y-7385000D02*
X10835000Y-7415000D01*
X10835000Y-8825000D02*
X10865000Y-8855000D01*
X10865000Y-8825000D02*
X10835000Y-8855000D01*
X10855000Y-7943000D02*
X10885000Y-7973000D01*
X10885000Y-7943000D02*
X10855000Y-7973000D01*
X10865000Y-7805000D02*
X10895000Y-7835000D01*
X10895000Y-7805000D02*
X10865000Y-7835000D01*
X10865000Y-8695000D02*
X10895000Y-8725000D01*
X10895000Y-8695000D02*
X10865000Y-8725000D01*
X10866501Y-8043500D02*
X10896501Y-8073500D01*
X10896501Y-8043500D02*
X10866501Y-8073500D01*
X10925000Y-7545000D02*
X10955000Y-7575000D01*
X10955000Y-7545000D02*
X10925000Y-7575000D01*
X10925000Y-7385000D02*
X10955000Y-7415000D01*
X10955000Y-7385000D02*
X10925000Y-7415000D01*
X11005000Y-7285000D02*
X11035000Y-7315000D01*
X11035000Y-7285000D02*
X11005000Y-7315000D01*
X11015000Y-7385000D02*
X11045000Y-7415000D01*
X11045000Y-7385000D02*
X11015000Y-7415000D01*
X11025000Y-7945000D02*
X11055000Y-7975000D01*
X11055000Y-7945000D02*
X11025000Y-7975000D01*
X11025000Y-8025000D02*
X11055000Y-8055000D01*
X11055000Y-8025000D02*
X11025000Y-8055000D01*
X11031559Y-7786559D02*
X11061559Y-7816559D01*
X11061559Y-7786559D02*
X11031559Y-7816559D01*
X11084195Y-7434195D02*
X11114195Y-7464195D01*
X11114195Y-7434195D02*
X11084195Y-7464195D01*
X11135000Y-7635000D02*
X11165000Y-7665000D01*
X11165000Y-7635000D02*
X11135000Y-7665000D01*
X11185000Y-7535000D02*
X11215000Y-7565000D01*
X11215000Y-7535000D02*
X11185000Y-7565000D01*
X11210000Y-7635000D02*
X11240000Y-7665000D01*
X11240000Y-7635000D02*
X11210000Y-7665000D01*
X11215000Y-8805000D02*
X11245000Y-8835000D01*
X11245000Y-8805000D02*
X11215000Y-8835000D01*
X11225000Y-8655000D02*
X11255000Y-8685000D01*
X11255000Y-8655000D02*
X11225000Y-8685000D01*
X11235000Y-7835000D02*
X11265000Y-7865000D01*
X11265000Y-7835000D02*
X11235000Y-7865000D01*
X11235000Y-7985000D02*
X11265000Y-8015000D01*
X11265000Y-7985000D02*
X11235000Y-8015000D01*
X11235000Y-8135000D02*
X11265000Y-8165000D01*
X11265000Y-8135000D02*
X11235000Y-8165000D01*
X11235000Y-8285000D02*
X11265000Y-8315000D01*
X11265000Y-8285000D02*
X11235000Y-8315000D01*
X11255001Y-7284999D02*
X11285001Y-7314999D01*
X11285001Y-7284999D02*
X11255001Y-7314999D01*
X11265000Y-8505000D02*
X11295000Y-8535000D01*
X11295000Y-8505000D02*
X11265000Y-8535000D01*
X11305000Y-7635000D02*
X11335000Y-7665000D01*
X11335000Y-7635000D02*
X11305000Y-7665000D01*
X11345000Y-8505000D02*
X11375000Y-8535000D01*
X11375000Y-8505000D02*
X11345000Y-8535000D01*
X11375000Y-8825000D02*
X11405000Y-8855000D01*
X11405000Y-8825000D02*
X11375000Y-8855000D01*
X11381500Y-8131500D02*
X11411500Y-8161500D01*
X11411500Y-8131500D02*
X11381500Y-8161500D01*
X11385000Y-7835000D02*
X11415000Y-7865000D01*
X11415000Y-7835000D02*
X11385000Y-7865000D01*
X11385000Y-7985000D02*
X11415000Y-8015000D01*
X11415000Y-7985000D02*
X11385000Y-8015000D01*
X11385000Y-8285000D02*
X11415000Y-8315000D01*
X11415000Y-8285000D02*
X11385000Y-8315000D01*
X11425000Y-8485000D02*
X11455000Y-8515000D01*
X11455000Y-8485000D02*
X11425000Y-8515000D01*
X11455000Y-7635000D02*
X11485000Y-7665000D01*
X11485000Y-7635000D02*
X11455000Y-7665000D01*
X11494998Y-7435001D02*
X11524998Y-7465001D01*
X11524998Y-7435001D02*
X11494998Y-7465001D01*
X11535000Y-7835000D02*
X11565000Y-7865000D01*
X11565000Y-7835000D02*
X11535000Y-7865000D01*
X11535000Y-7985000D02*
X11565000Y-8015000D01*
X11565000Y-7985000D02*
X11535000Y-8015000D01*
X11537019Y-7637019D02*
X11567019Y-7667019D01*
X11567019Y-7637019D02*
X11537019Y-7667019D01*
X11537019Y-8132981D02*
X11567019Y-8162981D01*
X11567019Y-8132981D02*
X11537019Y-8162981D01*
X11537019Y-8282981D02*
X11567019Y-8312981D01*
X11567019Y-8282981D02*
X11537019Y-8312981D01*
X11615000Y-7635000D02*
X11645000Y-7665000D01*
X11645000Y-7635000D02*
X11615000Y-7665000D01*
X11685000Y-7835000D02*
X11715000Y-7865000D01*
X11715000Y-7835000D02*
X11685000Y-7865000D01*
X11685000Y-7985000D02*
X11715000Y-8015000D01*
X11715000Y-7985000D02*
X11685000Y-8015000D01*
X11685000Y-8135000D02*
X11715000Y-8165000D01*
X11715000Y-8135000D02*
X11685000Y-8165000D01*
X11685000Y-8285000D02*
X11715000Y-8315000D01*
X11715000Y-8285000D02*
X11685000Y-8315000D01*
X11695000Y-8785000D02*
X11725000Y-8815000D01*
X11725000Y-8785000D02*
X11695000Y-8815000D01*
X11795000Y-8465000D02*
X11825000Y-8495000D01*
X11825000Y-8465000D02*
X11795000Y-8495000D01*
X11875000Y-8685000D02*
X11905000Y-8715000D01*
X11905000Y-8685000D02*
X11875000Y-8715000D01*
X11883943Y-8231274D02*
X11913943Y-8261274D01*
X11913943Y-8231274D02*
X11883943Y-8261274D01*
X11883947Y-7790730D02*
X11913947Y-7820730D01*
X11913947Y-7790730D02*
X11883947Y-7820730D01*
X11885000Y-7545000D02*
X11915000Y-7575000D01*
X11915000Y-7545000D02*
X11885000Y-7575000D01*
X11885000Y-7715000D02*
X11915000Y-7745000D01*
X11915000Y-7715000D02*
X11885000Y-7745000D01*
X11885000Y-8115000D02*
X11915000Y-8145000D01*
X11915000Y-8115000D02*
X11885000Y-8145000D01*
X11885899Y-7990001D02*
X11915899Y-8020001D01*
X11915899Y-7990001D02*
X11885899Y-8020001D01*
X11905000Y-7895000D02*
X11935000Y-7925000D01*
X11935000Y-7895000D02*
X11905000Y-7925000D01*
X11919465Y-8051430D02*
X11949465Y-8081430D01*
X11949465Y-8051430D02*
X11919465Y-8081430D01*
X11938945Y-8487909D02*
X11968945Y-8517909D01*
X11968945Y-8487909D02*
X11938945Y-8517909D01*
X11955000Y-7955000D02*
X11985000Y-7985000D01*
X11985000Y-7955000D02*
X11955000Y-7985000D01*
X11955000Y-8685000D02*
X11985000Y-8715000D01*
X11985000Y-8685000D02*
X11955000Y-8715000D01*
X11965000Y-7605000D02*
X11995000Y-7635000D01*
X11995000Y-7605000D02*
X11965000Y-7635000D01*
X11995000Y-8205000D02*
X12025000Y-8235000D01*
X12025000Y-8205000D02*
X11995000Y-8235000D01*
X11997550Y-7895000D02*
X12027550Y-7925000D01*
X12027550Y-7895000D02*
X11997550Y-7925000D01*
X12065000Y-7605000D02*
X12095000Y-7635000D01*
X12095000Y-7605000D02*
X12065000Y-7635000D01*
X12071948Y-7864551D02*
X12101948Y-7894551D01*
X12101948Y-7864551D02*
X12071948Y-7894551D01*
X12095000Y-7955000D02*
X12125000Y-7985000D01*
X12125000Y-7955000D02*
X12095000Y-7985000D01*
X12145000Y-8685000D02*
X12175000Y-8715000D01*
X12175000Y-8685000D02*
X12145000Y-8715000D01*
X12160000Y-7610000D02*
X12190000Y-7640000D01*
X12190000Y-7610000D02*
X12160000Y-7640000D01*
X12160000Y-7880000D02*
X12190000Y-7910000D01*
X12190000Y-7880000D02*
X12160000Y-7910000D01*
X12245000Y-8565000D02*
X12275000Y-8595000D01*
X12275000Y-8565000D02*
X12245000Y-8595000D01*
X12275444Y-8253986D02*
X12305444Y-8283986D01*
X12305444Y-8253986D02*
X12275444Y-8283986D01*
X12305000Y-7745000D02*
X12335000Y-7775000D01*
X12335000Y-7745000D02*
X12305000Y-7775000D01*
X12354999Y-7955000D02*
X12384999Y-7985000D01*
X12384999Y-7955000D02*
X12354999Y-7985000D01*
X12485000Y-8825000D02*
X12515000Y-8855000D01*
X12515000Y-8825000D02*
X12485000Y-8855000D01*
X12575000Y-8060000D02*
X12605000Y-8090000D01*
X12605000Y-8060000D02*
X12575000Y-8090000D01*
X12575000Y-8185000D02*
X12605000Y-8215000D01*
X12605000Y-8185000D02*
X12575000Y-8215000D01*
X12622500Y-7290000D02*
X12652500Y-7320000D01*
X12652500Y-7290000D02*
X12622500Y-7320000D01*
X12625000Y-8685000D02*
X12655000Y-8715000D01*
X12655000Y-8685000D02*
X12625000Y-8715000D01*
X12625000Y-8825000D02*
X12655000Y-8855000D01*
X12655000Y-8825000D02*
X12625000Y-8855000D01*
X12685000Y-7945000D02*
X12715000Y-7975000D01*
X12715000Y-7945000D02*
X12685000Y-7975000D01*
X12685000Y-8005000D02*
X12715000Y-8035000D01*
X12715000Y-8005000D02*
X12685000Y-8035000D01*
X12685000Y-8065000D02*
X12715000Y-8095000D01*
X12715000Y-8065000D02*
X12685000Y-8095000D01*
X12685000Y-8125000D02*
X12715000Y-8155000D01*
X12715000Y-8125000D02*
X12685000Y-8155000D01*
X12885000Y-7945000D02*
X12915000Y-7975000D01*
X12915000Y-7945000D02*
X12885000Y-7975000D01*
X12885000Y-8005000D02*
X12915000Y-8035000D01*
X12915000Y-8005000D02*
X12885000Y-8035000D01*
X12885000Y-8065000D02*
X12915000Y-8095000D01*
X12915000Y-8065000D02*
X12885000Y-8095000D01*
X12885000Y-8125000D02*
X12915000Y-8155000D01*
X12915000Y-8125000D02*
X12885000Y-8155000D01*
X12985000Y-7260000D02*
X13015000Y-7290000D01*
X13015000Y-7260000D02*
X12985000Y-7290000D01*
X12985000Y-8810000D02*
X13015000Y-8840000D01*
X13015000Y-8810000D02*
X12985000Y-8840000D01*
X13035000Y-7885000D02*
X13065000Y-7915000D01*
X13065000Y-7885000D02*
X13035000Y-7915000D01*
X13035000Y-7985000D02*
X13065000Y-8015000D01*
X13065000Y-7985000D02*
X13035000Y-8015000D01*
X13035000Y-8085000D02*
X13065000Y-8115000D01*
X13065000Y-8085000D02*
X13035000Y-8115000D01*
X13035000Y-8185000D02*
X13065000Y-8215000D01*
X13065000Y-8185000D02*
X13035000Y-8215000D01*
X13035000Y-8285000D02*
X13065000Y-8315000D01*
X13065000Y-8285000D02*
X13035000Y-8315000D01*
X13045000Y-8685000D02*
X13075000Y-8715000D01*
X13075000Y-8685000D02*
X13045000Y-8715000D01*
X13135000Y-8285000D02*
X13165000Y-8315000D01*
X13165000Y-8285000D02*
X13135000Y-8315000D01*
X13175000Y-7785000D02*
X13205000Y-7815000D01*
X13205000Y-7785000D02*
X13175000Y-7815000D01*
X13235000Y-7260000D02*
X13265000Y-7290000D01*
X13265000Y-7260000D02*
X13235000Y-7290000D01*
X13235000Y-7395000D02*
X13265000Y-7425000D01*
X13265000Y-7395000D02*
X13235000Y-7425000D01*
X13235000Y-8285000D02*
X13265000Y-8315000D01*
X13265000Y-8285000D02*
X13235000Y-8315000D01*
X13235000Y-8810000D02*
X13265000Y-8840000D01*
X13265000Y-8810000D02*
X13235000Y-8840000D01*
X13245000Y-8685000D02*
X13275000Y-8715000D01*
X13275000Y-8685000D02*
X13245000Y-8715000D01*
X13275000Y-7785000D02*
X13305000Y-7815000D01*
X13305000Y-7785000D02*
X13275000Y-7815000D01*
X13335000Y-7395000D02*
X13365000Y-7425000D01*
X13365000Y-7395000D02*
X13335000Y-7425000D01*
X13335000Y-8285000D02*
X13365000Y-8315000D01*
X13365000Y-8285000D02*
X13335000Y-8315000D01*
X13375000Y-7785000D02*
X13405000Y-7815000D01*
X13405000Y-7785000D02*
X13375000Y-7815000D01*
X13485000Y-7260000D02*
X13515000Y-7290000D01*
X13515000Y-7260000D02*
X13485000Y-7290000D01*
X13485000Y-8810000D02*
X13515000Y-8840000D01*
X13515000Y-8810000D02*
X13485000Y-8840000D01*
X13735000Y-7260000D02*
X13765000Y-7290000D01*
X13765000Y-7260000D02*
X13735000Y-7290000D01*
X13735000Y-8810000D02*
X13765000Y-8840000D01*
X13765000Y-8810000D02*
X13735000Y-8840000D01*
X13985000Y-7260000D02*
X14015000Y-7290000D01*
X14015000Y-7260000D02*
X13985000Y-7290000D01*
X13985000Y-8810000D02*
X14015000Y-8840000D01*
X14015000Y-8810000D02*
X13985000Y-8840000D01*
X14235000Y-7260000D02*
X14265000Y-7290000D01*
X14265000Y-7260000D02*
X14235000Y-7290000D01*
X14235000Y-8810000D02*
X14265000Y-8840000D01*
X14265000Y-8810000D02*
X14235000Y-8840000D01*
X14485000Y-7260000D02*
X14515000Y-7290000D01*
X14515000Y-7260000D02*
X14485000Y-7290000D01*
X14485000Y-8810000D02*
X14515000Y-8840000D01*
X14515000Y-8810000D02*
X14485000Y-8840000D01*
X14735000Y-7260000D02*
X14765000Y-7290000D01*
X14765000Y-7260000D02*
X14735000Y-7290000D01*
X14735000Y-8810000D02*
X14765000Y-8840000D01*
X14765000Y-8810000D02*
X14735000Y-8840000D01*
X14885000Y-7785000D02*
X14915000Y-7815000D01*
X14915000Y-7785000D02*
X14885000Y-7815000D01*
X14885000Y-8285000D02*
X14915000Y-8315000D01*
X14915000Y-8285000D02*
X14885000Y-8315000D01*
X14985000Y-7260000D02*
X15015000Y-7290000D01*
X15015000Y-7260000D02*
X14985000Y-7290000D01*
X14985000Y-7785000D02*
X15015000Y-7815000D01*
X15015000Y-7785000D02*
X14985000Y-7815000D01*
X14985000Y-8285000D02*
X15015000Y-8315000D01*
X15015000Y-8285000D02*
X14985000Y-8315000D01*
X14985000Y-8810000D02*
X15015000Y-8840000D01*
X15015000Y-8810000D02*
X14985000Y-8840000D01*
X15085000Y-7785000D02*
X15115000Y-7815000D01*
X15115000Y-7785000D02*
X15085000Y-7815000D01*
X15085000Y-8285000D02*
X15115000Y-8315000D01*
X15115000Y-8285000D02*
X15085000Y-8315000D01*
X15185000Y-7260000D02*
X15215000Y-7290000D01*
X15215000Y-7260000D02*
X15185000Y-7290000D01*
X15185000Y-7785000D02*
X15215000Y-7815000D01*
X15215000Y-7785000D02*
X15185000Y-7815000D01*
X15185000Y-7885000D02*
X15215000Y-7915000D01*
X15215000Y-7885000D02*
X15185000Y-7915000D01*
X15185000Y-7985000D02*
X15215000Y-8015000D01*
X15215000Y-7985000D02*
X15185000Y-8015000D01*
X15185000Y-8085000D02*
X15215000Y-8115000D01*
X15215000Y-8085000D02*
X15185000Y-8115000D01*
X15185000Y-8185000D02*
X15215000Y-8215000D01*
X15215000Y-8185000D02*
X15185000Y-8215000D01*
X15185000Y-8285000D02*
X15215000Y-8315000D01*
X15215000Y-8285000D02*
X15185000Y-8315000D01*
X15185000Y-8810000D02*
X15215000Y-8840000D01*
X15215000Y-8810000D02*
X15185000Y-8840000D01*
X12397500Y-8170000D02*
G75*
G03*
X12397500Y-8170000I-25000J0D01*
G01*
X12387500Y-8205000D02*
X12387500Y-8135000D01*
X12357500Y-8205000D02*
X12357500Y-8135000D01*
X12387500Y-8135000D02*
G75*
G03*
X12357500Y-8135000I-15000J0D01*
G01*
X12357500Y-8205000D02*
G75*
G03*
X12387500Y-8205000I15000J0D01*
G01*
X12397500Y-8730000D02*
G75*
G03*
X12397500Y-8730000I-25000J0D01*
G01*
X12387500Y-8765000D02*
X12387500Y-8695000D01*
X12357500Y-8765000D02*
X12357500Y-8695000D01*
X12387500Y-8695000D02*
G75*
G03*
X12357500Y-8695000I-15000J0D01*
G01*
X12357500Y-8765000D02*
G75*
G03*
X12387500Y-8765000I15000J0D01*
G01*
X12612500Y-8450000D02*
G75*
G03*
X12612500Y-8450000I-25000J0D01*
G01*
X12602500Y-8505000D02*
X12602500Y-8395000D01*
X12572500Y-8505000D02*
X12572500Y-8395000D01*
X12602500Y-8395000D02*
G75*
G03*
X12572500Y-8395000I-15000J0D01*
G01*
X12572500Y-8505000D02*
G75*
G03*
X12602500Y-8505000I15000J0D01*
G01*
X12575000Y-7530000D02*
X12575000Y-7610000D01*
X12535000Y-7570000D02*
X12615000Y-7570000D01*
X12575000Y-7730000D02*
X12575000Y-7810000D01*
X12535000Y-7770000D02*
X12615000Y-7770000D01*
X13050000Y-7410000D02*
X13050000Y-7490000D01*
X13010000Y-7450000D02*
X13090000Y-7450000D01*
X13050000Y-7610000D02*
X13050000Y-7690000D01*
X13010000Y-7650000D02*
X13090000Y-7650000D01*
D12*
X10581428Y-9370714D02*
X10581428Y-9070714D01*
X10652857Y-9070714D01*
X10695714Y-9085000D01*
X10724286Y-9113572D01*
X10738571Y-9142143D01*
X10752857Y-9199286D01*
X10752857Y-9242143D01*
X10738571Y-9299286D01*
X10724286Y-9327857D01*
X10695714Y-9356429D01*
X10652857Y-9370714D01*
X10581428Y-9370714D01*
X10881428Y-9370714D02*
X10881428Y-9170714D01*
X10881428Y-9227857D02*
X10895714Y-9199286D01*
X10910000Y-9185000D01*
X10938571Y-9170714D01*
X10967143Y-9170714D01*
X11067143Y-9370714D02*
X11067143Y-9170714D01*
X11067143Y-9070714D02*
X11052857Y-9085000D01*
X11067143Y-9099286D01*
X11081428Y-9085000D01*
X11067143Y-9070714D01*
X11067143Y-9099286D01*
X11252857Y-9370714D02*
X11224286Y-9356429D01*
X11210000Y-9327857D01*
X11210000Y-9070714D01*
X11410000Y-9370714D02*
X11381428Y-9356429D01*
X11367143Y-9327857D01*
X11367143Y-9070714D01*
X11752857Y-9370714D02*
X11752857Y-9070714D01*
X11852857Y-9285000D01*
X11952857Y-9070714D01*
X11952857Y-9370714D01*
X12224286Y-9370714D02*
X12224286Y-9213572D01*
X12210000Y-9185000D01*
X12181428Y-9170714D01*
X12124286Y-9170714D01*
X12095714Y-9185000D01*
X12224286Y-9356429D02*
X12195714Y-9370714D01*
X12124286Y-9370714D01*
X12095714Y-9356429D01*
X12081428Y-9327857D01*
X12081428Y-9299286D01*
X12095714Y-9270714D01*
X12124286Y-9256429D01*
X12195714Y-9256429D01*
X12224286Y-9242143D01*
X12367143Y-9170714D02*
X12367143Y-9470714D01*
X12367143Y-9185000D02*
X12395714Y-9170714D01*
X12452857Y-9170714D01*
X12481428Y-9185000D01*
X12495714Y-9199286D01*
X12510000Y-9227857D01*
X12510000Y-9313572D01*
X12495714Y-9342143D01*
X12481428Y-9356429D01*
X12452857Y-9370714D01*
X12395714Y-9370714D01*
X12367143Y-9356429D01*
X12638571Y-9342143D02*
X12652857Y-9356429D01*
X12638571Y-9370714D01*
X12624286Y-9356429D01*
X12638571Y-9342143D01*
X12638571Y-9370714D01*
X12638571Y-9185000D02*
X12652857Y-9199286D01*
X12638571Y-9213572D01*
X12624286Y-9199286D01*
X12638571Y-9185000D01*
X12638571Y-9213572D01*
X10265000Y-9850000D02*
X10295000Y-9880000D01*
X10295000Y-9850000D02*
X10265000Y-9880000D01*
X10638571Y-9700714D02*
X10667143Y-9700714D01*
X10695714Y-9715000D01*
X10710000Y-9729286D01*
X10724286Y-9757857D01*
X10738571Y-9815000D01*
X10738571Y-9886429D01*
X10724286Y-9943572D01*
X10710000Y-9972143D01*
X10695714Y-9986429D01*
X10667143Y-10000714D01*
X10638571Y-10000714D01*
X10610000Y-9986429D01*
X10595714Y-9972143D01*
X10581428Y-9943572D01*
X10567143Y-9886429D01*
X10567143Y-9815000D01*
X10581428Y-9757857D01*
X10595714Y-9729286D01*
X10610000Y-9715000D01*
X10638571Y-9700714D01*
X10867143Y-9972143D02*
X10881428Y-9986429D01*
X10867143Y-10000714D01*
X10852857Y-9986429D01*
X10867143Y-9972143D01*
X10867143Y-10000714D01*
X10981428Y-9700714D02*
X11167143Y-9700714D01*
X11067143Y-9815000D01*
X11110000Y-9815000D01*
X11138571Y-9829286D01*
X11152857Y-9843572D01*
X11167143Y-9872143D01*
X11167143Y-9943572D01*
X11152857Y-9972143D01*
X11138571Y-9986429D01*
X11110000Y-10000714D01*
X11024286Y-10000714D01*
X10995714Y-9986429D01*
X10981428Y-9972143D01*
X11352857Y-9700714D02*
X11381428Y-9700714D01*
X11410000Y-9715000D01*
X11424286Y-9729286D01*
X11438571Y-9757857D01*
X11452857Y-9815000D01*
X11452857Y-9886429D01*
X11438571Y-9943572D01*
X11424286Y-9972143D01*
X11410000Y-9986429D01*
X11381428Y-10000714D01*
X11352857Y-10000714D01*
X11324286Y-9986429D01*
X11310000Y-9972143D01*
X11295714Y-9943572D01*
X11281428Y-9886429D01*
X11281428Y-9815000D01*
X11295714Y-9757857D01*
X11310000Y-9729286D01*
X11324286Y-9715000D01*
X11352857Y-9700714D01*
X11581428Y-10000714D02*
X11581428Y-9800714D01*
X11581428Y-9829286D02*
X11595714Y-9815000D01*
X11624286Y-9800714D01*
X11667143Y-9800714D01*
X11695714Y-9815000D01*
X11710000Y-9843572D01*
X11710000Y-10000714D01*
X11710000Y-9843572D02*
X11724286Y-9815000D01*
X11752857Y-9800714D01*
X11795714Y-9800714D01*
X11824286Y-9815000D01*
X11838571Y-9843572D01*
X11838571Y-10000714D01*
X11981428Y-10000714D02*
X11981428Y-9800714D01*
X11981428Y-9829286D02*
X11995714Y-9815000D01*
X12024286Y-9800714D01*
X12067143Y-9800714D01*
X12095714Y-9815000D01*
X12110000Y-9843572D01*
X12110000Y-10000714D01*
X12110000Y-9843572D02*
X12124286Y-9815000D01*
X12152857Y-9800714D01*
X12195714Y-9800714D01*
X12224286Y-9815000D01*
X12238571Y-9843572D01*
X12238571Y-10000714D01*
X12824286Y-9686429D02*
X12567143Y-10072143D01*
X13210000Y-9700714D02*
X13238571Y-9700714D01*
X13267143Y-9715000D01*
X13281428Y-9729286D01*
X13295714Y-9757857D01*
X13310000Y-9815000D01*
X13310000Y-9886429D01*
X13295714Y-9943572D01*
X13281428Y-9972143D01*
X13267143Y-9986429D01*
X13238571Y-10000714D01*
X13210000Y-10000714D01*
X13181428Y-9986429D01*
X13167143Y-9972143D01*
X13152857Y-9943572D01*
X13138571Y-9886429D01*
X13138571Y-9815000D01*
X13152857Y-9757857D01*
X13167143Y-9729286D01*
X13181428Y-9715000D01*
X13210000Y-9700714D01*
X13438571Y-9972143D02*
X13452857Y-9986429D01*
X13438571Y-10000714D01*
X13424286Y-9986429D01*
X13438571Y-9972143D01*
X13438571Y-10000714D01*
X13638571Y-9700714D02*
X13667143Y-9700714D01*
X13695714Y-9715000D01*
X13710000Y-9729286D01*
X13724286Y-9757857D01*
X13738571Y-9815000D01*
X13738571Y-9886429D01*
X13724286Y-9943572D01*
X13710000Y-9972143D01*
X13695714Y-9986429D01*
X13667143Y-10000714D01*
X13638571Y-10000714D01*
X13610000Y-9986429D01*
X13595714Y-9972143D01*
X13581428Y-9943572D01*
X13567143Y-9886429D01*
X13567143Y-9815000D01*
X13581428Y-9757857D01*
X13595714Y-9729286D01*
X13610000Y-9715000D01*
X13638571Y-9700714D01*
X14024286Y-10000714D02*
X13852857Y-10000714D01*
X13938571Y-10000714D02*
X13938571Y-9700714D01*
X13910000Y-9743572D01*
X13881428Y-9772143D01*
X13852857Y-9786429D01*
X14138571Y-9729286D02*
X14152857Y-9715000D01*
X14181428Y-9700714D01*
X14252857Y-9700714D01*
X14281428Y-9715000D01*
X14295714Y-9729286D01*
X14310000Y-9757857D01*
X14310000Y-9786429D01*
X14295714Y-9829286D01*
X14124286Y-10000714D01*
X14310000Y-10000714D01*
X14424286Y-9700714D02*
X14424286Y-9757857D01*
X14538571Y-9700714D02*
X14538571Y-9757857D01*
X14981428Y-10115000D02*
X14967143Y-10100714D01*
X14938571Y-10057857D01*
X14924286Y-10029286D01*
X14910000Y-9986429D01*
X14895714Y-9915000D01*
X14895714Y-9857857D01*
X14910000Y-9786429D01*
X14924286Y-9743572D01*
X14938571Y-9715000D01*
X14967143Y-9672143D01*
X14981428Y-9657857D01*
X15252857Y-10000714D02*
X15081428Y-10000714D01*
X15167143Y-10000714D02*
X15167143Y-9700714D01*
X15138571Y-9743572D01*
X15110000Y-9772143D01*
X15081428Y-9786429D01*
X15524286Y-9700714D02*
X15381428Y-9700714D01*
X15367143Y-9843572D01*
X15381428Y-9829286D01*
X15410000Y-9815000D01*
X15481428Y-9815000D01*
X15510000Y-9829286D01*
X15524286Y-9843572D01*
X15538571Y-9872143D01*
X15538571Y-9943572D01*
X15524286Y-9972143D01*
X15510000Y-9986429D01*
X15481428Y-10000714D01*
X15410000Y-10000714D01*
X15381428Y-9986429D01*
X15367143Y-9972143D01*
X15681428Y-10000714D02*
X15738571Y-10000714D01*
X15767143Y-9986429D01*
X15781428Y-9972143D01*
X15810000Y-9929286D01*
X15824286Y-9872143D01*
X15824286Y-9757857D01*
X15810000Y-9729286D01*
X15795714Y-9715000D01*
X15767143Y-9700714D01*
X15710000Y-9700714D01*
X15681428Y-9715000D01*
X15667143Y-9729286D01*
X15652857Y-9757857D01*
X15652857Y-9829286D01*
X15667143Y-9857857D01*
X15681428Y-9872143D01*
X15710000Y-9886429D01*
X15767143Y-9886429D01*
X15795714Y-9872143D01*
X15810000Y-9857857D01*
X15824286Y-9829286D01*
X16181428Y-10000714D02*
X16181428Y-9700714D01*
X16310000Y-10000714D02*
X16310000Y-9843572D01*
X16295714Y-9815000D01*
X16267143Y-9800714D01*
X16224286Y-9800714D01*
X16195714Y-9815000D01*
X16181428Y-9829286D01*
X16495714Y-10000714D02*
X16467143Y-9986429D01*
X16452857Y-9972143D01*
X16438571Y-9943572D01*
X16438571Y-9857857D01*
X16452857Y-9829286D01*
X16467143Y-9815000D01*
X16495714Y-9800714D01*
X16538571Y-9800714D01*
X16567143Y-9815000D01*
X16581428Y-9829286D01*
X16595714Y-9857857D01*
X16595714Y-9943572D01*
X16581428Y-9972143D01*
X16567143Y-9986429D01*
X16538571Y-10000714D01*
X16495714Y-10000714D01*
X16767143Y-10000714D02*
X16738571Y-9986429D01*
X16724286Y-9957857D01*
X16724286Y-9700714D01*
X16995714Y-9986429D02*
X16967143Y-10000714D01*
X16910000Y-10000714D01*
X16881428Y-9986429D01*
X16867143Y-9957857D01*
X16867143Y-9843572D01*
X16881428Y-9815000D01*
X16910000Y-9800714D01*
X16967143Y-9800714D01*
X16995714Y-9815000D01*
X17010000Y-9843572D01*
X17010000Y-9872143D01*
X16867143Y-9900714D01*
X17124286Y-9986429D02*
X17152857Y-10000714D01*
X17210000Y-10000714D01*
X17238571Y-9986429D01*
X17252857Y-9957857D01*
X17252857Y-9943572D01*
X17238571Y-9915000D01*
X17210000Y-9900714D01*
X17167143Y-9900714D01*
X17138571Y-9886429D01*
X17124286Y-9857857D01*
X17124286Y-9843572D01*
X17138571Y-9815000D01*
X17167143Y-9800714D01*
X17210000Y-9800714D01*
X17238571Y-9815000D01*
X17352857Y-10115000D02*
X17367143Y-10100714D01*
X17395714Y-10057857D01*
X17410000Y-10029286D01*
X17424286Y-9986429D01*
X17438571Y-9915000D01*
X17438571Y-9857857D01*
X17424286Y-9786429D01*
X17410000Y-9743572D01*
X17395714Y-9715000D01*
X17367143Y-9672143D01*
X17352857Y-9657857D01*
X10295000Y-10261000D02*
G75*
G03*
X10295000Y-10261000I-25000J0D01*
G01*
X10638571Y-10096714D02*
X10667143Y-10096714D01*
X10695714Y-10111000D01*
X10710000Y-10125286D01*
X10724286Y-10153857D01*
X10738571Y-10211000D01*
X10738571Y-10282429D01*
X10724286Y-10339572D01*
X10710000Y-10368143D01*
X10695714Y-10382429D01*
X10667143Y-10396714D01*
X10638571Y-10396714D01*
X10610000Y-10382429D01*
X10595714Y-10368143D01*
X10581428Y-10339572D01*
X10567143Y-10282429D01*
X10567143Y-10211000D01*
X10581428Y-10153857D01*
X10595714Y-10125286D01*
X10610000Y-10111000D01*
X10638571Y-10096714D01*
X10867143Y-10368143D02*
X10881428Y-10382429D01*
X10867143Y-10396714D01*
X10852857Y-10382429D01*
X10867143Y-10368143D01*
X10867143Y-10396714D01*
X11152857Y-10096714D02*
X11010000Y-10096714D01*
X10995714Y-10239572D01*
X11010000Y-10225286D01*
X11038571Y-10211000D01*
X11110000Y-10211000D01*
X11138571Y-10225286D01*
X11152857Y-10239572D01*
X11167143Y-10268143D01*
X11167143Y-10339572D01*
X11152857Y-10368143D01*
X11138571Y-10382429D01*
X11110000Y-10396714D01*
X11038571Y-10396714D01*
X11010000Y-10382429D01*
X10995714Y-10368143D01*
X11352857Y-10096714D02*
X11381428Y-10096714D01*
X11410000Y-10111000D01*
X11424286Y-10125286D01*
X11438571Y-10153857D01*
X11452857Y-10211000D01*
X11452857Y-10282429D01*
X11438571Y-10339572D01*
X11424286Y-10368143D01*
X11410000Y-10382429D01*
X11381428Y-10396714D01*
X11352857Y-10396714D01*
X11324286Y-10382429D01*
X11310000Y-10368143D01*
X11295714Y-10339572D01*
X11281428Y-10282429D01*
X11281428Y-10211000D01*
X11295714Y-10153857D01*
X11310000Y-10125286D01*
X11324286Y-10111000D01*
X11352857Y-10096714D01*
X11581428Y-10396714D02*
X11581428Y-10196714D01*
X11581428Y-10225286D02*
X11595714Y-10211000D01*
X11624286Y-10196714D01*
X11667143Y-10196714D01*
X11695714Y-10211000D01*
X11710000Y-10239572D01*
X11710000Y-10396714D01*
X11710000Y-10239572D02*
X11724286Y-10211000D01*
X11752857Y-10196714D01*
X11795714Y-10196714D01*
X11824286Y-10211000D01*
X11838571Y-10239572D01*
X11838571Y-10396714D01*
X11981428Y-10396714D02*
X11981428Y-10196714D01*
X11981428Y-10225286D02*
X11995714Y-10211000D01*
X12024286Y-10196714D01*
X12067143Y-10196714D01*
X12095714Y-10211000D01*
X12110000Y-10239572D01*
X12110000Y-10396714D01*
X12110000Y-10239572D02*
X12124286Y-10211000D01*
X12152857Y-10196714D01*
X12195714Y-10196714D01*
X12224286Y-10211000D01*
X12238571Y-10239572D01*
X12238571Y-10396714D01*
X12824286Y-10082429D02*
X12567143Y-10468143D01*
X13210000Y-10096714D02*
X13238571Y-10096714D01*
X13267143Y-10111000D01*
X13281428Y-10125286D01*
X13295714Y-10153857D01*
X13310000Y-10211000D01*
X13310000Y-10282429D01*
X13295714Y-10339572D01*
X13281428Y-10368143D01*
X13267143Y-10382429D01*
X13238571Y-10396714D01*
X13210000Y-10396714D01*
X13181428Y-10382429D01*
X13167143Y-10368143D01*
X13152857Y-10339572D01*
X13138571Y-10282429D01*
X13138571Y-10211000D01*
X13152857Y-10153857D01*
X13167143Y-10125286D01*
X13181428Y-10111000D01*
X13210000Y-10096714D01*
X13438571Y-10368143D02*
X13452857Y-10382429D01*
X13438571Y-10396714D01*
X13424286Y-10382429D01*
X13438571Y-10368143D01*
X13438571Y-10396714D01*
X13638571Y-10096714D02*
X13667143Y-10096714D01*
X13695714Y-10111000D01*
X13710000Y-10125286D01*
X13724286Y-10153857D01*
X13738571Y-10211000D01*
X13738571Y-10282429D01*
X13724286Y-10339572D01*
X13710000Y-10368143D01*
X13695714Y-10382429D01*
X13667143Y-10396714D01*
X13638571Y-10396714D01*
X13610000Y-10382429D01*
X13595714Y-10368143D01*
X13581428Y-10339572D01*
X13567143Y-10282429D01*
X13567143Y-10211000D01*
X13581428Y-10153857D01*
X13595714Y-10125286D01*
X13610000Y-10111000D01*
X13638571Y-10096714D01*
X13852857Y-10125286D02*
X13867143Y-10111000D01*
X13895714Y-10096714D01*
X13967143Y-10096714D01*
X13995714Y-10111000D01*
X14010000Y-10125286D01*
X14024286Y-10153857D01*
X14024286Y-10182429D01*
X14010000Y-10225286D01*
X13838571Y-10396714D01*
X14024286Y-10396714D01*
X14210000Y-10096714D02*
X14238571Y-10096714D01*
X14267143Y-10111000D01*
X14281428Y-10125286D01*
X14295714Y-10153857D01*
X14310000Y-10211000D01*
X14310000Y-10282429D01*
X14295714Y-10339572D01*
X14281428Y-10368143D01*
X14267143Y-10382429D01*
X14238571Y-10396714D01*
X14210000Y-10396714D01*
X14181428Y-10382429D01*
X14167143Y-10368143D01*
X14152857Y-10339572D01*
X14138571Y-10282429D01*
X14138571Y-10211000D01*
X14152857Y-10153857D01*
X14167143Y-10125286D01*
X14181428Y-10111000D01*
X14210000Y-10096714D01*
X14424286Y-10096714D02*
X14424286Y-10153857D01*
X14538571Y-10096714D02*
X14538571Y-10153857D01*
X14981428Y-10511000D02*
X14967143Y-10496714D01*
X14938571Y-10453857D01*
X14924286Y-10425286D01*
X14910000Y-10382429D01*
X14895714Y-10311000D01*
X14895714Y-10253857D01*
X14910000Y-10182429D01*
X14924286Y-10139572D01*
X14938571Y-10111000D01*
X14967143Y-10068143D01*
X14981428Y-10053857D01*
X15152857Y-10096714D02*
X15181428Y-10096714D01*
X15210000Y-10111000D01*
X15224286Y-10125286D01*
X15238571Y-10153857D01*
X15252857Y-10211000D01*
X15252857Y-10282429D01*
X15238571Y-10339572D01*
X15224286Y-10368143D01*
X15210000Y-10382429D01*
X15181428Y-10396714D01*
X15152857Y-10396714D01*
X15124286Y-10382429D01*
X15110000Y-10368143D01*
X15095714Y-10339572D01*
X15081428Y-10282429D01*
X15081428Y-10211000D01*
X15095714Y-10153857D01*
X15110000Y-10125286D01*
X15124286Y-10111000D01*
X15152857Y-10096714D01*
X15610000Y-10396714D02*
X15610000Y-10096714D01*
X15738571Y-10396714D02*
X15738571Y-10239572D01*
X15724286Y-10211000D01*
X15695714Y-10196714D01*
X15652857Y-10196714D01*
X15624286Y-10211000D01*
X15610000Y-10225286D01*
X15924286Y-10396714D02*
X15895714Y-10382429D01*
X15881428Y-10368143D01*
X15867143Y-10339572D01*
X15867143Y-10253857D01*
X15881428Y-10225286D01*
X15895714Y-10211000D01*
X15924286Y-10196714D01*
X15967143Y-10196714D01*
X15995714Y-10211000D01*
X16010000Y-10225286D01*
X16024286Y-10253857D01*
X16024286Y-10339572D01*
X16010000Y-10368143D01*
X15995714Y-10382429D01*
X15967143Y-10396714D01*
X15924286Y-10396714D01*
X16195714Y-10396714D02*
X16167143Y-10382429D01*
X16152857Y-10353857D01*
X16152857Y-10096714D01*
X16424286Y-10382429D02*
X16395714Y-10396714D01*
X16338571Y-10396714D01*
X16310000Y-10382429D01*
X16295714Y-10353857D01*
X16295714Y-10239572D01*
X16310000Y-10211000D01*
X16338571Y-10196714D01*
X16395714Y-10196714D01*
X16424286Y-10211000D01*
X16438571Y-10239572D01*
X16438571Y-10268143D01*
X16295714Y-10296714D01*
X16552857Y-10382429D02*
X16581428Y-10396714D01*
X16638571Y-10396714D01*
X16667143Y-10382429D01*
X16681428Y-10353857D01*
X16681428Y-10339572D01*
X16667143Y-10311000D01*
X16638571Y-10296714D01*
X16595714Y-10296714D01*
X16567143Y-10282429D01*
X16552857Y-10253857D01*
X16552857Y-10239572D01*
X16567143Y-10211000D01*
X16595714Y-10196714D01*
X16638571Y-10196714D01*
X16667143Y-10211000D01*
X17038571Y-10282429D02*
X17267143Y-10282429D01*
X17152857Y-10396714D02*
X17152857Y-10168143D01*
X17610000Y-10096714D02*
X17795714Y-10096714D01*
X17695714Y-10211000D01*
X17738571Y-10211000D01*
X17767143Y-10225286D01*
X17781428Y-10239572D01*
X17795714Y-10268143D01*
X17795714Y-10339572D01*
X17781428Y-10368143D01*
X17767143Y-10382429D01*
X17738571Y-10396714D01*
X17652857Y-10396714D01*
X17624286Y-10382429D01*
X17610000Y-10368143D01*
X18138571Y-10382429D02*
X18167143Y-10396714D01*
X18224286Y-10396714D01*
X18252857Y-10382429D01*
X18267143Y-10353857D01*
X18267143Y-10339572D01*
X18252857Y-10311000D01*
X18224286Y-10296714D01*
X18181428Y-10296714D01*
X18152857Y-10282429D01*
X18138571Y-10253857D01*
X18138571Y-10239572D01*
X18152857Y-10211000D01*
X18181428Y-10196714D01*
X18224286Y-10196714D01*
X18252857Y-10211000D01*
X18438571Y-10396714D02*
X18410000Y-10382429D01*
X18395714Y-10353857D01*
X18395714Y-10096714D01*
X18595714Y-10396714D02*
X18567143Y-10382429D01*
X18552857Y-10368143D01*
X18538571Y-10339572D01*
X18538571Y-10253857D01*
X18552857Y-10225286D01*
X18567143Y-10211000D01*
X18595714Y-10196714D01*
X18638571Y-10196714D01*
X18667143Y-10211000D01*
X18681428Y-10225286D01*
X18695714Y-10253857D01*
X18695714Y-10339572D01*
X18681428Y-10368143D01*
X18667143Y-10382429D01*
X18638571Y-10396714D01*
X18595714Y-10396714D01*
X18781428Y-10196714D02*
X18895714Y-10196714D01*
X18824286Y-10096714D02*
X18824286Y-10353857D01*
X18838571Y-10382429D01*
X18867143Y-10396714D01*
X18895714Y-10396714D01*
X18981428Y-10382429D02*
X19010000Y-10396714D01*
X19067143Y-10396714D01*
X19095714Y-10382429D01*
X19110000Y-10353857D01*
X19110000Y-10339572D01*
X19095714Y-10311000D01*
X19067143Y-10296714D01*
X19024286Y-10296714D01*
X18995714Y-10282429D01*
X18981428Y-10253857D01*
X18981428Y-10239572D01*
X18995714Y-10211000D01*
X19024286Y-10196714D01*
X19067143Y-10196714D01*
X19095714Y-10211000D01*
X19210000Y-10511000D02*
X19224286Y-10496714D01*
X19252857Y-10453857D01*
X19267143Y-10425286D01*
X19281428Y-10382429D01*
X19295714Y-10311000D01*
X19295714Y-10253857D01*
X19281428Y-10182429D01*
X19267143Y-10139572D01*
X19252857Y-10111000D01*
X19224286Y-10068143D01*
X19210000Y-10053857D01*
X10255000Y-10617000D02*
X10255000Y-10697000D01*
X10215000Y-10657000D02*
X10295000Y-10657000D01*
X10638571Y-10492714D02*
X10667143Y-10492714D01*
X10695714Y-10507000D01*
X10710000Y-10521286D01*
X10724286Y-10549857D01*
X10738571Y-10607000D01*
X10738571Y-10678429D01*
X10724286Y-10735572D01*
X10710000Y-10764143D01*
X10695714Y-10778429D01*
X10667143Y-10792714D01*
X10638571Y-10792714D01*
X10610000Y-10778429D01*
X10595714Y-10764143D01*
X10581428Y-10735572D01*
X10567143Y-10678429D01*
X10567143Y-10607000D01*
X10581428Y-10549857D01*
X10595714Y-10521286D01*
X10610000Y-10507000D01*
X10638571Y-10492714D01*
X10867143Y-10764143D02*
X10881428Y-10778429D01*
X10867143Y-10792714D01*
X10852857Y-10778429D01*
X10867143Y-10764143D01*
X10867143Y-10792714D01*
X11052857Y-10621286D02*
X11024286Y-10607000D01*
X11010000Y-10592714D01*
X10995714Y-10564143D01*
X10995714Y-10549857D01*
X11010000Y-10521286D01*
X11024286Y-10507000D01*
X11052857Y-10492714D01*
X11110000Y-10492714D01*
X11138571Y-10507000D01*
X11152857Y-10521286D01*
X11167143Y-10549857D01*
X11167143Y-10564143D01*
X11152857Y-10592714D01*
X11138571Y-10607000D01*
X11110000Y-10621286D01*
X11052857Y-10621286D01*
X11024286Y-10635572D01*
X11010000Y-10649857D01*
X10995714Y-10678429D01*
X10995714Y-10735572D01*
X11010000Y-10764143D01*
X11024286Y-10778429D01*
X11052857Y-10792714D01*
X11110000Y-10792714D01*
X11138571Y-10778429D01*
X11152857Y-10764143D01*
X11167143Y-10735572D01*
X11167143Y-10678429D01*
X11152857Y-10649857D01*
X11138571Y-10635572D01*
X11110000Y-10621286D01*
X11352857Y-10492714D02*
X11381428Y-10492714D01*
X11410000Y-10507000D01*
X11424286Y-10521286D01*
X11438571Y-10549857D01*
X11452857Y-10607000D01*
X11452857Y-10678429D01*
X11438571Y-10735572D01*
X11424286Y-10764143D01*
X11410000Y-10778429D01*
X11381428Y-10792714D01*
X11352857Y-10792714D01*
X11324286Y-10778429D01*
X11310000Y-10764143D01*
X11295714Y-10735572D01*
X11281428Y-10678429D01*
X11281428Y-10607000D01*
X11295714Y-10549857D01*
X11310000Y-10521286D01*
X11324286Y-10507000D01*
X11352857Y-10492714D01*
X11581428Y-10792714D02*
X11581428Y-10592714D01*
X11581428Y-10621286D02*
X11595714Y-10607000D01*
X11624286Y-10592714D01*
X11667143Y-10592714D01*
X11695714Y-10607000D01*
X11710000Y-10635572D01*
X11710000Y-10792714D01*
X11710000Y-10635572D02*
X11724286Y-10607000D01*
X11752857Y-10592714D01*
X11795714Y-10592714D01*
X11824286Y-10607000D01*
X11838571Y-10635572D01*
X11838571Y-10792714D01*
X11981428Y-10792714D02*
X11981428Y-10592714D01*
X11981428Y-10621286D02*
X11995714Y-10607000D01*
X12024286Y-10592714D01*
X12067143Y-10592714D01*
X12095714Y-10607000D01*
X12110000Y-10635572D01*
X12110000Y-10792714D01*
X12110000Y-10635572D02*
X12124286Y-10607000D01*
X12152857Y-10592714D01*
X12195714Y-10592714D01*
X12224286Y-10607000D01*
X12238571Y-10635572D01*
X12238571Y-10792714D01*
X12824286Y-10478429D02*
X12567143Y-10864143D01*
X13210000Y-10492714D02*
X13238571Y-10492714D01*
X13267143Y-10507000D01*
X13281428Y-10521286D01*
X13295714Y-10549857D01*
X13310000Y-10607000D01*
X13310000Y-10678429D01*
X13295714Y-10735572D01*
X13281428Y-10764143D01*
X13267143Y-10778429D01*
X13238571Y-10792714D01*
X13210000Y-10792714D01*
X13181428Y-10778429D01*
X13167143Y-10764143D01*
X13152857Y-10735572D01*
X13138571Y-10678429D01*
X13138571Y-10607000D01*
X13152857Y-10549857D01*
X13167143Y-10521286D01*
X13181428Y-10507000D01*
X13210000Y-10492714D01*
X13438571Y-10764143D02*
X13452857Y-10778429D01*
X13438571Y-10792714D01*
X13424286Y-10778429D01*
X13438571Y-10764143D01*
X13438571Y-10792714D01*
X13638571Y-10492714D02*
X13667143Y-10492714D01*
X13695714Y-10507000D01*
X13710000Y-10521286D01*
X13724286Y-10549857D01*
X13738571Y-10607000D01*
X13738571Y-10678429D01*
X13724286Y-10735572D01*
X13710000Y-10764143D01*
X13695714Y-10778429D01*
X13667143Y-10792714D01*
X13638571Y-10792714D01*
X13610000Y-10778429D01*
X13595714Y-10764143D01*
X13581428Y-10735572D01*
X13567143Y-10678429D01*
X13567143Y-10607000D01*
X13581428Y-10549857D01*
X13595714Y-10521286D01*
X13610000Y-10507000D01*
X13638571Y-10492714D01*
X13838571Y-10492714D02*
X14024286Y-10492714D01*
X13924286Y-10607000D01*
X13967143Y-10607000D01*
X13995714Y-10621286D01*
X14010000Y-10635572D01*
X14024286Y-10664143D01*
X14024286Y-10735572D01*
X14010000Y-10764143D01*
X13995714Y-10778429D01*
X13967143Y-10792714D01*
X13881428Y-10792714D01*
X13852857Y-10778429D01*
X13838571Y-10764143D01*
X14310000Y-10792714D02*
X14138571Y-10792714D01*
X14224286Y-10792714D02*
X14224286Y-10492714D01*
X14195714Y-10535572D01*
X14167143Y-10564143D01*
X14138571Y-10578429D01*
X14424286Y-10492714D02*
X14424286Y-10549857D01*
X14538571Y-10492714D02*
X14538571Y-10549857D01*
X14981428Y-10907000D02*
X14967143Y-10892714D01*
X14938571Y-10849857D01*
X14924286Y-10821286D01*
X14910000Y-10778429D01*
X14895714Y-10707000D01*
X14895714Y-10649857D01*
X14910000Y-10578429D01*
X14924286Y-10535572D01*
X14938571Y-10507000D01*
X14967143Y-10464143D01*
X14981428Y-10449857D01*
X15224286Y-10592714D02*
X15224286Y-10792714D01*
X15152857Y-10478429D02*
X15081428Y-10692714D01*
X15267143Y-10692714D01*
X15610000Y-10792714D02*
X15610000Y-10492714D01*
X15738571Y-10792714D02*
X15738571Y-10635572D01*
X15724286Y-10607000D01*
X15695714Y-10592714D01*
X15652857Y-10592714D01*
X15624286Y-10607000D01*
X15610000Y-10621286D01*
X15924286Y-10792714D02*
X15895714Y-10778429D01*
X15881428Y-10764143D01*
X15867143Y-10735572D01*
X15867143Y-10649857D01*
X15881428Y-10621286D01*
X15895714Y-10607000D01*
X15924286Y-10592714D01*
X15967143Y-10592714D01*
X15995714Y-10607000D01*
X16010000Y-10621286D01*
X16024286Y-10649857D01*
X16024286Y-10735572D01*
X16010000Y-10764143D01*
X15995714Y-10778429D01*
X15967143Y-10792714D01*
X15924286Y-10792714D01*
X16195714Y-10792714D02*
X16167143Y-10778429D01*
X16152857Y-10749857D01*
X16152857Y-10492714D01*
X16424286Y-10778429D02*
X16395714Y-10792714D01*
X16338571Y-10792714D01*
X16310000Y-10778429D01*
X16295714Y-10749857D01*
X16295714Y-10635572D01*
X16310000Y-10607000D01*
X16338571Y-10592714D01*
X16395714Y-10592714D01*
X16424286Y-10607000D01*
X16438571Y-10635572D01*
X16438571Y-10664143D01*
X16295714Y-10692714D01*
X16552857Y-10778429D02*
X16581428Y-10792714D01*
X16638571Y-10792714D01*
X16667143Y-10778429D01*
X16681428Y-10749857D01*
X16681428Y-10735572D01*
X16667143Y-10707000D01*
X16638571Y-10692714D01*
X16595714Y-10692714D01*
X16567143Y-10678429D01*
X16552857Y-10649857D01*
X16552857Y-10635572D01*
X16567143Y-10607000D01*
X16595714Y-10592714D01*
X16638571Y-10592714D01*
X16667143Y-10607000D01*
X16781428Y-10907000D02*
X16795714Y-10892714D01*
X16824286Y-10849857D01*
X16838571Y-10821286D01*
X16852857Y-10778429D01*
X16867143Y-10707000D01*
X16867143Y-10649857D01*
X16852857Y-10578429D01*
X16838571Y-10535572D01*
X16824286Y-10507000D01*
X16795714Y-10464143D01*
X16781428Y-10449857D01*
M02*
