%FSLAX45Y45*%
G04 Gerber Fmt 4.5, Leading zero omitted, Abs format (unit mm)*
G04 Created by KiCad (PCBNEW 5.1.6-c6e7f7d~87~ubuntu18.04.1) date 2020-08-02 18:29:06*
%MOMM*%
%LPD*%
G01*
G04 APERTURE LIST*
%TA.AperFunction,Profile*%
%ADD10C,0.100000*%
%TD*%
%ADD11C,0.200000*%
%ADD12C,0.300000*%
G04 APERTURE END LIST*
D10*
X10300000Y-8900000D02*
X10300000Y-7200000D01*
X12700000Y-8900000D02*
X10300000Y-8900000D01*
X12700000Y-8900000D02*
X12700000Y-7200000D01*
X12900000Y-8900000D02*
X12900000Y-7200000D01*
X12900000Y-7200000D02*
X15300000Y-7200000D01*
X15300000Y-7200000D02*
X15300000Y-8900000D01*
X15300000Y-8900000D02*
X12900000Y-8900000D01*
X10300000Y-7200000D02*
X12700000Y-7200000D01*
D11*
D12*
X10581428Y-9370714D02*
X10581428Y-9070714D01*
X10652857Y-9070714D01*
X10695714Y-9085000D01*
X10724286Y-9113572D01*
X10738571Y-9142143D01*
X10752857Y-9199286D01*
X10752857Y-9242143D01*
X10738571Y-9299286D01*
X10724286Y-9327857D01*
X10695714Y-9356429D01*
X10652857Y-9370714D01*
X10581428Y-9370714D01*
X10881428Y-9370714D02*
X10881428Y-9170714D01*
X10881428Y-9227857D02*
X10895714Y-9199286D01*
X10910000Y-9185000D01*
X10938571Y-9170714D01*
X10967143Y-9170714D01*
X11067143Y-9370714D02*
X11067143Y-9170714D01*
X11067143Y-9070714D02*
X11052857Y-9085000D01*
X11067143Y-9099286D01*
X11081428Y-9085000D01*
X11067143Y-9070714D01*
X11067143Y-9099286D01*
X11252857Y-9370714D02*
X11224286Y-9356429D01*
X11210000Y-9327857D01*
X11210000Y-9070714D01*
X11410000Y-9370714D02*
X11381428Y-9356429D01*
X11367143Y-9327857D01*
X11367143Y-9070714D01*
X11752857Y-9370714D02*
X11752857Y-9070714D01*
X11852857Y-9285000D01*
X11952857Y-9070714D01*
X11952857Y-9370714D01*
X12224286Y-9370714D02*
X12224286Y-9213572D01*
X12210000Y-9185000D01*
X12181428Y-9170714D01*
X12124286Y-9170714D01*
X12095714Y-9185000D01*
X12224286Y-9356429D02*
X12195714Y-9370714D01*
X12124286Y-9370714D01*
X12095714Y-9356429D01*
X12081428Y-9327857D01*
X12081428Y-9299286D01*
X12095714Y-9270714D01*
X12124286Y-9256429D01*
X12195714Y-9256429D01*
X12224286Y-9242143D01*
X12367143Y-9170714D02*
X12367143Y-9470714D01*
X12367143Y-9185000D02*
X12395714Y-9170714D01*
X12452857Y-9170714D01*
X12481428Y-9185000D01*
X12495714Y-9199286D01*
X12510000Y-9227857D01*
X12510000Y-9313572D01*
X12495714Y-9342143D01*
X12481428Y-9356429D01*
X12452857Y-9370714D01*
X12395714Y-9370714D01*
X12367143Y-9356429D01*
X12638571Y-9342143D02*
X12652857Y-9356429D01*
X12638571Y-9370714D01*
X12624286Y-9356429D01*
X12638571Y-9342143D01*
X12638571Y-9370714D01*
X12638571Y-9185000D02*
X12652857Y-9199286D01*
X12638571Y-9213572D01*
X12624286Y-9199286D01*
X12638571Y-9185000D01*
X12638571Y-9213572D01*
M02*
