%TF.GenerationSoftware,KiCad,Pcbnew,5.1.6-c6e7f7d~87~ubuntu18.04.1*%
%TF.CreationDate,2020-08-02T18:29:42+02:00*%
%TF.ProjectId,SKnob,534b6e6f-622e-46b6-9963-61645f706362,1.0*%
%TF.SameCoordinates,Original*%
%TF.FileFunction,Legend,Top*%
%TF.FilePolarity,Positive*%
%FSLAX46Y46*%
G04 Gerber Fmt 4.6, Leading zero omitted, Abs format (unit mm)*
G04 Created by KiCad (PCBNEW 5.1.6-c6e7f7d~87~ubuntu18.04.1) date 2020-08-02 18:29:42*
%MOMM*%
%LPD*%
G01*
G04 APERTURE LIST*
%ADD10C,0.120000*%
%ADD11C,0.150000*%
%ADD12C,0.127000*%
%ADD13C,0.100000*%
%ADD14C,0.200000*%
G04 APERTURE END LIST*
D10*
%TO.C,SW1*%
X121175000Y-72150000D02*
X120675000Y-72530000D01*
X120675000Y-72530000D02*
X120675000Y-72850000D01*
X121175000Y-72150000D02*
X122175000Y-72150000D01*
X122175000Y-72150000D02*
X122675000Y-72530000D01*
X122675000Y-72530000D02*
X122675000Y-72850000D01*
X120025000Y-75650000D02*
X123325000Y-75650000D01*
X120025000Y-75350000D02*
X120025000Y-75650000D01*
X123325000Y-75650000D02*
X123325000Y-75350000D01*
X120025000Y-73150000D02*
X120025000Y-72850000D01*
X120025000Y-72850000D02*
X123325000Y-72850000D01*
X123325000Y-72850000D02*
X123325000Y-73150000D01*
%TO.C,Q1*%
X105760000Y-83580000D02*
X105760000Y-82650000D01*
X105760000Y-80420000D02*
X105760000Y-81350000D01*
X105760000Y-80420000D02*
X103600000Y-80420000D01*
X105760000Y-83580000D02*
X104300000Y-83580000D01*
D11*
%TO.C,FLT1*%
X110853607Y-81620000D02*
G75*
G03*
X110853607Y-81620000I-223607J0D01*
G01*
%TO.C,U2*%
X111150000Y-74100000D02*
G75*
G03*
X111150000Y-74100000I-250000J0D01*
G01*
D12*
X110675000Y-74600000D02*
X110675000Y-76600000D01*
X108125000Y-76600000D02*
X108125000Y-74600000D01*
D10*
%TO.C,R5*%
X115200000Y-88850000D02*
X114400000Y-88850000D01*
X115200000Y-87150000D02*
X115200000Y-88850000D01*
X114400000Y-87150000D02*
X115200000Y-87150000D01*
X114400000Y-88850000D02*
X114400000Y-87150000D01*
%TO.C,L4*%
X115037221Y-86510000D02*
X115362779Y-86510000D01*
X115037221Y-85490000D02*
X115362779Y-85490000D01*
D13*
%TO.C,D1*%
X126215000Y-73050000D02*
G75*
G03*
X126215000Y-73050000I-50000J0D01*
G01*
D10*
%TO.C,TP1*%
X110350000Y-78550000D02*
G75*
G03*
X110350000Y-78550000I-700000J0D01*
G01*
%TO.C,R3*%
X112250000Y-72600000D02*
X112250000Y-73400000D01*
X110550000Y-72600000D02*
X112250000Y-72600000D01*
X110550000Y-73400000D02*
X110550000Y-72600000D01*
X112250000Y-73400000D02*
X110550000Y-73400000D01*
%TO.C,J3*%
X131560000Y-77560000D02*
X130500000Y-77560000D01*
X131560000Y-76500000D02*
X131560000Y-77560000D01*
X131560000Y-75500000D02*
X129440000Y-75500000D01*
X129440000Y-75500000D02*
X129440000Y-73440000D01*
X131560000Y-75500000D02*
X131560000Y-73440000D01*
X131560000Y-73440000D02*
X129440000Y-73440000D01*
%TO.C,J2*%
X126810000Y-78760000D02*
X125750000Y-78760000D01*
X126810000Y-77700000D02*
X126810000Y-78760000D01*
X126810000Y-76700000D02*
X124690000Y-76700000D01*
X124690000Y-76700000D02*
X124690000Y-74640000D01*
X126810000Y-76700000D02*
X126810000Y-74640000D01*
X126810000Y-74640000D02*
X124690000Y-74640000D01*
%TO.C,U3*%
X120512000Y-82766000D02*
X120512000Y-84366000D01*
X122312000Y-84366000D02*
X122312000Y-82466000D01*
%TO.C,BT1*%
X147750000Y-82500000D02*
X147750000Y-84600000D01*
X134250000Y-82500000D02*
X134250000Y-84600000D01*
X134250000Y-78500000D02*
X134250000Y-77050000D01*
X134250000Y-77050000D02*
X136850000Y-74450000D01*
X136850000Y-74450000D02*
X136850000Y-73650000D01*
X136850000Y-73650000D02*
X145150000Y-73650000D01*
X145150000Y-73650000D02*
X145150000Y-74450000D01*
X145150000Y-74450000D02*
X147750000Y-77050000D01*
X147750000Y-77050000D02*
X147750000Y-78500000D01*
X134250000Y-84550000D02*
G75*
G03*
X135700000Y-86100000I1500000J-50000D01*
G01*
X147750000Y-84550000D02*
G75*
G02*
X146300000Y-86100000I-1500000J-50000D01*
G01*
X135585385Y-86084160D02*
G75*
G03*
X136500000Y-85700000I124615J984160D01*
G01*
X146414615Y-86084160D02*
G75*
G02*
X145500000Y-85700000I-124615J984160D01*
G01*
%TO.C,C26*%
X131890000Y-84641422D02*
X131890000Y-85158578D01*
X133310000Y-84641422D02*
X133310000Y-85158578D01*
%TO.C,C25*%
X129890000Y-84641422D02*
X129890000Y-85158578D01*
X131310000Y-84641422D02*
X131310000Y-85158578D01*
D11*
%TO.C,U1*%
X118520000Y-77660000D02*
X118520000Y-76910000D01*
X118520000Y-76910000D02*
X117770000Y-76910000D01*
X118520000Y-83660000D02*
X118520000Y-84410000D01*
X118520000Y-84410000D02*
X117770000Y-84410000D01*
X111770000Y-84410000D02*
X111020000Y-84410000D01*
X111020000Y-84410000D02*
X111020000Y-83660000D01*
X111020000Y-77660000D02*
X111020000Y-76910000D01*
X111020000Y-76910000D02*
X111770000Y-76910000D01*
X119170000Y-76560000D02*
G75*
G03*
X119170000Y-76560000I-300000J0D01*
G01*
D10*
%TO.C,Y1*%
X111920000Y-86510000D02*
X109220000Y-86510000D01*
X111920000Y-88810000D02*
X111920000Y-86510000D01*
%TO.C,C20*%
X123940000Y-77898578D02*
X123940000Y-77381422D01*
X122520000Y-77898578D02*
X122520000Y-77381422D01*
%TO.C,C15*%
X118990000Y-86641422D02*
X118990000Y-87158578D01*
X120410000Y-86641422D02*
X120410000Y-87158578D01*
%TO.C,C13*%
X116778922Y-88710000D02*
X117296078Y-88710000D01*
X116778922Y-87290000D02*
X117296078Y-87290000D01*
%TO.C,C6*%
X120990000Y-86641422D02*
X120990000Y-87158578D01*
X122410000Y-86641422D02*
X122410000Y-87158578D01*
%TO.C,J1*%
X123725000Y-86200000D02*
X122975000Y-86200000D01*
X122975000Y-86200000D02*
X122975000Y-85600000D01*
X122975000Y-86500000D02*
X122975000Y-88650000D01*
X122975000Y-80350000D02*
X126525000Y-80350000D01*
X126525000Y-88650000D02*
X126525000Y-85750000D01*
X122975000Y-88650000D02*
X126525000Y-88650000D01*
X126525000Y-80350000D02*
X126525000Y-83250000D01*
X122975000Y-82500000D02*
X122975000Y-80350000D01*
%TO.C,L2*%
X108080000Y-84673221D02*
X108080000Y-84998779D01*
X107060000Y-84673221D02*
X107060000Y-84998779D01*
%TO.C,L1*%
X112932779Y-74970000D02*
X112607221Y-74970000D01*
X112932779Y-73950000D02*
X112607221Y-73950000D01*
D12*
%TO.C,ANT1*%
X103800000Y-74200000D02*
X103800000Y-76200000D01*
X105400000Y-74200000D02*
X105400000Y-76200000D01*
D14*
X105200000Y-77700000D02*
G75*
G03*
X105200000Y-77700000I-100000J0D01*
G01*
D10*
%TO.C,Y2*%
X117975000Y-73375000D02*
X115575000Y-73375000D01*
X117975000Y-74975000D02*
X117975000Y-73375000D01*
X115575000Y-74975000D02*
X117975000Y-74975000D01*
D11*
X116298809Y-75951190D02*
X116298809Y-76427380D01*
X115965476Y-75427380D02*
X116298809Y-75951190D01*
X116632142Y-75427380D01*
X116917857Y-75522619D02*
X116965476Y-75475000D01*
X117060714Y-75427380D01*
X117298809Y-75427380D01*
X117394047Y-75475000D01*
X117441666Y-75522619D01*
X117489285Y-75617857D01*
X117489285Y-75713095D01*
X117441666Y-75855952D01*
X116870238Y-76427380D01*
X117489285Y-76427380D01*
%TD*%
M02*
