M48
; DRILL file {KiCad 5.1.6-c6e7f7d~87~ubuntu18.04.1} date Sun Aug  2 20:23:55 2020
; FORMAT={-:-/ absolute / metric / decimal}
; #@! TF.CreationDate,2020-08-02T20:23:55+02:00
; #@! TF.GenerationSoftware,Kicad,Pcbnew,5.1.6-c6e7f7d~87~ubuntu18.04.1
; #@! TF.FileFunction,Plated,1,4,PTH
FMAT,2
METRIC
T1C0.300
T2C0.500
T3C0.800
%
G90
G05
T1
X103.5Y-72.5
X103.6Y-78.0
X103.6Y-80.0
X103.6Y-82.0
X103.6Y-84.0
X103.6Y-86.0
X103.6Y-88.0
X104.3Y-78.2
X104.5Y-88.4
X104.65Y-79.35
X104.8Y-82.0
X105.4Y-80.1
X105.5Y-72.5
X105.85Y-78.2
X106.15Y-80.85
X106.2Y-87.2
X106.5Y-79.0
X106.5Y-88.4
X106.9Y-81.6
X107.0Y-78.0
X107.25Y-79.75
X107.5Y-72.5
X107.7Y-82.4
X107.78Y-86.7
X108.0Y-78.0
X108.0Y-80.5
X108.5Y-74.0
X108.5Y-88.4
X108.7Y-79.58
X108.8Y-78.2
X108.8Y-87.1
X108.815Y-80.585
X109.4Y-75.6
X109.4Y-74.0
X110.2Y-73.0
X110.3Y-74.0
X110.4Y-79.6
X110.4Y-80.4
X110.466Y-78.016
X110.992Y-74.492
X111.5Y-76.5
X112.0Y-75.5
X112.25Y-76.5
X112.3Y-88.2
X112.4Y-86.7
X112.5Y-78.5
X112.5Y-80.0
X112.5Y-81.5
X112.5Y-83.0
X112.7Y-73.0
X112.8Y-85.2
X113.2Y-76.5
X113.6Y-85.2
X113.9Y-88.4
X113.965Y-81.465
X114.0Y-78.5
X114.0Y-80.0
X114.0Y-83.0
X114.4Y-85.0
X114.7Y-76.5
X115.1Y-74.5
X115.5Y-78.5
X115.5Y-80.0
X115.52Y-76.52
X115.52Y-81.48
X115.52Y-82.98
X116.3Y-76.5
X117.0Y-78.5
X117.0Y-80.0
X117.0Y-81.5
X117.0Y-83.0
X117.1Y-88.0
X118.1Y-84.8
X118.9Y-87.0
X118.989Y-82.463
X118.989Y-78.057
X119.0Y-75.6
X119.0Y-77.3
X119.0Y-81.3
X119.009Y-80.05
X119.2Y-79.1
X119.345Y-80.664
X119.539Y-85.029
X119.7Y-79.7
X119.7Y-87.0
X119.8Y-76.2
X120.1Y-82.2
X120.126Y-79.1
X120.8Y-76.2
X120.869Y-78.796
X121.1Y-79.7
X121.6Y-87.0
X121.75Y-76.25
X121.75Y-78.95
X122.6Y-85.8
X122.904Y-82.69
X123.2Y-77.6
X123.7Y-79.7
X125.0Y-88.4
X125.9Y-80.75
X125.9Y-82.0
X126.375Y-73.05
X126.4Y-87.0
X126.4Y-88.4
X127.0Y-79.6
X127.0Y-80.2
X127.0Y-80.8
X127.0Y-81.4
X129.0Y-79.6
X129.0Y-80.2
X129.0Y-80.8
X129.0Y-81.4
X130.0Y-72.75
X130.0Y-88.25
X130.5Y-79.0
X130.5Y-80.0
X130.5Y-81.0
X130.5Y-82.0
X130.5Y-83.0
X130.6Y-87.0
X131.5Y-83.0
X131.9Y-78.0
X132.5Y-72.75
X132.5Y-74.1
X132.5Y-83.0
X132.5Y-88.25
X132.6Y-87.0
X132.9Y-78.0
X133.5Y-74.1
X133.5Y-83.0
X133.9Y-78.0
X135.0Y-72.75
X135.0Y-88.25
X137.5Y-72.75
X137.5Y-88.25
X140.0Y-72.75
X140.0Y-88.25
X142.5Y-72.75
X142.5Y-88.25
X145.0Y-72.75
X145.0Y-88.25
X147.5Y-72.75
X147.5Y-88.25
X149.0Y-78.0
X149.0Y-83.0
X150.0Y-72.75
X150.0Y-78.0
X150.0Y-83.0
X150.0Y-88.25
X151.0Y-78.0
X151.0Y-83.0
X152.0Y-72.75
X152.0Y-78.0
X152.0Y-79.0
X152.0Y-80.0
X152.0Y-81.0
X152.0Y-82.0
X152.0Y-83.0
X152.0Y-88.25
T3
X125.75Y-75.7
X125.75Y-77.7
X130.5Y-74.5
X130.5Y-76.5
T2
G00X123.725Y-82.05
M15
G01X123.725Y-81.35
M16
G05
G00X123.725Y-87.65
M15
G01X123.725Y-86.95
M16
G05
G00X125.875Y-85.05
M15
G01X125.875Y-83.95
M16
G05
T0
M30
