%TF.GenerationSoftware,KiCad,Pcbnew,5.1.6-c6e7f7d~87~ubuntu18.04.1*%
%TF.CreationDate,2020-08-02T18:45:10+02:00*%
%TF.ProjectId,SKnob,534b6e6f-622e-46b6-9963-61645f706362,1.0*%
%TF.SameCoordinates,Original*%
%TF.FileFunction,Soldermask,Bot*%
%TF.FilePolarity,Negative*%
%FSLAX46Y46*%
G04 Gerber Fmt 4.6, Leading zero omitted, Abs format (unit mm)*
G04 Created by KiCad (PCBNEW 5.1.6-c6e7f7d~87~ubuntu18.04.1) date 2020-08-02 18:45:10*
%MOMM*%
%LPD*%
G01*
G04 APERTURE LIST*
%ADD10C,0.150000*%
%ADD11C,0.100000*%
%ADD12C,1.000000*%
%ADD13O,1.350000X1.350000*%
%ADD14R,1.350000X1.350000*%
%ADD15O,1.100000X2.200000*%
%ADD16O,1.100000X1.800000*%
G04 APERTURE END LIST*
D10*
X109750000Y-78500000D02*
X109500000Y-78250000D01*
X111250000Y-78500000D02*
X111500000Y-78250000D01*
D11*
X108809523Y-79180952D02*
X109000000Y-79180952D01*
X109000000Y-78780952D01*
X108676190Y-79180952D02*
X108676190Y-78780952D01*
X108523809Y-78780952D01*
X108485714Y-78800000D01*
X108466666Y-78819047D01*
X108447619Y-78857142D01*
X108447619Y-78914285D01*
X108466666Y-78952380D01*
X108485714Y-78971428D01*
X108523809Y-78990476D01*
X108676190Y-78990476D01*
X108276190Y-78780952D02*
X108276190Y-79104761D01*
X108257142Y-79142857D01*
X108238095Y-79161904D01*
X108200000Y-79180952D01*
X108123809Y-79180952D01*
X108085714Y-79161904D01*
X108066666Y-79142857D01*
X108047619Y-79104761D01*
X108047619Y-78780952D01*
X107876190Y-79066666D02*
X107685714Y-79066666D01*
X107914285Y-79180952D02*
X107780952Y-78780952D01*
X107647619Y-79180952D01*
X107285714Y-79180952D02*
X107419047Y-78990476D01*
X107514285Y-79180952D02*
X107514285Y-78780952D01*
X107361904Y-78780952D01*
X107323809Y-78800000D01*
X107304761Y-78819047D01*
X107285714Y-78857142D01*
X107285714Y-78914285D01*
X107304761Y-78952380D01*
X107323809Y-78971428D01*
X107361904Y-78990476D01*
X107514285Y-78990476D01*
X107171428Y-78780952D02*
X106942857Y-78780952D01*
X107057142Y-79180952D02*
X107057142Y-78780952D01*
D10*
X116800000Y-84800000D02*
X116600000Y-84600000D01*
X115000000Y-84800000D02*
X114800000Y-84600000D01*
D11*
X117228571Y-85780952D02*
X117228571Y-86104761D01*
X117209523Y-86142857D01*
X117190476Y-86161904D01*
X117152380Y-86180952D01*
X117076190Y-86180952D01*
X117038095Y-86161904D01*
X117019047Y-86142857D01*
X117000000Y-86104761D01*
X117000000Y-85780952D01*
X116828571Y-86161904D02*
X116771428Y-86180952D01*
X116676190Y-86180952D01*
X116638095Y-86161904D01*
X116619047Y-86142857D01*
X116600000Y-86104761D01*
X116600000Y-86066666D01*
X116619047Y-86028571D01*
X116638095Y-86009523D01*
X116676190Y-85990476D01*
X116752380Y-85971428D01*
X116790476Y-85952380D01*
X116809523Y-85933333D01*
X116828571Y-85895238D01*
X116828571Y-85857142D01*
X116809523Y-85819047D01*
X116790476Y-85800000D01*
X116752380Y-85780952D01*
X116657142Y-85780952D01*
X116600000Y-85800000D01*
X116447619Y-86066666D02*
X116257142Y-86066666D01*
X116485714Y-86180952D02*
X116352380Y-85780952D01*
X116219047Y-86180952D01*
X115857142Y-86180952D02*
X115990476Y-85990476D01*
X116085714Y-86180952D02*
X116085714Y-85780952D01*
X115933333Y-85780952D01*
X115895238Y-85800000D01*
X115876190Y-85819047D01*
X115857142Y-85857142D01*
X115857142Y-85914285D01*
X115876190Y-85952380D01*
X115895238Y-85971428D01*
X115933333Y-85990476D01*
X116085714Y-85990476D01*
X115742857Y-85780952D02*
X115514285Y-85780952D01*
X115628571Y-86180952D02*
X115628571Y-85780952D01*
X109816666Y-79180952D02*
X109950000Y-78990476D01*
X110045238Y-79180952D02*
X110045238Y-78780952D01*
X109892857Y-78780952D01*
X109854761Y-78800000D01*
X109835714Y-78819047D01*
X109816666Y-78857142D01*
X109816666Y-78914285D01*
X109835714Y-78952380D01*
X109854761Y-78971428D01*
X109892857Y-78990476D01*
X110045238Y-78990476D01*
X109683333Y-78780952D02*
X109416666Y-79180952D01*
X109416666Y-78780952D02*
X109683333Y-79180952D01*
X111304761Y-78780952D02*
X111076190Y-78780952D01*
X111190476Y-79180952D02*
X111190476Y-78780952D01*
X110980952Y-78780952D02*
X110714285Y-79180952D01*
X110714285Y-78780952D02*
X110980952Y-79180952D01*
D10*
X113200000Y-78900000D02*
X113200000Y-78400000D01*
D11*
X109030238Y-84801190D02*
X109196904Y-84563095D01*
X109315952Y-84801190D02*
X109315952Y-84301190D01*
X109125476Y-84301190D01*
X109077857Y-84325000D01*
X109054047Y-84348809D01*
X109030238Y-84396428D01*
X109030238Y-84467857D01*
X109054047Y-84515476D01*
X109077857Y-84539285D01*
X109125476Y-84563095D01*
X109315952Y-84563095D01*
X108625476Y-84777380D02*
X108673095Y-84801190D01*
X108768333Y-84801190D01*
X108815952Y-84777380D01*
X108839761Y-84729761D01*
X108839761Y-84539285D01*
X108815952Y-84491666D01*
X108768333Y-84467857D01*
X108673095Y-84467857D01*
X108625476Y-84491666D01*
X108601666Y-84539285D01*
X108601666Y-84586904D01*
X108839761Y-84634523D01*
X108435000Y-84467857D02*
X108315952Y-84801190D01*
X108196904Y-84467857D01*
X107363571Y-84801190D02*
X107649285Y-84801190D01*
X107506428Y-84801190D02*
X107506428Y-84301190D01*
X107554047Y-84372619D01*
X107601666Y-84420238D01*
X107649285Y-84444047D01*
X107149285Y-84753571D02*
X107125476Y-84777380D01*
X107149285Y-84801190D01*
X107173095Y-84777380D01*
X107149285Y-84753571D01*
X107149285Y-84801190D01*
X106815952Y-84301190D02*
X106768333Y-84301190D01*
X106720714Y-84325000D01*
X106696904Y-84348809D01*
X106673095Y-84396428D01*
X106649285Y-84491666D01*
X106649285Y-84610714D01*
X106673095Y-84705952D01*
X106696904Y-84753571D01*
X106720714Y-84777380D01*
X106768333Y-84801190D01*
X106815952Y-84801190D01*
X106863571Y-84777380D01*
X106887380Y-84753571D01*
X106911190Y-84705952D01*
X106935000Y-84610714D01*
X106935000Y-84491666D01*
X106911190Y-84396428D01*
X106887380Y-84348809D01*
X106863571Y-84325000D01*
X106815952Y-84301190D01*
X109339761Y-85198809D02*
X109315952Y-85175000D01*
X109268333Y-85151190D01*
X109149285Y-85151190D01*
X109101666Y-85175000D01*
X109077857Y-85198809D01*
X109054047Y-85246428D01*
X109054047Y-85294047D01*
X109077857Y-85365476D01*
X109363571Y-85651190D01*
X109054047Y-85651190D01*
X108744523Y-85151190D02*
X108696904Y-85151190D01*
X108649285Y-85175000D01*
X108625476Y-85198809D01*
X108601666Y-85246428D01*
X108577857Y-85341666D01*
X108577857Y-85460714D01*
X108601666Y-85555952D01*
X108625476Y-85603571D01*
X108649285Y-85627380D01*
X108696904Y-85651190D01*
X108744523Y-85651190D01*
X108792142Y-85627380D01*
X108815952Y-85603571D01*
X108839761Y-85555952D01*
X108863571Y-85460714D01*
X108863571Y-85341666D01*
X108839761Y-85246428D01*
X108815952Y-85198809D01*
X108792142Y-85175000D01*
X108744523Y-85151190D01*
X108387380Y-85198809D02*
X108363571Y-85175000D01*
X108315952Y-85151190D01*
X108196904Y-85151190D01*
X108149285Y-85175000D01*
X108125476Y-85198809D01*
X108101666Y-85246428D01*
X108101666Y-85294047D01*
X108125476Y-85365476D01*
X108411190Y-85651190D01*
X108101666Y-85651190D01*
X107792142Y-85151190D02*
X107744523Y-85151190D01*
X107696904Y-85175000D01*
X107673095Y-85198809D01*
X107649285Y-85246428D01*
X107625476Y-85341666D01*
X107625476Y-85460714D01*
X107649285Y-85555952D01*
X107673095Y-85603571D01*
X107696904Y-85627380D01*
X107744523Y-85651190D01*
X107792142Y-85651190D01*
X107839761Y-85627380D01*
X107863571Y-85603571D01*
X107887380Y-85555952D01*
X107911190Y-85460714D01*
X107911190Y-85341666D01*
X107887380Y-85246428D01*
X107863571Y-85198809D01*
X107839761Y-85175000D01*
X107792142Y-85151190D01*
X107411190Y-85460714D02*
X107030238Y-85460714D01*
X106696904Y-85151190D02*
X106649285Y-85151190D01*
X106601666Y-85175000D01*
X106577857Y-85198809D01*
X106554047Y-85246428D01*
X106530238Y-85341666D01*
X106530238Y-85460714D01*
X106554047Y-85555952D01*
X106577857Y-85603571D01*
X106601666Y-85627380D01*
X106649285Y-85651190D01*
X106696904Y-85651190D01*
X106744523Y-85627380D01*
X106768333Y-85603571D01*
X106792142Y-85555952D01*
X106815952Y-85460714D01*
X106815952Y-85341666D01*
X106792142Y-85246428D01*
X106768333Y-85198809D01*
X106744523Y-85175000D01*
X106696904Y-85151190D01*
X106244523Y-85365476D02*
X106292142Y-85341666D01*
X106315952Y-85317857D01*
X106339761Y-85270238D01*
X106339761Y-85246428D01*
X106315952Y-85198809D01*
X106292142Y-85175000D01*
X106244523Y-85151190D01*
X106149285Y-85151190D01*
X106101666Y-85175000D01*
X106077857Y-85198809D01*
X106054047Y-85246428D01*
X106054047Y-85270238D01*
X106077857Y-85317857D01*
X106101666Y-85341666D01*
X106149285Y-85365476D01*
X106244523Y-85365476D01*
X106292142Y-85389285D01*
X106315952Y-85413095D01*
X106339761Y-85460714D01*
X106339761Y-85555952D01*
X106315952Y-85603571D01*
X106292142Y-85627380D01*
X106244523Y-85651190D01*
X106149285Y-85651190D01*
X106101666Y-85627380D01*
X106077857Y-85603571D01*
X106054047Y-85555952D01*
X106054047Y-85460714D01*
X106077857Y-85413095D01*
X106101666Y-85389285D01*
X106149285Y-85365476D01*
X105839761Y-85460714D02*
X105458809Y-85460714D01*
X105125476Y-85151190D02*
X105077857Y-85151190D01*
X105030238Y-85175000D01*
X105006428Y-85198809D01*
X104982619Y-85246428D01*
X104958809Y-85341666D01*
X104958809Y-85460714D01*
X104982619Y-85555952D01*
X105006428Y-85603571D01*
X105030238Y-85627380D01*
X105077857Y-85651190D01*
X105125476Y-85651190D01*
X105173095Y-85627380D01*
X105196904Y-85603571D01*
X105220714Y-85555952D01*
X105244523Y-85460714D01*
X105244523Y-85341666D01*
X105220714Y-85246428D01*
X105196904Y-85198809D01*
X105173095Y-85175000D01*
X105125476Y-85151190D01*
X104768333Y-85198809D02*
X104744523Y-85175000D01*
X104696904Y-85151190D01*
X104577857Y-85151190D01*
X104530238Y-85175000D01*
X104506428Y-85198809D01*
X104482619Y-85246428D01*
X104482619Y-85294047D01*
X104506428Y-85365476D01*
X104792142Y-85651190D01*
X104482619Y-85651190D01*
X126065952Y-74726190D02*
X126065952Y-74226190D01*
X126065952Y-74416666D02*
X126018333Y-74392857D01*
X125923095Y-74392857D01*
X125875476Y-74416666D01*
X125851666Y-74440476D01*
X125827857Y-74488095D01*
X125827857Y-74630952D01*
X125851666Y-74678571D01*
X125875476Y-74702380D01*
X125923095Y-74726190D01*
X126018333Y-74726190D01*
X126065952Y-74702380D01*
X125542142Y-74726190D02*
X125589761Y-74702380D01*
X125613571Y-74678571D01*
X125637380Y-74630952D01*
X125637380Y-74488095D01*
X125613571Y-74440476D01*
X125589761Y-74416666D01*
X125542142Y-74392857D01*
X125470714Y-74392857D01*
X125423095Y-74416666D01*
X125399285Y-74440476D01*
X125375476Y-74488095D01*
X125375476Y-74630952D01*
X125399285Y-74678571D01*
X125423095Y-74702380D01*
X125470714Y-74726190D01*
X125542142Y-74726190D01*
X125208809Y-74392857D02*
X124946904Y-74392857D01*
X125208809Y-74726190D01*
X124946904Y-74726190D01*
X124756428Y-74726190D02*
X124756428Y-74392857D01*
X124756428Y-74226190D02*
X124780238Y-74250000D01*
X124756428Y-74273809D01*
X124732619Y-74250000D01*
X124756428Y-74226190D01*
X124756428Y-74273809D01*
X124304047Y-74702380D02*
X124351666Y-74726190D01*
X124446904Y-74726190D01*
X124494523Y-74702380D01*
X124518333Y-74678571D01*
X124542142Y-74630952D01*
X124542142Y-74488095D01*
X124518333Y-74440476D01*
X124494523Y-74416666D01*
X124446904Y-74392857D01*
X124351666Y-74392857D01*
X124304047Y-74416666D01*
X123875476Y-74726190D02*
X123875476Y-74464285D01*
X123899285Y-74416666D01*
X123946904Y-74392857D01*
X124042142Y-74392857D01*
X124089761Y-74416666D01*
X123875476Y-74702380D02*
X123923095Y-74726190D01*
X124042142Y-74726190D01*
X124089761Y-74702380D01*
X124113571Y-74654761D01*
X124113571Y-74607142D01*
X124089761Y-74559523D01*
X124042142Y-74535714D01*
X123923095Y-74535714D01*
X123875476Y-74511904D01*
X123637380Y-74678571D02*
X123613571Y-74702380D01*
X123637380Y-74726190D01*
X123661190Y-74702380D01*
X123637380Y-74678571D01*
X123637380Y-74726190D01*
X123185000Y-74702380D02*
X123232619Y-74726190D01*
X123327857Y-74726190D01*
X123375476Y-74702380D01*
X123399285Y-74678571D01*
X123423095Y-74630952D01*
X123423095Y-74488095D01*
X123399285Y-74440476D01*
X123375476Y-74416666D01*
X123327857Y-74392857D01*
X123232619Y-74392857D01*
X123185000Y-74416666D01*
X122899285Y-74726190D02*
X122946904Y-74702380D01*
X122970714Y-74678571D01*
X122994523Y-74630952D01*
X122994523Y-74488095D01*
X122970714Y-74440476D01*
X122946904Y-74416666D01*
X122899285Y-74392857D01*
X122827857Y-74392857D01*
X122780238Y-74416666D01*
X122756428Y-74440476D01*
X122732619Y-74488095D01*
X122732619Y-74630952D01*
X122756428Y-74678571D01*
X122780238Y-74702380D01*
X122827857Y-74726190D01*
X122899285Y-74726190D01*
X113380952Y-79180952D02*
X113285714Y-79580952D01*
X113209523Y-79295238D01*
X113133333Y-79580952D01*
X113038095Y-79180952D01*
X112885714Y-79580952D02*
X112885714Y-79180952D01*
X112657142Y-79580952D02*
X112828571Y-79352380D01*
X112657142Y-79180952D02*
X112885714Y-79409523D01*
X112485714Y-79180952D02*
X112485714Y-79504761D01*
X112466666Y-79542857D01*
X112447619Y-79561904D01*
X112409523Y-79580952D01*
X112333333Y-79580952D01*
X112295238Y-79561904D01*
X112276190Y-79542857D01*
X112257142Y-79504761D01*
X112257142Y-79180952D01*
X112066666Y-79580952D02*
X112066666Y-79180952D01*
X111914285Y-79180952D01*
X111876190Y-79200000D01*
X111857142Y-79219047D01*
X111838095Y-79257142D01*
X111838095Y-79314285D01*
X111857142Y-79352380D01*
X111876190Y-79371428D01*
X111914285Y-79390476D01*
X112066666Y-79390476D01*
D10*
X114700000Y-78900000D02*
X114700000Y-78400000D01*
X116300000Y-78900000D02*
X116300000Y-78400000D01*
X123000000Y-80400000D02*
X122500000Y-80900000D01*
X123700000Y-80400000D02*
X123000000Y-80400000D01*
D11*
X125290476Y-80080952D02*
X125290476Y-80366666D01*
X125309523Y-80423809D01*
X125347619Y-80461904D01*
X125404761Y-80480952D01*
X125442857Y-80480952D01*
X125157142Y-80080952D02*
X124928571Y-80080952D01*
X125042857Y-80480952D02*
X125042857Y-80080952D01*
X124795238Y-80480952D02*
X124795238Y-80080952D01*
X124700000Y-80080952D01*
X124642857Y-80100000D01*
X124604761Y-80138095D01*
X124585714Y-80176190D01*
X124566666Y-80252380D01*
X124566666Y-80309523D01*
X124585714Y-80385714D01*
X124604761Y-80423809D01*
X124642857Y-80461904D01*
X124700000Y-80480952D01*
X124795238Y-80480952D01*
X124395238Y-80480952D02*
X124395238Y-80080952D01*
X124423809Y-83980952D02*
X124423809Y-84266666D01*
X124442857Y-84323809D01*
X124480952Y-84361904D01*
X124538095Y-84380952D01*
X124576190Y-84380952D01*
X124290476Y-83980952D02*
X124061904Y-83980952D01*
X124176190Y-84380952D02*
X124176190Y-83980952D01*
X123700000Y-84342857D02*
X123719047Y-84361904D01*
X123776190Y-84380952D01*
X123814285Y-84380952D01*
X123871428Y-84361904D01*
X123909523Y-84323809D01*
X123928571Y-84285714D01*
X123947619Y-84209523D01*
X123947619Y-84152380D01*
X123928571Y-84076190D01*
X123909523Y-84038095D01*
X123871428Y-84000000D01*
X123814285Y-83980952D01*
X123776190Y-83980952D01*
X123719047Y-84000000D01*
X123700000Y-84019047D01*
X123528571Y-84380952D02*
X123528571Y-83980952D01*
X123300000Y-84380952D02*
X123471428Y-84152380D01*
X123300000Y-83980952D02*
X123528571Y-84209523D01*
X123128571Y-84228571D02*
X122823809Y-84228571D01*
X122652380Y-84361904D02*
X122595238Y-84380952D01*
X122500000Y-84380952D01*
X122461904Y-84361904D01*
X122442857Y-84342857D01*
X122423809Y-84304761D01*
X122423809Y-84266666D01*
X122442857Y-84228571D01*
X122461904Y-84209523D01*
X122500000Y-84190476D01*
X122576190Y-84171428D01*
X122614285Y-84152380D01*
X122633333Y-84133333D01*
X122652380Y-84095238D01*
X122652380Y-84057142D01*
X122633333Y-84019047D01*
X122614285Y-84000000D01*
X122576190Y-83980952D01*
X122480952Y-83980952D01*
X122423809Y-84000000D01*
X122290476Y-83980952D02*
X122195238Y-84380952D01*
X122119047Y-84095238D01*
X122042857Y-84380952D01*
X121947619Y-83980952D01*
X121566666Y-84342857D02*
X121585714Y-84361904D01*
X121642857Y-84380952D01*
X121680952Y-84380952D01*
X121738095Y-84361904D01*
X121776190Y-84323809D01*
X121795238Y-84285714D01*
X121814285Y-84209523D01*
X121814285Y-84152380D01*
X121795238Y-84076190D01*
X121776190Y-84038095D01*
X121738095Y-84000000D01*
X121680952Y-83980952D01*
X121642857Y-83980952D01*
X121585714Y-84000000D01*
X121566666Y-84019047D01*
X121204761Y-84380952D02*
X121395238Y-84380952D01*
X121395238Y-83980952D01*
X121071428Y-84380952D02*
X121071428Y-83980952D01*
X120842857Y-84380952D02*
X121014285Y-84152380D01*
X120842857Y-83980952D02*
X121071428Y-84209523D01*
X116985714Y-82080952D02*
X116985714Y-82366666D01*
X117004761Y-82423809D01*
X117042857Y-82461904D01*
X117100000Y-82480952D01*
X117138095Y-82480952D01*
X116852380Y-82080952D02*
X116623809Y-82080952D01*
X116738095Y-82480952D02*
X116738095Y-82080952D01*
X116490476Y-82480952D02*
X116490476Y-82080952D01*
X116357142Y-82366666D01*
X116223809Y-82080952D01*
X116223809Y-82480952D01*
X116052380Y-82461904D02*
X115995238Y-82480952D01*
X115900000Y-82480952D01*
X115861904Y-82461904D01*
X115842857Y-82442857D01*
X115823809Y-82404761D01*
X115823809Y-82366666D01*
X115842857Y-82328571D01*
X115861904Y-82309523D01*
X115900000Y-82290476D01*
X115976190Y-82271428D01*
X116014285Y-82252380D01*
X116033333Y-82233333D01*
X116052380Y-82195238D01*
X116052380Y-82157142D01*
X116033333Y-82119047D01*
X116014285Y-82100000D01*
X115976190Y-82080952D01*
X115880952Y-82080952D01*
X115823809Y-82100000D01*
X115652380Y-82328571D02*
X115347619Y-82328571D01*
X115176190Y-82461904D02*
X115119047Y-82480952D01*
X115023809Y-82480952D01*
X114985714Y-82461904D01*
X114966666Y-82442857D01*
X114947619Y-82404761D01*
X114947619Y-82366666D01*
X114966666Y-82328571D01*
X114985714Y-82309523D01*
X115023809Y-82290476D01*
X115100000Y-82271428D01*
X115138095Y-82252380D01*
X115157142Y-82233333D01*
X115176190Y-82195238D01*
X115176190Y-82157142D01*
X115157142Y-82119047D01*
X115138095Y-82100000D01*
X115100000Y-82080952D01*
X115004761Y-82080952D01*
X114947619Y-82100000D01*
X114814285Y-82080952D02*
X114719047Y-82480952D01*
X114642857Y-82195238D01*
X114566666Y-82480952D01*
X114471428Y-82080952D01*
X114319047Y-82480952D02*
X114319047Y-82080952D01*
X114223809Y-82080952D01*
X114166666Y-82100000D01*
X114128571Y-82138095D01*
X114109523Y-82176190D01*
X114090476Y-82252380D01*
X114090476Y-82309523D01*
X114109523Y-82385714D01*
X114128571Y-82423809D01*
X114166666Y-82461904D01*
X114223809Y-82480952D01*
X114319047Y-82480952D01*
X113919047Y-82480952D02*
X113919047Y-82080952D01*
X113652380Y-82080952D02*
X113576190Y-82080952D01*
X113538095Y-82100000D01*
X113500000Y-82138095D01*
X113480952Y-82214285D01*
X113480952Y-82347619D01*
X113500000Y-82423809D01*
X113538095Y-82461904D01*
X113576190Y-82480952D01*
X113652380Y-82480952D01*
X113690476Y-82461904D01*
X113728571Y-82423809D01*
X113747619Y-82347619D01*
X113747619Y-82214285D01*
X113728571Y-82138095D01*
X113690476Y-82100000D01*
X113652380Y-82080952D01*
X109114285Y-82919047D02*
X109095238Y-82900000D01*
X109057142Y-82880952D01*
X108961904Y-82880952D01*
X108923809Y-82900000D01*
X108904761Y-82919047D01*
X108885714Y-82957142D01*
X108885714Y-82995238D01*
X108904761Y-83052380D01*
X109133333Y-83280952D01*
X108885714Y-83280952D01*
X111019047Y-87380952D02*
X110980952Y-87380952D01*
X110942857Y-87400000D01*
X110923809Y-87419047D01*
X110904761Y-87457142D01*
X110885714Y-87533333D01*
X110885714Y-87628571D01*
X110904761Y-87704761D01*
X110923809Y-87742857D01*
X110942857Y-87761904D01*
X110980952Y-87780952D01*
X111019047Y-87780952D01*
X111057142Y-87761904D01*
X111076190Y-87742857D01*
X111095238Y-87704761D01*
X111114285Y-87628571D01*
X111114285Y-87533333D01*
X111095238Y-87457142D01*
X111076190Y-87419047D01*
X111057142Y-87400000D01*
X111019047Y-87380952D01*
X113885714Y-87780952D02*
X114114285Y-87780952D01*
X114000000Y-87780952D02*
X114000000Y-87380952D01*
X114038095Y-87438095D01*
X114076190Y-87476190D01*
X114114285Y-87495238D01*
X117071428Y-80580952D02*
X116823809Y-80580952D01*
X116957142Y-80733333D01*
X116900000Y-80733333D01*
X116861904Y-80752380D01*
X116842857Y-80771428D01*
X116823809Y-80809523D01*
X116823809Y-80904761D01*
X116842857Y-80942857D01*
X116861904Y-80961904D01*
X116900000Y-80980952D01*
X117014285Y-80980952D01*
X117052380Y-80961904D01*
X117071428Y-80942857D01*
X116652380Y-80828571D02*
X116347619Y-80828571D01*
X116042857Y-80580952D02*
X116042857Y-80866666D01*
X116061904Y-80923809D01*
X116100000Y-80961904D01*
X116157142Y-80980952D01*
X116195238Y-80980952D01*
X115909523Y-80580952D02*
X115680952Y-80580952D01*
X115795238Y-80980952D02*
X115795238Y-80580952D01*
X115547619Y-80980952D02*
X115547619Y-80580952D01*
X115452380Y-80580952D01*
X115395238Y-80600000D01*
X115357142Y-80638095D01*
X115338095Y-80676190D01*
X115319047Y-80752380D01*
X115319047Y-80809523D01*
X115338095Y-80885714D01*
X115357142Y-80923809D01*
X115395238Y-80961904D01*
X115452380Y-80980952D01*
X115547619Y-80980952D01*
X115071428Y-80580952D02*
X114995238Y-80580952D01*
X114957142Y-80600000D01*
X114919047Y-80638095D01*
X114900000Y-80714285D01*
X114900000Y-80847619D01*
X114919047Y-80923809D01*
X114957142Y-80961904D01*
X114995238Y-80980952D01*
X115071428Y-80980952D01*
X115109523Y-80961904D01*
X115147619Y-80923809D01*
X115166666Y-80847619D01*
X115166666Y-80714285D01*
X115147619Y-80638095D01*
X115109523Y-80600000D01*
X115071428Y-80580952D01*
X114728571Y-80828571D02*
X114423809Y-80828571D01*
X114252380Y-80961904D02*
X114195238Y-80980952D01*
X114100000Y-80980952D01*
X114061904Y-80961904D01*
X114042857Y-80942857D01*
X114023809Y-80904761D01*
X114023809Y-80866666D01*
X114042857Y-80828571D01*
X114061904Y-80809523D01*
X114100000Y-80790476D01*
X114176190Y-80771428D01*
X114214285Y-80752380D01*
X114233333Y-80733333D01*
X114252380Y-80695238D01*
X114252380Y-80657142D01*
X114233333Y-80619047D01*
X114214285Y-80600000D01*
X114176190Y-80580952D01*
X114080952Y-80580952D01*
X114023809Y-80600000D01*
X113890476Y-80580952D02*
X113795238Y-80980952D01*
X113719047Y-80695238D01*
X113642857Y-80980952D01*
X113547619Y-80580952D01*
X113319047Y-80580952D02*
X113242857Y-80580952D01*
X113204761Y-80600000D01*
X113166666Y-80638095D01*
X113147619Y-80714285D01*
X113147619Y-80847619D01*
X113166666Y-80923809D01*
X113204761Y-80961904D01*
X113242857Y-80980952D01*
X113319047Y-80980952D01*
X113357142Y-80961904D01*
X113395238Y-80923809D01*
X113414285Y-80847619D01*
X113414285Y-80714285D01*
X113395238Y-80638095D01*
X113357142Y-80600000D01*
X113319047Y-80580952D01*
X124419047Y-78414285D02*
X124419047Y-78680952D01*
X124514285Y-78261904D02*
X124609523Y-78547619D01*
X124361904Y-78547619D01*
X124209523Y-78528571D02*
X123904761Y-78528571D01*
X123600000Y-78280952D02*
X123600000Y-78566666D01*
X123619047Y-78623809D01*
X123657142Y-78661904D01*
X123714285Y-78680952D01*
X123752380Y-78680952D01*
X123466666Y-78280952D02*
X123238095Y-78280952D01*
X123352380Y-78680952D02*
X123352380Y-78280952D01*
X122876190Y-78680952D02*
X123009523Y-78490476D01*
X123104761Y-78680952D02*
X123104761Y-78280952D01*
X122952380Y-78280952D01*
X122914285Y-78300000D01*
X122895238Y-78319047D01*
X122876190Y-78357142D01*
X122876190Y-78414285D01*
X122895238Y-78452380D01*
X122914285Y-78471428D01*
X122952380Y-78490476D01*
X123104761Y-78490476D01*
X122723809Y-78661904D02*
X122666666Y-78680952D01*
X122571428Y-78680952D01*
X122533333Y-78661904D01*
X122514285Y-78642857D01*
X122495238Y-78604761D01*
X122495238Y-78566666D01*
X122514285Y-78528571D01*
X122533333Y-78509523D01*
X122571428Y-78490476D01*
X122647619Y-78471428D01*
X122685714Y-78452380D01*
X122704761Y-78433333D01*
X122723809Y-78395238D01*
X122723809Y-78357142D01*
X122704761Y-78319047D01*
X122685714Y-78300000D01*
X122647619Y-78280952D01*
X122552380Y-78280952D01*
X122495238Y-78300000D01*
X122380952Y-78280952D02*
X122152380Y-78280952D01*
X122266666Y-78680952D02*
X122266666Y-78280952D01*
X116904761Y-79080952D02*
X117095238Y-79080952D01*
X117114285Y-79271428D01*
X117095238Y-79252380D01*
X117057142Y-79233333D01*
X116961904Y-79233333D01*
X116923809Y-79252380D01*
X116904761Y-79271428D01*
X116885714Y-79309523D01*
X116885714Y-79404761D01*
X116904761Y-79442857D01*
X116923809Y-79461904D01*
X116961904Y-79480952D01*
X117057142Y-79480952D01*
X117095238Y-79461904D01*
X117114285Y-79442857D01*
X119923809Y-76780952D02*
X120000000Y-76780952D01*
X120038095Y-76800000D01*
X120057142Y-76819047D01*
X120095238Y-76876190D01*
X120114285Y-76952380D01*
X120114285Y-77104761D01*
X120095238Y-77142857D01*
X120076190Y-77161904D01*
X120038095Y-77180952D01*
X119961904Y-77180952D01*
X119923809Y-77161904D01*
X119904761Y-77142857D01*
X119885714Y-77104761D01*
X119885714Y-77009523D01*
X119904761Y-76971428D01*
X119923809Y-76952380D01*
X119961904Y-76933333D01*
X120038095Y-76933333D01*
X120076190Y-76952380D01*
X120095238Y-76971428D01*
X120114285Y-77009523D01*
X118133333Y-76780952D02*
X117866666Y-76780952D01*
X118038095Y-77180952D01*
X115704761Y-84980952D02*
X115476190Y-84980952D01*
X115590476Y-85380952D02*
X115590476Y-84980952D01*
X115380952Y-84980952D02*
X115114285Y-85380952D01*
X115114285Y-84980952D02*
X115380952Y-85380952D01*
X117266666Y-85380952D02*
X117400000Y-85190476D01*
X117495238Y-85380952D02*
X117495238Y-84980952D01*
X117342857Y-84980952D01*
X117304761Y-85000000D01*
X117285714Y-85019047D01*
X117266666Y-85057142D01*
X117266666Y-85114285D01*
X117285714Y-85152380D01*
X117304761Y-85171428D01*
X117342857Y-85190476D01*
X117495238Y-85190476D01*
X117133333Y-84980952D02*
X116866666Y-85380952D01*
X116866666Y-84980952D02*
X117133333Y-85380952D01*
X126032619Y-73823809D02*
X125918333Y-73861904D01*
X125727857Y-73861904D01*
X125651666Y-73823809D01*
X125613571Y-73785714D01*
X125575476Y-73709523D01*
X125575476Y-73633333D01*
X125613571Y-73557142D01*
X125651666Y-73519047D01*
X125727857Y-73480952D01*
X125880238Y-73442857D01*
X125956428Y-73404761D01*
X125994523Y-73366666D01*
X126032619Y-73290476D01*
X126032619Y-73214285D01*
X125994523Y-73138095D01*
X125956428Y-73100000D01*
X125880238Y-73061904D01*
X125689761Y-73061904D01*
X125575476Y-73100000D01*
X125232619Y-73861904D02*
X125232619Y-73061904D01*
X124775476Y-73861904D02*
X125118333Y-73404761D01*
X124775476Y-73061904D02*
X125232619Y-73519047D01*
X124432619Y-73328571D02*
X124432619Y-73861904D01*
X124432619Y-73404761D02*
X124394523Y-73366666D01*
X124318333Y-73328571D01*
X124204047Y-73328571D01*
X124127857Y-73366666D01*
X124089761Y-73442857D01*
X124089761Y-73861904D01*
X123594523Y-73861904D02*
X123670714Y-73823809D01*
X123708809Y-73785714D01*
X123746904Y-73709523D01*
X123746904Y-73480952D01*
X123708809Y-73404761D01*
X123670714Y-73366666D01*
X123594523Y-73328571D01*
X123480238Y-73328571D01*
X123404047Y-73366666D01*
X123365952Y-73404761D01*
X123327857Y-73480952D01*
X123327857Y-73709523D01*
X123365952Y-73785714D01*
X123404047Y-73823809D01*
X123480238Y-73861904D01*
X123594523Y-73861904D01*
X122985000Y-73861904D02*
X122985000Y-73061904D01*
X122985000Y-73366666D02*
X122908809Y-73328571D01*
X122756428Y-73328571D01*
X122680238Y-73366666D01*
X122642142Y-73404761D01*
X122604047Y-73480952D01*
X122604047Y-73709523D01*
X122642142Y-73785714D01*
X122680238Y-73823809D01*
X122756428Y-73861904D01*
X122908809Y-73861904D01*
X122985000Y-73823809D01*
X114885714Y-79561904D02*
X114828571Y-79580952D01*
X114733333Y-79580952D01*
X114695238Y-79561904D01*
X114676190Y-79542857D01*
X114657142Y-79504761D01*
X114657142Y-79466666D01*
X114676190Y-79428571D01*
X114695238Y-79409523D01*
X114733333Y-79390476D01*
X114809523Y-79371428D01*
X114847619Y-79352380D01*
X114866666Y-79333333D01*
X114885714Y-79295238D01*
X114885714Y-79257142D01*
X114866666Y-79219047D01*
X114847619Y-79200000D01*
X114809523Y-79180952D01*
X114714285Y-79180952D01*
X114657142Y-79200000D01*
X114485714Y-79580952D02*
X114485714Y-79180952D01*
X114390476Y-79180952D01*
X114333333Y-79200000D01*
X114295238Y-79238095D01*
X114276190Y-79276190D01*
X114257142Y-79352380D01*
X114257142Y-79409523D01*
X114276190Y-79485714D01*
X114295238Y-79523809D01*
X114333333Y-79561904D01*
X114390476Y-79580952D01*
X114485714Y-79580952D01*
X114104761Y-79466666D02*
X113914285Y-79466666D01*
X114142857Y-79580952D02*
X114009523Y-79180952D01*
X113876190Y-79580952D01*
X116476190Y-79561904D02*
X116419047Y-79580952D01*
X116323809Y-79580952D01*
X116285714Y-79561904D01*
X116266666Y-79542857D01*
X116247619Y-79504761D01*
X116247619Y-79466666D01*
X116266666Y-79428571D01*
X116285714Y-79409523D01*
X116323809Y-79390476D01*
X116400000Y-79371428D01*
X116438095Y-79352380D01*
X116457142Y-79333333D01*
X116476190Y-79295238D01*
X116476190Y-79257142D01*
X116457142Y-79219047D01*
X116438095Y-79200000D01*
X116400000Y-79180952D01*
X116304761Y-79180952D01*
X116247619Y-79200000D01*
X115847619Y-79542857D02*
X115866666Y-79561904D01*
X115923809Y-79580952D01*
X115961904Y-79580952D01*
X116019047Y-79561904D01*
X116057142Y-79523809D01*
X116076190Y-79485714D01*
X116095238Y-79409523D01*
X116095238Y-79352380D01*
X116076190Y-79276190D01*
X116057142Y-79238095D01*
X116019047Y-79200000D01*
X115961904Y-79180952D01*
X115923809Y-79180952D01*
X115866666Y-79200000D01*
X115847619Y-79219047D01*
X115485714Y-79580952D02*
X115676190Y-79580952D01*
X115676190Y-79180952D01*
%TO.C,QR\u002A\u002A\u002A\u002A\u002A*%
G36*
X148400000Y-73500000D02*
G01*
X148400000Y-73900000D01*
X148000000Y-73900000D01*
X148000000Y-73500000D01*
X148400000Y-73500000D01*
G37*
G36*
X148000000Y-73500000D02*
G01*
X148000000Y-73900000D01*
X147600000Y-73900000D01*
X147600000Y-73500000D01*
X148000000Y-73500000D01*
G37*
G36*
X147600000Y-73500000D02*
G01*
X147600000Y-73900000D01*
X147200000Y-73900000D01*
X147200000Y-73500000D01*
X147600000Y-73500000D01*
G37*
G36*
X147200000Y-73500000D02*
G01*
X147200000Y-73900000D01*
X146800000Y-73900000D01*
X146800000Y-73500000D01*
X147200000Y-73500000D01*
G37*
G36*
X146800000Y-73500000D02*
G01*
X146800000Y-73900000D01*
X146400000Y-73900000D01*
X146400000Y-73500000D01*
X146800000Y-73500000D01*
G37*
G36*
X146400000Y-73500000D02*
G01*
X146400000Y-73900000D01*
X146000000Y-73900000D01*
X146000000Y-73500000D01*
X146400000Y-73500000D01*
G37*
G36*
X146000000Y-73500000D02*
G01*
X146000000Y-73900000D01*
X145600000Y-73900000D01*
X145600000Y-73500000D01*
X146000000Y-73500000D01*
G37*
G36*
X145600000Y-73500000D02*
G01*
X145600000Y-73900000D01*
X145200000Y-73900000D01*
X145200000Y-73500000D01*
X145600000Y-73500000D01*
G37*
G36*
X145200000Y-73500000D02*
G01*
X145200000Y-73900000D01*
X144800000Y-73900000D01*
X144800000Y-73500000D01*
X145200000Y-73500000D01*
G37*
G36*
X144800000Y-73500000D02*
G01*
X144800000Y-73900000D01*
X144400000Y-73900000D01*
X144400000Y-73500000D01*
X144800000Y-73500000D01*
G37*
G36*
X144400000Y-73500000D02*
G01*
X144400000Y-73900000D01*
X144000000Y-73900000D01*
X144000000Y-73500000D01*
X144400000Y-73500000D01*
G37*
G36*
X144000000Y-73500000D02*
G01*
X144000000Y-73900000D01*
X143600000Y-73900000D01*
X143600000Y-73500000D01*
X144000000Y-73500000D01*
G37*
G36*
X143600000Y-73500000D02*
G01*
X143600000Y-73900000D01*
X143200000Y-73900000D01*
X143200000Y-73500000D01*
X143600000Y-73500000D01*
G37*
G36*
X143200000Y-73500000D02*
G01*
X143200000Y-73900000D01*
X142800000Y-73900000D01*
X142800000Y-73500000D01*
X143200000Y-73500000D01*
G37*
G36*
X142800000Y-73500000D02*
G01*
X142800000Y-73900000D01*
X142400000Y-73900000D01*
X142400000Y-73500000D01*
X142800000Y-73500000D01*
G37*
G36*
X142400000Y-73500000D02*
G01*
X142400000Y-73900000D01*
X142000000Y-73900000D01*
X142000000Y-73500000D01*
X142400000Y-73500000D01*
G37*
G36*
X142000000Y-73500000D02*
G01*
X142000000Y-73900000D01*
X141600000Y-73900000D01*
X141600000Y-73500000D01*
X142000000Y-73500000D01*
G37*
G36*
X141600000Y-73500000D02*
G01*
X141600000Y-73900000D01*
X141200000Y-73900000D01*
X141200000Y-73500000D01*
X141600000Y-73500000D01*
G37*
G36*
X141200000Y-73500000D02*
G01*
X141200000Y-73900000D01*
X140800000Y-73900000D01*
X140800000Y-73500000D01*
X141200000Y-73500000D01*
G37*
G36*
X140800000Y-73500000D02*
G01*
X140800000Y-73900000D01*
X140400000Y-73900000D01*
X140400000Y-73500000D01*
X140800000Y-73500000D01*
G37*
G36*
X140400000Y-73500000D02*
G01*
X140400000Y-73900000D01*
X140000000Y-73900000D01*
X140000000Y-73500000D01*
X140400000Y-73500000D01*
G37*
G36*
X140000000Y-73500000D02*
G01*
X140000000Y-73900000D01*
X139600000Y-73900000D01*
X139600000Y-73500000D01*
X140000000Y-73500000D01*
G37*
G36*
X139600000Y-73500000D02*
G01*
X139600000Y-73900000D01*
X139200000Y-73900000D01*
X139200000Y-73500000D01*
X139600000Y-73500000D01*
G37*
G36*
X139200000Y-73500000D02*
G01*
X139200000Y-73900000D01*
X138800000Y-73900000D01*
X138800000Y-73500000D01*
X139200000Y-73500000D01*
G37*
G36*
X138800000Y-73500000D02*
G01*
X138800000Y-73900000D01*
X138400000Y-73900000D01*
X138400000Y-73500000D01*
X138800000Y-73500000D01*
G37*
G36*
X138400000Y-73500000D02*
G01*
X138400000Y-73900000D01*
X138000000Y-73900000D01*
X138000000Y-73500000D01*
X138400000Y-73500000D01*
G37*
G36*
X138000000Y-73500000D02*
G01*
X138000000Y-73900000D01*
X137600000Y-73900000D01*
X137600000Y-73500000D01*
X138000000Y-73500000D01*
G37*
G36*
X137600000Y-73500000D02*
G01*
X137600000Y-73900000D01*
X137200000Y-73900000D01*
X137200000Y-73500000D01*
X137600000Y-73500000D01*
G37*
G36*
X137200000Y-73500000D02*
G01*
X137200000Y-73900000D01*
X136800000Y-73900000D01*
X136800000Y-73500000D01*
X137200000Y-73500000D01*
G37*
G36*
X136800000Y-73500000D02*
G01*
X136800000Y-73900000D01*
X136400000Y-73900000D01*
X136400000Y-73500000D01*
X136800000Y-73500000D01*
G37*
G36*
X136400000Y-73500000D02*
G01*
X136400000Y-73900000D01*
X136000000Y-73900000D01*
X136000000Y-73500000D01*
X136400000Y-73500000D01*
G37*
G36*
X136000000Y-73500000D02*
G01*
X136000000Y-73900000D01*
X135600000Y-73900000D01*
X135600000Y-73500000D01*
X136000000Y-73500000D01*
G37*
G36*
X135600000Y-73500000D02*
G01*
X135600000Y-73900000D01*
X135200000Y-73900000D01*
X135200000Y-73500000D01*
X135600000Y-73500000D01*
G37*
G36*
X135200000Y-73500000D02*
G01*
X135200000Y-73900000D01*
X134800000Y-73900000D01*
X134800000Y-73500000D01*
X135200000Y-73500000D01*
G37*
G36*
X134800000Y-73500000D02*
G01*
X134800000Y-73900000D01*
X134400000Y-73900000D01*
X134400000Y-73500000D01*
X134800000Y-73500000D01*
G37*
G36*
X148400000Y-73900000D02*
G01*
X148400000Y-74300000D01*
X148000000Y-74300000D01*
X148000000Y-73900000D01*
X148400000Y-73900000D01*
G37*
G36*
X148000000Y-73900000D02*
G01*
X148000000Y-74300000D01*
X147600000Y-74300000D01*
X147600000Y-73900000D01*
X148000000Y-73900000D01*
G37*
G36*
X146800000Y-73900000D02*
G01*
X146800000Y-74300000D01*
X146400000Y-74300000D01*
X146400000Y-73900000D01*
X146800000Y-73900000D01*
G37*
G36*
X146400000Y-73900000D02*
G01*
X146400000Y-74300000D01*
X146000000Y-74300000D01*
X146000000Y-73900000D01*
X146400000Y-73900000D01*
G37*
G36*
X145600000Y-73900000D02*
G01*
X145600000Y-74300000D01*
X145200000Y-74300000D01*
X145200000Y-73900000D01*
X145600000Y-73900000D01*
G37*
G36*
X144400000Y-73900000D02*
G01*
X144400000Y-74300000D01*
X144000000Y-74300000D01*
X144000000Y-73900000D01*
X144400000Y-73900000D01*
G37*
G36*
X144000000Y-73900000D02*
G01*
X144000000Y-74300000D01*
X143600000Y-74300000D01*
X143600000Y-73900000D01*
X144000000Y-73900000D01*
G37*
G36*
X142800000Y-73900000D02*
G01*
X142800000Y-74300000D01*
X142400000Y-74300000D01*
X142400000Y-73900000D01*
X142800000Y-73900000D01*
G37*
G36*
X142000000Y-73900000D02*
G01*
X142000000Y-74300000D01*
X141600000Y-74300000D01*
X141600000Y-73900000D01*
X142000000Y-73900000D01*
G37*
G36*
X140400000Y-73900000D02*
G01*
X140400000Y-74300000D01*
X140000000Y-74300000D01*
X140000000Y-73900000D01*
X140400000Y-73900000D01*
G37*
G36*
X139200000Y-73900000D02*
G01*
X139200000Y-74300000D01*
X138800000Y-74300000D01*
X138800000Y-73900000D01*
X139200000Y-73900000D01*
G37*
G36*
X138000000Y-73900000D02*
G01*
X138000000Y-74300000D01*
X137600000Y-74300000D01*
X137600000Y-73900000D01*
X138000000Y-73900000D01*
G37*
G36*
X134800000Y-73900000D02*
G01*
X134800000Y-74300000D01*
X134400000Y-74300000D01*
X134400000Y-73900000D01*
X134800000Y-73900000D01*
G37*
G36*
X148400000Y-74300000D02*
G01*
X148400000Y-74700000D01*
X148000000Y-74700000D01*
X148000000Y-74300000D01*
X148400000Y-74300000D01*
G37*
G36*
X148000000Y-74300000D02*
G01*
X148000000Y-74700000D01*
X147600000Y-74700000D01*
X147600000Y-74300000D01*
X148000000Y-74300000D01*
G37*
G36*
X147600000Y-74300000D02*
G01*
X147600000Y-74700000D01*
X147200000Y-74700000D01*
X147200000Y-74300000D01*
X147600000Y-74300000D01*
G37*
G36*
X147200000Y-74300000D02*
G01*
X147200000Y-74700000D01*
X146800000Y-74700000D01*
X146800000Y-74300000D01*
X147200000Y-74300000D01*
G37*
G36*
X146000000Y-74300000D02*
G01*
X146000000Y-74700000D01*
X145600000Y-74700000D01*
X145600000Y-74300000D01*
X146000000Y-74300000D01*
G37*
G36*
X145600000Y-74300000D02*
G01*
X145600000Y-74700000D01*
X145200000Y-74700000D01*
X145200000Y-74300000D01*
X145600000Y-74300000D01*
G37*
G36*
X145200000Y-74300000D02*
G01*
X145200000Y-74700000D01*
X144800000Y-74700000D01*
X144800000Y-74300000D01*
X145200000Y-74300000D01*
G37*
G36*
X143200000Y-74300000D02*
G01*
X143200000Y-74700000D01*
X142800000Y-74700000D01*
X142800000Y-74300000D01*
X143200000Y-74300000D01*
G37*
G36*
X142800000Y-74300000D02*
G01*
X142800000Y-74700000D01*
X142400000Y-74700000D01*
X142400000Y-74300000D01*
X142800000Y-74300000D01*
G37*
G36*
X142400000Y-74300000D02*
G01*
X142400000Y-74700000D01*
X142000000Y-74700000D01*
X142000000Y-74300000D01*
X142400000Y-74300000D01*
G37*
G36*
X142000000Y-74300000D02*
G01*
X142000000Y-74700000D01*
X141600000Y-74700000D01*
X141600000Y-74300000D01*
X142000000Y-74300000D01*
G37*
G36*
X141600000Y-74300000D02*
G01*
X141600000Y-74700000D01*
X141200000Y-74700000D01*
X141200000Y-74300000D01*
X141600000Y-74300000D01*
G37*
G36*
X140800000Y-74300000D02*
G01*
X140800000Y-74700000D01*
X140400000Y-74700000D01*
X140400000Y-74300000D01*
X140800000Y-74300000D01*
G37*
G36*
X140400000Y-74300000D02*
G01*
X140400000Y-74700000D01*
X140000000Y-74700000D01*
X140000000Y-74300000D01*
X140400000Y-74300000D01*
G37*
G36*
X139600000Y-74300000D02*
G01*
X139600000Y-74700000D01*
X139200000Y-74700000D01*
X139200000Y-74300000D01*
X139600000Y-74300000D01*
G37*
G36*
X138400000Y-74300000D02*
G01*
X138400000Y-74700000D01*
X138000000Y-74700000D01*
X138000000Y-74300000D01*
X138400000Y-74300000D01*
G37*
G36*
X138000000Y-74300000D02*
G01*
X138000000Y-74700000D01*
X137600000Y-74700000D01*
X137600000Y-74300000D01*
X138000000Y-74300000D01*
G37*
G36*
X137200000Y-74300000D02*
G01*
X137200000Y-74700000D01*
X136800000Y-74700000D01*
X136800000Y-74300000D01*
X137200000Y-74300000D01*
G37*
G36*
X136800000Y-74300000D02*
G01*
X136800000Y-74700000D01*
X136400000Y-74700000D01*
X136400000Y-74300000D01*
X136800000Y-74300000D01*
G37*
G36*
X136400000Y-74300000D02*
G01*
X136400000Y-74700000D01*
X136000000Y-74700000D01*
X136000000Y-74300000D01*
X136400000Y-74300000D01*
G37*
G36*
X136000000Y-74300000D02*
G01*
X136000000Y-74700000D01*
X135600000Y-74700000D01*
X135600000Y-74300000D01*
X136000000Y-74300000D01*
G37*
G36*
X135600000Y-74300000D02*
G01*
X135600000Y-74700000D01*
X135200000Y-74700000D01*
X135200000Y-74300000D01*
X135600000Y-74300000D01*
G37*
G36*
X134800000Y-74300000D02*
G01*
X134800000Y-74700000D01*
X134400000Y-74700000D01*
X134400000Y-74300000D01*
X134800000Y-74300000D01*
G37*
G36*
X148400000Y-74700000D02*
G01*
X148400000Y-75100000D01*
X148000000Y-75100000D01*
X148000000Y-74700000D01*
X148400000Y-74700000D01*
G37*
G36*
X148000000Y-74700000D02*
G01*
X148000000Y-75100000D01*
X147600000Y-75100000D01*
X147600000Y-74700000D01*
X148000000Y-74700000D01*
G37*
G36*
X147600000Y-74700000D02*
G01*
X147600000Y-75100000D01*
X147200000Y-75100000D01*
X147200000Y-74700000D01*
X147600000Y-74700000D01*
G37*
G36*
X147200000Y-74700000D02*
G01*
X147200000Y-75100000D01*
X146800000Y-75100000D01*
X146800000Y-74700000D01*
X147200000Y-74700000D01*
G37*
G36*
X146800000Y-74700000D02*
G01*
X146800000Y-75100000D01*
X146400000Y-75100000D01*
X146400000Y-74700000D01*
X146800000Y-74700000D01*
G37*
G36*
X146400000Y-74700000D02*
G01*
X146400000Y-75100000D01*
X146000000Y-75100000D01*
X146000000Y-74700000D01*
X146400000Y-74700000D01*
G37*
G36*
X146000000Y-74700000D02*
G01*
X146000000Y-75100000D01*
X145600000Y-75100000D01*
X145600000Y-74700000D01*
X146000000Y-74700000D01*
G37*
G36*
X145600000Y-74700000D02*
G01*
X145600000Y-75100000D01*
X145200000Y-75100000D01*
X145200000Y-74700000D01*
X145600000Y-74700000D01*
G37*
G36*
X145200000Y-74700000D02*
G01*
X145200000Y-75100000D01*
X144800000Y-75100000D01*
X144800000Y-74700000D01*
X145200000Y-74700000D01*
G37*
G36*
X144800000Y-74700000D02*
G01*
X144800000Y-75100000D01*
X144400000Y-75100000D01*
X144400000Y-74700000D01*
X144800000Y-74700000D01*
G37*
G36*
X144000000Y-74700000D02*
G01*
X144000000Y-75100000D01*
X143600000Y-75100000D01*
X143600000Y-74700000D01*
X144000000Y-74700000D01*
G37*
G36*
X142800000Y-74700000D02*
G01*
X142800000Y-75100000D01*
X142400000Y-75100000D01*
X142400000Y-74700000D01*
X142800000Y-74700000D01*
G37*
G36*
X142000000Y-74700000D02*
G01*
X142000000Y-75100000D01*
X141600000Y-75100000D01*
X141600000Y-74700000D01*
X142000000Y-74700000D01*
G37*
G36*
X140800000Y-74700000D02*
G01*
X140800000Y-75100000D01*
X140400000Y-75100000D01*
X140400000Y-74700000D01*
X140800000Y-74700000D01*
G37*
G36*
X139200000Y-74700000D02*
G01*
X139200000Y-75100000D01*
X138800000Y-75100000D01*
X138800000Y-74700000D01*
X139200000Y-74700000D01*
G37*
G36*
X138800000Y-74700000D02*
G01*
X138800000Y-75100000D01*
X138400000Y-75100000D01*
X138400000Y-74700000D01*
X138800000Y-74700000D01*
G37*
G36*
X138000000Y-74700000D02*
G01*
X138000000Y-75100000D01*
X137600000Y-75100000D01*
X137600000Y-74700000D01*
X138000000Y-74700000D01*
G37*
G36*
X137200000Y-74700000D02*
G01*
X137200000Y-75100000D01*
X136800000Y-75100000D01*
X136800000Y-74700000D01*
X137200000Y-74700000D01*
G37*
G36*
X135600000Y-74700000D02*
G01*
X135600000Y-75100000D01*
X135200000Y-75100000D01*
X135200000Y-74700000D01*
X135600000Y-74700000D01*
G37*
G36*
X134800000Y-74700000D02*
G01*
X134800000Y-75100000D01*
X134400000Y-75100000D01*
X134400000Y-74700000D01*
X134800000Y-74700000D01*
G37*
G36*
X148400000Y-75100000D02*
G01*
X148400000Y-75500000D01*
X148000000Y-75500000D01*
X148000000Y-75100000D01*
X148400000Y-75100000D01*
G37*
G36*
X148000000Y-75100000D02*
G01*
X148000000Y-75500000D01*
X147600000Y-75500000D01*
X147600000Y-75100000D01*
X148000000Y-75100000D01*
G37*
G36*
X147600000Y-75100000D02*
G01*
X147600000Y-75500000D01*
X147200000Y-75500000D01*
X147200000Y-75100000D01*
X147600000Y-75100000D01*
G37*
G36*
X147200000Y-75100000D02*
G01*
X147200000Y-75500000D01*
X146800000Y-75500000D01*
X146800000Y-75100000D01*
X147200000Y-75100000D01*
G37*
G36*
X145600000Y-75100000D02*
G01*
X145600000Y-75500000D01*
X145200000Y-75500000D01*
X145200000Y-75100000D01*
X145600000Y-75100000D01*
G37*
G36*
X145200000Y-75100000D02*
G01*
X145200000Y-75500000D01*
X144800000Y-75500000D01*
X144800000Y-75100000D01*
X145200000Y-75100000D01*
G37*
G36*
X144800000Y-75100000D02*
G01*
X144800000Y-75500000D01*
X144400000Y-75500000D01*
X144400000Y-75100000D01*
X144800000Y-75100000D01*
G37*
G36*
X144400000Y-75100000D02*
G01*
X144400000Y-75500000D01*
X144000000Y-75500000D01*
X144000000Y-75100000D01*
X144400000Y-75100000D01*
G37*
G36*
X144000000Y-75100000D02*
G01*
X144000000Y-75500000D01*
X143600000Y-75500000D01*
X143600000Y-75100000D01*
X144000000Y-75100000D01*
G37*
G36*
X143200000Y-75100000D02*
G01*
X143200000Y-75500000D01*
X142800000Y-75500000D01*
X142800000Y-75100000D01*
X143200000Y-75100000D01*
G37*
G36*
X142800000Y-75100000D02*
G01*
X142800000Y-75500000D01*
X142400000Y-75500000D01*
X142400000Y-75100000D01*
X142800000Y-75100000D01*
G37*
G36*
X142000000Y-75100000D02*
G01*
X142000000Y-75500000D01*
X141600000Y-75500000D01*
X141600000Y-75100000D01*
X142000000Y-75100000D01*
G37*
G36*
X141600000Y-75100000D02*
G01*
X141600000Y-75500000D01*
X141200000Y-75500000D01*
X141200000Y-75100000D01*
X141600000Y-75100000D01*
G37*
G36*
X140000000Y-75100000D02*
G01*
X140000000Y-75500000D01*
X139600000Y-75500000D01*
X139600000Y-75100000D01*
X140000000Y-75100000D01*
G37*
G36*
X139600000Y-75100000D02*
G01*
X139600000Y-75500000D01*
X139200000Y-75500000D01*
X139200000Y-75100000D01*
X139600000Y-75100000D01*
G37*
G36*
X139200000Y-75100000D02*
G01*
X139200000Y-75500000D01*
X138800000Y-75500000D01*
X138800000Y-75100000D01*
X139200000Y-75100000D01*
G37*
G36*
X138000000Y-75100000D02*
G01*
X138000000Y-75500000D01*
X137600000Y-75500000D01*
X137600000Y-75100000D01*
X138000000Y-75100000D01*
G37*
G36*
X137200000Y-75100000D02*
G01*
X137200000Y-75500000D01*
X136800000Y-75500000D01*
X136800000Y-75100000D01*
X137200000Y-75100000D01*
G37*
G36*
X135600000Y-75100000D02*
G01*
X135600000Y-75500000D01*
X135200000Y-75500000D01*
X135200000Y-75100000D01*
X135600000Y-75100000D01*
G37*
G36*
X134800000Y-75100000D02*
G01*
X134800000Y-75500000D01*
X134400000Y-75500000D01*
X134400000Y-75100000D01*
X134800000Y-75100000D01*
G37*
G36*
X148400000Y-75500000D02*
G01*
X148400000Y-75900000D01*
X148000000Y-75900000D01*
X148000000Y-75500000D01*
X148400000Y-75500000D01*
G37*
G36*
X148000000Y-75500000D02*
G01*
X148000000Y-75900000D01*
X147600000Y-75900000D01*
X147600000Y-75500000D01*
X148000000Y-75500000D01*
G37*
G36*
X147600000Y-75500000D02*
G01*
X147600000Y-75900000D01*
X147200000Y-75900000D01*
X147200000Y-75500000D01*
X147600000Y-75500000D01*
G37*
G36*
X147200000Y-75500000D02*
G01*
X147200000Y-75900000D01*
X146800000Y-75900000D01*
X146800000Y-75500000D01*
X147200000Y-75500000D01*
G37*
G36*
X146800000Y-75500000D02*
G01*
X146800000Y-75900000D01*
X146400000Y-75900000D01*
X146400000Y-75500000D01*
X146800000Y-75500000D01*
G37*
G36*
X142400000Y-75500000D02*
G01*
X142400000Y-75900000D01*
X142000000Y-75900000D01*
X142000000Y-75500000D01*
X142400000Y-75500000D01*
G37*
G36*
X142000000Y-75500000D02*
G01*
X142000000Y-75900000D01*
X141600000Y-75900000D01*
X141600000Y-75500000D01*
X142000000Y-75500000D01*
G37*
G36*
X141200000Y-75500000D02*
G01*
X141200000Y-75900000D01*
X140800000Y-75900000D01*
X140800000Y-75500000D01*
X141200000Y-75500000D01*
G37*
G36*
X140400000Y-75500000D02*
G01*
X140400000Y-75900000D01*
X140000000Y-75900000D01*
X140000000Y-75500000D01*
X140400000Y-75500000D01*
G37*
G36*
X140000000Y-75500000D02*
G01*
X140000000Y-75900000D01*
X139600000Y-75900000D01*
X139600000Y-75500000D01*
X140000000Y-75500000D01*
G37*
G36*
X139600000Y-75500000D02*
G01*
X139600000Y-75900000D01*
X139200000Y-75900000D01*
X139200000Y-75500000D01*
X139600000Y-75500000D01*
G37*
G36*
X139200000Y-75500000D02*
G01*
X139200000Y-75900000D01*
X138800000Y-75900000D01*
X138800000Y-75500000D01*
X139200000Y-75500000D01*
G37*
G36*
X138000000Y-75500000D02*
G01*
X138000000Y-75900000D01*
X137600000Y-75900000D01*
X137600000Y-75500000D01*
X138000000Y-75500000D01*
G37*
G36*
X137200000Y-75500000D02*
G01*
X137200000Y-75900000D01*
X136800000Y-75900000D01*
X136800000Y-75500000D01*
X137200000Y-75500000D01*
G37*
G36*
X135600000Y-75500000D02*
G01*
X135600000Y-75900000D01*
X135200000Y-75900000D01*
X135200000Y-75500000D01*
X135600000Y-75500000D01*
G37*
G36*
X134800000Y-75500000D02*
G01*
X134800000Y-75900000D01*
X134400000Y-75900000D01*
X134400000Y-75500000D01*
X134800000Y-75500000D01*
G37*
G36*
X148400000Y-75900000D02*
G01*
X148400000Y-76300000D01*
X148000000Y-76300000D01*
X148000000Y-75900000D01*
X148400000Y-75900000D01*
G37*
G36*
X148000000Y-75900000D02*
G01*
X148000000Y-76300000D01*
X147600000Y-76300000D01*
X147600000Y-75900000D01*
X148000000Y-75900000D01*
G37*
G36*
X146000000Y-75900000D02*
G01*
X146000000Y-76300000D01*
X145600000Y-76300000D01*
X145600000Y-75900000D01*
X146000000Y-75900000D01*
G37*
G36*
X145600000Y-75900000D02*
G01*
X145600000Y-76300000D01*
X145200000Y-76300000D01*
X145200000Y-75900000D01*
X145600000Y-75900000D01*
G37*
G36*
X145200000Y-75900000D02*
G01*
X145200000Y-76300000D01*
X144800000Y-76300000D01*
X144800000Y-75900000D01*
X145200000Y-75900000D01*
G37*
G36*
X144000000Y-75900000D02*
G01*
X144000000Y-76300000D01*
X143600000Y-76300000D01*
X143600000Y-75900000D01*
X144000000Y-75900000D01*
G37*
G36*
X143600000Y-75900000D02*
G01*
X143600000Y-76300000D01*
X143200000Y-76300000D01*
X143200000Y-75900000D01*
X143600000Y-75900000D01*
G37*
G36*
X141200000Y-75900000D02*
G01*
X141200000Y-76300000D01*
X140800000Y-76300000D01*
X140800000Y-75900000D01*
X141200000Y-75900000D01*
G37*
G36*
X139600000Y-75900000D02*
G01*
X139600000Y-76300000D01*
X139200000Y-76300000D01*
X139200000Y-75900000D01*
X139600000Y-75900000D01*
G37*
G36*
X139200000Y-75900000D02*
G01*
X139200000Y-76300000D01*
X138800000Y-76300000D01*
X138800000Y-75900000D01*
X139200000Y-75900000D01*
G37*
G36*
X138800000Y-75900000D02*
G01*
X138800000Y-76300000D01*
X138400000Y-76300000D01*
X138400000Y-75900000D01*
X138800000Y-75900000D01*
G37*
G36*
X138000000Y-75900000D02*
G01*
X138000000Y-76300000D01*
X137600000Y-76300000D01*
X137600000Y-75900000D01*
X138000000Y-75900000D01*
G37*
G36*
X137200000Y-75900000D02*
G01*
X137200000Y-76300000D01*
X136800000Y-76300000D01*
X136800000Y-75900000D01*
X137200000Y-75900000D01*
G37*
G36*
X136800000Y-75900000D02*
G01*
X136800000Y-76300000D01*
X136400000Y-76300000D01*
X136400000Y-75900000D01*
X136800000Y-75900000D01*
G37*
G36*
X136400000Y-75900000D02*
G01*
X136400000Y-76300000D01*
X136000000Y-76300000D01*
X136000000Y-75900000D01*
X136400000Y-75900000D01*
G37*
G36*
X136000000Y-75900000D02*
G01*
X136000000Y-76300000D01*
X135600000Y-76300000D01*
X135600000Y-75900000D01*
X136000000Y-75900000D01*
G37*
G36*
X135600000Y-75900000D02*
G01*
X135600000Y-76300000D01*
X135200000Y-76300000D01*
X135200000Y-75900000D01*
X135600000Y-75900000D01*
G37*
G36*
X134800000Y-75900000D02*
G01*
X134800000Y-76300000D01*
X134400000Y-76300000D01*
X134400000Y-75900000D01*
X134800000Y-75900000D01*
G37*
G36*
X148400000Y-76300000D02*
G01*
X148400000Y-76700000D01*
X148000000Y-76700000D01*
X148000000Y-76300000D01*
X148400000Y-76300000D01*
G37*
G36*
X148000000Y-76300000D02*
G01*
X148000000Y-76700000D01*
X147600000Y-76700000D01*
X147600000Y-76300000D01*
X148000000Y-76300000D01*
G37*
G36*
X147600000Y-76300000D02*
G01*
X147600000Y-76700000D01*
X147200000Y-76700000D01*
X147200000Y-76300000D01*
X147600000Y-76300000D01*
G37*
G36*
X146000000Y-76300000D02*
G01*
X146000000Y-76700000D01*
X145600000Y-76700000D01*
X145600000Y-76300000D01*
X146000000Y-76300000D01*
G37*
G36*
X145200000Y-76300000D02*
G01*
X145200000Y-76700000D01*
X144800000Y-76700000D01*
X144800000Y-76300000D01*
X145200000Y-76300000D01*
G37*
G36*
X144400000Y-76300000D02*
G01*
X144400000Y-76700000D01*
X144000000Y-76700000D01*
X144000000Y-76300000D01*
X144400000Y-76300000D01*
G37*
G36*
X143600000Y-76300000D02*
G01*
X143600000Y-76700000D01*
X143200000Y-76700000D01*
X143200000Y-76300000D01*
X143600000Y-76300000D01*
G37*
G36*
X143200000Y-76300000D02*
G01*
X143200000Y-76700000D01*
X142800000Y-76700000D01*
X142800000Y-76300000D01*
X143200000Y-76300000D01*
G37*
G36*
X142400000Y-76300000D02*
G01*
X142400000Y-76700000D01*
X142000000Y-76700000D01*
X142000000Y-76300000D01*
X142400000Y-76300000D01*
G37*
G36*
X141600000Y-76300000D02*
G01*
X141600000Y-76700000D01*
X141200000Y-76700000D01*
X141200000Y-76300000D01*
X141600000Y-76300000D01*
G37*
G36*
X141200000Y-76300000D02*
G01*
X141200000Y-76700000D01*
X140800000Y-76700000D01*
X140800000Y-76300000D01*
X141200000Y-76300000D01*
G37*
G36*
X140400000Y-76300000D02*
G01*
X140400000Y-76700000D01*
X140000000Y-76700000D01*
X140000000Y-76300000D01*
X140400000Y-76300000D01*
G37*
G36*
X140000000Y-76300000D02*
G01*
X140000000Y-76700000D01*
X139600000Y-76700000D01*
X139600000Y-76300000D01*
X140000000Y-76300000D01*
G37*
G36*
X138800000Y-76300000D02*
G01*
X138800000Y-76700000D01*
X138400000Y-76700000D01*
X138400000Y-76300000D01*
X138800000Y-76300000D01*
G37*
G36*
X138400000Y-76300000D02*
G01*
X138400000Y-76700000D01*
X138000000Y-76700000D01*
X138000000Y-76300000D01*
X138400000Y-76300000D01*
G37*
G36*
X138000000Y-76300000D02*
G01*
X138000000Y-76700000D01*
X137600000Y-76700000D01*
X137600000Y-76300000D01*
X138000000Y-76300000D01*
G37*
G36*
X134800000Y-76300000D02*
G01*
X134800000Y-76700000D01*
X134400000Y-76700000D01*
X134400000Y-76300000D01*
X134800000Y-76300000D01*
G37*
G36*
X148400000Y-76700000D02*
G01*
X148400000Y-77100000D01*
X148000000Y-77100000D01*
X148000000Y-76700000D01*
X148400000Y-76700000D01*
G37*
G36*
X148000000Y-76700000D02*
G01*
X148000000Y-77100000D01*
X147600000Y-77100000D01*
X147600000Y-76700000D01*
X148000000Y-76700000D01*
G37*
G36*
X147200000Y-76700000D02*
G01*
X147200000Y-77100000D01*
X146800000Y-77100000D01*
X146800000Y-76700000D01*
X147200000Y-76700000D01*
G37*
G36*
X146800000Y-76700000D02*
G01*
X146800000Y-77100000D01*
X146400000Y-77100000D01*
X146400000Y-76700000D01*
X146800000Y-76700000D01*
G37*
G36*
X146000000Y-76700000D02*
G01*
X146000000Y-77100000D01*
X145600000Y-77100000D01*
X145600000Y-76700000D01*
X146000000Y-76700000D01*
G37*
G36*
X145600000Y-76700000D02*
G01*
X145600000Y-77100000D01*
X145200000Y-77100000D01*
X145200000Y-76700000D01*
X145600000Y-76700000D01*
G37*
G36*
X145200000Y-76700000D02*
G01*
X145200000Y-77100000D01*
X144800000Y-77100000D01*
X144800000Y-76700000D01*
X145200000Y-76700000D01*
G37*
G36*
X144400000Y-76700000D02*
G01*
X144400000Y-77100000D01*
X144000000Y-77100000D01*
X144000000Y-76700000D01*
X144400000Y-76700000D01*
G37*
G36*
X144000000Y-76700000D02*
G01*
X144000000Y-77100000D01*
X143600000Y-77100000D01*
X143600000Y-76700000D01*
X144000000Y-76700000D01*
G37*
G36*
X143600000Y-76700000D02*
G01*
X143600000Y-77100000D01*
X143200000Y-77100000D01*
X143200000Y-76700000D01*
X143600000Y-76700000D01*
G37*
G36*
X142800000Y-76700000D02*
G01*
X142800000Y-77100000D01*
X142400000Y-77100000D01*
X142400000Y-76700000D01*
X142800000Y-76700000D01*
G37*
G36*
X140800000Y-76700000D02*
G01*
X140800000Y-77100000D01*
X140400000Y-77100000D01*
X140400000Y-76700000D01*
X140800000Y-76700000D01*
G37*
G36*
X139600000Y-76700000D02*
G01*
X139600000Y-77100000D01*
X139200000Y-77100000D01*
X139200000Y-76700000D01*
X139600000Y-76700000D01*
G37*
G36*
X138800000Y-76700000D02*
G01*
X138800000Y-77100000D01*
X138400000Y-77100000D01*
X138400000Y-76700000D01*
X138800000Y-76700000D01*
G37*
G36*
X138000000Y-76700000D02*
G01*
X138000000Y-77100000D01*
X137600000Y-77100000D01*
X137600000Y-76700000D01*
X138000000Y-76700000D01*
G37*
G36*
X137600000Y-76700000D02*
G01*
X137600000Y-77100000D01*
X137200000Y-77100000D01*
X137200000Y-76700000D01*
X137600000Y-76700000D01*
G37*
G36*
X137200000Y-76700000D02*
G01*
X137200000Y-77100000D01*
X136800000Y-77100000D01*
X136800000Y-76700000D01*
X137200000Y-76700000D01*
G37*
G36*
X136800000Y-76700000D02*
G01*
X136800000Y-77100000D01*
X136400000Y-77100000D01*
X136400000Y-76700000D01*
X136800000Y-76700000D01*
G37*
G36*
X136400000Y-76700000D02*
G01*
X136400000Y-77100000D01*
X136000000Y-77100000D01*
X136000000Y-76700000D01*
X136400000Y-76700000D01*
G37*
G36*
X136000000Y-76700000D02*
G01*
X136000000Y-77100000D01*
X135600000Y-77100000D01*
X135600000Y-76700000D01*
X136000000Y-76700000D01*
G37*
G36*
X135600000Y-76700000D02*
G01*
X135600000Y-77100000D01*
X135200000Y-77100000D01*
X135200000Y-76700000D01*
X135600000Y-76700000D01*
G37*
G36*
X135200000Y-76700000D02*
G01*
X135200000Y-77100000D01*
X134800000Y-77100000D01*
X134800000Y-76700000D01*
X135200000Y-76700000D01*
G37*
G36*
X134800000Y-76700000D02*
G01*
X134800000Y-77100000D01*
X134400000Y-77100000D01*
X134400000Y-76700000D01*
X134800000Y-76700000D01*
G37*
G36*
X148400000Y-77100000D02*
G01*
X148400000Y-77500000D01*
X148000000Y-77500000D01*
X148000000Y-77100000D01*
X148400000Y-77100000D01*
G37*
G36*
X147600000Y-77100000D02*
G01*
X147600000Y-77500000D01*
X147200000Y-77500000D01*
X147200000Y-77100000D01*
X147600000Y-77100000D01*
G37*
G36*
X143200000Y-77100000D02*
G01*
X143200000Y-77500000D01*
X142800000Y-77500000D01*
X142800000Y-77100000D01*
X143200000Y-77100000D01*
G37*
G36*
X142400000Y-77100000D02*
G01*
X142400000Y-77500000D01*
X142000000Y-77500000D01*
X142000000Y-77100000D01*
X142400000Y-77100000D01*
G37*
G36*
X142000000Y-77100000D02*
G01*
X142000000Y-77500000D01*
X141600000Y-77500000D01*
X141600000Y-77100000D01*
X142000000Y-77100000D01*
G37*
G36*
X141600000Y-77100000D02*
G01*
X141600000Y-77500000D01*
X141200000Y-77500000D01*
X141200000Y-77100000D01*
X141600000Y-77100000D01*
G37*
G36*
X141200000Y-77100000D02*
G01*
X141200000Y-77500000D01*
X140800000Y-77500000D01*
X140800000Y-77100000D01*
X141200000Y-77100000D01*
G37*
G36*
X140800000Y-77100000D02*
G01*
X140800000Y-77500000D01*
X140400000Y-77500000D01*
X140400000Y-77100000D01*
X140800000Y-77100000D01*
G37*
G36*
X140400000Y-77100000D02*
G01*
X140400000Y-77500000D01*
X140000000Y-77500000D01*
X140000000Y-77100000D01*
X140400000Y-77100000D01*
G37*
G36*
X140000000Y-77100000D02*
G01*
X140000000Y-77500000D01*
X139600000Y-77500000D01*
X139600000Y-77100000D01*
X140000000Y-77100000D01*
G37*
G36*
X139600000Y-77100000D02*
G01*
X139600000Y-77500000D01*
X139200000Y-77500000D01*
X139200000Y-77100000D01*
X139600000Y-77100000D01*
G37*
G36*
X139200000Y-77100000D02*
G01*
X139200000Y-77500000D01*
X138800000Y-77500000D01*
X138800000Y-77100000D01*
X139200000Y-77100000D01*
G37*
G36*
X138400000Y-77100000D02*
G01*
X138400000Y-77500000D01*
X138000000Y-77500000D01*
X138000000Y-77100000D01*
X138400000Y-77100000D01*
G37*
G36*
X137200000Y-77100000D02*
G01*
X137200000Y-77500000D01*
X136800000Y-77500000D01*
X136800000Y-77100000D01*
X137200000Y-77100000D01*
G37*
G36*
X136800000Y-77100000D02*
G01*
X136800000Y-77500000D01*
X136400000Y-77500000D01*
X136400000Y-77100000D01*
X136800000Y-77100000D01*
G37*
G36*
X136400000Y-77100000D02*
G01*
X136400000Y-77500000D01*
X136000000Y-77500000D01*
X136000000Y-77100000D01*
X136400000Y-77100000D01*
G37*
G36*
X136000000Y-77100000D02*
G01*
X136000000Y-77500000D01*
X135600000Y-77500000D01*
X135600000Y-77100000D01*
X136000000Y-77100000D01*
G37*
G36*
X135600000Y-77100000D02*
G01*
X135600000Y-77500000D01*
X135200000Y-77500000D01*
X135200000Y-77100000D01*
X135600000Y-77100000D01*
G37*
G36*
X134800000Y-77100000D02*
G01*
X134800000Y-77500000D01*
X134400000Y-77500000D01*
X134400000Y-77100000D01*
X134800000Y-77100000D01*
G37*
G36*
X148400000Y-77500000D02*
G01*
X148400000Y-77900000D01*
X148000000Y-77900000D01*
X148000000Y-77500000D01*
X148400000Y-77500000D01*
G37*
G36*
X148000000Y-77500000D02*
G01*
X148000000Y-77900000D01*
X147600000Y-77900000D01*
X147600000Y-77500000D01*
X148000000Y-77500000D01*
G37*
G36*
X146800000Y-77500000D02*
G01*
X146800000Y-77900000D01*
X146400000Y-77900000D01*
X146400000Y-77500000D01*
X146800000Y-77500000D01*
G37*
G36*
X146400000Y-77500000D02*
G01*
X146400000Y-77900000D01*
X146000000Y-77900000D01*
X146000000Y-77500000D01*
X146400000Y-77500000D01*
G37*
G36*
X144800000Y-77500000D02*
G01*
X144800000Y-77900000D01*
X144400000Y-77900000D01*
X144400000Y-77500000D01*
X144800000Y-77500000D01*
G37*
G36*
X144000000Y-77500000D02*
G01*
X144000000Y-77900000D01*
X143600000Y-77900000D01*
X143600000Y-77500000D01*
X144000000Y-77500000D01*
G37*
G36*
X143600000Y-77500000D02*
G01*
X143600000Y-77900000D01*
X143200000Y-77900000D01*
X143200000Y-77500000D01*
X143600000Y-77500000D01*
G37*
G36*
X141200000Y-77500000D02*
G01*
X141200000Y-77900000D01*
X140800000Y-77900000D01*
X140800000Y-77500000D01*
X141200000Y-77500000D01*
G37*
G36*
X140400000Y-77500000D02*
G01*
X140400000Y-77900000D01*
X140000000Y-77900000D01*
X140000000Y-77500000D01*
X140400000Y-77500000D01*
G37*
G36*
X139200000Y-77500000D02*
G01*
X139200000Y-77900000D01*
X138800000Y-77900000D01*
X138800000Y-77500000D01*
X139200000Y-77500000D01*
G37*
G36*
X138800000Y-77500000D02*
G01*
X138800000Y-77900000D01*
X138400000Y-77900000D01*
X138400000Y-77500000D01*
X138800000Y-77500000D01*
G37*
G36*
X138400000Y-77500000D02*
G01*
X138400000Y-77900000D01*
X138000000Y-77900000D01*
X138000000Y-77500000D01*
X138400000Y-77500000D01*
G37*
G36*
X137600000Y-77500000D02*
G01*
X137600000Y-77900000D01*
X137200000Y-77900000D01*
X137200000Y-77500000D01*
X137600000Y-77500000D01*
G37*
G36*
X136000000Y-77500000D02*
G01*
X136000000Y-77900000D01*
X135600000Y-77900000D01*
X135600000Y-77500000D01*
X136000000Y-77500000D01*
G37*
G36*
X135600000Y-77500000D02*
G01*
X135600000Y-77900000D01*
X135200000Y-77900000D01*
X135200000Y-77500000D01*
X135600000Y-77500000D01*
G37*
G36*
X134800000Y-77500000D02*
G01*
X134800000Y-77900000D01*
X134400000Y-77900000D01*
X134400000Y-77500000D01*
X134800000Y-77500000D01*
G37*
G36*
X148400000Y-77900000D02*
G01*
X148400000Y-78300000D01*
X148000000Y-78300000D01*
X148000000Y-77900000D01*
X148400000Y-77900000D01*
G37*
G36*
X148000000Y-77900000D02*
G01*
X148000000Y-78300000D01*
X147600000Y-78300000D01*
X147600000Y-77900000D01*
X148000000Y-77900000D01*
G37*
G36*
X146400000Y-77900000D02*
G01*
X146400000Y-78300000D01*
X146000000Y-78300000D01*
X146000000Y-77900000D01*
X146400000Y-77900000D01*
G37*
G36*
X146000000Y-77900000D02*
G01*
X146000000Y-78300000D01*
X145600000Y-78300000D01*
X145600000Y-77900000D01*
X146000000Y-77900000D01*
G37*
G36*
X143600000Y-77900000D02*
G01*
X143600000Y-78300000D01*
X143200000Y-78300000D01*
X143200000Y-77900000D01*
X143600000Y-77900000D01*
G37*
G36*
X143200000Y-77900000D02*
G01*
X143200000Y-78300000D01*
X142800000Y-78300000D01*
X142800000Y-77900000D01*
X143200000Y-77900000D01*
G37*
G36*
X142400000Y-77900000D02*
G01*
X142400000Y-78300000D01*
X142000000Y-78300000D01*
X142000000Y-77900000D01*
X142400000Y-77900000D01*
G37*
G36*
X141600000Y-77900000D02*
G01*
X141600000Y-78300000D01*
X141200000Y-78300000D01*
X141200000Y-77900000D01*
X141600000Y-77900000D01*
G37*
G36*
X141200000Y-77900000D02*
G01*
X141200000Y-78300000D01*
X140800000Y-78300000D01*
X140800000Y-77900000D01*
X141200000Y-77900000D01*
G37*
G36*
X140800000Y-77900000D02*
G01*
X140800000Y-78300000D01*
X140400000Y-78300000D01*
X140400000Y-77900000D01*
X140800000Y-77900000D01*
G37*
G36*
X140000000Y-77900000D02*
G01*
X140000000Y-78300000D01*
X139600000Y-78300000D01*
X139600000Y-77900000D01*
X140000000Y-77900000D01*
G37*
G36*
X138400000Y-77900000D02*
G01*
X138400000Y-78300000D01*
X138000000Y-78300000D01*
X138000000Y-77900000D01*
X138400000Y-77900000D01*
G37*
G36*
X138000000Y-77900000D02*
G01*
X138000000Y-78300000D01*
X137600000Y-78300000D01*
X137600000Y-77900000D01*
X138000000Y-77900000D01*
G37*
G36*
X137200000Y-77900000D02*
G01*
X137200000Y-78300000D01*
X136800000Y-78300000D01*
X136800000Y-77900000D01*
X137200000Y-77900000D01*
G37*
G36*
X136800000Y-77900000D02*
G01*
X136800000Y-78300000D01*
X136400000Y-78300000D01*
X136400000Y-77900000D01*
X136800000Y-77900000D01*
G37*
G36*
X136400000Y-77900000D02*
G01*
X136400000Y-78300000D01*
X136000000Y-78300000D01*
X136000000Y-77900000D01*
X136400000Y-77900000D01*
G37*
G36*
X136000000Y-77900000D02*
G01*
X136000000Y-78300000D01*
X135600000Y-78300000D01*
X135600000Y-77900000D01*
X136000000Y-77900000D01*
G37*
G36*
X135600000Y-77900000D02*
G01*
X135600000Y-78300000D01*
X135200000Y-78300000D01*
X135200000Y-77900000D01*
X135600000Y-77900000D01*
G37*
G36*
X134800000Y-77900000D02*
G01*
X134800000Y-78300000D01*
X134400000Y-78300000D01*
X134400000Y-77900000D01*
X134800000Y-77900000D01*
G37*
G36*
X148400000Y-78300000D02*
G01*
X148400000Y-78700000D01*
X148000000Y-78700000D01*
X148000000Y-78300000D01*
X148400000Y-78300000D01*
G37*
G36*
X147600000Y-78300000D02*
G01*
X147600000Y-78700000D01*
X147200000Y-78700000D01*
X147200000Y-78300000D01*
X147600000Y-78300000D01*
G37*
G36*
X146800000Y-78300000D02*
G01*
X146800000Y-78700000D01*
X146400000Y-78700000D01*
X146400000Y-78300000D01*
X146800000Y-78300000D01*
G37*
G36*
X146400000Y-78300000D02*
G01*
X146400000Y-78700000D01*
X146000000Y-78700000D01*
X146000000Y-78300000D01*
X146400000Y-78300000D01*
G37*
G36*
X145600000Y-78300000D02*
G01*
X145600000Y-78700000D01*
X145200000Y-78700000D01*
X145200000Y-78300000D01*
X145600000Y-78300000D01*
G37*
G36*
X145200000Y-78300000D02*
G01*
X145200000Y-78700000D01*
X144800000Y-78700000D01*
X144800000Y-78300000D01*
X145200000Y-78300000D01*
G37*
G36*
X144800000Y-78300000D02*
G01*
X144800000Y-78700000D01*
X144400000Y-78700000D01*
X144400000Y-78300000D01*
X144800000Y-78300000D01*
G37*
G36*
X144400000Y-78300000D02*
G01*
X144400000Y-78700000D01*
X144000000Y-78700000D01*
X144000000Y-78300000D01*
X144400000Y-78300000D01*
G37*
G36*
X143600000Y-78300000D02*
G01*
X143600000Y-78700000D01*
X143200000Y-78700000D01*
X143200000Y-78300000D01*
X143600000Y-78300000D01*
G37*
G36*
X142800000Y-78300000D02*
G01*
X142800000Y-78700000D01*
X142400000Y-78700000D01*
X142400000Y-78300000D01*
X142800000Y-78300000D01*
G37*
G36*
X142400000Y-78300000D02*
G01*
X142400000Y-78700000D01*
X142000000Y-78700000D01*
X142000000Y-78300000D01*
X142400000Y-78300000D01*
G37*
G36*
X140800000Y-78300000D02*
G01*
X140800000Y-78700000D01*
X140400000Y-78700000D01*
X140400000Y-78300000D01*
X140800000Y-78300000D01*
G37*
G36*
X140000000Y-78300000D02*
G01*
X140000000Y-78700000D01*
X139600000Y-78700000D01*
X139600000Y-78300000D01*
X140000000Y-78300000D01*
G37*
G36*
X139600000Y-78300000D02*
G01*
X139600000Y-78700000D01*
X139200000Y-78700000D01*
X139200000Y-78300000D01*
X139600000Y-78300000D01*
G37*
G36*
X139200000Y-78300000D02*
G01*
X139200000Y-78700000D01*
X138800000Y-78700000D01*
X138800000Y-78300000D01*
X139200000Y-78300000D01*
G37*
G36*
X138400000Y-78300000D02*
G01*
X138400000Y-78700000D01*
X138000000Y-78700000D01*
X138000000Y-78300000D01*
X138400000Y-78300000D01*
G37*
G36*
X137600000Y-78300000D02*
G01*
X137600000Y-78700000D01*
X137200000Y-78700000D01*
X137200000Y-78300000D01*
X137600000Y-78300000D01*
G37*
G36*
X135600000Y-78300000D02*
G01*
X135600000Y-78700000D01*
X135200000Y-78700000D01*
X135200000Y-78300000D01*
X135600000Y-78300000D01*
G37*
G36*
X134800000Y-78300000D02*
G01*
X134800000Y-78700000D01*
X134400000Y-78700000D01*
X134400000Y-78300000D01*
X134800000Y-78300000D01*
G37*
G36*
X148400000Y-78700000D02*
G01*
X148400000Y-79100000D01*
X148000000Y-79100000D01*
X148000000Y-78700000D01*
X148400000Y-78700000D01*
G37*
G36*
X147200000Y-78700000D02*
G01*
X147200000Y-79100000D01*
X146800000Y-79100000D01*
X146800000Y-78700000D01*
X147200000Y-78700000D01*
G37*
G36*
X146800000Y-78700000D02*
G01*
X146800000Y-79100000D01*
X146400000Y-79100000D01*
X146400000Y-78700000D01*
X146800000Y-78700000D01*
G37*
G36*
X146400000Y-78700000D02*
G01*
X146400000Y-79100000D01*
X146000000Y-79100000D01*
X146000000Y-78700000D01*
X146400000Y-78700000D01*
G37*
G36*
X146000000Y-78700000D02*
G01*
X146000000Y-79100000D01*
X145600000Y-79100000D01*
X145600000Y-78700000D01*
X146000000Y-78700000D01*
G37*
G36*
X144400000Y-78700000D02*
G01*
X144400000Y-79100000D01*
X144000000Y-79100000D01*
X144000000Y-78700000D01*
X144400000Y-78700000D01*
G37*
G36*
X144000000Y-78700000D02*
G01*
X144000000Y-79100000D01*
X143600000Y-79100000D01*
X143600000Y-78700000D01*
X144000000Y-78700000D01*
G37*
G36*
X143200000Y-78700000D02*
G01*
X143200000Y-79100000D01*
X142800000Y-79100000D01*
X142800000Y-78700000D01*
X143200000Y-78700000D01*
G37*
G36*
X142800000Y-78700000D02*
G01*
X142800000Y-79100000D01*
X142400000Y-79100000D01*
X142400000Y-78700000D01*
X142800000Y-78700000D01*
G37*
G36*
X142000000Y-78700000D02*
G01*
X142000000Y-79100000D01*
X141600000Y-79100000D01*
X141600000Y-78700000D01*
X142000000Y-78700000D01*
G37*
G36*
X141600000Y-78700000D02*
G01*
X141600000Y-79100000D01*
X141200000Y-79100000D01*
X141200000Y-78700000D01*
X141600000Y-78700000D01*
G37*
G36*
X140800000Y-78700000D02*
G01*
X140800000Y-79100000D01*
X140400000Y-79100000D01*
X140400000Y-78700000D01*
X140800000Y-78700000D01*
G37*
G36*
X140400000Y-78700000D02*
G01*
X140400000Y-79100000D01*
X140000000Y-79100000D01*
X140000000Y-78700000D01*
X140400000Y-78700000D01*
G37*
G36*
X140000000Y-78700000D02*
G01*
X140000000Y-79100000D01*
X139600000Y-79100000D01*
X139600000Y-78700000D01*
X140000000Y-78700000D01*
G37*
G36*
X139600000Y-78700000D02*
G01*
X139600000Y-79100000D01*
X139200000Y-79100000D01*
X139200000Y-78700000D01*
X139600000Y-78700000D01*
G37*
G36*
X138800000Y-78700000D02*
G01*
X138800000Y-79100000D01*
X138400000Y-79100000D01*
X138400000Y-78700000D01*
X138800000Y-78700000D01*
G37*
G36*
X137200000Y-78700000D02*
G01*
X137200000Y-79100000D01*
X136800000Y-79100000D01*
X136800000Y-78700000D01*
X137200000Y-78700000D01*
G37*
G36*
X136400000Y-78700000D02*
G01*
X136400000Y-79100000D01*
X136000000Y-79100000D01*
X136000000Y-78700000D01*
X136400000Y-78700000D01*
G37*
G36*
X136000000Y-78700000D02*
G01*
X136000000Y-79100000D01*
X135600000Y-79100000D01*
X135600000Y-78700000D01*
X136000000Y-78700000D01*
G37*
G36*
X135600000Y-78700000D02*
G01*
X135600000Y-79100000D01*
X135200000Y-79100000D01*
X135200000Y-78700000D01*
X135600000Y-78700000D01*
G37*
G36*
X135200000Y-78700000D02*
G01*
X135200000Y-79100000D01*
X134800000Y-79100000D01*
X134800000Y-78700000D01*
X135200000Y-78700000D01*
G37*
G36*
X134800000Y-78700000D02*
G01*
X134800000Y-79100000D01*
X134400000Y-79100000D01*
X134400000Y-78700000D01*
X134800000Y-78700000D01*
G37*
G36*
X148400000Y-79100000D02*
G01*
X148400000Y-79500000D01*
X148000000Y-79500000D01*
X148000000Y-79100000D01*
X148400000Y-79100000D01*
G37*
G36*
X147600000Y-79100000D02*
G01*
X147600000Y-79500000D01*
X147200000Y-79500000D01*
X147200000Y-79100000D01*
X147600000Y-79100000D01*
G37*
G36*
X146400000Y-79100000D02*
G01*
X146400000Y-79500000D01*
X146000000Y-79500000D01*
X146000000Y-79100000D01*
X146400000Y-79100000D01*
G37*
G36*
X145200000Y-79100000D02*
G01*
X145200000Y-79500000D01*
X144800000Y-79500000D01*
X144800000Y-79100000D01*
X145200000Y-79100000D01*
G37*
G36*
X144400000Y-79100000D02*
G01*
X144400000Y-79500000D01*
X144000000Y-79500000D01*
X144000000Y-79100000D01*
X144400000Y-79100000D01*
G37*
G36*
X143200000Y-79100000D02*
G01*
X143200000Y-79500000D01*
X142800000Y-79500000D01*
X142800000Y-79100000D01*
X143200000Y-79100000D01*
G37*
G36*
X142800000Y-79100000D02*
G01*
X142800000Y-79500000D01*
X142400000Y-79500000D01*
X142400000Y-79100000D01*
X142800000Y-79100000D01*
G37*
G36*
X142400000Y-79100000D02*
G01*
X142400000Y-79500000D01*
X142000000Y-79500000D01*
X142000000Y-79100000D01*
X142400000Y-79100000D01*
G37*
G36*
X142000000Y-79100000D02*
G01*
X142000000Y-79500000D01*
X141600000Y-79500000D01*
X141600000Y-79100000D01*
X142000000Y-79100000D01*
G37*
G36*
X141600000Y-79100000D02*
G01*
X141600000Y-79500000D01*
X141200000Y-79500000D01*
X141200000Y-79100000D01*
X141600000Y-79100000D01*
G37*
G36*
X140400000Y-79100000D02*
G01*
X140400000Y-79500000D01*
X140000000Y-79500000D01*
X140000000Y-79100000D01*
X140400000Y-79100000D01*
G37*
G36*
X140000000Y-79100000D02*
G01*
X140000000Y-79500000D01*
X139600000Y-79500000D01*
X139600000Y-79100000D01*
X140000000Y-79100000D01*
G37*
G36*
X138800000Y-79100000D02*
G01*
X138800000Y-79500000D01*
X138400000Y-79500000D01*
X138400000Y-79100000D01*
X138800000Y-79100000D01*
G37*
G36*
X137600000Y-79100000D02*
G01*
X137600000Y-79500000D01*
X137200000Y-79500000D01*
X137200000Y-79100000D01*
X137600000Y-79100000D01*
G37*
G36*
X136800000Y-79100000D02*
G01*
X136800000Y-79500000D01*
X136400000Y-79500000D01*
X136400000Y-79100000D01*
X136800000Y-79100000D01*
G37*
G36*
X136400000Y-79100000D02*
G01*
X136400000Y-79500000D01*
X136000000Y-79500000D01*
X136000000Y-79100000D01*
X136400000Y-79100000D01*
G37*
G36*
X136000000Y-79100000D02*
G01*
X136000000Y-79500000D01*
X135600000Y-79500000D01*
X135600000Y-79100000D01*
X136000000Y-79100000D01*
G37*
G36*
X135200000Y-79100000D02*
G01*
X135200000Y-79500000D01*
X134800000Y-79500000D01*
X134800000Y-79100000D01*
X135200000Y-79100000D01*
G37*
G36*
X134800000Y-79100000D02*
G01*
X134800000Y-79500000D01*
X134400000Y-79500000D01*
X134400000Y-79100000D01*
X134800000Y-79100000D01*
G37*
G36*
X148400000Y-79500000D02*
G01*
X148400000Y-79900000D01*
X148000000Y-79900000D01*
X148000000Y-79500000D01*
X148400000Y-79500000D01*
G37*
G36*
X147200000Y-79500000D02*
G01*
X147200000Y-79900000D01*
X146800000Y-79900000D01*
X146800000Y-79500000D01*
X147200000Y-79500000D01*
G37*
G36*
X146800000Y-79500000D02*
G01*
X146800000Y-79900000D01*
X146400000Y-79900000D01*
X146400000Y-79500000D01*
X146800000Y-79500000D01*
G37*
G36*
X146400000Y-79500000D02*
G01*
X146400000Y-79900000D01*
X146000000Y-79900000D01*
X146000000Y-79500000D01*
X146400000Y-79500000D01*
G37*
G36*
X146000000Y-79500000D02*
G01*
X146000000Y-79900000D01*
X145600000Y-79900000D01*
X145600000Y-79500000D01*
X146000000Y-79500000D01*
G37*
G36*
X144800000Y-79500000D02*
G01*
X144800000Y-79900000D01*
X144400000Y-79900000D01*
X144400000Y-79500000D01*
X144800000Y-79500000D01*
G37*
G36*
X144400000Y-79500000D02*
G01*
X144400000Y-79900000D01*
X144000000Y-79900000D01*
X144000000Y-79500000D01*
X144400000Y-79500000D01*
G37*
G36*
X144000000Y-79500000D02*
G01*
X144000000Y-79900000D01*
X143600000Y-79900000D01*
X143600000Y-79500000D01*
X144000000Y-79500000D01*
G37*
G36*
X142800000Y-79500000D02*
G01*
X142800000Y-79900000D01*
X142400000Y-79900000D01*
X142400000Y-79500000D01*
X142800000Y-79500000D01*
G37*
G36*
X142000000Y-79500000D02*
G01*
X142000000Y-79900000D01*
X141600000Y-79900000D01*
X141600000Y-79500000D01*
X142000000Y-79500000D01*
G37*
G36*
X140000000Y-79500000D02*
G01*
X140000000Y-79900000D01*
X139600000Y-79900000D01*
X139600000Y-79500000D01*
X140000000Y-79500000D01*
G37*
G36*
X138800000Y-79500000D02*
G01*
X138800000Y-79900000D01*
X138400000Y-79900000D01*
X138400000Y-79500000D01*
X138800000Y-79500000D01*
G37*
G36*
X138000000Y-79500000D02*
G01*
X138000000Y-79900000D01*
X137600000Y-79900000D01*
X137600000Y-79500000D01*
X138000000Y-79500000D01*
G37*
G36*
X136400000Y-79500000D02*
G01*
X136400000Y-79900000D01*
X136000000Y-79900000D01*
X136000000Y-79500000D01*
X136400000Y-79500000D01*
G37*
G36*
X134800000Y-79500000D02*
G01*
X134800000Y-79900000D01*
X134400000Y-79900000D01*
X134400000Y-79500000D01*
X134800000Y-79500000D01*
G37*
G36*
X148400000Y-79900000D02*
G01*
X148400000Y-80300000D01*
X148000000Y-80300000D01*
X148000000Y-79900000D01*
X148400000Y-79900000D01*
G37*
G36*
X148000000Y-79900000D02*
G01*
X148000000Y-80300000D01*
X147600000Y-80300000D01*
X147600000Y-79900000D01*
X148000000Y-79900000D01*
G37*
G36*
X147600000Y-79900000D02*
G01*
X147600000Y-80300000D01*
X147200000Y-80300000D01*
X147200000Y-79900000D01*
X147600000Y-79900000D01*
G37*
G36*
X147200000Y-79900000D02*
G01*
X147200000Y-80300000D01*
X146800000Y-80300000D01*
X146800000Y-79900000D01*
X147200000Y-79900000D01*
G37*
G36*
X146800000Y-79900000D02*
G01*
X146800000Y-80300000D01*
X146400000Y-80300000D01*
X146400000Y-79900000D01*
X146800000Y-79900000D01*
G37*
G36*
X146400000Y-79900000D02*
G01*
X146400000Y-80300000D01*
X146000000Y-80300000D01*
X146000000Y-79900000D01*
X146400000Y-79900000D01*
G37*
G36*
X145200000Y-79900000D02*
G01*
X145200000Y-80300000D01*
X144800000Y-80300000D01*
X144800000Y-79900000D01*
X145200000Y-79900000D01*
G37*
G36*
X144400000Y-79900000D02*
G01*
X144400000Y-80300000D01*
X144000000Y-80300000D01*
X144000000Y-79900000D01*
X144400000Y-79900000D01*
G37*
G36*
X143200000Y-79900000D02*
G01*
X143200000Y-80300000D01*
X142800000Y-80300000D01*
X142800000Y-79900000D01*
X143200000Y-79900000D01*
G37*
G36*
X142800000Y-79900000D02*
G01*
X142800000Y-80300000D01*
X142400000Y-80300000D01*
X142400000Y-79900000D01*
X142800000Y-79900000D01*
G37*
G36*
X142400000Y-79900000D02*
G01*
X142400000Y-80300000D01*
X142000000Y-80300000D01*
X142000000Y-79900000D01*
X142400000Y-79900000D01*
G37*
G36*
X142000000Y-79900000D02*
G01*
X142000000Y-80300000D01*
X141600000Y-80300000D01*
X141600000Y-79900000D01*
X142000000Y-79900000D01*
G37*
G36*
X141600000Y-79900000D02*
G01*
X141600000Y-80300000D01*
X141200000Y-80300000D01*
X141200000Y-79900000D01*
X141600000Y-79900000D01*
G37*
G36*
X140400000Y-79900000D02*
G01*
X140400000Y-80300000D01*
X140000000Y-80300000D01*
X140000000Y-79900000D01*
X140400000Y-79900000D01*
G37*
G36*
X139600000Y-79900000D02*
G01*
X139600000Y-80300000D01*
X139200000Y-80300000D01*
X139200000Y-79900000D01*
X139600000Y-79900000D01*
G37*
G36*
X139200000Y-79900000D02*
G01*
X139200000Y-80300000D01*
X138800000Y-80300000D01*
X138800000Y-79900000D01*
X139200000Y-79900000D01*
G37*
G36*
X138000000Y-79900000D02*
G01*
X138000000Y-80300000D01*
X137600000Y-80300000D01*
X137600000Y-79900000D01*
X138000000Y-79900000D01*
G37*
G36*
X137600000Y-79900000D02*
G01*
X137600000Y-80300000D01*
X137200000Y-80300000D01*
X137200000Y-79900000D01*
X137600000Y-79900000D01*
G37*
G36*
X136800000Y-79900000D02*
G01*
X136800000Y-80300000D01*
X136400000Y-80300000D01*
X136400000Y-79900000D01*
X136800000Y-79900000D01*
G37*
G36*
X136000000Y-79900000D02*
G01*
X136000000Y-80300000D01*
X135600000Y-80300000D01*
X135600000Y-79900000D01*
X136000000Y-79900000D01*
G37*
G36*
X135600000Y-79900000D02*
G01*
X135600000Y-80300000D01*
X135200000Y-80300000D01*
X135200000Y-79900000D01*
X135600000Y-79900000D01*
G37*
G36*
X134800000Y-79900000D02*
G01*
X134800000Y-80300000D01*
X134400000Y-80300000D01*
X134400000Y-79900000D01*
X134800000Y-79900000D01*
G37*
G36*
X148400000Y-80300000D02*
G01*
X148400000Y-80700000D01*
X148000000Y-80700000D01*
X148000000Y-80300000D01*
X148400000Y-80300000D01*
G37*
G36*
X148000000Y-80300000D02*
G01*
X148000000Y-80700000D01*
X147600000Y-80700000D01*
X147600000Y-80300000D01*
X148000000Y-80300000D01*
G37*
G36*
X147600000Y-80300000D02*
G01*
X147600000Y-80700000D01*
X147200000Y-80700000D01*
X147200000Y-80300000D01*
X147600000Y-80300000D01*
G37*
G36*
X146800000Y-80300000D02*
G01*
X146800000Y-80700000D01*
X146400000Y-80700000D01*
X146400000Y-80300000D01*
X146800000Y-80300000D01*
G37*
G36*
X145600000Y-80300000D02*
G01*
X145600000Y-80700000D01*
X145200000Y-80700000D01*
X145200000Y-80300000D01*
X145600000Y-80300000D01*
G37*
G36*
X144800000Y-80300000D02*
G01*
X144800000Y-80700000D01*
X144400000Y-80700000D01*
X144400000Y-80300000D01*
X144800000Y-80300000D01*
G37*
G36*
X144400000Y-80300000D02*
G01*
X144400000Y-80700000D01*
X144000000Y-80700000D01*
X144000000Y-80300000D01*
X144400000Y-80300000D01*
G37*
G36*
X144000000Y-80300000D02*
G01*
X144000000Y-80700000D01*
X143600000Y-80700000D01*
X143600000Y-80300000D01*
X144000000Y-80300000D01*
G37*
G36*
X142800000Y-80300000D02*
G01*
X142800000Y-80700000D01*
X142400000Y-80700000D01*
X142400000Y-80300000D01*
X142800000Y-80300000D01*
G37*
G36*
X142000000Y-80300000D02*
G01*
X142000000Y-80700000D01*
X141600000Y-80700000D01*
X141600000Y-80300000D01*
X142000000Y-80300000D01*
G37*
G36*
X140800000Y-80300000D02*
G01*
X140800000Y-80700000D01*
X140400000Y-80700000D01*
X140400000Y-80300000D01*
X140800000Y-80300000D01*
G37*
G36*
X140400000Y-80300000D02*
G01*
X140400000Y-80700000D01*
X140000000Y-80700000D01*
X140000000Y-80300000D01*
X140400000Y-80300000D01*
G37*
G36*
X140000000Y-80300000D02*
G01*
X140000000Y-80700000D01*
X139600000Y-80700000D01*
X139600000Y-80300000D01*
X140000000Y-80300000D01*
G37*
G36*
X139200000Y-80300000D02*
G01*
X139200000Y-80700000D01*
X138800000Y-80700000D01*
X138800000Y-80300000D01*
X139200000Y-80300000D01*
G37*
G36*
X138400000Y-80300000D02*
G01*
X138400000Y-80700000D01*
X138000000Y-80700000D01*
X138000000Y-80300000D01*
X138400000Y-80300000D01*
G37*
G36*
X138000000Y-80300000D02*
G01*
X138000000Y-80700000D01*
X137600000Y-80700000D01*
X137600000Y-80300000D01*
X138000000Y-80300000D01*
G37*
G36*
X137200000Y-80300000D02*
G01*
X137200000Y-80700000D01*
X136800000Y-80700000D01*
X136800000Y-80300000D01*
X137200000Y-80300000D01*
G37*
G36*
X136800000Y-80300000D02*
G01*
X136800000Y-80700000D01*
X136400000Y-80700000D01*
X136400000Y-80300000D01*
X136800000Y-80300000D01*
G37*
G36*
X136400000Y-80300000D02*
G01*
X136400000Y-80700000D01*
X136000000Y-80700000D01*
X136000000Y-80300000D01*
X136400000Y-80300000D01*
G37*
G36*
X136000000Y-80300000D02*
G01*
X136000000Y-80700000D01*
X135600000Y-80700000D01*
X135600000Y-80300000D01*
X136000000Y-80300000D01*
G37*
G36*
X134800000Y-80300000D02*
G01*
X134800000Y-80700000D01*
X134400000Y-80700000D01*
X134400000Y-80300000D01*
X134800000Y-80300000D01*
G37*
G36*
X148400000Y-80700000D02*
G01*
X148400000Y-81100000D01*
X148000000Y-81100000D01*
X148000000Y-80700000D01*
X148400000Y-80700000D01*
G37*
G36*
X147600000Y-80700000D02*
G01*
X147600000Y-81100000D01*
X147200000Y-81100000D01*
X147200000Y-80700000D01*
X147600000Y-80700000D01*
G37*
G36*
X147200000Y-80700000D02*
G01*
X147200000Y-81100000D01*
X146800000Y-81100000D01*
X146800000Y-80700000D01*
X147200000Y-80700000D01*
G37*
G36*
X146000000Y-80700000D02*
G01*
X146000000Y-81100000D01*
X145600000Y-81100000D01*
X145600000Y-80700000D01*
X146000000Y-80700000D01*
G37*
G36*
X144400000Y-80700000D02*
G01*
X144400000Y-81100000D01*
X144000000Y-81100000D01*
X144000000Y-80700000D01*
X144400000Y-80700000D01*
G37*
G36*
X143200000Y-80700000D02*
G01*
X143200000Y-81100000D01*
X142800000Y-81100000D01*
X142800000Y-80700000D01*
X143200000Y-80700000D01*
G37*
G36*
X142800000Y-80700000D02*
G01*
X142800000Y-81100000D01*
X142400000Y-81100000D01*
X142400000Y-80700000D01*
X142800000Y-80700000D01*
G37*
G36*
X142400000Y-80700000D02*
G01*
X142400000Y-81100000D01*
X142000000Y-81100000D01*
X142000000Y-80700000D01*
X142400000Y-80700000D01*
G37*
G36*
X142000000Y-80700000D02*
G01*
X142000000Y-81100000D01*
X141600000Y-81100000D01*
X141600000Y-80700000D01*
X142000000Y-80700000D01*
G37*
G36*
X141600000Y-80700000D02*
G01*
X141600000Y-81100000D01*
X141200000Y-81100000D01*
X141200000Y-80700000D01*
X141600000Y-80700000D01*
G37*
G36*
X140800000Y-80700000D02*
G01*
X140800000Y-81100000D01*
X140400000Y-81100000D01*
X140400000Y-80700000D01*
X140800000Y-80700000D01*
G37*
G36*
X140400000Y-80700000D02*
G01*
X140400000Y-81100000D01*
X140000000Y-81100000D01*
X140000000Y-80700000D01*
X140400000Y-80700000D01*
G37*
G36*
X140000000Y-80700000D02*
G01*
X140000000Y-81100000D01*
X139600000Y-81100000D01*
X139600000Y-80700000D01*
X140000000Y-80700000D01*
G37*
G36*
X137600000Y-80700000D02*
G01*
X137600000Y-81100000D01*
X137200000Y-81100000D01*
X137200000Y-80700000D01*
X137600000Y-80700000D01*
G37*
G36*
X137200000Y-80700000D02*
G01*
X137200000Y-81100000D01*
X136800000Y-81100000D01*
X136800000Y-80700000D01*
X137200000Y-80700000D01*
G37*
G36*
X136800000Y-80700000D02*
G01*
X136800000Y-81100000D01*
X136400000Y-81100000D01*
X136400000Y-80700000D01*
X136800000Y-80700000D01*
G37*
G36*
X135600000Y-80700000D02*
G01*
X135600000Y-81100000D01*
X135200000Y-81100000D01*
X135200000Y-80700000D01*
X135600000Y-80700000D01*
G37*
G36*
X135200000Y-80700000D02*
G01*
X135200000Y-81100000D01*
X134800000Y-81100000D01*
X134800000Y-80700000D01*
X135200000Y-80700000D01*
G37*
G36*
X134800000Y-80700000D02*
G01*
X134800000Y-81100000D01*
X134400000Y-81100000D01*
X134400000Y-80700000D01*
X134800000Y-80700000D01*
G37*
G36*
X148400000Y-81100000D02*
G01*
X148400000Y-81500000D01*
X148000000Y-81500000D01*
X148000000Y-81100000D01*
X148400000Y-81100000D01*
G37*
G36*
X148000000Y-81100000D02*
G01*
X148000000Y-81500000D01*
X147600000Y-81500000D01*
X147600000Y-81100000D01*
X148000000Y-81100000D01*
G37*
G36*
X147200000Y-81100000D02*
G01*
X147200000Y-81500000D01*
X146800000Y-81500000D01*
X146800000Y-81100000D01*
X147200000Y-81100000D01*
G37*
G36*
X146800000Y-81100000D02*
G01*
X146800000Y-81500000D01*
X146400000Y-81500000D01*
X146400000Y-81100000D01*
X146800000Y-81100000D01*
G37*
G36*
X145600000Y-81100000D02*
G01*
X145600000Y-81500000D01*
X145200000Y-81500000D01*
X145200000Y-81100000D01*
X145600000Y-81100000D01*
G37*
G36*
X145200000Y-81100000D02*
G01*
X145200000Y-81500000D01*
X144800000Y-81500000D01*
X144800000Y-81100000D01*
X145200000Y-81100000D01*
G37*
G36*
X144800000Y-81100000D02*
G01*
X144800000Y-81500000D01*
X144400000Y-81500000D01*
X144400000Y-81100000D01*
X144800000Y-81100000D01*
G37*
G36*
X144400000Y-81100000D02*
G01*
X144400000Y-81500000D01*
X144000000Y-81500000D01*
X144000000Y-81100000D01*
X144400000Y-81100000D01*
G37*
G36*
X144000000Y-81100000D02*
G01*
X144000000Y-81500000D01*
X143600000Y-81500000D01*
X143600000Y-81100000D01*
X144000000Y-81100000D01*
G37*
G36*
X142800000Y-81100000D02*
G01*
X142800000Y-81500000D01*
X142400000Y-81500000D01*
X142400000Y-81100000D01*
X142800000Y-81100000D01*
G37*
G36*
X142000000Y-81100000D02*
G01*
X142000000Y-81500000D01*
X141600000Y-81500000D01*
X141600000Y-81100000D01*
X142000000Y-81100000D01*
G37*
G36*
X140800000Y-81100000D02*
G01*
X140800000Y-81500000D01*
X140400000Y-81500000D01*
X140400000Y-81100000D01*
X140800000Y-81100000D01*
G37*
G36*
X140000000Y-81100000D02*
G01*
X140000000Y-81500000D01*
X139600000Y-81500000D01*
X139600000Y-81100000D01*
X140000000Y-81100000D01*
G37*
G36*
X139200000Y-81100000D02*
G01*
X139200000Y-81500000D01*
X138800000Y-81500000D01*
X138800000Y-81100000D01*
X139200000Y-81100000D01*
G37*
G36*
X138800000Y-81100000D02*
G01*
X138800000Y-81500000D01*
X138400000Y-81500000D01*
X138400000Y-81100000D01*
X138800000Y-81100000D01*
G37*
G36*
X137200000Y-81100000D02*
G01*
X137200000Y-81500000D01*
X136800000Y-81500000D01*
X136800000Y-81100000D01*
X137200000Y-81100000D01*
G37*
G36*
X136000000Y-81100000D02*
G01*
X136000000Y-81500000D01*
X135600000Y-81500000D01*
X135600000Y-81100000D01*
X136000000Y-81100000D01*
G37*
G36*
X135600000Y-81100000D02*
G01*
X135600000Y-81500000D01*
X135200000Y-81500000D01*
X135200000Y-81100000D01*
X135600000Y-81100000D01*
G37*
G36*
X134800000Y-81100000D02*
G01*
X134800000Y-81500000D01*
X134400000Y-81500000D01*
X134400000Y-81100000D01*
X134800000Y-81100000D01*
G37*
G36*
X148400000Y-81500000D02*
G01*
X148400000Y-81900000D01*
X148000000Y-81900000D01*
X148000000Y-81500000D01*
X148400000Y-81500000D01*
G37*
G36*
X147600000Y-81500000D02*
G01*
X147600000Y-81900000D01*
X147200000Y-81900000D01*
X147200000Y-81500000D01*
X147600000Y-81500000D01*
G37*
G36*
X147200000Y-81500000D02*
G01*
X147200000Y-81900000D01*
X146800000Y-81900000D01*
X146800000Y-81500000D01*
X147200000Y-81500000D01*
G37*
G36*
X146000000Y-81500000D02*
G01*
X146000000Y-81900000D01*
X145600000Y-81900000D01*
X145600000Y-81500000D01*
X146000000Y-81500000D01*
G37*
G36*
X145600000Y-81500000D02*
G01*
X145600000Y-81900000D01*
X145200000Y-81900000D01*
X145200000Y-81500000D01*
X145600000Y-81500000D01*
G37*
G36*
X144400000Y-81500000D02*
G01*
X144400000Y-81900000D01*
X144000000Y-81900000D01*
X144000000Y-81500000D01*
X144400000Y-81500000D01*
G37*
G36*
X144000000Y-81500000D02*
G01*
X144000000Y-81900000D01*
X143600000Y-81900000D01*
X143600000Y-81500000D01*
X144000000Y-81500000D01*
G37*
G36*
X143200000Y-81500000D02*
G01*
X143200000Y-81900000D01*
X142800000Y-81900000D01*
X142800000Y-81500000D01*
X143200000Y-81500000D01*
G37*
G36*
X142800000Y-81500000D02*
G01*
X142800000Y-81900000D01*
X142400000Y-81900000D01*
X142400000Y-81500000D01*
X142800000Y-81500000D01*
G37*
G36*
X142000000Y-81500000D02*
G01*
X142000000Y-81900000D01*
X141600000Y-81900000D01*
X141600000Y-81500000D01*
X142000000Y-81500000D01*
G37*
G36*
X141600000Y-81500000D02*
G01*
X141600000Y-81900000D01*
X141200000Y-81900000D01*
X141200000Y-81500000D01*
X141600000Y-81500000D01*
G37*
G36*
X140800000Y-81500000D02*
G01*
X140800000Y-81900000D01*
X140400000Y-81900000D01*
X140400000Y-81500000D01*
X140800000Y-81500000D01*
G37*
G36*
X139600000Y-81500000D02*
G01*
X139600000Y-81900000D01*
X139200000Y-81900000D01*
X139200000Y-81500000D01*
X139600000Y-81500000D01*
G37*
G36*
X139200000Y-81500000D02*
G01*
X139200000Y-81900000D01*
X138800000Y-81900000D01*
X138800000Y-81500000D01*
X139200000Y-81500000D01*
G37*
G36*
X138000000Y-81500000D02*
G01*
X138000000Y-81900000D01*
X137600000Y-81900000D01*
X137600000Y-81500000D01*
X138000000Y-81500000D01*
G37*
G36*
X137600000Y-81500000D02*
G01*
X137600000Y-81900000D01*
X137200000Y-81900000D01*
X137200000Y-81500000D01*
X137600000Y-81500000D01*
G37*
G36*
X136400000Y-81500000D02*
G01*
X136400000Y-81900000D01*
X136000000Y-81900000D01*
X136000000Y-81500000D01*
X136400000Y-81500000D01*
G37*
G36*
X136000000Y-81500000D02*
G01*
X136000000Y-81900000D01*
X135600000Y-81900000D01*
X135600000Y-81500000D01*
X136000000Y-81500000D01*
G37*
G36*
X135600000Y-81500000D02*
G01*
X135600000Y-81900000D01*
X135200000Y-81900000D01*
X135200000Y-81500000D01*
X135600000Y-81500000D01*
G37*
G36*
X135200000Y-81500000D02*
G01*
X135200000Y-81900000D01*
X134800000Y-81900000D01*
X134800000Y-81500000D01*
X135200000Y-81500000D01*
G37*
G36*
X134800000Y-81500000D02*
G01*
X134800000Y-81900000D01*
X134400000Y-81900000D01*
X134400000Y-81500000D01*
X134800000Y-81500000D01*
G37*
G36*
X148400000Y-81900000D02*
G01*
X148400000Y-82300000D01*
X148000000Y-82300000D01*
X148000000Y-81900000D01*
X148400000Y-81900000D01*
G37*
G36*
X148000000Y-81900000D02*
G01*
X148000000Y-82300000D01*
X147600000Y-82300000D01*
X147600000Y-81900000D01*
X148000000Y-81900000D01*
G37*
G36*
X147600000Y-81900000D02*
G01*
X147600000Y-82300000D01*
X147200000Y-82300000D01*
X147200000Y-81900000D01*
X147600000Y-81900000D01*
G37*
G36*
X147200000Y-81900000D02*
G01*
X147200000Y-82300000D01*
X146800000Y-82300000D01*
X146800000Y-81900000D01*
X147200000Y-81900000D01*
G37*
G36*
X146400000Y-81900000D02*
G01*
X146400000Y-82300000D01*
X146000000Y-82300000D01*
X146000000Y-81900000D01*
X146400000Y-81900000D01*
G37*
G36*
X145600000Y-81900000D02*
G01*
X145600000Y-82300000D01*
X145200000Y-82300000D01*
X145200000Y-81900000D01*
X145600000Y-81900000D01*
G37*
G36*
X145200000Y-81900000D02*
G01*
X145200000Y-82300000D01*
X144800000Y-82300000D01*
X144800000Y-81900000D01*
X145200000Y-81900000D01*
G37*
G36*
X144800000Y-81900000D02*
G01*
X144800000Y-82300000D01*
X144400000Y-82300000D01*
X144400000Y-81900000D01*
X144800000Y-81900000D01*
G37*
G36*
X142400000Y-81900000D02*
G01*
X142400000Y-82300000D01*
X142000000Y-82300000D01*
X142000000Y-81900000D01*
X142400000Y-81900000D01*
G37*
G36*
X142000000Y-81900000D02*
G01*
X142000000Y-82300000D01*
X141600000Y-82300000D01*
X141600000Y-81900000D01*
X142000000Y-81900000D01*
G37*
G36*
X141200000Y-81900000D02*
G01*
X141200000Y-82300000D01*
X140800000Y-82300000D01*
X140800000Y-81900000D01*
X141200000Y-81900000D01*
G37*
G36*
X140400000Y-81900000D02*
G01*
X140400000Y-82300000D01*
X140000000Y-82300000D01*
X140000000Y-81900000D01*
X140400000Y-81900000D01*
G37*
G36*
X140000000Y-81900000D02*
G01*
X140000000Y-82300000D01*
X139600000Y-82300000D01*
X139600000Y-81900000D01*
X140000000Y-81900000D01*
G37*
G36*
X139200000Y-81900000D02*
G01*
X139200000Y-82300000D01*
X138800000Y-82300000D01*
X138800000Y-81900000D01*
X139200000Y-81900000D01*
G37*
G36*
X138400000Y-81900000D02*
G01*
X138400000Y-82300000D01*
X138000000Y-82300000D01*
X138000000Y-81900000D01*
X138400000Y-81900000D01*
G37*
G36*
X136800000Y-81900000D02*
G01*
X136800000Y-82300000D01*
X136400000Y-82300000D01*
X136400000Y-81900000D01*
X136800000Y-81900000D01*
G37*
G36*
X136400000Y-81900000D02*
G01*
X136400000Y-82300000D01*
X136000000Y-82300000D01*
X136000000Y-81900000D01*
X136400000Y-81900000D01*
G37*
G36*
X134800000Y-81900000D02*
G01*
X134800000Y-82300000D01*
X134400000Y-82300000D01*
X134400000Y-81900000D01*
X134800000Y-81900000D01*
G37*
G36*
X148400000Y-82300000D02*
G01*
X148400000Y-82700000D01*
X148000000Y-82700000D01*
X148000000Y-82300000D01*
X148400000Y-82300000D01*
G37*
G36*
X148000000Y-82300000D02*
G01*
X148000000Y-82700000D01*
X147600000Y-82700000D01*
X147600000Y-82300000D01*
X148000000Y-82300000D01*
G37*
G36*
X146000000Y-82300000D02*
G01*
X146000000Y-82700000D01*
X145600000Y-82700000D01*
X145600000Y-82300000D01*
X146000000Y-82300000D01*
G37*
G36*
X145600000Y-82300000D02*
G01*
X145600000Y-82700000D01*
X145200000Y-82700000D01*
X145200000Y-82300000D01*
X145600000Y-82300000D01*
G37*
G36*
X144800000Y-82300000D02*
G01*
X144800000Y-82700000D01*
X144400000Y-82700000D01*
X144400000Y-82300000D01*
X144800000Y-82300000D01*
G37*
G36*
X144000000Y-82300000D02*
G01*
X144000000Y-82700000D01*
X143600000Y-82700000D01*
X143600000Y-82300000D01*
X144000000Y-82300000D01*
G37*
G36*
X143600000Y-82300000D02*
G01*
X143600000Y-82700000D01*
X143200000Y-82700000D01*
X143200000Y-82300000D01*
X143600000Y-82300000D01*
G37*
G36*
X141200000Y-82300000D02*
G01*
X141200000Y-82700000D01*
X140800000Y-82700000D01*
X140800000Y-82300000D01*
X141200000Y-82300000D01*
G37*
G36*
X140800000Y-82300000D02*
G01*
X140800000Y-82700000D01*
X140400000Y-82700000D01*
X140400000Y-82300000D01*
X140800000Y-82300000D01*
G37*
G36*
X140000000Y-82300000D02*
G01*
X140000000Y-82700000D01*
X139600000Y-82700000D01*
X139600000Y-82300000D01*
X140000000Y-82300000D01*
G37*
G36*
X139600000Y-82300000D02*
G01*
X139600000Y-82700000D01*
X139200000Y-82700000D01*
X139200000Y-82300000D01*
X139600000Y-82300000D01*
G37*
G36*
X138800000Y-82300000D02*
G01*
X138800000Y-82700000D01*
X138400000Y-82700000D01*
X138400000Y-82300000D01*
X138800000Y-82300000D01*
G37*
G36*
X138400000Y-82300000D02*
G01*
X138400000Y-82700000D01*
X138000000Y-82700000D01*
X138000000Y-82300000D01*
X138400000Y-82300000D01*
G37*
G36*
X138000000Y-82300000D02*
G01*
X138000000Y-82700000D01*
X137600000Y-82700000D01*
X137600000Y-82300000D01*
X138000000Y-82300000D01*
G37*
G36*
X137600000Y-82300000D02*
G01*
X137600000Y-82700000D01*
X137200000Y-82700000D01*
X137200000Y-82300000D01*
X137600000Y-82300000D01*
G37*
G36*
X136800000Y-82300000D02*
G01*
X136800000Y-82700000D01*
X136400000Y-82700000D01*
X136400000Y-82300000D01*
X136800000Y-82300000D01*
G37*
G36*
X135600000Y-82300000D02*
G01*
X135600000Y-82700000D01*
X135200000Y-82700000D01*
X135200000Y-82300000D01*
X135600000Y-82300000D01*
G37*
G36*
X134800000Y-82300000D02*
G01*
X134800000Y-82700000D01*
X134400000Y-82700000D01*
X134400000Y-82300000D01*
X134800000Y-82300000D01*
G37*
G36*
X148400000Y-82700000D02*
G01*
X148400000Y-83100000D01*
X148000000Y-83100000D01*
X148000000Y-82700000D01*
X148400000Y-82700000D01*
G37*
G36*
X148000000Y-82700000D02*
G01*
X148000000Y-83100000D01*
X147600000Y-83100000D01*
X147600000Y-82700000D01*
X148000000Y-82700000D01*
G37*
G36*
X147600000Y-82700000D02*
G01*
X147600000Y-83100000D01*
X147200000Y-83100000D01*
X147200000Y-82700000D01*
X147600000Y-82700000D01*
G37*
G36*
X147200000Y-82700000D02*
G01*
X147200000Y-83100000D01*
X146800000Y-83100000D01*
X146800000Y-82700000D01*
X147200000Y-82700000D01*
G37*
G36*
X145600000Y-82700000D02*
G01*
X145600000Y-83100000D01*
X145200000Y-83100000D01*
X145200000Y-82700000D01*
X145600000Y-82700000D01*
G37*
G36*
X145200000Y-82700000D02*
G01*
X145200000Y-83100000D01*
X144800000Y-83100000D01*
X144800000Y-82700000D01*
X145200000Y-82700000D01*
G37*
G36*
X143600000Y-82700000D02*
G01*
X143600000Y-83100000D01*
X143200000Y-83100000D01*
X143200000Y-82700000D01*
X143600000Y-82700000D01*
G37*
G36*
X143200000Y-82700000D02*
G01*
X143200000Y-83100000D01*
X142800000Y-83100000D01*
X142800000Y-82700000D01*
X143200000Y-82700000D01*
G37*
G36*
X142400000Y-82700000D02*
G01*
X142400000Y-83100000D01*
X142000000Y-83100000D01*
X142000000Y-82700000D01*
X142400000Y-82700000D01*
G37*
G36*
X141600000Y-82700000D02*
G01*
X141600000Y-83100000D01*
X141200000Y-83100000D01*
X141200000Y-82700000D01*
X141600000Y-82700000D01*
G37*
G36*
X141200000Y-82700000D02*
G01*
X141200000Y-83100000D01*
X140800000Y-83100000D01*
X140800000Y-82700000D01*
X141200000Y-82700000D01*
G37*
G36*
X140000000Y-82700000D02*
G01*
X140000000Y-83100000D01*
X139600000Y-83100000D01*
X139600000Y-82700000D01*
X140000000Y-82700000D01*
G37*
G36*
X139600000Y-82700000D02*
G01*
X139600000Y-83100000D01*
X139200000Y-83100000D01*
X139200000Y-82700000D01*
X139600000Y-82700000D01*
G37*
G36*
X138800000Y-82700000D02*
G01*
X138800000Y-83100000D01*
X138400000Y-83100000D01*
X138400000Y-82700000D01*
X138800000Y-82700000D01*
G37*
G36*
X137200000Y-82700000D02*
G01*
X137200000Y-83100000D01*
X136800000Y-83100000D01*
X136800000Y-82700000D01*
X137200000Y-82700000D01*
G37*
G36*
X136800000Y-82700000D02*
G01*
X136800000Y-83100000D01*
X136400000Y-83100000D01*
X136400000Y-82700000D01*
X136800000Y-82700000D01*
G37*
G36*
X135600000Y-82700000D02*
G01*
X135600000Y-83100000D01*
X135200000Y-83100000D01*
X135200000Y-82700000D01*
X135600000Y-82700000D01*
G37*
G36*
X135200000Y-82700000D02*
G01*
X135200000Y-83100000D01*
X134800000Y-83100000D01*
X134800000Y-82700000D01*
X135200000Y-82700000D01*
G37*
G36*
X134800000Y-82700000D02*
G01*
X134800000Y-83100000D01*
X134400000Y-83100000D01*
X134400000Y-82700000D01*
X134800000Y-82700000D01*
G37*
G36*
X148400000Y-83100000D02*
G01*
X148400000Y-83500000D01*
X148000000Y-83500000D01*
X148000000Y-83100000D01*
X148400000Y-83100000D01*
G37*
G36*
X148000000Y-83100000D02*
G01*
X148000000Y-83500000D01*
X147600000Y-83500000D01*
X147600000Y-83100000D01*
X148000000Y-83100000D01*
G37*
G36*
X147200000Y-83100000D02*
G01*
X147200000Y-83500000D01*
X146800000Y-83500000D01*
X146800000Y-83100000D01*
X147200000Y-83100000D01*
G37*
G36*
X146400000Y-83100000D02*
G01*
X146400000Y-83500000D01*
X146000000Y-83500000D01*
X146000000Y-83100000D01*
X146400000Y-83100000D01*
G37*
G36*
X146000000Y-83100000D02*
G01*
X146000000Y-83500000D01*
X145600000Y-83500000D01*
X145600000Y-83100000D01*
X146000000Y-83100000D01*
G37*
G36*
X145200000Y-83100000D02*
G01*
X145200000Y-83500000D01*
X144800000Y-83500000D01*
X144800000Y-83100000D01*
X145200000Y-83100000D01*
G37*
G36*
X144800000Y-83100000D02*
G01*
X144800000Y-83500000D01*
X144400000Y-83500000D01*
X144400000Y-83100000D01*
X144800000Y-83100000D01*
G37*
G36*
X144400000Y-83100000D02*
G01*
X144400000Y-83500000D01*
X144000000Y-83500000D01*
X144000000Y-83100000D01*
X144400000Y-83100000D01*
G37*
G36*
X144000000Y-83100000D02*
G01*
X144000000Y-83500000D01*
X143600000Y-83500000D01*
X143600000Y-83100000D01*
X144000000Y-83100000D01*
G37*
G36*
X143600000Y-83100000D02*
G01*
X143600000Y-83500000D01*
X143200000Y-83500000D01*
X143200000Y-83100000D01*
X143600000Y-83100000D01*
G37*
G36*
X142800000Y-83100000D02*
G01*
X142800000Y-83500000D01*
X142400000Y-83500000D01*
X142400000Y-83100000D01*
X142800000Y-83100000D01*
G37*
G36*
X140800000Y-83100000D02*
G01*
X140800000Y-83500000D01*
X140400000Y-83500000D01*
X140400000Y-83100000D01*
X140800000Y-83100000D01*
G37*
G36*
X139200000Y-83100000D02*
G01*
X139200000Y-83500000D01*
X138800000Y-83500000D01*
X138800000Y-83100000D01*
X139200000Y-83100000D01*
G37*
G36*
X138400000Y-83100000D02*
G01*
X138400000Y-83500000D01*
X138000000Y-83500000D01*
X138000000Y-83100000D01*
X138400000Y-83100000D01*
G37*
G36*
X138000000Y-83100000D02*
G01*
X138000000Y-83500000D01*
X137600000Y-83500000D01*
X137600000Y-83100000D01*
X138000000Y-83100000D01*
G37*
G36*
X137600000Y-83100000D02*
G01*
X137600000Y-83500000D01*
X137200000Y-83500000D01*
X137200000Y-83100000D01*
X137600000Y-83100000D01*
G37*
G36*
X136800000Y-83100000D02*
G01*
X136800000Y-83500000D01*
X136400000Y-83500000D01*
X136400000Y-83100000D01*
X136800000Y-83100000D01*
G37*
G36*
X135600000Y-83100000D02*
G01*
X135600000Y-83500000D01*
X135200000Y-83500000D01*
X135200000Y-83100000D01*
X135600000Y-83100000D01*
G37*
G36*
X135200000Y-83100000D02*
G01*
X135200000Y-83500000D01*
X134800000Y-83500000D01*
X134800000Y-83100000D01*
X135200000Y-83100000D01*
G37*
G36*
X134800000Y-83100000D02*
G01*
X134800000Y-83500000D01*
X134400000Y-83500000D01*
X134400000Y-83100000D01*
X134800000Y-83100000D01*
G37*
G36*
X148400000Y-83500000D02*
G01*
X148400000Y-83900000D01*
X148000000Y-83900000D01*
X148000000Y-83500000D01*
X148400000Y-83500000D01*
G37*
G36*
X148000000Y-83500000D02*
G01*
X148000000Y-83900000D01*
X147600000Y-83900000D01*
X147600000Y-83500000D01*
X148000000Y-83500000D01*
G37*
G36*
X147600000Y-83500000D02*
G01*
X147600000Y-83900000D01*
X147200000Y-83900000D01*
X147200000Y-83500000D01*
X147600000Y-83500000D01*
G37*
G36*
X145200000Y-83500000D02*
G01*
X145200000Y-83900000D01*
X144800000Y-83900000D01*
X144800000Y-83500000D01*
X145200000Y-83500000D01*
G37*
G36*
X143200000Y-83500000D02*
G01*
X143200000Y-83900000D01*
X142800000Y-83900000D01*
X142800000Y-83500000D01*
X143200000Y-83500000D01*
G37*
G36*
X142400000Y-83500000D02*
G01*
X142400000Y-83900000D01*
X142000000Y-83900000D01*
X142000000Y-83500000D01*
X142400000Y-83500000D01*
G37*
G36*
X142000000Y-83500000D02*
G01*
X142000000Y-83900000D01*
X141600000Y-83900000D01*
X141600000Y-83500000D01*
X142000000Y-83500000D01*
G37*
G36*
X141600000Y-83500000D02*
G01*
X141600000Y-83900000D01*
X141200000Y-83900000D01*
X141200000Y-83500000D01*
X141600000Y-83500000D01*
G37*
G36*
X141200000Y-83500000D02*
G01*
X141200000Y-83900000D01*
X140800000Y-83900000D01*
X140800000Y-83500000D01*
X141200000Y-83500000D01*
G37*
G36*
X140400000Y-83500000D02*
G01*
X140400000Y-83900000D01*
X140000000Y-83900000D01*
X140000000Y-83500000D01*
X140400000Y-83500000D01*
G37*
G36*
X140000000Y-83500000D02*
G01*
X140000000Y-83900000D01*
X139600000Y-83900000D01*
X139600000Y-83500000D01*
X140000000Y-83500000D01*
G37*
G36*
X139600000Y-83500000D02*
G01*
X139600000Y-83900000D01*
X139200000Y-83900000D01*
X139200000Y-83500000D01*
X139600000Y-83500000D01*
G37*
G36*
X138800000Y-83500000D02*
G01*
X138800000Y-83900000D01*
X138400000Y-83900000D01*
X138400000Y-83500000D01*
X138800000Y-83500000D01*
G37*
G36*
X138400000Y-83500000D02*
G01*
X138400000Y-83900000D01*
X138000000Y-83900000D01*
X138000000Y-83500000D01*
X138400000Y-83500000D01*
G37*
G36*
X138000000Y-83500000D02*
G01*
X138000000Y-83900000D01*
X137600000Y-83900000D01*
X137600000Y-83500000D01*
X138000000Y-83500000D01*
G37*
G36*
X135600000Y-83500000D02*
G01*
X135600000Y-83900000D01*
X135200000Y-83900000D01*
X135200000Y-83500000D01*
X135600000Y-83500000D01*
G37*
G36*
X134800000Y-83500000D02*
G01*
X134800000Y-83900000D01*
X134400000Y-83900000D01*
X134400000Y-83500000D01*
X134800000Y-83500000D01*
G37*
G36*
X148400000Y-83900000D02*
G01*
X148400000Y-84300000D01*
X148000000Y-84300000D01*
X148000000Y-83900000D01*
X148400000Y-83900000D01*
G37*
G36*
X148000000Y-83900000D02*
G01*
X148000000Y-84300000D01*
X147600000Y-84300000D01*
X147600000Y-83900000D01*
X148000000Y-83900000D01*
G37*
G36*
X147600000Y-83900000D02*
G01*
X147600000Y-84300000D01*
X147200000Y-84300000D01*
X147200000Y-83900000D01*
X147600000Y-83900000D01*
G37*
G36*
X147200000Y-83900000D02*
G01*
X147200000Y-84300000D01*
X146800000Y-84300000D01*
X146800000Y-83900000D01*
X147200000Y-83900000D01*
G37*
G36*
X146800000Y-83900000D02*
G01*
X146800000Y-84300000D01*
X146400000Y-84300000D01*
X146400000Y-83900000D01*
X146800000Y-83900000D01*
G37*
G36*
X146400000Y-83900000D02*
G01*
X146400000Y-84300000D01*
X146000000Y-84300000D01*
X146000000Y-83900000D01*
X146400000Y-83900000D01*
G37*
G36*
X146000000Y-83900000D02*
G01*
X146000000Y-84300000D01*
X145600000Y-84300000D01*
X145600000Y-83900000D01*
X146000000Y-83900000D01*
G37*
G36*
X145600000Y-83900000D02*
G01*
X145600000Y-84300000D01*
X145200000Y-84300000D01*
X145200000Y-83900000D01*
X145600000Y-83900000D01*
G37*
G36*
X145200000Y-83900000D02*
G01*
X145200000Y-84300000D01*
X144800000Y-84300000D01*
X144800000Y-83900000D01*
X145200000Y-83900000D01*
G37*
G36*
X144800000Y-83900000D02*
G01*
X144800000Y-84300000D01*
X144400000Y-84300000D01*
X144400000Y-83900000D01*
X144800000Y-83900000D01*
G37*
G36*
X144000000Y-83900000D02*
G01*
X144000000Y-84300000D01*
X143600000Y-84300000D01*
X143600000Y-83900000D01*
X144000000Y-83900000D01*
G37*
G36*
X143600000Y-83900000D02*
G01*
X143600000Y-84300000D01*
X143200000Y-84300000D01*
X143200000Y-83900000D01*
X143600000Y-83900000D01*
G37*
G36*
X141200000Y-83900000D02*
G01*
X141200000Y-84300000D01*
X140800000Y-84300000D01*
X140800000Y-83900000D01*
X141200000Y-83900000D01*
G37*
G36*
X140800000Y-83900000D02*
G01*
X140800000Y-84300000D01*
X140400000Y-84300000D01*
X140400000Y-83900000D01*
X140800000Y-83900000D01*
G37*
G36*
X138800000Y-83900000D02*
G01*
X138800000Y-84300000D01*
X138400000Y-84300000D01*
X138400000Y-83900000D01*
X138800000Y-83900000D01*
G37*
G36*
X138000000Y-83900000D02*
G01*
X138000000Y-84300000D01*
X137600000Y-84300000D01*
X137600000Y-83900000D01*
X138000000Y-83900000D01*
G37*
G36*
X137600000Y-83900000D02*
G01*
X137600000Y-84300000D01*
X137200000Y-84300000D01*
X137200000Y-83900000D01*
X137600000Y-83900000D01*
G37*
G36*
X137200000Y-83900000D02*
G01*
X137200000Y-84300000D01*
X136800000Y-84300000D01*
X136800000Y-83900000D01*
X137200000Y-83900000D01*
G37*
G36*
X136800000Y-83900000D02*
G01*
X136800000Y-84300000D01*
X136400000Y-84300000D01*
X136400000Y-83900000D01*
X136800000Y-83900000D01*
G37*
G36*
X136400000Y-83900000D02*
G01*
X136400000Y-84300000D01*
X136000000Y-84300000D01*
X136000000Y-83900000D01*
X136400000Y-83900000D01*
G37*
G36*
X136000000Y-83900000D02*
G01*
X136000000Y-84300000D01*
X135600000Y-84300000D01*
X135600000Y-83900000D01*
X136000000Y-83900000D01*
G37*
G36*
X135600000Y-83900000D02*
G01*
X135600000Y-84300000D01*
X135200000Y-84300000D01*
X135200000Y-83900000D01*
X135600000Y-83900000D01*
G37*
G36*
X135200000Y-83900000D02*
G01*
X135200000Y-84300000D01*
X134800000Y-84300000D01*
X134800000Y-83900000D01*
X135200000Y-83900000D01*
G37*
G36*
X134800000Y-83900000D02*
G01*
X134800000Y-84300000D01*
X134400000Y-84300000D01*
X134400000Y-83900000D01*
X134800000Y-83900000D01*
G37*
G36*
X148400000Y-84300000D02*
G01*
X148400000Y-84700000D01*
X148000000Y-84700000D01*
X148000000Y-84300000D01*
X148400000Y-84300000D01*
G37*
G36*
X145200000Y-84300000D02*
G01*
X145200000Y-84700000D01*
X144800000Y-84700000D01*
X144800000Y-84300000D01*
X145200000Y-84300000D01*
G37*
G36*
X144400000Y-84300000D02*
G01*
X144400000Y-84700000D01*
X144000000Y-84700000D01*
X144000000Y-84300000D01*
X144400000Y-84300000D01*
G37*
G36*
X143600000Y-84300000D02*
G01*
X143600000Y-84700000D01*
X143200000Y-84700000D01*
X143200000Y-84300000D01*
X143600000Y-84300000D01*
G37*
G36*
X142800000Y-84300000D02*
G01*
X142800000Y-84700000D01*
X142400000Y-84700000D01*
X142400000Y-84300000D01*
X142800000Y-84300000D01*
G37*
G36*
X142000000Y-84300000D02*
G01*
X142000000Y-84700000D01*
X141600000Y-84700000D01*
X141600000Y-84300000D01*
X142000000Y-84300000D01*
G37*
G36*
X141200000Y-84300000D02*
G01*
X141200000Y-84700000D01*
X140800000Y-84700000D01*
X140800000Y-84300000D01*
X141200000Y-84300000D01*
G37*
G36*
X140400000Y-84300000D02*
G01*
X140400000Y-84700000D01*
X140000000Y-84700000D01*
X140000000Y-84300000D01*
X140400000Y-84300000D01*
G37*
G36*
X139600000Y-84300000D02*
G01*
X139600000Y-84700000D01*
X139200000Y-84700000D01*
X139200000Y-84300000D01*
X139600000Y-84300000D01*
G37*
G36*
X138800000Y-84300000D02*
G01*
X138800000Y-84700000D01*
X138400000Y-84700000D01*
X138400000Y-84300000D01*
X138800000Y-84300000D01*
G37*
G36*
X138000000Y-84300000D02*
G01*
X138000000Y-84700000D01*
X137600000Y-84700000D01*
X137600000Y-84300000D01*
X138000000Y-84300000D01*
G37*
G36*
X134800000Y-84300000D02*
G01*
X134800000Y-84700000D01*
X134400000Y-84700000D01*
X134400000Y-84300000D01*
X134800000Y-84300000D01*
G37*
G36*
X148400000Y-84700000D02*
G01*
X148400000Y-85100000D01*
X148000000Y-85100000D01*
X148000000Y-84700000D01*
X148400000Y-84700000D01*
G37*
G36*
X147600000Y-84700000D02*
G01*
X147600000Y-85100000D01*
X147200000Y-85100000D01*
X147200000Y-84700000D01*
X147600000Y-84700000D01*
G37*
G36*
X147200000Y-84700000D02*
G01*
X147200000Y-85100000D01*
X146800000Y-85100000D01*
X146800000Y-84700000D01*
X147200000Y-84700000D01*
G37*
G36*
X146800000Y-84700000D02*
G01*
X146800000Y-85100000D01*
X146400000Y-85100000D01*
X146400000Y-84700000D01*
X146800000Y-84700000D01*
G37*
G36*
X146400000Y-84700000D02*
G01*
X146400000Y-85100000D01*
X146000000Y-85100000D01*
X146000000Y-84700000D01*
X146400000Y-84700000D01*
G37*
G36*
X146000000Y-84700000D02*
G01*
X146000000Y-85100000D01*
X145600000Y-85100000D01*
X145600000Y-84700000D01*
X146000000Y-84700000D01*
G37*
G36*
X145200000Y-84700000D02*
G01*
X145200000Y-85100000D01*
X144800000Y-85100000D01*
X144800000Y-84700000D01*
X145200000Y-84700000D01*
G37*
G36*
X143600000Y-84700000D02*
G01*
X143600000Y-85100000D01*
X143200000Y-85100000D01*
X143200000Y-84700000D01*
X143600000Y-84700000D01*
G37*
G36*
X143200000Y-84700000D02*
G01*
X143200000Y-85100000D01*
X142800000Y-85100000D01*
X142800000Y-84700000D01*
X143200000Y-84700000D01*
G37*
G36*
X142400000Y-84700000D02*
G01*
X142400000Y-85100000D01*
X142000000Y-85100000D01*
X142000000Y-84700000D01*
X142400000Y-84700000D01*
G37*
G36*
X141600000Y-84700000D02*
G01*
X141600000Y-85100000D01*
X141200000Y-85100000D01*
X141200000Y-84700000D01*
X141600000Y-84700000D01*
G37*
G36*
X141200000Y-84700000D02*
G01*
X141200000Y-85100000D01*
X140800000Y-85100000D01*
X140800000Y-84700000D01*
X141200000Y-84700000D01*
G37*
G36*
X140000000Y-84700000D02*
G01*
X140000000Y-85100000D01*
X139600000Y-85100000D01*
X139600000Y-84700000D01*
X140000000Y-84700000D01*
G37*
G36*
X139600000Y-84700000D02*
G01*
X139600000Y-85100000D01*
X139200000Y-85100000D01*
X139200000Y-84700000D01*
X139600000Y-84700000D01*
G37*
G36*
X139200000Y-84700000D02*
G01*
X139200000Y-85100000D01*
X138800000Y-85100000D01*
X138800000Y-84700000D01*
X139200000Y-84700000D01*
G37*
G36*
X138000000Y-84700000D02*
G01*
X138000000Y-85100000D01*
X137600000Y-85100000D01*
X137600000Y-84700000D01*
X138000000Y-84700000D01*
G37*
G36*
X137200000Y-84700000D02*
G01*
X137200000Y-85100000D01*
X136800000Y-85100000D01*
X136800000Y-84700000D01*
X137200000Y-84700000D01*
G37*
G36*
X136800000Y-84700000D02*
G01*
X136800000Y-85100000D01*
X136400000Y-85100000D01*
X136400000Y-84700000D01*
X136800000Y-84700000D01*
G37*
G36*
X136400000Y-84700000D02*
G01*
X136400000Y-85100000D01*
X136000000Y-85100000D01*
X136000000Y-84700000D01*
X136400000Y-84700000D01*
G37*
G36*
X136000000Y-84700000D02*
G01*
X136000000Y-85100000D01*
X135600000Y-85100000D01*
X135600000Y-84700000D01*
X136000000Y-84700000D01*
G37*
G36*
X135600000Y-84700000D02*
G01*
X135600000Y-85100000D01*
X135200000Y-85100000D01*
X135200000Y-84700000D01*
X135600000Y-84700000D01*
G37*
G36*
X134800000Y-84700000D02*
G01*
X134800000Y-85100000D01*
X134400000Y-85100000D01*
X134400000Y-84700000D01*
X134800000Y-84700000D01*
G37*
G36*
X148400000Y-85100000D02*
G01*
X148400000Y-85500000D01*
X148000000Y-85500000D01*
X148000000Y-85100000D01*
X148400000Y-85100000D01*
G37*
G36*
X147600000Y-85100000D02*
G01*
X147600000Y-85500000D01*
X147200000Y-85500000D01*
X147200000Y-85100000D01*
X147600000Y-85100000D01*
G37*
G36*
X146000000Y-85100000D02*
G01*
X146000000Y-85500000D01*
X145600000Y-85500000D01*
X145600000Y-85100000D01*
X146000000Y-85100000D01*
G37*
G36*
X145200000Y-85100000D02*
G01*
X145200000Y-85500000D01*
X144800000Y-85500000D01*
X144800000Y-85100000D01*
X145200000Y-85100000D01*
G37*
G36*
X144800000Y-85100000D02*
G01*
X144800000Y-85500000D01*
X144400000Y-85500000D01*
X144400000Y-85100000D01*
X144800000Y-85100000D01*
G37*
G36*
X144400000Y-85100000D02*
G01*
X144400000Y-85500000D01*
X144000000Y-85500000D01*
X144000000Y-85100000D01*
X144400000Y-85100000D01*
G37*
G36*
X143600000Y-85100000D02*
G01*
X143600000Y-85500000D01*
X143200000Y-85500000D01*
X143200000Y-85100000D01*
X143600000Y-85100000D01*
G37*
G36*
X142800000Y-85100000D02*
G01*
X142800000Y-85500000D01*
X142400000Y-85500000D01*
X142400000Y-85100000D01*
X142800000Y-85100000D01*
G37*
G36*
X142400000Y-85100000D02*
G01*
X142400000Y-85500000D01*
X142000000Y-85500000D01*
X142000000Y-85100000D01*
X142400000Y-85100000D01*
G37*
G36*
X139200000Y-85100000D02*
G01*
X139200000Y-85500000D01*
X138800000Y-85500000D01*
X138800000Y-85100000D01*
X139200000Y-85100000D01*
G37*
G36*
X138800000Y-85100000D02*
G01*
X138800000Y-85500000D01*
X138400000Y-85500000D01*
X138400000Y-85100000D01*
X138800000Y-85100000D01*
G37*
G36*
X138000000Y-85100000D02*
G01*
X138000000Y-85500000D01*
X137600000Y-85500000D01*
X137600000Y-85100000D01*
X138000000Y-85100000D01*
G37*
G36*
X137200000Y-85100000D02*
G01*
X137200000Y-85500000D01*
X136800000Y-85500000D01*
X136800000Y-85100000D01*
X137200000Y-85100000D01*
G37*
G36*
X135600000Y-85100000D02*
G01*
X135600000Y-85500000D01*
X135200000Y-85500000D01*
X135200000Y-85100000D01*
X135600000Y-85100000D01*
G37*
G36*
X134800000Y-85100000D02*
G01*
X134800000Y-85500000D01*
X134400000Y-85500000D01*
X134400000Y-85100000D01*
X134800000Y-85100000D01*
G37*
G36*
X148400000Y-85500000D02*
G01*
X148400000Y-85900000D01*
X148000000Y-85900000D01*
X148000000Y-85500000D01*
X148400000Y-85500000D01*
G37*
G36*
X147600000Y-85500000D02*
G01*
X147600000Y-85900000D01*
X147200000Y-85900000D01*
X147200000Y-85500000D01*
X147600000Y-85500000D01*
G37*
G36*
X146000000Y-85500000D02*
G01*
X146000000Y-85900000D01*
X145600000Y-85900000D01*
X145600000Y-85500000D01*
X146000000Y-85500000D01*
G37*
G36*
X145200000Y-85500000D02*
G01*
X145200000Y-85900000D01*
X144800000Y-85900000D01*
X144800000Y-85500000D01*
X145200000Y-85500000D01*
G37*
G36*
X144400000Y-85500000D02*
G01*
X144400000Y-85900000D01*
X144000000Y-85900000D01*
X144000000Y-85500000D01*
X144400000Y-85500000D01*
G37*
G36*
X144000000Y-85500000D02*
G01*
X144000000Y-85900000D01*
X143600000Y-85900000D01*
X143600000Y-85500000D01*
X144000000Y-85500000D01*
G37*
G36*
X143200000Y-85500000D02*
G01*
X143200000Y-85900000D01*
X142800000Y-85900000D01*
X142800000Y-85500000D01*
X143200000Y-85500000D01*
G37*
G36*
X142800000Y-85500000D02*
G01*
X142800000Y-85900000D01*
X142400000Y-85900000D01*
X142400000Y-85500000D01*
X142800000Y-85500000D01*
G37*
G36*
X142000000Y-85500000D02*
G01*
X142000000Y-85900000D01*
X141600000Y-85900000D01*
X141600000Y-85500000D01*
X142000000Y-85500000D01*
G37*
G36*
X141600000Y-85500000D02*
G01*
X141600000Y-85900000D01*
X141200000Y-85900000D01*
X141200000Y-85500000D01*
X141600000Y-85500000D01*
G37*
G36*
X140800000Y-85500000D02*
G01*
X140800000Y-85900000D01*
X140400000Y-85900000D01*
X140400000Y-85500000D01*
X140800000Y-85500000D01*
G37*
G36*
X140400000Y-85500000D02*
G01*
X140400000Y-85900000D01*
X140000000Y-85900000D01*
X140000000Y-85500000D01*
X140400000Y-85500000D01*
G37*
G36*
X140000000Y-85500000D02*
G01*
X140000000Y-85900000D01*
X139600000Y-85900000D01*
X139600000Y-85500000D01*
X140000000Y-85500000D01*
G37*
G36*
X139600000Y-85500000D02*
G01*
X139600000Y-85900000D01*
X139200000Y-85900000D01*
X139200000Y-85500000D01*
X139600000Y-85500000D01*
G37*
G36*
X139200000Y-85500000D02*
G01*
X139200000Y-85900000D01*
X138800000Y-85900000D01*
X138800000Y-85500000D01*
X139200000Y-85500000D01*
G37*
G36*
X138000000Y-85500000D02*
G01*
X138000000Y-85900000D01*
X137600000Y-85900000D01*
X137600000Y-85500000D01*
X138000000Y-85500000D01*
G37*
G36*
X137200000Y-85500000D02*
G01*
X137200000Y-85900000D01*
X136800000Y-85900000D01*
X136800000Y-85500000D01*
X137200000Y-85500000D01*
G37*
G36*
X135600000Y-85500000D02*
G01*
X135600000Y-85900000D01*
X135200000Y-85900000D01*
X135200000Y-85500000D01*
X135600000Y-85500000D01*
G37*
G36*
X134800000Y-85500000D02*
G01*
X134800000Y-85900000D01*
X134400000Y-85900000D01*
X134400000Y-85500000D01*
X134800000Y-85500000D01*
G37*
G36*
X148400000Y-85900000D02*
G01*
X148400000Y-86300000D01*
X148000000Y-86300000D01*
X148000000Y-85900000D01*
X148400000Y-85900000D01*
G37*
G36*
X147600000Y-85900000D02*
G01*
X147600000Y-86300000D01*
X147200000Y-86300000D01*
X147200000Y-85900000D01*
X147600000Y-85900000D01*
G37*
G36*
X146000000Y-85900000D02*
G01*
X146000000Y-86300000D01*
X145600000Y-86300000D01*
X145600000Y-85900000D01*
X146000000Y-85900000D01*
G37*
G36*
X145200000Y-85900000D02*
G01*
X145200000Y-86300000D01*
X144800000Y-86300000D01*
X144800000Y-85900000D01*
X145200000Y-85900000D01*
G37*
G36*
X144400000Y-85900000D02*
G01*
X144400000Y-86300000D01*
X144000000Y-86300000D01*
X144000000Y-85900000D01*
X144400000Y-85900000D01*
G37*
G36*
X143200000Y-85900000D02*
G01*
X143200000Y-86300000D01*
X142800000Y-86300000D01*
X142800000Y-85900000D01*
X143200000Y-85900000D01*
G37*
G36*
X142800000Y-85900000D02*
G01*
X142800000Y-86300000D01*
X142400000Y-86300000D01*
X142400000Y-85900000D01*
X142800000Y-85900000D01*
G37*
G36*
X142400000Y-85900000D02*
G01*
X142400000Y-86300000D01*
X142000000Y-86300000D01*
X142000000Y-85900000D01*
X142400000Y-85900000D01*
G37*
G36*
X142000000Y-85900000D02*
G01*
X142000000Y-86300000D01*
X141600000Y-86300000D01*
X141600000Y-85900000D01*
X142000000Y-85900000D01*
G37*
G36*
X141600000Y-85900000D02*
G01*
X141600000Y-86300000D01*
X141200000Y-86300000D01*
X141200000Y-85900000D01*
X141600000Y-85900000D01*
G37*
G36*
X140400000Y-85900000D02*
G01*
X140400000Y-86300000D01*
X140000000Y-86300000D01*
X140000000Y-85900000D01*
X140400000Y-85900000D01*
G37*
G36*
X139200000Y-85900000D02*
G01*
X139200000Y-86300000D01*
X138800000Y-86300000D01*
X138800000Y-85900000D01*
X139200000Y-85900000D01*
G37*
G36*
X138800000Y-85900000D02*
G01*
X138800000Y-86300000D01*
X138400000Y-86300000D01*
X138400000Y-85900000D01*
X138800000Y-85900000D01*
G37*
G36*
X138000000Y-85900000D02*
G01*
X138000000Y-86300000D01*
X137600000Y-86300000D01*
X137600000Y-85900000D01*
X138000000Y-85900000D01*
G37*
G36*
X137200000Y-85900000D02*
G01*
X137200000Y-86300000D01*
X136800000Y-86300000D01*
X136800000Y-85900000D01*
X137200000Y-85900000D01*
G37*
G36*
X135600000Y-85900000D02*
G01*
X135600000Y-86300000D01*
X135200000Y-86300000D01*
X135200000Y-85900000D01*
X135600000Y-85900000D01*
G37*
G36*
X134800000Y-85900000D02*
G01*
X134800000Y-86300000D01*
X134400000Y-86300000D01*
X134400000Y-85900000D01*
X134800000Y-85900000D01*
G37*
G36*
X148400000Y-86300000D02*
G01*
X148400000Y-86700000D01*
X148000000Y-86700000D01*
X148000000Y-86300000D01*
X148400000Y-86300000D01*
G37*
G36*
X147600000Y-86300000D02*
G01*
X147600000Y-86700000D01*
X147200000Y-86700000D01*
X147200000Y-86300000D01*
X147600000Y-86300000D01*
G37*
G36*
X147200000Y-86300000D02*
G01*
X147200000Y-86700000D01*
X146800000Y-86700000D01*
X146800000Y-86300000D01*
X147200000Y-86300000D01*
G37*
G36*
X146800000Y-86300000D02*
G01*
X146800000Y-86700000D01*
X146400000Y-86700000D01*
X146400000Y-86300000D01*
X146800000Y-86300000D01*
G37*
G36*
X146400000Y-86300000D02*
G01*
X146400000Y-86700000D01*
X146000000Y-86700000D01*
X146000000Y-86300000D01*
X146400000Y-86300000D01*
G37*
G36*
X146000000Y-86300000D02*
G01*
X146000000Y-86700000D01*
X145600000Y-86700000D01*
X145600000Y-86300000D01*
X146000000Y-86300000D01*
G37*
G36*
X145200000Y-86300000D02*
G01*
X145200000Y-86700000D01*
X144800000Y-86700000D01*
X144800000Y-86300000D01*
X145200000Y-86300000D01*
G37*
G36*
X144800000Y-86300000D02*
G01*
X144800000Y-86700000D01*
X144400000Y-86700000D01*
X144400000Y-86300000D01*
X144800000Y-86300000D01*
G37*
G36*
X144400000Y-86300000D02*
G01*
X144400000Y-86700000D01*
X144000000Y-86700000D01*
X144000000Y-86300000D01*
X144400000Y-86300000D01*
G37*
G36*
X144000000Y-86300000D02*
G01*
X144000000Y-86700000D01*
X143600000Y-86700000D01*
X143600000Y-86300000D01*
X144000000Y-86300000D01*
G37*
G36*
X142800000Y-86300000D02*
G01*
X142800000Y-86700000D01*
X142400000Y-86700000D01*
X142400000Y-86300000D01*
X142800000Y-86300000D01*
G37*
G36*
X142000000Y-86300000D02*
G01*
X142000000Y-86700000D01*
X141600000Y-86700000D01*
X141600000Y-86300000D01*
X142000000Y-86300000D01*
G37*
G36*
X140800000Y-86300000D02*
G01*
X140800000Y-86700000D01*
X140400000Y-86700000D01*
X140400000Y-86300000D01*
X140800000Y-86300000D01*
G37*
G36*
X140400000Y-86300000D02*
G01*
X140400000Y-86700000D01*
X140000000Y-86700000D01*
X140000000Y-86300000D01*
X140400000Y-86300000D01*
G37*
G36*
X139600000Y-86300000D02*
G01*
X139600000Y-86700000D01*
X139200000Y-86700000D01*
X139200000Y-86300000D01*
X139600000Y-86300000D01*
G37*
G36*
X138400000Y-86300000D02*
G01*
X138400000Y-86700000D01*
X138000000Y-86700000D01*
X138000000Y-86300000D01*
X138400000Y-86300000D01*
G37*
G36*
X138000000Y-86300000D02*
G01*
X138000000Y-86700000D01*
X137600000Y-86700000D01*
X137600000Y-86300000D01*
X138000000Y-86300000D01*
G37*
G36*
X137200000Y-86300000D02*
G01*
X137200000Y-86700000D01*
X136800000Y-86700000D01*
X136800000Y-86300000D01*
X137200000Y-86300000D01*
G37*
G36*
X136800000Y-86300000D02*
G01*
X136800000Y-86700000D01*
X136400000Y-86700000D01*
X136400000Y-86300000D01*
X136800000Y-86300000D01*
G37*
G36*
X136400000Y-86300000D02*
G01*
X136400000Y-86700000D01*
X136000000Y-86700000D01*
X136000000Y-86300000D01*
X136400000Y-86300000D01*
G37*
G36*
X136000000Y-86300000D02*
G01*
X136000000Y-86700000D01*
X135600000Y-86700000D01*
X135600000Y-86300000D01*
X136000000Y-86300000D01*
G37*
G36*
X135600000Y-86300000D02*
G01*
X135600000Y-86700000D01*
X135200000Y-86700000D01*
X135200000Y-86300000D01*
X135600000Y-86300000D01*
G37*
G36*
X134800000Y-86300000D02*
G01*
X134800000Y-86700000D01*
X134400000Y-86700000D01*
X134400000Y-86300000D01*
X134800000Y-86300000D01*
G37*
G36*
X148400000Y-86700000D02*
G01*
X148400000Y-87100000D01*
X148000000Y-87100000D01*
X148000000Y-86700000D01*
X148400000Y-86700000D01*
G37*
G36*
X145200000Y-86700000D02*
G01*
X145200000Y-87100000D01*
X144800000Y-87100000D01*
X144800000Y-86700000D01*
X145200000Y-86700000D01*
G37*
G36*
X144400000Y-86700000D02*
G01*
X144400000Y-87100000D01*
X144000000Y-87100000D01*
X144000000Y-86700000D01*
X144400000Y-86700000D01*
G37*
G36*
X143200000Y-86700000D02*
G01*
X143200000Y-87100000D01*
X142800000Y-87100000D01*
X142800000Y-86700000D01*
X143200000Y-86700000D01*
G37*
G36*
X142800000Y-86700000D02*
G01*
X142800000Y-87100000D01*
X142400000Y-87100000D01*
X142400000Y-86700000D01*
X142800000Y-86700000D01*
G37*
G36*
X142400000Y-86700000D02*
G01*
X142400000Y-87100000D01*
X142000000Y-87100000D01*
X142000000Y-86700000D01*
X142400000Y-86700000D01*
G37*
G36*
X142000000Y-86700000D02*
G01*
X142000000Y-87100000D01*
X141600000Y-87100000D01*
X141600000Y-86700000D01*
X142000000Y-86700000D01*
G37*
G36*
X141600000Y-86700000D02*
G01*
X141600000Y-87100000D01*
X141200000Y-87100000D01*
X141200000Y-86700000D01*
X141600000Y-86700000D01*
G37*
G36*
X140400000Y-86700000D02*
G01*
X140400000Y-87100000D01*
X140000000Y-87100000D01*
X140000000Y-86700000D01*
X140400000Y-86700000D01*
G37*
G36*
X140000000Y-86700000D02*
G01*
X140000000Y-87100000D01*
X139600000Y-87100000D01*
X139600000Y-86700000D01*
X140000000Y-86700000D01*
G37*
G36*
X139600000Y-86700000D02*
G01*
X139600000Y-87100000D01*
X139200000Y-87100000D01*
X139200000Y-86700000D01*
X139600000Y-86700000D01*
G37*
G36*
X139200000Y-86700000D02*
G01*
X139200000Y-87100000D01*
X138800000Y-87100000D01*
X138800000Y-86700000D01*
X139200000Y-86700000D01*
G37*
G36*
X138400000Y-86700000D02*
G01*
X138400000Y-87100000D01*
X138000000Y-87100000D01*
X138000000Y-86700000D01*
X138400000Y-86700000D01*
G37*
G36*
X138000000Y-86700000D02*
G01*
X138000000Y-87100000D01*
X137600000Y-87100000D01*
X137600000Y-86700000D01*
X138000000Y-86700000D01*
G37*
G36*
X134800000Y-86700000D02*
G01*
X134800000Y-87100000D01*
X134400000Y-87100000D01*
X134400000Y-86700000D01*
X134800000Y-86700000D01*
G37*
G36*
X148400000Y-87100000D02*
G01*
X148400000Y-87500000D01*
X148000000Y-87500000D01*
X148000000Y-87100000D01*
X148400000Y-87100000D01*
G37*
G36*
X148000000Y-87100000D02*
G01*
X148000000Y-87500000D01*
X147600000Y-87500000D01*
X147600000Y-87100000D01*
X148000000Y-87100000D01*
G37*
G36*
X147600000Y-87100000D02*
G01*
X147600000Y-87500000D01*
X147200000Y-87500000D01*
X147200000Y-87100000D01*
X147600000Y-87100000D01*
G37*
G36*
X147200000Y-87100000D02*
G01*
X147200000Y-87500000D01*
X146800000Y-87500000D01*
X146800000Y-87100000D01*
X147200000Y-87100000D01*
G37*
G36*
X146800000Y-87100000D02*
G01*
X146800000Y-87500000D01*
X146400000Y-87500000D01*
X146400000Y-87100000D01*
X146800000Y-87100000D01*
G37*
G36*
X146400000Y-87100000D02*
G01*
X146400000Y-87500000D01*
X146000000Y-87500000D01*
X146000000Y-87100000D01*
X146400000Y-87100000D01*
G37*
G36*
X146000000Y-87100000D02*
G01*
X146000000Y-87500000D01*
X145600000Y-87500000D01*
X145600000Y-87100000D01*
X146000000Y-87100000D01*
G37*
G36*
X145600000Y-87100000D02*
G01*
X145600000Y-87500000D01*
X145200000Y-87500000D01*
X145200000Y-87100000D01*
X145600000Y-87100000D01*
G37*
G36*
X145200000Y-87100000D02*
G01*
X145200000Y-87500000D01*
X144800000Y-87500000D01*
X144800000Y-87100000D01*
X145200000Y-87100000D01*
G37*
G36*
X144800000Y-87100000D02*
G01*
X144800000Y-87500000D01*
X144400000Y-87500000D01*
X144400000Y-87100000D01*
X144800000Y-87100000D01*
G37*
G36*
X144400000Y-87100000D02*
G01*
X144400000Y-87500000D01*
X144000000Y-87500000D01*
X144000000Y-87100000D01*
X144400000Y-87100000D01*
G37*
G36*
X144000000Y-87100000D02*
G01*
X144000000Y-87500000D01*
X143600000Y-87500000D01*
X143600000Y-87100000D01*
X144000000Y-87100000D01*
G37*
G36*
X143600000Y-87100000D02*
G01*
X143600000Y-87500000D01*
X143200000Y-87500000D01*
X143200000Y-87100000D01*
X143600000Y-87100000D01*
G37*
G36*
X143200000Y-87100000D02*
G01*
X143200000Y-87500000D01*
X142800000Y-87500000D01*
X142800000Y-87100000D01*
X143200000Y-87100000D01*
G37*
G36*
X142800000Y-87100000D02*
G01*
X142800000Y-87500000D01*
X142400000Y-87500000D01*
X142400000Y-87100000D01*
X142800000Y-87100000D01*
G37*
G36*
X142400000Y-87100000D02*
G01*
X142400000Y-87500000D01*
X142000000Y-87500000D01*
X142000000Y-87100000D01*
X142400000Y-87100000D01*
G37*
G36*
X142000000Y-87100000D02*
G01*
X142000000Y-87500000D01*
X141600000Y-87500000D01*
X141600000Y-87100000D01*
X142000000Y-87100000D01*
G37*
G36*
X141600000Y-87100000D02*
G01*
X141600000Y-87500000D01*
X141200000Y-87500000D01*
X141200000Y-87100000D01*
X141600000Y-87100000D01*
G37*
G36*
X141200000Y-87100000D02*
G01*
X141200000Y-87500000D01*
X140800000Y-87500000D01*
X140800000Y-87100000D01*
X141200000Y-87100000D01*
G37*
G36*
X140800000Y-87100000D02*
G01*
X140800000Y-87500000D01*
X140400000Y-87500000D01*
X140400000Y-87100000D01*
X140800000Y-87100000D01*
G37*
G36*
X140400000Y-87100000D02*
G01*
X140400000Y-87500000D01*
X140000000Y-87500000D01*
X140000000Y-87100000D01*
X140400000Y-87100000D01*
G37*
G36*
X140000000Y-87100000D02*
G01*
X140000000Y-87500000D01*
X139600000Y-87500000D01*
X139600000Y-87100000D01*
X140000000Y-87100000D01*
G37*
G36*
X139600000Y-87100000D02*
G01*
X139600000Y-87500000D01*
X139200000Y-87500000D01*
X139200000Y-87100000D01*
X139600000Y-87100000D01*
G37*
G36*
X139200000Y-87100000D02*
G01*
X139200000Y-87500000D01*
X138800000Y-87500000D01*
X138800000Y-87100000D01*
X139200000Y-87100000D01*
G37*
G36*
X138800000Y-87100000D02*
G01*
X138800000Y-87500000D01*
X138400000Y-87500000D01*
X138400000Y-87100000D01*
X138800000Y-87100000D01*
G37*
G36*
X138400000Y-87100000D02*
G01*
X138400000Y-87500000D01*
X138000000Y-87500000D01*
X138000000Y-87100000D01*
X138400000Y-87100000D01*
G37*
G36*
X138000000Y-87100000D02*
G01*
X138000000Y-87500000D01*
X137600000Y-87500000D01*
X137600000Y-87100000D01*
X138000000Y-87100000D01*
G37*
G36*
X137600000Y-87100000D02*
G01*
X137600000Y-87500000D01*
X137200000Y-87500000D01*
X137200000Y-87100000D01*
X137600000Y-87100000D01*
G37*
G36*
X137200000Y-87100000D02*
G01*
X137200000Y-87500000D01*
X136800000Y-87500000D01*
X136800000Y-87100000D01*
X137200000Y-87100000D01*
G37*
G36*
X136800000Y-87100000D02*
G01*
X136800000Y-87500000D01*
X136400000Y-87500000D01*
X136400000Y-87100000D01*
X136800000Y-87100000D01*
G37*
G36*
X136400000Y-87100000D02*
G01*
X136400000Y-87500000D01*
X136000000Y-87500000D01*
X136000000Y-87100000D01*
X136400000Y-87100000D01*
G37*
G36*
X136000000Y-87100000D02*
G01*
X136000000Y-87500000D01*
X135600000Y-87500000D01*
X135600000Y-87100000D01*
X136000000Y-87100000D01*
G37*
G36*
X135600000Y-87100000D02*
G01*
X135600000Y-87500000D01*
X135200000Y-87500000D01*
X135200000Y-87100000D01*
X135600000Y-87100000D01*
G37*
G36*
X135200000Y-87100000D02*
G01*
X135200000Y-87500000D01*
X134800000Y-87500000D01*
X134800000Y-87100000D01*
X135200000Y-87100000D01*
G37*
G36*
X134800000Y-87100000D02*
G01*
X134800000Y-87500000D01*
X134400000Y-87500000D01*
X134400000Y-87100000D01*
X134800000Y-87100000D01*
G37*
D10*
%TO.C,T1*%
X121000000Y-72750000D02*
X122500000Y-74250000D01*
X122500000Y-74250000D02*
X122000000Y-74750000D01*
X122000000Y-74750000D02*
X121500000Y-74250000D01*
X121500000Y-74250000D02*
X121000000Y-74750000D01*
X121000000Y-74750000D02*
X120500000Y-74250000D01*
X120500000Y-74250000D02*
X120000000Y-74750000D01*
X120000000Y-74750000D02*
X119500000Y-74250000D01*
X119500000Y-74250000D02*
X121000000Y-72750000D01*
X120300000Y-74050000D02*
X120200000Y-73950000D01*
X119500000Y-74250000D02*
X119400000Y-74350000D01*
%TD*%
D12*
%TO.C,TP19*%
X109500000Y-77500000D03*
%TD*%
%TO.C,TP18*%
X111750000Y-77500000D03*
%TD*%
%TO.C,TP17*%
X113250000Y-77500000D03*
%TD*%
%TO.C,TP16*%
X122000000Y-81500000D03*
%TD*%
%TO.C,TP15*%
X122000000Y-83000000D03*
%TD*%
%TO.C,TP14*%
X118000000Y-82500000D03*
%TD*%
%TO.C,TP13*%
X118000000Y-78000000D03*
%TD*%
%TO.C,TP12*%
X120000000Y-78000000D03*
%TD*%
%TO.C,TP11*%
X118000000Y-79500000D03*
%TD*%
%TO.C,TP10*%
X122000000Y-80000000D03*
%TD*%
%TO.C,TP9*%
X118000000Y-81000000D03*
%TD*%
%TO.C,TP8*%
X109000000Y-82000000D03*
%TD*%
%TO.C,TP7*%
X114000000Y-86500000D03*
%TD*%
%TO.C,TP6*%
X111000000Y-86500000D03*
%TD*%
%TO.C,TP5*%
X116000000Y-84000000D03*
%TD*%
%TO.C,TP4*%
X114000000Y-84000000D03*
%TD*%
%TO.C,TP3*%
X114750000Y-77500000D03*
%TD*%
%TO.C,TP2*%
X116250000Y-77500000D03*
%TD*%
D13*
%TO.C,J3*%
X130500000Y-74500000D03*
D14*
X130500000Y-76500000D03*
%TD*%
D13*
%TO.C,J2*%
X125750000Y-75700000D03*
D14*
X125750000Y-77700000D03*
%TD*%
D15*
%TO.C,J1*%
X125875000Y-84500000D03*
D16*
X123725000Y-81700000D03*
X123725000Y-87300000D03*
%TD*%
M02*
